<?xml version="1.0" standalone="no"?>
<!DOCTYPE svg PUBLIC "-//W3C//DTD SVG 1.1//EN" "http://www.w3.org/Graphics/SVG/1.1/DTD/svg11.dtd" >
<svg xmlns="http://www.w3.org/2000/svg">
<metadata></metadata>
<defs>
<font id="lg_smartbold" horiz-adv-x="1024" >
<font-face units-per-em="2048" ascent="1466" descent="-582" />
<missing-glyph horiz-adv-x="442" />
<glyph unicode="fi" horiz-adv-x="1073" d="M47 686v180h111v84q0 195 120.5 280t335.5 85q43 0 93.5 -3t99.5 -8.5t93 -12.5t75 -15v-227h-248v98q-55 8 -94 8q-63 0 -107.5 -16.5t-72 -43t-40 -61.5t-12.5 -71v-97h572v-866h-246v686h-326v-686h-243v686h-111z" />
<glyph unicode="fl" horiz-adv-x="1093" d="M47 686v180h111v92q0 100 32.5 169t92 110t145.5 59.5t195 18.5q43 0 93 -3t98 -8.5t89 -12.5t70 -15v-993q0 -39 5 -62.5t16.5 -36t30.5 -16.5t48 -4v-170q-10 -2 -20 -2q-10 -2 -23 -2h-20q-80 0 -134.5 19.5t-86 56t-46 90t-14.5 120.5v867q-27 4 -51 6q-31 2 -51 2 q-63 0 -106.5 -15.5t-70 -42t-38 -59.5t-11.5 -67v-101h215v-180h-215v-686h-243v686h-111z" />
<glyph unicode="&#xd;" horiz-adv-x="419" />
<glyph horiz-adv-x="0" />
<glyph horiz-adv-x="0" />
<glyph unicode=" "  horiz-adv-x="442" />
<glyph unicode="&#x09;" horiz-adv-x="442" />
<glyph unicode="&#xa0;" horiz-adv-x="442" />
<glyph unicode="!" horiz-adv-x="522" d="M123 1245h276l-41 -889h-196zM137 0v231h248v-231h-248z" />
<glyph unicode="&#x22;" horiz-adv-x="880" d="M139 1298h232l-31 -520h-172zM510 1298h232l-31 -520h-172z" />
<glyph unicode="#" d="M121 252v164h139v174h-139v164h139v118h174v-118h154v118h174v-118h139v-164h-139v-174h139v-164h-139v-119h-174v119h-154v-119h-174v119h-139zM434 416h154v174h-154v-174z" />
<glyph unicode="$" horiz-adv-x="1021" d="M51 82l92 186q86 -41 168 -61q68 -16 142 -21v334q-74 27 -146 58q-59 27 -103 55.5t-73 67t-44 89t-15 119.5q0 162 121 256q96 74 260 90v170h137v-168q78 -4 166 -18q113 -20 200 -68l-86 -184q-59 33 -145 53q-66 16 -135 21v-332q82 -31 158 -65q45 -23 85.5 -48.5 t71.5 -62.5t48.5 -89t17.5 -126q0 -166 -127 -260q-98 -74 -254 -88v-158h-137v152q-88 4 -183 22q-115 23 -219 76zM322 930q0 -61 38.5 -94t79.5 -50l13 -6v275q-51 -9 -80 -29q-51 -37 -51 -96zM590 195q51 10 80 30q55 41 55 101q0 27 -10 48t-25.5 36.5t-32 25.5 t-28.5 17q-20 8 -39 16v-274z" />
<glyph unicode="%" horiz-adv-x="1310" d="M27 932q0 76 15 137t48 105.5t84 68t121 23.5q135 0 199.5 -91.5t64.5 -242.5q0 -150 -64.5 -241t-199.5 -91q-139 0 -203.5 91t-64.5 241zM92 -61l903 1368h213l-903 -1368h-213zM197 932q0 -94 22.5 -145.5t75.5 -51.5t73.5 51.5t20.5 145.5t-20.5 147.5t-73.5 53.5 t-75.5 -53.5t-22.5 -147.5zM780 311q0 76 15.5 137.5t48.5 105.5t84 67.5t121 23.5q135 0 199.5 -91t64.5 -243q0 -150 -64.5 -240.5t-199.5 -90.5q-139 0 -204 91t-65 240zM950 311q0 -94 22.5 -145t76.5 -51q53 0 73.5 51t20.5 145t-20.5 147.5t-73.5 53.5t-76 -53 t-23 -148z" />
<glyph unicode="&#x26;" horiz-adv-x="1167" d="M47 328q0 139 88 237q57 63 156 115q-27 35 -47 72q-25 43 -40.5 89t-15.5 93q0 78 29 139.5t79 104.5t119.5 65.5t151.5 22.5q76 0 142.5 -16.5t113.5 -52.5t75 -92t28 -136q0 -86 -35 -147.5t-91.5 -107.5t-129.5 -81q-20 -10 -41 -19l172 -196q25 41 47 88 q41 88 63 168l213 -45q-39 -111 -96 -228q-39 -76 -88 -143l227 -258h-290l-86 98q-43 -33 -91 -59q-109 -59 -247 -59q-90 0 -164 17t-128.5 57t-84 106.5t-29.5 167.5zM299 344q0 -88 48 -130t122 -42q82 0 154 47q18 14 36 29l-239 276q-26 -17 -49 -37 q-31 -27 -51.5 -62.5t-20.5 -80.5zM434 938q0 -72 39 -133q12 -20 29 -43q10 4 18 8q49 20 85 45t56.5 56.5t20.5 76.5q0 61 -28.5 95t-82.5 34q-63 0 -100 -33.5t-37 -105.5z" />
<glyph unicode="'" horiz-adv-x="509" d="M139 1298h232l-31 -520h-172z" />
<glyph unicode="(" horiz-adv-x="684" d="M100 502q0 143 23.5 259t70 218t117 196.5t162.5 192.5l150 -123q-74 -84 -127.5 -165t-87 -169t-50 -188t-16.5 -221t16.5 -223.5t50 -193.5t87 -174t127.5 -165l-150 -123q-92 98 -162.5 194.5t-117 201t-70 222.5t-23.5 261z" />
<glyph unicode=")" horiz-adv-x="684" d="M61 -254q74 82 127.5 165t87 174t50 193.5t16.5 223.5t-16.5 221t-50 188t-87 169t-127.5 165l150 123q92 -98 162.5 -192.5t117 -196.5t70 -218t23.5 -259t-23.5 -261t-70 -222.5t-117 -201t-162.5 -194.5z" />
<glyph unicode="*" horiz-adv-x="880" d="M41 856l74 246l239 -123l-41 266h254l-41 -264l240 121l74 -246l-262 -43l198 -197l-213 -143l-123 238l-123 -238l-215 143l197 197z" />
<glyph unicode="+" horiz-adv-x="1064" d="M121 403v195h307v309h207v-309h309v-195h-309v-307h-207v307h-307z" />
<glyph unicode="," horiz-adv-x="483" d="M31 -207q37 57 57.5 112.5t29.5 109t11 107.5t2 109h225q0 -94 -11 -168.5t-32.5 -138t-54.5 -119t-78 -110.5z" />
<glyph unicode="-" horiz-adv-x="692" d="M92 340v207h508v-207h-508z" />
<glyph unicode="." horiz-adv-x="483" d="M117 0v231h248v-231h-248z" />
<glyph unicode="/" horiz-adv-x="731" d="M0 -61l498 1368h233l-498 -1368h-233z" />
<glyph unicode="0" horiz-adv-x="1064" d="M45 623q0 145 28.5 264t88 203t152 130t218.5 46q127 0 218.5 -46t151 -130t88 -203t28.5 -264t-28.5 -264t-88 -203t-151 -130t-218.5 -46t-219 46t-151.5 130t-88 202.5t-28.5 264.5zM289 623q0 -207 58.5 -330t184.5 -123q123 0 181.5 122t58.5 331q0 207 -58.5 329.5 t-181.5 122.5q-63 0 -109 -31.5t-76 -91t-44 -143.5t-14 -186z" />
<glyph unicode="1" horiz-adv-x="1064" d="M147 1044l410 201h168v-1245h-250v1012l-254 -121z" />
<glyph unicode="2" horiz-adv-x="1064" d="M70 1145q111 61 219 91t213 30q96 0 179 -18.5t144.5 -60.5t96 -110.5t34.5 -171.5q0 -61 -19 -118.5t-52 -109.5t-76 -100.5t-88 -93.5l-297 -290h571v-193h-913v133l457 453q90 88 121.5 162.5t31.5 148.5q0 45 -17.5 78t-47 55.5t-67.5 33.5t-81 11q-86 0 -167 -25.5 t-162 -72.5z" />
<glyph unicode="3" horiz-adv-x="1064" d="M53 131l127 156q53 -41 135 -73t177 -32q51 0 96 11.5t78.5 34t53 59.5t19.5 86q0 88 -65.5 135t-181.5 47q-66 0 -101 -7t-57 -13l-8 204h86q41 0 91 7.5t94 28t73.5 54t29.5 86.5q0 84 -57 120t-141 36q-82 0 -162 -26.5t-141 -71.5l-97 164q61 47 172 88t252 41 q98 0 178 -16.5t137.5 -55.5t89.5 -100.5t32 -149.5q0 -45 -17.5 -85t-45.5 -73.5t-63.5 -59.5t-72.5 -40q104 -37 175 -109.5t71 -205.5q0 -102 -39 -176t-107.5 -121t-162.5 -70.5t-203 -23.5q-141 0 -258 41.5t-187 109.5z" />
<glyph unicode="4" horiz-adv-x="1064" d="M31 258v139l456 848h381v-805h164v-182h-164v-258h-250v258h-587zM285 440h333v613h-16z" />
<glyph unicode="5" horiz-adv-x="1064" d="M74 145l135 156q61 -55 132 -89t161 -34q111 0 172 52.5t61 156.5q0 63 -27.5 105.5t-73.5 68t-107.5 35.5t-129.5 10h-239v639h751v-186h-501v-266h30q113 0 214.5 -16.5t176 -58.5t118.5 -116t44 -190q0 -111 -35.5 -192t-102.5 -134t-158 -79.5t-201 -26.5 q-141 0 -244 46t-176 119z" />
<glyph unicode="6" horiz-adv-x="1064" d="M70 559q0 172 32.5 304t102.5 221t180.5 135t263.5 46q84 0 156 -14t133 -39l-57 -178q-90 39 -215 39q-113 0 -180.5 -41t-103.5 -111.5t-46 -162.5q-2 -6 -2 -15q39 23 90 39q78 23 150 23q205 0 312 -96.5t107 -294.5q0 -94 -29.5 -173t-88 -137.5t-144.5 -91.5 t-196 -33q-111 0 -198 31t-146.5 99.5t-90 179t-30.5 270.5zM324 551q0 -78 8 -146q6 -74 29.5 -127t65.5 -83.5t110 -30.5q205 0 204 233q0 94 -55 151.5t-153 57.5q-63 0 -125 -18q-45 -12 -84 -37z" />
<glyph unicode="7" horiz-adv-x="1064" d="M66 1057v188h933v-127l-454 -1118h-262l434 1057h-651z" />
<glyph unicode="8" horiz-adv-x="1064" d="M49 336q0 61 19.5 113.5t51.5 92.5t74 67.5t85 39.5q-76 29 -134.5 98.5t-58.5 182.5q0 160 116.5 248t327.5 88t329 -88t118 -248q0 -55 -16.5 -101.5t-43 -81t-62.5 -59.5t-73 -39q43 -12 85 -39.5t75 -67.5t52.5 -92.5t19.5 -113.5q0 -180 -130 -268t-354 -88 q-221 0 -351 88t-130 268zM317 356q0 -94 55.5 -144t157.5 -50q96 0 151.5 50t55.5 144q0 90 -55 139.5t-152 49.5q-102 0 -157.5 -49.5t-55.5 -139.5zM342 909q0 -84 49 -130t139 -46q86 0 134.5 46t48.5 130q0 82 -48.5 128t-134.5 46q-90 0 -139 -46t-49 -128z" />
<glyph unicode="9" horiz-adv-x="1064" d="M70 831q0 94 29.5 173t88 137.5t144.5 91.5t196 33q111 0 198 -31t146.5 -99.5t90 -179t30.5 -270.5q0 -172 -32.5 -304t-102.5 -221t-180.5 -135t-263.5 -46q-84 0 -156 14t-133 39l57 178q90 -39 215 -39q113 0 180.5 41t103.5 111.5t46 162.5q2 6 2 15 q-39 -23 -90 -39q-78 -23 -150 -23q-205 0 -312 96.5t-107 294.5zM322 848q0 -94 55 -151.5t153 -57.5q63 0 125 18q45 12 84 37q0 78 -8 146q-6 74 -29.5 127t-65.5 83.5t-110 30.5q-205 0 -204 -233z" />
<glyph unicode=":" horiz-adv-x="483" d="M117 0v231h248v-231h-248zM117 635v231h248v-231h-248z" />
<glyph unicode=";" horiz-adv-x="483" d="M31 -207q37 57 57.5 112.5t29.5 109t11 107.5t2 109h225q0 -94 -11 -168.5t-32.5 -138t-54.5 -119t-78 -110.5zM125 635v231h248v-231h-248z" />
<glyph unicode="&#x3c;" horiz-adv-x="1064" d="M178 502l524 524l152 -137l-377 -377l381 -381l-156 -154z" />
<glyph unicode="=" horiz-adv-x="1064" d="M115 254v192h833v-192h-833zM115 557v193h833v-193h-833z" />
<glyph unicode="&#x3e;" horiz-adv-x="1064" d="M170 873l156 154l524 -525l-524 -524l-152 137l377 377z" />
<glyph unicode="?" horiz-adv-x="847" d="M47 1174q31 18 72 34.5t88 29.5t98 20.5t101 7.5q80 0 149.5 -15.5t120.5 -50.5t80.5 -90t29.5 -137q0 -76 -23.5 -129t-58 -94t-75.5 -74t-76 -69t-58.5 -78t-23.5 -103v-70h-223v117q0 98 43 161.5t95 112t95 91.5t43 98q0 59 -41 92t-131 33q-66 0 -132 -21.5 t-107 -48.5zM238 0v231h247v-231h-247z" />
<glyph unicode="@" horiz-adv-x="1912" d="M76 270q0 246 71.5 432.5t203.5 311.5t318.5 188.5t415.5 63.5q184 0 326.5 -38t240 -120t147.5 -213t50 -317q0 -119 -30.5 -225.5t-93 -187.5t-156.5 -128t-221 -47q-117 0 -193 59q-35 27 -57 66l-15 -17q-35 -35 -80 -61.5t-99 -41.5t-122 -15q-152 0 -224.5 89 t-72.5 234q0 289 149.5 436.5t432.5 147.5q39 0 82 -3t85 -10.5t81 -18.5t67 -26l-94 -475q-4 -18 -6 -37.5t-2 -37.5q0 -41 19.5 -69t66.5 -28q63 0 110.5 31t78 84t46 126t15.5 159q0 143 -34 238t-101.5 151.5t-169 80t-238.5 23.5q-371 0 -567.5 -203.5t-196.5 -601.5 q0 -141 34 -238.5t100.5 -156.5t161.5 -86t218 -27q96 0 175 12.5t176 37.5l53 -181q-92 -29 -193.5 -46t-214.5 -17q-356 0 -549.5 169t-193.5 533zM735 332q0 -90 32 -132t79 -42q59 0 117 39q37 27 67 73l94 443q-30 4 -63 4q-172 0 -249 -102.5t-77 -282.5z" />
<glyph unicode="A" horiz-adv-x="1232" d="M10 0l447 1245h331l435 -1245h-275l-104 324h-465l-105 -324h-264zM444 522h334l-155 531h-17z" />
<glyph unicode="B" horiz-adv-x="1144" d="M133 0v1245h496q98 0 176 -16.5t131 -53t82 -97t29 -146.5q0 -90 -49.5 -159.5t-133.5 -106.5q94 -35 156.5 -110t62.5 -187q0 -98 -33.5 -168t-91 -114t-134 -65.5t-165.5 -21.5h-526zM375 195h246q39 0 75.5 8t63 27.5t43 53t16.5 87.5q0 55 -15.5 90t-43 56.5 t-63 29.5t-74.5 8h-248v-360zM375 741h243q76 0 123 40t47 116q0 47 -14 77t-37.5 47t-54.5 23.5t-66 6.5h-241v-310z" />
<glyph unicode="C" horiz-adv-x="1153" d="M86 623q0 322 150.5 482.5t431.5 160.5q57 0 117.5 -10.5t118 -32t108.5 -55t88 -78.5l-148 -144q-51 59 -118.5 91t-157.5 32q-332 0 -332 -465q0 -414 330 -414q100 0 188 24t166 58l57 -192q-80 -45 -196.5 -72.5t-231.5 -27.5q-305 0 -438 165.5t-133 477.5z" />
<glyph unicode="D" horiz-adv-x="1269" d="M133 0v1245h404q154 0 274.5 -33.5t203.5 -108.5t126 -195t43 -290q0 -174 -53.5 -292.5t-146.5 -190.5t-220 -103.5t-277 -31.5h-354zM383 195h96q102 0 184 21.5t139.5 71.5t88.5 136t31 215q0 211 -104.5 310.5t-287.5 99.5h-147v-854z" />
<glyph unicode="E" horiz-adv-x="1052" d="M133 0v1245h801v-196h-551v-312h532v-192h-532v-348h571v-197h-821z" />
<glyph unicode="F" horiz-adv-x="976" d="M133 0v1245h782v-196h-532v-312h494v-192h-494v-545h-250z" />
<glyph unicode="G" horiz-adv-x="1273" d="M86 623q0 319 165 481t458 162q139 0 258.5 -43t201.5 -142l-151 -135q-53 57 -128 93t-177 36q-182 0 -276.5 -120.5t-94.5 -350.5q0 -213 96.5 -320.5t274.5 -107.5q55 0 112 6q41 6 80 17v293h-258v190h502v-619q-90 -41 -205 -62t-246 -21q-317 0 -464.5 166.5 t-147.5 476.5z" />
<glyph unicode="H" horiz-adv-x="1280" d="M133 0v1245h250v-522h514v522h250v-1245h-250v524h-514v-524h-250z" />
<glyph unicode="I" horiz-adv-x="516" d="M133 0v1245h250v-1245h-250z" />
<glyph unicode="J" horiz-adv-x="702" d="M-10 23l30 182q41 -10 82 -15.5t70 -5.5q70 0 108.5 40t38.5 132v889h250v-868q0 -207 -89 -297t-290 -90q-45 0 -99 8t-101 25z" />
<glyph unicode="K" horiz-adv-x="1148" d="M133 0v1245h250v-526h92l404 526h280l-477 -604l465 -641h-297l-375 526h-92v-526h-250z" />
<glyph unicode="L" horiz-adv-x="903" d="M133 0v1245h250v-1048h510v-197h-760z" />
<glyph unicode="M" horiz-adv-x="1605" d="M133 0v1245h442l230 -1052h16l223 1052h429v-1245h-250v1053h-17l-235 -1053h-332l-240 1053h-16v-1053h-250z" />
<glyph unicode="N" horiz-adv-x="1378" d="M133 0v1245h432l414 -1052h16v1052h250v-1245h-432l-414 1053h-16v-1053h-250z" />
<glyph unicode="O" horiz-adv-x="1306" d="M86 629q0 319 144.5 478t443.5 159q152 0 256 -45t168.5 -129t93.5 -205t29 -271q0 -317 -145.5 -476.5t-444.5 -159.5q-154 0 -257.5 45t-168 130t-92 204.5t-27.5 269.5zM340 608q0 -90 13.5 -169t47 -137t88 -93t138.5 -35q96 0 160.5 31t102.5 90t54.5 146t16.5 200 q0 88 -13.5 167t-45.5 138.5t-87 94t-139 34.5q-94 0 -157.5 -30.5t-103.5 -90t-57.5 -146.5t-17.5 -200z" />
<glyph unicode="P" horiz-adv-x="1087" d="M133 0v1245h467q211 0 326.5 -96t115.5 -289q0 -96 -31.5 -173t-87 -129t-132 -79.5t-166.5 -27.5h-244v-451h-248zM381 645h203q37 0 72.5 11.5t63.5 37t45 66.5t17 100q0 55 -18.5 91t-47 58.5t-63.5 32t-69 9.5h-203v-406z" />
<glyph unicode="Q" horiz-adv-x="1304" d="M86 627q0 322 143.5 480.5t446.5 158.5q154 0 258 -45t167.5 -129t91.5 -205t28 -273q0 -190 -56.5 -314t-144.5 -196q-10 -8 -21 -16l254 -227l-192 -133l-268 270q-84 -18 -164 -18q-152 0 -255.5 44t-168 128t-92 203.5t-27.5 271.5zM340 606q0 -92 12.5 -171t45 -138 t87 -93t140.5 -34q98 0 162.5 29.5t102.5 89t54.5 147.5t16.5 203q0 90 -12.5 169t-43.5 138.5t-86 94t-141 34.5q-96 0 -160.5 -30.5t-104.5 -90t-56.5 -146.5t-16.5 -202z" />
<glyph unicode="R" horiz-adv-x="1128" d="M133 0v1245h488q211 0 326.5 -86t115.5 -278q0 -84 -24.5 -148.5t-68.5 -111t-106 -76.5q-14 -6 -28 -15l266 -530h-271l-241 492h-209v-492h-248zM381 684h229q37 0 73 10.5t62.5 33t43 60t16.5 93.5q0 49 -17.5 81.5t-46 52t-63.5 27t-68 7.5h-229v-365z" />
<glyph unicode="S" horiz-adv-x="1042" d="M61 82l93 186q86 -43 169 -64.5t173 -21.5q131 0 185 41t54 103q0 27 -10 48t-25.5 36.5t-32 26t-28.5 16.5q-74 35 -157 62.5t-165 62.5q-59 27 -103 55.5t-72.5 67t-44 89t-15.5 119.5q0 166 122 261.5t351 95.5q98 0 211 -22.5t201 -72.5l-86 -184q-59 35 -144.5 58.5 t-179.5 23.5q-121 0 -173 -38t-52 -101q0 -61 39 -94t80 -50q61 -27 146 -56.5t161 -63.5q45 -23 86 -48.5t71.5 -63.5t48 -90t17.5 -126q0 -166 -128 -262t-353 -96q-102 0 -218 24.5t-221 77.5z" />
<glyph unicode="T" horiz-adv-x="1003" d="M10 1049v196h983v-196h-366v-1049h-250v1049h-367z" />
<glyph unicode="U" horiz-adv-x="1222" d="M117 508v737h250v-766q0 -145 52 -226t175 -81q143 0 202.5 77t59.5 261v735h250v-749q0 -137 -34 -234.5t-99.5 -160t-160.5 -92t-216 -29.5q-242 0 -360.5 123.5t-118.5 404.5z" />
<glyph unicode="V" horiz-adv-x="1130" d="M0 1245h268l305 -1050h17l284 1050h256l-389 -1245h-331z" />
<glyph unicode="W" horiz-adv-x="1748" d="M0 1245h270l226 -1050h16l186 1050h367l195 -1050h16l217 1050h256l-309 -1245h-357l-198 1053h-17l-190 -1053h-361z" />
<glyph unicode="X" horiz-adv-x="1159" d="M2 0l379 639l-352 606h290l248 -463h37l248 463h281l-355 -600l379 -645h-287l-276 506h-37l-276 -506h-279z" />
<glyph unicode="Y" horiz-adv-x="1140" d="M0 1245h287l276 -497h17l274 497h287l-447 -721v-524h-250v524q-51 80 -108 174.5t-115.5 189.5t-115 187t-105.5 170z" />
<glyph unicode="Z" horiz-adv-x="1071" d="M51 0v156l664 897h-619v192h924v-155l-664 -895h662v-195h-967z" />
<glyph unicode="[" horiz-adv-x="663" d="M74 -377v1671h514v-194h-269v-1284h269v-193h-514z" />
<glyph unicode="\" horiz-adv-x="731" d="M0 1307h233l498 -1368h-233z" />
<glyph unicode="]" horiz-adv-x="663" d="M76 -184h268v1284h-268v194h514v-1671h-514v193z" />
<glyph unicode="^" horiz-adv-x="876" d="M47 584l215 661h356l213 -661h-208l-174 495h-17l-164 -495h-221z" />
<glyph unicode="_" horiz-adv-x="806" d="M63 -82h680v-166h-680v166z" />
<glyph unicode="`" d="M242 1298h272l211 -299h-225z" />
<glyph unicode="a" horiz-adv-x="913" d="M51 254q0 86 27.5 140.5t79 85t123 43t159.5 12.5q29 0 64 -1.5t61 -3.5v41q0 70 -40 107t-128 37q-74 0 -141.5 -18.5t-120.5 -47.5l-49 150q70 37 170 62.5t203 25.5q102 0 169.5 -18.5t108.5 -60.5t58.5 -111.5t17.5 -174.5v-266q0 -53 20.5 -72.5t61.5 -19.5v-164 q-37 -8 -92 -8q-74 0 -122 21.5t-77 66.5q-47 -45 -119.5 -72.5t-136.5 -27.5q-96 0 -153.5 22.5t-90 61t-43 88t-10.5 102.5zM305 262q0 -55 21.5 -86t81.5 -31q33 0 77.5 13.5t79.5 46.5v164q-33 4 -63.5 5t-59.5 1q-78 0 -107.5 -30t-29.5 -83z" />
<glyph unicode="b" horiz-adv-x="980" d="M98 0v1282l246 33v-479q27 14 53 24q76 27 162 27q186 0 274.5 -116t88.5 -312q0 -104 -22.5 -192.5t-73 -152t-130 -99t-192.5 -35.5q-61 0 -117 16q-47 14 -90 43l-16 -39h-183zM344 178q17 -8 31 -14q45 -14 84 -14q45 0 83 14t65.5 48t44 89t16.5 139q0 274 -191 275 q-59 0 -106 -29q-14 -8 -27 -20v-488z" />
<glyph unicode="c" horiz-adv-x="876" d="M63 420q0 236 120 351.5t349 115.5q98 0 182.5 -32t127.5 -85l-137 -131q-35 43 -78 60.5t-97 17.5q-111 0 -165 -68.5t-54 -228.5q0 -129 47.5 -199.5t163.5 -70.5q78 0 134.5 17t117.5 48l45 -156q-47 -33 -131 -56t-190 -23q-238 0 -336.5 112.5t-98.5 327.5z" />
<glyph unicode="d" horiz-adv-x="997" d="M63 408q0 104 23 192t73 151.5t129 99.5t193 36q61 0 115 -17q23 -6 43 -14v426l246 33v-1082l16 -233h-209l-16 51q-43 -29 -90 -45q-74 -26 -160 -26q-188 0 -275.5 115.5t-87.5 312.5zM317 426q0 -274 191 -274q59 0 106 28q12 8 25 19v489q-15 10 -29 14 q-45 14 -84 15q-45 0 -82.5 -14.5t-65.5 -48t-44.5 -89t-16.5 -139.5z" />
<glyph unicode="e" horiz-adv-x="940" d="M63 438q0 449 431 449q119 0 193.5 -32t116.5 -89t57.5 -134t15.5 -169v-88h-562q0 -90 35 -146q46 -75 183 -75h4q102 0 163.5 23.5t116.5 47.5l45 -153q-27 -16 -66.5 -31.5t-89 -30t-102.5 -22.5t-106 -8q-240 0 -337.5 115.5t-97.5 342.5zM317 535h306q0 92 -31 142 t-103 50q-57 0 -92 -17.5t-54 -52t-24 -86.5q-2 -16 -2 -36z" />
<glyph unicode="f" horiz-adv-x="673" d="M31 686v180h125v101q0 98 27.5 164.5t76.5 107.5t117.5 58.5t150.5 17.5q57 0 112.5 -8.5t100.5 -26.5l-51 -172q-59 27 -127 27q-90 0 -126 -39t-36 -117v-113h287v-180h-285v-686h-245v686h-127z" />
<glyph unicode="g" horiz-adv-x="980" d="M63 401q0 106 21.5 195.5t71 154t131.5 100.5t205 36q59 0 107 -14.5t85 -30.5l8 24h191v-886q0 -115 -34 -193t-93.5 -127t-141.5 -70.5t-180 -21.5q-92 0 -168 14.5t-131 36.5l64 166q35 -12 92 -24.5t131 -12.5q98 0 156.5 42t58.5 147v73q-41 -14 -89 -22t-99 -8 q-203 0 -294.5 111.5t-91.5 309.5zM315 416q0 -119 47.5 -194t165.5 -75q25 0 51.5 2.5t57.5 12.5v540q-51 14 -100 15q-119 0 -170.5 -69.5t-51.5 -231.5z" />
<glyph unicode="h" horiz-adv-x="972" d="M98 0v1282l246 33v-496q33 18 70 31q47 18 95 26.5t91 8.5q84 0 138.5 -21.5t87 -60.5t45 -94.5t12.5 -124.5v-584h-246v530q0 33 -3 63t-14.5 52.5t-35 35.5t-64.5 13q-59 0 -104 -16q-41 -16 -72 -37v-641h-246z" />
<glyph unicode="i" horiz-adv-x="446" d="M98 1049v196h250v-196h-250zM100 0v866h246v-866h-246z" />
<glyph unicode="j" horiz-adv-x="446" d="M-35 -256h21q72 0 93 35t21 125v962h246v-932q0 -104 -20.5 -174.5t-65.5 -113.5t-113.5 -60.5t-166.5 -17.5h-15v176zM98 1053v192h248v-192h-248z" />
<glyph unicode="k" horiz-adv-x="911" d="M98 0v1282l244 33v-756h64l258 307h270l-340 -395l352 -471h-272l-275 377h-57v-377h-244z" />
<glyph unicode="l" horiz-adv-x="462" d="M98 276v1006l244 33v-1032q0 -39 5 -62.5t16.5 -36t31 -16.5t47.5 -4v-170q-10 -2 -20 -2q-10 -2 -23 -2h-20q-80 0 -134.5 19.5t-86 56t-46 90t-14.5 120.5z" />
<glyph unicode="m" horiz-adv-x="1431" d="M84 866h227l4 -59q39 29 82 45q84 35 172 35q84 0 138 -23q49 -18 77 -53q41 25 86 41q47 18 96.5 26.5t92.5 8.5q84 0 138 -21.5t86 -60.5t44 -95.5t12 -125.5v-584h-243v530q0 33 -2 64t-12.5 53.5t-32 35.5t-62.5 13q-59 0 -102 -16q-25 -10 -47 -23q4 -35 4 -73v-584 h-244v530q0 33 -2 64t-12.5 53.5t-32 35.5t-62.5 13q-59 0 -102 -16q-23 -10 -43 -23v-657h-244v633z" />
<glyph unicode="n" horiz-adv-x="974" d="M84 866h227l6 -61q43 29 95 47q100 35 188 35q84 0 138.5 -21.5t87 -60.5t45 -95.5t12.5 -125.5v-584h-246v530q0 33 -3 64t-14.5 53.5t-35 35.5t-64.5 13q-59 0 -104 -16q-39 -14 -70 -35v-645h-246v633z" />
<glyph unicode="o" horiz-adv-x="999" d="M63 436q0 225 110 338t345 113q121 0 201 -32t128 -91t68.5 -144t20.5 -192q0 -225 -110.5 -336.5t-346.5 -111.5q-121 0 -200.5 31.5t-128 91t-68 143.5t-19.5 190zM313 422q0 -57 7.5 -107.5t26 -88.5t50 -59.5t82.5 -21.5q121 0 164 76t43 223q0 57 -7 107.5 t-25.5 88.5t-51.5 60.5t-84 22.5q-119 0 -162 -77t-43 -224z" />
<glyph unicode="p" horiz-adv-x="983" d="M84 866h209l16 -51q43 29 88 45q76 27 162 27q186 0 274.5 -116t88.5 -312q0 -104 -22.5 -192.5t-73 -152t-130.5 -99t-192 -35.5q-61 0 -117 16q-20 6 -41 14v-409l-246 -33v1065zM346 176q15 -8 29 -12q45 -14 84 -14q45 0 83 14t65.5 48t44 89t16.5 139 q0 274 -191 275q-59 0 -106 -29q-12 -8 -25 -18v-492z" />
<glyph unicode="q" horiz-adv-x="980" d="M63 408q0 104 23 192t73 151.5t128.5 99.5t193.5 36q61 0 115 -17q47 -12 88 -39l14 35h185v-1265l-246 -33v459q-25 -12 -51 -21q-71 -26 -154 -26h-6q-188 0 -275.5 115.5t-87.5 312.5zM317 426q0 -274 191 -274q59 0 106 28q10 8 23 17v493q-15 8 -27 12 q-45 14 -84 15q-45 0 -82.5 -14.5t-65.5 -48t-44.5 -89t-16.5 -139.5z" />
<glyph unicode="r" horiz-adv-x="712" d="M76 866h227l12 -92q33 41 72 64q84 49 176 49q49 0 86 -9.5t62 -19.5l-58 -192q-43 26 -105 26h-5q-70 0 -133 -35q-33 -16 -62 -49v-608h-246v621z" />
<glyph unicode="s" horiz-adv-x="843" d="M55 45l74 172q53 -29 123 -45t156 -16q70 0 107.5 17t37.5 60q0 55 -117 93q-39 10 -81 22t-74 23q-45 14 -84 33.5t-69 48t-46 68.5t-16 95q0 135 101 203t275 68q111 0 192 -17.5t152 -46.5l-71 -172q-55 29 -125 46.5t-148 17.5q-70 0 -107.5 -18.5t-37.5 -53.5 q0 -31 29 -50.5t88 -37.5q12 -4 32.5 -10t44 -13.5t45 -14.5t37.5 -11q43 -12 83 -30.5t69 -47.5t46 -70t17 -100q0 -139 -100 -208.5t-278 -69.5q-117 0 -200 18t-155 47z" />
<glyph unicode="t" horiz-adv-x="765" d="M23 686v160l145 16v166l246 43v-205h297v-180h-297v-354q0 -33 3 -62.5t14 -52t33.5 -36t63.5 -13.5q51 0 95.5 11t83.5 32l38 -162q-131 -69 -291 -69h-5q-84 0 -138.5 21.5t-85 60t-43 94t-12.5 125.5v405h-147z" />
<glyph unicode="u" horiz-adv-x="966" d="M92 283v583h246v-532q0 -35 3 -64.5t13.5 -52t33 -36t63.5 -13.5q59 0 102 16q37 14 68 35v647h245v-633l17 -233h-228l-8 59q-43 -27 -94 -45q-93 -34 -179 -34h-5q-84 0 -137.5 21.5t-84 60t-43 95t-12.5 126.5z" />
<glyph unicode="v" horiz-adv-x="907" d="M0 866h262l184 -700h19l192 700h250l-297 -866h-321z" />
<glyph unicode="w" horiz-adv-x="1366" d="M10 866h256l135 -700h17l104 700h332l104 -700h17l137 700h244l-226 -866h-335l-103 700h-16l-109 -700h-342z" />
<glyph unicode="x" horiz-adv-x="905" d="M0 0l256 444l-252 422h268l164 -321h31l164 321h262l-252 -417l264 -449h-270l-174 338h-31l-172 -338h-258z" />
<glyph unicode="y" horiz-adv-x="890" d="M0 866h272l179 -585h18l172 585h250l-342 -936q-31 -82 -63.5 -148.5t-81 -114.5t-114 -73.5t-159.5 -25.5q-31 0 -64.5 2t-62.5 12l31 164q33 -6 71 -6q63 0 97.5 19.5t52.5 43.5q23 29 45.5 85.5t42.5 111.5z" />
<glyph unicode="z" horiz-adv-x="854" d="M41 0v141l479 545h-457v180h750v-141l-481 -545h485v-180h-776z" />
<glyph unicode="{" horiz-adv-x="692" d="M31 399v201q59 8 99 47t40 123v322q0 86 25.5 139t70.5 82.5t105.5 40t132.5 10.5h141v-195h-27q-109 0 -154.5 -34.5t-45.5 -128.5v-281q0 -102 -38 -150.5t-120 -62.5v-18q76 -20 117 -65.5t41 -147.5v-285q0 -90 48 -122t152 -32h27v-192h-141q-70 0 -130.5 7 t-105.5 34.5t-71.5 82t-26.5 150.5v305q0 80 -40 121t-99 49z" />
<glyph unicode="|" horiz-adv-x="434" d="M123 -354v1714h188v-1714h-188z" />
<glyph unicode="}" horiz-adv-x="692" d="M47 -158h27q104 0 152 32t48 122v285q0 102 40 147t118 66v18q-82 14 -120 62.5t-38 150.5v281q0 94 -46 128.5t-154 34.5h-27v195h141q70 0 131.5 -10.5t106.5 -40t70.5 -82.5t25.5 -139v-322q0 -84 40 -123t100 -47v-201q-59 -8 -99.5 -49t-40.5 -121v-305 q0 -96 -26.5 -150.5t-71.5 -82t-105.5 -34.5t-130.5 -7h-141v192z" />
<glyph unicode="~" horiz-adv-x="905" d="M43 518q47 47 117.5 78t150.5 31q45 0 82 -9.5t70 -21.5t64.5 -21.5t68.5 -9.5q53 0 99 18.5t87 45.5l78 -144q-47 -47 -117.5 -78.5t-152.5 -31.5q-47 0 -83 10t-67.5 21.5t-63.5 21.5t-69 10q-53 0 -100 -18.5t-88 -46.5z" />
<glyph unicode="&#xa1;" horiz-adv-x="522" d="M123 -379l39 889h196l41 -889h-276zM137 635v231h248v-231h-248z" />
<glyph unicode="&#xa2;" horiz-adv-x="878" d="M41 420q0 213 99.5 326.5t289.5 134.5v159h137v-155q84 -10 154 -41t106 -74l-137 -131q-53 59 -123 72v-559q53 6 99.5 21t93.5 40l41 -152q-39 -27 -97.5 -47t-136.5 -30v-158h-137v156q-211 10 -300 121.5t-89 316.5zM289 420q0 -109 31.5 -175.5t109.5 -86.5v547 q-72 -23 -106.5 -90.5t-34.5 -194.5z" />
<glyph unicode="&#xa3;" horiz-adv-x="946" d="M70 0v168q76 57 105.5 131t29.5 203v4h-131v180h131v191q0 111 32.5 184.5t90 119.5t137.5 65.5t176 19.5q133 0 238 -41l-68 -172q-39 16 -78 23t-80 7q-109 0 -153.5 -48t-44.5 -146v-203h352v-180h-352v-4q0 -117 -27 -185.5t-96 -119.5h532v-197h-794z" />
<glyph unicode="&#xa4;" horiz-adv-x="935" d="M33 215l133 133q-6 12 -12 27q-23 59 -23 129t25 129l10 22l-133 136l145 149l139 -141q10 4 19 8q63 25 137 24q74 0 133 -26q4 -2 10 -4l138 139l149 -149l-137 -136q6 -12 10 -26q25 -59 25 -127t-27 -127q-4 -12 -10 -23l139 -137l-149 -145l-140 139q-8 -4 -18 -8 q-61 -25 -135 -25t-135 25q-4 2 -11 4l-137 -135zM340 502q0 -59 34 -97t87 -38q59 0 96 37.5t37 101.5q0 59 -34 96t-87 37q-59 0 -96 -37t-37 -100z" />
<glyph unicode="&#xa5;" horiz-adv-x="1140" d="M0 1245h287l276 -497h17l274 497h287l-330 -532h217v-138h-303l-31 -51v-59h334v-137h-334v-328h-250v328h-331v137h331v59q-16 25 -34 51h-297v138h213q-51 86 -107 174q-57 96 -113.5 188t-105.5 170z" />
<glyph unicode="&#xa6;" horiz-adv-x="434" d="M123 317h188v-671h-188v671zM123 688v672h188v-672h-188z" />
<glyph unicode="&#xa7;" horiz-adv-x="997" d="M78 424q0 154 117 231q18 12 38 23q-49 33 -79 70q-53 66 -54 192q0 152 111 239t321 87q88 0 191.5 -19.5t183.5 -62.5l-78 -172q-53 31 -130.5 51t-163.5 20q-111 0 -159 -33.5t-48 -91.5q0 -57 35.5 -85.5t72.5 -45.5q57 -25 134 -52t147 -60q43 -20 80 -45t64.5 -61 t44 -84t16.5 -115q0 -154 -117 -232q-20 -14 -41 -24q49 -31 80 -70q55 -63 55 -190q0 -152 -111.5 -239t-320.5 -87q-90 0 -193.5 19.5t-183.5 62.5l78 172q53 -31 132 -51.5t165 -20.5q111 0 158 34t47 91t-36 87t-73 46q-55 23 -133 50.5t-147 60.5q-43 20 -80 44.5 t-64.5 59.5t-43 84t-15.5 117zM301 455q0 -57 27.5 -91t60.5 -51q68 -31 143 -57q20 -6 43 -14q45 12 70 34q51 47 51 103q0 57 -27.5 91t-60.5 50q-68 31 -143 55q-23 8 -45 17q-43 -12 -70 -37q-49 -45 -49 -100z" />
<glyph unicode="&#xa8;" d="M201 1049v196h239v-196h-239zM582 1049v196h239v-196h-239z" />
<glyph unicode="&#xa9;" horiz-adv-x="1503" d="M86 623q0 154 49 272.5t138 201.5t211 126t268 43q145 0 267 -43t211 -126t138 -201.5t49 -272.5t-49 -273t-138 -201.5t-211 -125.5t-267 -43t-267.5 43t-211.5 125.5t-138 201.5t-49 273zM246 623q0 -113 34.5 -205t99 -158.5t159 -102.5t213.5 -36t212 36t158.5 102.5 t100 158.5t34.5 205t-34.5 205t-100 157.5t-159 102t-211.5 36.5q-119 0 -213.5 -36.5t-159 -102t-99 -158t-34.5 -204.5zM406 614q0 184 94 274.5t276 90.5q78 0 143.5 -25.5t100.5 -66.5l-109 -105q-27 35 -61.5 48.5t-75.5 13.5q-88 0 -131 -53.5t-43 -176.5 q0 -92 42 -150t126 -58q61 0 105.5 13t93.5 38l34 -123q-37 -27 -102 -45.5t-151 -18.5q-180 0 -261 92.5t-81 251.5z" />
<glyph unicode="&#xab;" horiz-adv-x="1013" d="M31 432l311 373l162 -127l-203 -244l201 -237l-162 -136zM442 432l326 373l160 -127l-213 -244l215 -237l-164 -136z" />
<glyph unicode="&#xad;" horiz-adv-x="692" d="M92 340v207h508v-207h-508z" />
<glyph unicode="&#xae;" horiz-adv-x="978" d="M55 922q0 100 33 178t90.5 132t137 82.5t173.5 28.5t174 -28.5t138.5 -82.5t90.5 -132t32 -178t-32 -179t-90.5 -132.5t-138 -82t-174.5 -28.5q-94 0 -173.5 28.5t-137 82t-90.5 132t-33 179.5zM160 922q0 -147 88 -238.5t241 -91.5q156 0 243 91.5t87 238.5t-87 238 t-243 91q-78 0 -138 -24.5t-103 -67.5t-65.5 -103.5t-22.5 -133.5zM309 698v453h197q84 0 130 -33t46 -106q0 -47 -20.5 -78t-55.5 -47l99 -189h-142l-86 168h-37v-168h-131zM440 958h62q18 0 31.5 12.5t13.5 41.5q0 27 -14.5 35t-30.5 8h-62v-97z" />
<glyph unicode="&#xaf;" d="M205 1055v184h606v-184h-606z" />
<glyph unicode="&#xb0;" horiz-adv-x="665" d="M20 975q0 133 87.5 212t238.5 79q78 0 134.5 -22.5t93 -62.5t54 -93.5t17.5 -116.5q0 -129 -88 -209t-240 -80q-78 0 -134 22.5t-92 61.5t-53.5 92t-17.5 117zM207 971q0 -47 25.5 -83t86.5 -36q74 0 107 33t33 92q0 47 -25.5 83t-87.5 36q-74 0 -106.5 -35t-32.5 -90z " />
<glyph unicode="&#xb2;" horiz-adv-x="595" d="M33 1184q66 39 134.5 55t121.5 16q106 0 177 -40.5t71 -149.5q0 -63 -44 -117.5t-96 -101.5l-118 -111h270v-131h-502v86l240 232q35 35 50 61.5t15 56.5q0 35 -21.5 59.5t-66.5 24.5q-74 0 -176 -53z" />
<glyph unicode="&#xb3;" horiz-adv-x="595" d="M33 678l78 102q33 -25 75.5 -38t85.5 -13q45 0 75 18.5t30 57.5q0 35 -32 54.5t-83 19.5q-27 0 -42 -1t-44 -6v119h62q18 0 39.5 4t40 13.5t30.5 22.5t12 34q0 31 -28.5 46t-61.5 15q-49 0 -87 -13t-72 -38l-60 111q37 29 100.5 50t139.5 21q109 0 174 -38.5t65 -133.5 q0 -47 -30.5 -79.5t-73.5 -44.5q55 -16 92 -57.5t37 -104.5q0 -102 -80 -154.5t-199 -52.5q-76 0 -137 22.5t-106 63.5z" />
<glyph unicode="&#xb4;" d="M295 999l211 299h272l-258 -299h-225z" />
<glyph unicode="&#xb6;" horiz-adv-x="1161" d="M63 821q0 102 19.5 181t68 133.5t128 82t200.5 27.5h549v-1644l-168 -23v1475h-149v-1452l-168 -23v842h-107q-113 0 -185.5 30.5t-113.5 85t-57.5 127t-16.5 158.5z" />
<glyph unicode="&#xb7;" horiz-adv-x="483" d="M117 385v231h248v-231h-248z" />
<glyph unicode="&#xb8;" d="M270 -397l54 133q33 -10 59.5 -15.5t58.5 -5.5q47 0 74 16.5t27 53.5q0 25 -8.5 41t-27 26.5t-50 16.5t-76.5 14l43 115q170 -10 257 -54t87 -157q0 -115 -70.5 -166t-224.5 -51q-57 0 -112.5 10t-90.5 23z" />
<glyph unicode="&#xb9;" horiz-adv-x="595" d="M70 1137l233 110h115v-643h-166v483l-129 -59z" />
<glyph unicode="&#xbb;" horiz-adv-x="1013" d="M84 669l164 136l324 -371l-326 -373l-160 127l213 244zM510 188l203 244l-201 237l162 136l309 -371l-311 -373z" />
<glyph unicode="&#xbd;" horiz-adv-x="1310" d="M88 1139l234 110h114v-645h-166v486l-129 -60zM92 -61l903 1368h213l-903 -1368h-213zM797 580q66 39 134 55t122 16q106 0 176.5 -41t70.5 -149q0 -63 -44 -117.5t-95 -101.5l-119 -111h271v-131h-502v86l240 231q35 35 50 62t15 57q0 35 -21.5 59.5t-66.5 24.5 q-74 0 -176 -53z" />
<glyph unicode="&#xbf;" horiz-adv-x="847" d="M62 -107q0 76 23.5 129t58 94t75.5 74t76 69t58.5 78t23.5 103v70h223v-117q0 -98 -43 -161.5t-95 -112t-95 -91.5t-43 -98q0 -59 41 -92t131 -33q66 0 132 21.5t107 48.5l66 -183q-31 -18 -72 -34.5t-88 -29.5t-98 -20.5t-101 -7.5q-80 0 -149.5 15.5t-120.5 50.5 t-80.5 90t-29.5 137zM363 635v231h247v-231h-247z" />
<glyph unicode="&#xc0;" horiz-adv-x="1232" d="M10 0l447 1245h331l435 -1245h-275l-104 324h-465l-105 -324h-264zM301 1679h272l211 -299h-225zM444 522h334l-155 531h-17z" />
<glyph unicode="&#xc1;" horiz-adv-x="1232" d="M10 0l447 1245h331l435 -1245h-275l-104 324h-465l-105 -324h-264zM444 522h334l-155 531h-17zM469 1380l211 299h272l-258 -299h-225z" />
<glyph unicode="&#xc2;" horiz-adv-x="1232" d="M10 0l447 1245h331l435 -1245h-275l-104 324h-465l-105 -324h-264zM279 1378l198 299h306l190 -299h-213l-123 177h-20l-131 -177h-207zM444 522h334l-155 531h-17z" />
<glyph unicode="&#xc3;" horiz-adv-x="1232" d="M10 0l447 1245h331l435 -1245h-275l-104 324h-465l-105 -324h-264zM263 1542q41 45 103 76t134 31q41 0 73 -9.5t60.5 -21.5t56 -21.5t60.5 -9.5q47 0 88 18.5t78 45.5l67 -142q-41 -45 -103 -75.5t-134 -30.5q-41 0 -73 9t-60.5 21.5t-56 21.5t-60.5 9q-47 0 -88 -18 t-78 -45zM444 522h334l-155 531h-17z" />
<glyph unicode="&#xc4;" horiz-adv-x="1232" d="M10 0l447 1245h331l435 -1245h-275l-104 324h-465l-105 -324h-264zM305 1428v196h239v-196h-239zM444 522h334l-155 531h-17zM686 1428v196h239v-196h-239z" />
<glyph unicode="&#xc5;" horiz-adv-x="1232" d="M10 0l447 1245h331l435 -1245h-275l-104 324h-465l-105 -324h-264zM387 1544q0 98 61.5 153.5t177.5 55.5q123 0 172.5 -60.5t49.5 -150.5q0 -98 -61.5 -152.5t-178.5 -54.5q-123 0 -172 59.5t-49 149.5zM444 522h334l-155 531h-17zM534 1544q0 -80 80 -80q84 0 84 80 q0 78 -78 78q-86 0 -86 -78z" />
<glyph unicode="&#xc6;" horiz-adv-x="1769" d="M-20 0l739 1245h932v-196h-561l18 -312h524v-192h-514l19 -348h534v-197h-772l-16 324h-459l-188 -324h-256zM537 522h337l-26 527h-17z" />
<glyph unicode="&#xc7;" horiz-adv-x="1153" d="M86 623q0 322 150.5 482.5t431.5 160.5q57 0 117.5 -10.5t118 -32t108.5 -55t88 -78.5l-148 -144q-51 59 -118.5 91t-157.5 32q-332 0 -332 -465q0 -414 330 -414q100 0 188 24t166 58l57 -192q-80 -45 -196.5 -72.5t-231.5 -27.5q-305 0 -438 165.5t-133 477.5z M379 -397l54 133q33 -10 59.5 -15.5t58.5 -5.5q47 0 74 16.5t27 53.5q0 25 -8.5 41t-27 26.5t-50 16.5t-76.5 14l43 115q170 -10 257 -54t87 -157q0 -115 -70.5 -166t-224.5 -51q-57 0 -112.5 10t-90.5 23z" />
<glyph unicode="&#xc8;" horiz-adv-x="1052" d="M133 0v1245h801v-196h-551v-312h532v-192h-532v-348h571v-197h-821zM203 1679h272l211 -299h-225z" />
<glyph unicode="&#xc9;" horiz-adv-x="1052" d="M133 0v1245h801v-196h-551v-312h532v-192h-532v-348h571v-197h-821zM389 1380l211 299h272l-258 -299h-225z" />
<glyph unicode="&#xca;" horiz-adv-x="1052" d="M133 0v1245h801v-196h-551v-312h532v-192h-532v-348h571v-197h-821zM197 1378l198 299h306l190 -299h-213l-123 177h-20l-131 -177h-207z" />
<glyph unicode="&#xcb;" horiz-adv-x="1052" d="M133 0v1245h801v-196h-551v-312h532v-192h-532v-348h571v-197h-821zM228 1399v196h239v-196h-239zM609 1399v196h239v-196h-239z" />
<glyph unicode="&#xcc;" horiz-adv-x="516" d="M-71 1679h272l211 -299h-225zM133 0v1245h250v-1245h-250z" />
<glyph unicode="&#xcd;" horiz-adv-x="516" d="M129 1380l211 299h272l-258 -299h-225zM133 0v1245h250v-1245h-250z" />
<glyph unicode="&#xce;" horiz-adv-x="516" d="M-84 1378l198 299h306l190 -299h-213l-123 177h-20l-131 -177h-207zM133 0v1245h250v-1245h-250z" />
<glyph unicode="&#xcf;" horiz-adv-x="516" d="M-47 1399v196h239v-196h-239zM133 0v1245h250v-1245h-250zM334 1399v196h239v-196h-239z" />
<glyph unicode="&#xd0;" horiz-adv-x="1294" d="M31 526v195h628v-195h-628zM158 0v1245h403q154 0 274.5 -33.5t203.5 -108.5t126 -195t43 -290q0 -174 -53 -292.5t-146.5 -190.5t-220 -103.5t-276.5 -31.5h-354zM408 195h96q102 0 184 21.5t139.5 71.5t88 136t30.5 215q0 211 -104.5 310.5t-286.5 99.5h-147v-854z" />
<glyph unicode="&#xd1;" horiz-adv-x="1378" d="M133 0v1245h432l414 -1052h16v1052h250v-1245h-432l-414 1053h-16v-1053h-250zM351 1548q41 45 103 76t134 31q41 0 73 -9.5t60.5 -21.5t56 -21.5t60.5 -9.5q47 0 88 18.5t78 45.5l67 -142q-41 -45 -103 -75.5t-134 -30.5q-41 0 -73 9t-60.5 21.5t-56 21.5t-60.5 9 q-47 0 -88 -18t-78 -45z" />
<glyph unicode="&#xd2;" horiz-adv-x="1306" d="M86 629q0 319 144.5 478t443.5 159q152 0 256 -45t168.5 -129t93.5 -205t29 -271q0 -317 -145.5 -476.5t-444.5 -159.5q-154 0 -257.5 45t-168 130t-92 204.5t-27.5 269.5zM340 608q0 -90 13.5 -169t47 -137t88 -93t138.5 -35q96 0 160.5 31t102.5 90t54.5 146t16.5 200 q0 88 -13.5 167t-45.5 138.5t-87 94t-139 34.5q-94 0 -157.5 -30.5t-103.5 -90t-57.5 -146.5t-17.5 -200zM342 1679h272l211 -299h-225z" />
<glyph unicode="&#xd3;" horiz-adv-x="1306" d="M86 629q0 319 144.5 478t443.5 159q152 0 256 -45t168.5 -129t93.5 -205t29 -271q0 -317 -145.5 -476.5t-444.5 -159.5q-154 0 -257.5 45t-168 130t-92 204.5t-27.5 269.5zM340 608q0 -90 13.5 -169t47 -137t88 -93t138.5 -35q96 0 160.5 31t102.5 90t54.5 146t16.5 200 q0 88 -13.5 167t-45.5 138.5t-87 94t-139 34.5q-94 0 -157.5 -30.5t-103.5 -90t-57.5 -146.5t-17.5 -200zM469 1380l211 299h272l-258 -299h-225z" />
<glyph unicode="&#xd4;" horiz-adv-x="1306" d="M86 629q0 319 144.5 478t443.5 159q152 0 256 -45t168.5 -129t93.5 -205t29 -271q0 -317 -145.5 -476.5t-444.5 -159.5q-154 0 -257.5 45t-168 130t-92 204.5t-27.5 269.5zM309 1378l198 299h306l190 -299h-213l-123 177h-20l-131 -177h-207zM340 608q0 -90 13.5 -169 t47 -137t88 -93t138.5 -35q96 0 160.5 31t102.5 90t54.5 146t16.5 200q0 88 -13.5 167t-45.5 138.5t-87 94t-139 34.5q-94 0 -157.5 -30.5t-103.5 -90t-57.5 -146.5t-17.5 -200z" />
<glyph unicode="&#xd5;" horiz-adv-x="1306" d="M86 629q0 319 144.5 478t443.5 159q152 0 256 -45t168.5 -129t93.5 -205t29 -271q0 -317 -145.5 -476.5t-444.5 -159.5q-154 0 -257.5 45t-168 130t-92 204.5t-27.5 269.5zM304 1542q41 45 103 76t134 31q41 0 73 -9.5t60.5 -21.5t56 -21.5t60.5 -9.5q47 0 88 18.5 t78 45.5l67 -142q-41 -45 -103 -75.5t-134 -30.5q-41 0 -73 9t-60.5 21.5t-56 21.5t-60.5 9q-47 0 -88 -18t-78 -45zM340 608q0 -90 13.5 -169t47 -137t88 -93t138.5 -35q96 0 160.5 31t102.5 90t54.5 146t16.5 200q0 88 -13.5 167t-45.5 138.5t-87 94t-139 34.5 q-94 0 -157.5 -30.5t-103.5 -90t-57.5 -146.5t-17.5 -200z" />
<glyph unicode="&#xd6;" horiz-adv-x="1306" d="M86 629q0 319 144.5 478t443.5 159q152 0 256 -45t168.5 -129t93.5 -205t29 -271q0 -317 -145.5 -476.5t-444.5 -159.5q-154 0 -257.5 45t-168 130t-92 204.5t-27.5 269.5zM340 608q0 -90 13.5 -169t47 -137t88 -93t138.5 -35q96 0 160.5 31t102.5 90t54.5 146t16.5 200 q0 88 -13.5 167t-45.5 138.5t-87 94t-139 34.5q-94 0 -157.5 -30.5t-103.5 -90t-57.5 -146.5t-17.5 -200zM346 1399v196h239v-196h-239zM727 1399v196h239v-196h-239z" />
<glyph unicode="&#xd7;" horiz-adv-x="1064" d="M100 225l277 277l-277 278l154 154l276 -279l279 279l154 -154l-279 -278l279 -277l-154 -153l-279 276l-276 -276z" />
<glyph unicode="&#xd8;" horiz-adv-x="1306" d="M61 -12l132 178q-55 80 -80 190q-27 121 -27 271q0 322 144.5 481.5t443.5 159.5q152 0 256 -45q16 -8 31 -17l116 158l150 -98l-129 -174q66 -84 94.5 -205t28.5 -273q0 -317 -145.5 -479t-444.5 -162q-154 0 -258 45q-25 12 -47 25l-115 -154zM330 606q0 -90 12 -172 q4 -27 10 -51l486 657q-7 7 -13 11q-57 37 -149 36q-94 0 -159.5 -32.5t-107.5 -94t-60.5 -151.5t-18.5 -203zM451 213q12 -10 26 -18q59 -37 150 -37q96 0 161.5 32.5t106.5 94t58.5 150.5t17.5 204q0 88 -13 170q-4 39 -16 72z" />
<glyph unicode="&#xd9;" horiz-adv-x="1222" d="M117 508v737h250v-766q0 -145 52 -226t175 -81q143 0 202.5 77t59.5 261v735h250v-749q0 -137 -34 -234.5t-99.5 -160t-160.5 -92t-216 -29.5q-242 0 -360.5 123.5t-118.5 404.5zM281 1679h272l211 -299h-225z" />
<glyph unicode="&#xda;" horiz-adv-x="1222" d="M117 508v737h250v-766q0 -145 52 -226t175 -81q143 0 202.5 77t59.5 261v735h250v-749q0 -137 -34 -234.5t-99.5 -160t-160.5 -92t-216 -29.5q-242 0 -360.5 123.5t-118.5 404.5zM449 1380l211 299h272l-258 -299h-225z" />
<glyph unicode="&#xdb;" horiz-adv-x="1222" d="M117 508v737h250v-766q0 -145 52 -226t175 -81q143 0 202.5 77t59.5 261v735h250v-749q0 -137 -34 -234.5t-99.5 -160t-160.5 -92t-216 -29.5q-242 0 -360.5 123.5t-118.5 404.5zM260 1378l198 299h306l190 -299h-213l-123 177h-20l-131 -177h-207z" />
<glyph unicode="&#xdc;" horiz-adv-x="1222" d="M117 508v737h250v-766q0 -145 52 -226t175 -81q143 0 202.5 77t59.5 261v735h250v-749q0 -137 -34 -234.5t-99.5 -160t-160.5 -92t-216 -29.5q-242 0 -360.5 123.5t-118.5 404.5zM303 1399v196h239v-196h-239zM684 1399v196h239v-196h-239z" />
<glyph unicode="&#xdd;" horiz-adv-x="1140" d="M0 1245h287l276 -497h17l274 497h287l-447 -721v-524h-250v524q-51 80 -108 174.5t-115.5 189.5t-115 187t-105.5 170zM428 1380l211 299h272l-258 -299h-225z" />
<glyph unicode="&#xde;" horiz-adv-x="1087" d="M133 0v1245h248v-217h219q211 0 326.5 -97t115.5 -290q0 -96 -31.5 -173t-87 -129t-132 -80t-166.5 -28h-244v-231h-248zM381 426h203q37 0 72.5 11.5t63.5 37t45 66.5t17 100q0 55 -18.5 91t-47 58.5t-63.5 31.5t-69 9h-203v-405z" />
<glyph unicode="&#xdf;" horiz-adv-x="1081" d="M96 0v815q0 250 123 363.5t359 113.5q72 0 141 -18.5t123.5 -54t88.5 -91t34 -129.5q0 -55 -22.5 -98t-58.5 -76.5t-78 -58.5t-81 -45q-35 -23 -51.5 -39t-16.5 -45t19.5 -45.5t54.5 -32.5q27 -10 68 -25.5t69 -27.5q90 -41 131 -94.5t41 -153.5q0 -135 -91 -203.5 t-257 -68.5q-94 0 -166.5 14t-132.5 43l66 168q47 -25 104.5 -41t122.5 -16q59 0 94 19.5t35 59.5q0 31 -21.5 54.5t-74.5 44.5q-25 10 -60.5 23.5t-52.5 19.5q-33 12 -65.5 31.5t-58 47t-41 65.5t-15.5 89q0 37 7 70t25.5 63.5t51.5 60t84 58.5q55 31 87 61.5t32 79.5 q0 29 -13.5 50.5t-35 35t-48 19.5t-53.5 6q-61 0 -104 -21.5t-68.5 -58.5t-38 -86t-12.5 -104v-842h-244z" />
<glyph unicode="&#xe0;" horiz-adv-x="913" d="M51 254q0 86 27.5 140.5t79 85t123 43t159.5 12.5q29 0 64 -1.5t61 -3.5v41q0 70 -40 107t-128 37q-74 0 -141.5 -18.5t-120.5 -47.5l-49 150q70 37 170 62.5t203 25.5q102 0 169.5 -18.5t108.5 -60.5t58.5 -111.5t17.5 -174.5v-266q0 -53 20.5 -72.5t61.5 -19.5v-164 q-37 -8 -92 -8q-74 0 -122 21.5t-77 66.5q-47 -45 -119.5 -72.5t-136.5 -27.5q-96 0 -153.5 22.5t-90 61t-43 88t-10.5 102.5zM179 1298h272l211 -299h-225zM305 262q0 -55 21.5 -86t81.5 -31q33 0 77.5 13.5t79.5 46.5v164q-33 4 -63.5 5t-59.5 1q-78 0 -107.5 -30 t-29.5 -83z" />
<glyph unicode="&#xe1;" horiz-adv-x="913" d="M51 254q0 86 27.5 140.5t79 85t123 43t159.5 12.5q29 0 64 -1.5t61 -3.5v41q0 70 -40 107t-128 37q-74 0 -141.5 -18.5t-120.5 -47.5l-49 150q70 37 170 62.5t203 25.5q102 0 169.5 -18.5t108.5 -60.5t58.5 -111.5t17.5 -174.5v-266q0 -53 20.5 -72.5t61.5 -19.5v-164 q-37 -8 -92 -8q-74 0 -122 21.5t-77 66.5q-47 -45 -119.5 -72.5t-136.5 -27.5q-96 0 -153.5 22.5t-90 61t-43 88t-10.5 102.5zM289 999l211 299h272l-258 -299h-225zM305 262q0 -55 21.5 -86t81.5 -31q33 0 77.5 13.5t79.5 46.5v164q-33 4 -63.5 5t-59.5 1q-78 0 -107.5 -30 t-29.5 -83z" />
<glyph unicode="&#xe2;" horiz-adv-x="913" d="M51 254q0 86 27.5 140.5t79 85t123 43t159.5 12.5q29 0 64 -1.5t61 -3.5v41q0 70 -40 107t-128 37q-74 0 -141.5 -18.5t-120.5 -47.5l-49 150q70 37 170 62.5t203 25.5q102 0 169.5 -18.5t108.5 -60.5t58.5 -111.5t17.5 -174.5v-266q0 -53 20.5 -72.5t61.5 -19.5v-164 q-37 -8 -92 -8q-74 0 -122 21.5t-77 66.5q-47 -45 -119.5 -72.5t-136.5 -27.5q-96 0 -153.5 22.5t-90 61t-43 88t-10.5 102.5zM119 999l198 299h306l190 -299h-213l-123 177h-20l-131 -177h-207zM305 262q0 -55 21.5 -86t81.5 -31q33 0 77.5 13.5t79.5 46.5v164 q-33 4 -63.5 5t-59.5 1q-78 0 -107.5 -30t-29.5 -83z" />
<glyph unicode="&#xe3;" horiz-adv-x="913" d="M51 254q0 86 27.5 140.5t79 85t123 43t159.5 12.5q29 0 64 -1.5t61 -3.5v41q0 70 -40 107t-128 37q-74 0 -141.5 -18.5t-120.5 -47.5l-49 150q70 37 170 62.5t203 25.5q102 0 169.5 -18.5t108.5 -60.5t58.5 -111.5t17.5 -174.5v-266q0 -53 20.5 -72.5t61.5 -19.5v-164 q-37 -8 -92 -8q-74 0 -122 21.5t-77 66.5q-47 -45 -119.5 -72.5t-136.5 -27.5q-96 0 -153.5 22.5t-90 61t-43 88t-10.5 102.5zM105 1163q41 45 103 76t134 31q41 0 73 -9.5t60.5 -21.5t56 -21.5t60.5 -9.5q47 0 88 18.5t78 45.5l67 -142q-41 -45 -103 -75.5t-134 -30.5 q-41 0 -73 9t-60.5 21.5t-56 21.5t-60.5 9q-47 0 -88 -18t-78 -45zM305 262q0 -55 21.5 -86t81.5 -31q33 0 77.5 13.5t79.5 46.5v164q-33 4 -63.5 5t-59.5 1q-78 0 -107.5 -30t-29.5 -83z" />
<glyph unicode="&#xe4;" horiz-adv-x="913" d="M51 254q0 86 27.5 140.5t79 85t123 43t159.5 12.5q29 0 64 -1.5t61 -3.5v41q0 70 -40 107t-128 37q-74 0 -141.5 -18.5t-120.5 -47.5l-49 150q70 37 170 62.5t203 25.5q102 0 169.5 -18.5t108.5 -60.5t58.5 -111.5t17.5 -174.5v-266q0 -53 20.5 -72.5t61.5 -19.5v-164 q-37 -8 -92 -8q-74 0 -122 21.5t-77 66.5q-47 -45 -119.5 -72.5t-136.5 -27.5q-96 0 -153.5 22.5t-90 61t-43 88t-10.5 102.5zM160 1049v196h239v-196h-239zM305 262q0 -55 21.5 -86t81.5 -31q33 0 77.5 13.5t79.5 46.5v164q-33 4 -63.5 5t-59.5 1q-78 0 -107.5 -30 t-29.5 -83zM541 1049v196h239v-196h-239z" />
<glyph unicode="&#xe5;" horiz-adv-x="913" d="M51 254q0 86 27.5 140.5t79 85t123 43t159.5 12.5q29 0 64 -1.5t61 -3.5v41q0 70 -40 107t-128 37q-74 0 -141.5 -18.5t-120.5 -47.5l-49 150q70 37 170 62.5t203 25.5q102 0 169.5 -18.5t108.5 -60.5t58.5 -111.5t17.5 -174.5v-266q0 -53 20.5 -72.5t61.5 -19.5v-164 q-37 -8 -92 -8q-74 0 -122 21.5t-77 66.5q-47 -45 -119.5 -72.5t-136.5 -27.5q-96 0 -153.5 22.5t-90 61t-43 88t-10.5 102.5zM248 1147q0 98 61.5 153.5t177.5 55.5q123 0 172.5 -60.5t49.5 -150.5q0 -98 -61.5 -152.5t-178.5 -54.5q-123 0 -172 59.5t-49 149.5zM305 262 q0 -55 21.5 -86t81.5 -31q33 0 77.5 13.5t79.5 46.5v164q-33 4 -63.5 5t-59.5 1q-78 0 -107.5 -30t-29.5 -83zM395 1147q0 -80 80 -80q84 0 84 80q0 78 -78 78q-86 0 -86 -78z" />
<glyph unicode="&#xe6;" horiz-adv-x="1441" d="M51 254q0 82 29 135t80 84t123.5 43t162.5 12h127v39q0 70 -43 109t-131 39q-76 0 -143.5 -18.5t-120.5 -47.5l-51 150q72 37 173 62.5t204 25.5q100 0 163.5 -22.5t102.5 -65.5q96 88 274 88q117 0 190 -32t115 -89t57 -134t15 -169v-88h-563q2 -109 52.5 -165 t170.5 -56q104 0 166 23.5t117 47.5l47 -153q-27 -16 -67.5 -31.5t-90 -30t-103.5 -22.5t-108 -8q-215 0 -313 83q-49 -29 -127 -56t-188 -27q-88 0 -149.5 23.5t-99.5 62t-54.5 88t-16.5 100.5zM303 262q0 -47 28 -81t85 -34q53 0 101 15.5t85 40.5q-10 35 -15 78t-9 94 h-136q-78 0 -108.5 -30t-30.5 -83zM817 526h311q0 98 -29.5 149.5t-107.5 51.5q-98 0 -135 -51t-39 -150z" />
<glyph unicode="&#xe7;" horiz-adv-x="878" d="M63 420q0 236 120 351.5t349 115.5q98 0 182.5 -32t127.5 -85l-137 -131q-35 43 -78 60.5t-97 17.5q-111 0 -165 -68.5t-54 -228.5q0 -129 47.5 -199.5t163.5 -70.5q78 0 134.5 17t117.5 48l45 -156q-47 -33 -131 -56t-190 -23q-238 0 -336.5 112.5t-98.5 327.5z M227 -397l54 133q33 -10 59.5 -15.5t58.5 -5.5q47 0 74 16.5t27 53.5q0 25 -8.5 41t-27 26.5t-50 16.5t-76.5 14l43 115q170 -10 257 -54t87 -157q0 -115 -70.5 -166t-224.5 -51q-57 0 -112.5 10t-90.5 23z" />
<glyph unicode="&#xe8;" horiz-adv-x="940" d="M63 438q0 449 431 449q119 0 193.5 -32t116.5 -89t57.5 -134t15.5 -169v-88h-562q0 -90 35 -146q47 -76 187 -75q102 0 163.5 23.5t116.5 47.5l45 -153q-27 -16 -66.5 -31.5t-89 -30t-102.5 -22.5t-106 -8q-240 0 -337.5 115.5t-97.5 342.5zM191 1298h272l211 -299h-225z M317 535h306q0 92 -31 142t-103 50q-57 0 -92 -17.5t-54 -52t-24 -86.5q-2 -16 -2 -36z" />
<glyph unicode="&#xe9;" horiz-adv-x="940" d="M63 438q0 449 431 449q119 0 193.5 -32t116.5 -89t57.5 -134t15.5 -169v-88h-562q0 -90 35 -146q47 -76 187 -75q102 0 163.5 23.5t116.5 47.5l45 -153q-27 -16 -66.5 -31.5t-89 -30t-102.5 -22.5t-106 -8q-240 0 -337.5 115.5t-97.5 342.5zM317 535h306q0 92 -31 142 t-103 50q-57 0 -92 -17.5t-54 -52t-24 -86.5q-2 -16 -2 -36zM324 999l211 299h272l-258 -299h-225z" />
<glyph unicode="&#xea;" horiz-adv-x="940" d="M63 438q0 449 431 449q119 0 193.5 -32t116.5 -89t57.5 -134t15.5 -169v-88h-562q0 -90 35 -146q47 -76 187 -75q102 0 163.5 23.5t116.5 47.5l45 -153q-27 -16 -66.5 -31.5t-89 -30t-102.5 -22.5t-106 -8q-240 0 -337.5 115.5t-97.5 342.5zM148 999l198 299h306 l190 -299h-213l-123 177h-20l-131 -177h-207zM317 535h306q0 92 -31 142t-103 50q-57 0 -92 -17.5t-54 -52t-24 -86.5q-2 -16 -2 -36z" />
<glyph unicode="&#xeb;" horiz-adv-x="940" d="M63 438q0 449 431 449q119 0 193.5 -32t116.5 -89t57.5 -134t15.5 -169v-88h-562q0 -90 35 -146q47 -76 187 -75q102 0 163.5 23.5t116.5 47.5l45 -153q-27 -16 -66.5 -31.5t-89 -30t-102.5 -22.5t-106 -8q-240 0 -337.5 115.5t-97.5 342.5zM185 1049v196h239v-196h-239z M317 535h306q0 92 -31 142t-103 50q-57 0 -92 -17.5t-54 -52t-24 -86.5q-2 -16 -2 -36zM566 1049v196h239v-196h-239z" />
<glyph unicode="&#xec;" horiz-adv-x="446" d="M-69 1298h272l211 -299h-225zM100 0v866h246v-866h-246z" />
<glyph unicode="&#xed;" horiz-adv-x="446" d="M39 999l211 299h272l-258 -299h-225zM100 0v866h246v-866h-246z" />
<glyph unicode="&#xee;" horiz-adv-x="446" d="M-102 1010l178 299h305l170 -299h-203l-112 176h-21l-121 -176h-196zM100 0v866h246v-866h-246z" />
<glyph unicode="&#xef;" horiz-adv-x="446" d="M-49 1049v196h215v-196h-215zM100 0v866h246v-866h-246zM276 1049v196h213v-196h-213z" />
<glyph unicode="&#xf0;" horiz-adv-x="1001" d="M63 436q0 223 113 336t311 113q90 0 146 -29q6 -4 14 -6q-14 33 -33 65q-41 68 -116 121l-318 -147l-59 119l227 104q-102 35 -250 47l33 166q172 -18 320 -68q59 -18 112 -47l240 113l63 -117l-172 -80l13 -10q109 -94 170 -242.5t61 -365.5q0 -147 -29.5 -249.5 t-86 -165t-137.5 -90.5t-183 -28q-121 0 -204 32t-135 92.5t-76 145.5t-24 191zM313 422q0 -59 10.5 -109.5t33 -88.5t58.5 -59.5t87 -21.5q59 0 97 25t59.5 69t29.5 104t8 134q0 90 -8 178q-20 13 -47 25t-58.5 20.5t-62.5 8.5q-115 0 -161 -70t-46 -215z" />
<glyph unicode="&#xf1;" horiz-adv-x="974" d="M84 866h227l6 -61q43 29 95 47q100 35 188 35q84 0 138.5 -21.5t87 -60.5t45 -95.5t12.5 -125.5v-584h-246v530q0 33 -3 64t-14.5 53.5t-35 35.5t-64.5 13q-59 0 -104 -16q-39 -14 -70 -35v-645h-246v633zM138 1163q41 45 103 76t134 31q41 0 73 -9.5t60.5 -21.5 t56 -21.5t60.5 -9.5q47 0 88 18.5t78 45.5l67 -142q-41 -45 -103 -75.5t-134 -30.5q-41 0 -73 9t-60.5 21.5t-56 21.5t-60.5 9q-47 0 -88 -18t-78 -45z" />
<glyph unicode="&#xf2;" horiz-adv-x="999" d="M63 436q0 225 110 338t345 113q121 0 201 -32t128 -91t68.5 -144t20.5 -192q0 -225 -110.5 -336.5t-346.5 -111.5q-121 0 -200.5 31.5t-128 91t-68 143.5t-19.5 190zM222 1298h272l211 -299h-225zM313 422q0 -57 7.5 -107.5t26 -88.5t50 -59.5t82.5 -21.5q121 0 164 76 t43 223q0 57 -7 107.5t-25.5 88.5t-51.5 60.5t-84 22.5q-119 0 -162 -77t-43 -224z" />
<glyph unicode="&#xf3;" horiz-adv-x="999" d="M63 436q0 225 110 338t345 113q121 0 201 -32t128 -91t68.5 -144t20.5 -192q0 -225 -110.5 -336.5t-346.5 -111.5q-121 0 -200.5 31.5t-128 91t-68 143.5t-19.5 190zM313 422q0 -57 7.5 -107.5t26 -88.5t50 -59.5t82.5 -21.5q121 0 164 76t43 223q0 57 -7 107.5 t-25.5 88.5t-51.5 60.5t-84 22.5q-119 0 -162 -77t-43 -224zM342 999l211 299h272l-258 -299h-225z" />
<glyph unicode="&#xf4;" horiz-adv-x="999" d="M63 436q0 225 110 338t345 113q121 0 201 -32t128 -91t68.5 -144t20.5 -192q0 -225 -110.5 -336.5t-346.5 -111.5q-121 0 -200.5 31.5t-128 91t-68 143.5t-19.5 190zM164 999l198 299h306l190 -299h-213l-123 177h-20l-131 -177h-207zM313 422q0 -57 7.5 -107.5t26 -88.5 t50 -59.5t82.5 -21.5q121 0 164 76t43 223q0 57 -7 107.5t-25.5 88.5t-51.5 60.5t-84 22.5q-119 0 -162 -77t-43 -224z" />
<glyph unicode="&#xf5;" horiz-adv-x="999" d="M63 436q0 225 110 338t345 113q121 0 201 -32t128 -91t68.5 -144t20.5 -192q0 -225 -110.5 -336.5t-346.5 -111.5q-121 0 -200.5 31.5t-128 91t-68 143.5t-19.5 190zM156 1163q41 45 103 76t134 31q41 0 73 -9.5t60.5 -21.5t56 -21.5t60.5 -9.5q47 0 88 18.5t78 45.5 l67 -142q-41 -45 -103 -75.5t-134 -30.5q-41 0 -73 9t-60.5 21.5t-56 21.5t-60.5 9q-47 0 -88 -18t-78 -45zM313 422q0 -57 7.5 -107.5t26 -88.5t50 -59.5t82.5 -21.5q121 0 164 76t43 223q0 57 -7 107.5t-25.5 88.5t-51.5 60.5t-84 22.5q-119 0 -162 -77t-43 -224z" />
<glyph unicode="&#xf6;" horiz-adv-x="999" d="M63 436q0 225 110 338t345 113q121 0 201 -32t128 -91t68.5 -144t20.5 -192q0 -225 -110.5 -336.5t-346.5 -111.5q-121 0 -200.5 31.5t-128 91t-68 143.5t-19.5 190zM197 1049v196h239v-196h-239zM313 422q0 -57 7.5 -107.5t26 -88.5t50 -59.5t82.5 -21.5q121 0 164 76 t43 223q0 57 -7 107.5t-25.5 88.5t-51.5 60.5t-84 22.5q-119 0 -162 -77t-43 -224zM578 1049v196h239v-196h-239z" />
<glyph unicode="&#xf7;" d="M106 406v192h809v-192h-809zM389 66v229h246v-229h-246zM389 709v231h246v-231h-246z" />
<glyph unicode="&#xf8;" horiz-adv-x="999" d="M23 23l100 118q-33 57 -46.5 131t-13.5 164q0 229 110 341t345 112q59 0 108.5 -8.5t90.5 -24.5l98 119l160 -133l-101 -119q33 -57 47.5 -131t14.5 -164q0 -229 -110.5 -341t-346.5 -112q-61 0 -110.5 8.5t-89.5 22.5l-97 -117zM301 381q0 -18 2 -37l307 369 q-35 22 -92 22q-121 0 -169 -82t-48 -231v-41zM385 154q39 -23 94 -23q123 0 171 80t48 233v41q0 20 -2 39z" />
<glyph unicode="&#xf9;" horiz-adv-x="966" d="M92 283v583h246v-532q0 -35 3 -64.5t13.5 -52t33 -36t63.5 -13.5q59 0 102 16q37 14 68 35v647h245v-633l17 -233h-228l-8 59q-43 -27 -94 -45q-96 -35 -184 -34q-84 0 -137.5 21.5t-84 60t-43 95t-12.5 126.5zM127 1298h272l211 -299h-225z" />
<glyph unicode="&#xfa;" horiz-adv-x="966" d="M92 283v583h246v-532q0 -35 3 -64.5t13.5 -52t33 -36t63.5 -13.5q59 0 102 16q37 14 68 35v647h245v-633l17 -233h-228l-8 59q-43 -27 -94 -45q-96 -35 -184 -34q-84 0 -137.5 21.5t-84 60t-43 95t-12.5 126.5zM350 999l211 299h272l-258 -299h-225z" />
<glyph unicode="&#xfb;" horiz-adv-x="966" d="M92 283v583h246v-532q0 -35 3 -64.5t13.5 -52t33 -36t63.5 -13.5q59 0 102 16q37 14 68 35v647h245v-633l17 -233h-228l-8 59q-43 -27 -94 -45q-96 -35 -184 -34q-84 0 -137.5 21.5t-84 60t-43 95t-12.5 126.5zM139 999l198 299h306l190 -299h-213l-123 177h-20 l-131 -177h-207z" />
<glyph unicode="&#xfc;" horiz-adv-x="966" d="M92 283v583h246v-532q0 -35 3 -64.5t13.5 -52t33 -36t63.5 -13.5q59 0 102 16q37 14 68 35v647h245v-633l17 -233h-228l-8 59q-43 -27 -94 -45q-96 -35 -184 -34q-84 0 -137.5 21.5t-84 60t-43 95t-12.5 126.5zM176 1049v196h239v-196h-239zM557 1049v196h239v-196h-239z " />
<glyph unicode="&#xfd;" horiz-adv-x="890" d="M0 866h272l179 -585h18l172 585h250l-342 -936q-31 -82 -63.5 -148.5t-81 -114.5t-114 -73.5t-159.5 -25.5q-31 0 -64.5 2t-62.5 12l31 164q33 -6 71 -6q63 0 97.5 19.5t52.5 43.5q23 29 45.5 85.5t42.5 111.5zM313 999l211 299h272l-258 -299h-225z" />
<glyph unicode="&#xfe;" horiz-adv-x="983" d="M96 0v1282l246 33v-479q27 14 53 24q76 27 162 27q186 0 274.5 -116t88.5 -312q0 -104 -23 -192.5t-73 -152t-129.5 -99t-192.5 -35.5q-61 0 -117 16q-47 14 -90 43l-16 -39h-183zM96 -420v850h246v-819zM342 178q17 -8 31 -14q45 -14 84 -14q45 0 83 14t65.5 48t44 89 t16.5 139q0 274 -191 275q-59 0 -106 -29q-14 -8 -27 -20v-488z" />
<glyph unicode="&#xff;" horiz-adv-x="890" d="M0 866h272l179 -585h18l172 585h250l-342 -936q-31 -82 -63.5 -148.5t-81 -114.5t-114 -73.5t-159.5 -25.5q-31 0 -64.5 2t-62.5 12l31 164q33 -6 71 -6q63 0 97.5 19.5t52.5 43.5q23 29 45.5 85.5t42.5 111.5zM146 1049v196h239v-196h-239zM527 1049v196h239v-196h-239z " />
<glyph unicode="&#x100;" horiz-adv-x="1232" d="M10 0l447 1245h331l435 -1245h-275l-104 324h-465l-105 -324h-264zM322 1434v184h606v-184h-606zM444 522h334l-155 531h-17z" />
<glyph unicode="&#x101;" horiz-adv-x="913" d="M51 254q0 86 27.5 140.5t79 85t123 43t159.5 12.5q29 0 64 -1.5t61 -3.5v41q0 70 -40 107t-128 37q-74 0 -141.5 -18.5t-120.5 -47.5l-49 150q70 37 170 62.5t203 25.5q102 0 169.5 -18.5t108.5 -60.5t58.5 -111.5t17.5 -174.5v-266q0 -53 20.5 -72.5t61.5 -19.5v-164 q-37 -8 -92 -8q-74 0 -122 21.5t-77 66.5q-47 -45 -119.5 -72.5t-136.5 -27.5q-96 0 -153.5 22.5t-90 61t-43 88t-10.5 102.5zM187 1055v184h606v-184h-606zM305 262q0 -55 21.5 -86t81.5 -31q33 0 77.5 13.5t79.5 46.5v164q-33 4 -63.5 5t-59.5 1q-78 0 -107.5 -30 t-29.5 -83z" />
<glyph unicode="&#x102;" horiz-adv-x="1232" d="M10 0l447 1245h331l435 -1245h-275l-104 324h-465l-105 -324h-264zM299 1675h184q4 -72 30.5 -113.5t102.5 -41.5t102.5 42t30.5 113h184q0 -160 -70.5 -237.5t-246.5 -77.5t-246.5 78t-70.5 237zM444 522h334l-155 531h-17z" />
<glyph unicode="&#x103;" horiz-adv-x="913" d="M51 254q0 86 27.5 140.5t79 85t123 43t159.5 12.5q29 0 64 -1.5t61 -3.5v41q0 70 -40 107t-128 37q-74 0 -141.5 -18.5t-120.5 -47.5l-49 150q70 37 170 62.5t203 25.5q102 0 169.5 -18.5t108.5 -60.5t58.5 -111.5t17.5 -174.5v-266q0 -53 20.5 -72.5t61.5 -19.5v-164 q-37 -8 -92 -8q-74 0 -122 21.5t-77 66.5q-47 -45 -119.5 -72.5t-136.5 -27.5q-96 0 -153.5 22.5t-90 61t-43 88t-10.5 102.5zM144 1298h184q4 -72 30.5 -113.5t102.5 -41.5t102.5 42t30.5 113h184q0 -160 -70.5 -237.5t-246.5 -77.5t-246.5 78t-70.5 237zM305 262 q0 -55 21.5 -86t81.5 -31q33 0 77.5 13.5t79.5 46.5v164q-33 4 -63.5 5t-59.5 1q-78 0 -107.5 -30t-29.5 -83z" />
<glyph unicode="&#x104;" horiz-adv-x="1232" d="M10 0l447 1245h331l435 -1245h-275l-104 324h-465l-105 -324h-264zM444 522h334l-155 531h-17zM788 -233q0 39 7.5 70.5t27 60t54 55.5t88.5 51q18 8 46.5 18.5t59.5 19.5t59.5 16.5t51.5 13.5l41 -72q-27 -8 -63 -23.5t-70 -37.5q-41 -27 -56.5 -58t-15.5 -69 q0 -86 90 -86q23 0 46.5 3t43.5 11l43 -127q-39 -18 -97.5 -29.5t-115.5 -11.5q-121 0 -180.5 46t-59.5 149z" />
<glyph unicode="&#x105;" horiz-adv-x="913" d="M51 254q0 86 27.5 140.5t79 85t123 43t159.5 12.5q29 0 64 -1.5t61 -3.5v41q0 70 -40 107t-128 37q-74 0 -141.5 -18.5t-120.5 -47.5l-49 150q70 37 170 62.5t203 25.5q102 0 169.5 -18.5t108.5 -60.5t58.5 -111.5t17.5 -174.5v-266q0 -53 20.5 -72.5t61.5 -19.5v-164 q-37 -8 -92 -8q-74 0 -122 21.5t-77 66.5q-47 -45 -119.5 -72.5t-136.5 -27.5q-96 0 -153.5 22.5t-90 61t-43 88t-10.5 102.5zM305 262q0 -55 21.5 -86t81.5 -31q33 0 77.5 13.5t79.5 46.5v164q-33 4 -63.5 5t-59.5 1q-78 0 -107.5 -30t-29.5 -83zM485 -233q0 78 41 132 t150 105q49 23 99 38t97 26l23 -68q-33 -16 -61.5 -32.5t-55.5 -37.5q-35 -27 -49 -53.5t-14 -64.5q0 -86 90 -86q23 0 46 3t44 11l43 -127q-39 -18 -97.5 -29.5t-115.5 -11.5q-121 0 -180.5 46t-59.5 149z" />
<glyph unicode="&#x106;" horiz-adv-x="1153" d="M86 623q0 322 150.5 482.5t431.5 160.5q57 0 117.5 -10.5t118 -32t108.5 -55t88 -78.5l-148 -144q-51 59 -118.5 91t-157.5 32q-332 0 -332 -465q0 -414 330 -414q100 0 188 24t166 58l57 -192q-80 -45 -196.5 -72.5t-231.5 -27.5q-305 0 -438 165.5t-133 477.5z M531 1380l211 299h272l-258 -299h-225z" />
<glyph unicode="&#x107;" horiz-adv-x="878" d="M63 420q0 236 120 351.5t349 115.5q98 0 182.5 -32t127.5 -85l-137 -131q-35 43 -78 60.5t-97 17.5q-111 0 -165 -68.5t-54 -228.5q0 -129 47.5 -199.5t163.5 -70.5q78 0 134.5 17t117.5 48l45 -156q-47 -33 -131 -56t-190 -23q-238 0 -336.5 112.5t-98.5 327.5zM324 999 l211 299h272l-258 -299h-225z" />
<glyph unicode="&#x108;" horiz-adv-x="1153" d="M86 623q0 322 150.5 482.5t431.5 160.5q57 0 117.5 -10.5t118 -32t108.5 -55t88 -78.5l-148 -144q-51 59 -118.5 91t-157.5 32q-332 0 -332 -465q0 -414 330 -414q100 0 188 24t166 58l57 -192q-80 -45 -196.5 -72.5t-231.5 -27.5q-305 0 -438 165.5t-133 477.5z M309 1378l198 299h306l190 -299h-213l-123 177h-20l-131 -177h-207z" />
<glyph unicode="&#x109;" horiz-adv-x="878" d="M63 420q0 236 120 351.5t349 115.5q98 0 182.5 -32t127.5 -85l-137 -131q-35 43 -78 60.5t-97 17.5q-111 0 -165 -68.5t-54 -228.5q0 -129 47.5 -199.5t163.5 -70.5q78 0 134.5 17t117.5 48l45 -156q-47 -33 -131 -56t-190 -23q-238 0 -336.5 112.5t-98.5 327.5zM150 999 l198 299h306l190 -299h-213l-123 177h-20l-131 -177h-207z" />
<glyph unicode="&#x10a;" horiz-adv-x="1153" d="M86 623q0 322 150.5 482.5t431.5 160.5q57 0 117.5 -10.5t118 -32t108.5 -55t88 -78.5l-148 -144q-51 59 -118.5 91t-157.5 32q-332 0 -332 -465q0 -414 330 -414q100 0 188 24t166 58l57 -192q-80 -45 -196.5 -72.5t-231.5 -27.5q-305 0 -438 165.5t-133 477.5z M524 1428v196h250v-196h-250z" />
<glyph unicode="&#x10b;" horiz-adv-x="878" d="M63 420q0 236 120 351.5t349 115.5q98 0 182.5 -32t127.5 -85l-137 -131q-35 43 -78 60.5t-97 17.5q-111 0 -165 -68.5t-54 -228.5q0 -129 47.5 -199.5t163.5 -70.5q78 0 134.5 17t117.5 48l45 -156q-47 -33 -131 -56t-190 -23q-238 0 -336.5 112.5t-98.5 327.5z M369 1049v196h250v-196h-250z" />
<glyph unicode="&#x10c;" horiz-adv-x="1153" d="M86 623q0 322 150.5 482.5t431.5 160.5q57 0 117.5 -10.5t118 -32t108.5 -55t88 -78.5l-148 -144q-51 59 -118.5 91t-157.5 32q-332 0 -332 -465q0 -414 330 -414q100 0 188 24t166 58l57 -192q-80 -45 -196.5 -72.5t-231.5 -27.5q-305 0 -438 165.5t-133 477.5z M316 1677h213l123 -176h20l131 176h207l-199 -299h-305z" />
<glyph unicode="&#x10d;" horiz-adv-x="878" d="M63 420q0 236 120 351.5t349 115.5q98 0 182.5 -32t127.5 -85l-137 -131q-35 43 -78 60.5t-97 17.5q-111 0 -165 -68.5t-54 -228.5q0 -129 47.5 -199.5t163.5 -70.5q78 0 134.5 17t117.5 48l45 -156q-47 -33 -131 -56t-190 -23q-238 0 -336.5 112.5t-98.5 327.5z M164 1298h213l123 -176h20l131 176h207l-199 -299h-305z" />
<glyph unicode="&#x10e;" horiz-adv-x="1269" d="M133 0v1245h404q154 0 274.5 -33.5t203.5 -108.5t126 -195t43 -290q0 -174 -53.5 -292.5t-146.5 -190.5t-220 -103.5t-277 -31.5h-354zM242 1677h213l123 -176h20l131 176h207l-199 -299h-305zM383 195h96q102 0 184 21.5t139.5 71.5t88.5 136t31 215q0 211 -104.5 310.5 t-287.5 99.5h-147v-854z" />
<glyph unicode="&#x10f;" horiz-adv-x="1232" d="M63 408q0 104 23 192t73 151.5t129 99.5t193 36q61 0 115 -17q23 -6 43 -14v426l246 33v-1082l16 -233h-209l-16 51q-43 -29 -90 -45q-74 -26 -160 -26q-188 0 -275.5 115.5t-87.5 312.5zM317 426q0 -274 191 -274q59 0 106 28q12 8 25 19v489q-15 10 -29 14 q-45 14 -84 15q-45 0 -82.5 -14.5t-65.5 -48t-44.5 -89t-16.5 -139.5zM975 989l43 318h237l-118 -318h-162z" />
<glyph unicode="&#x110;" horiz-adv-x="1294" d="M31 526v195h628v-195h-628zM158 0v1245h403q154 0 274.5 -33.5t203.5 -108.5t126 -195t43 -290q0 -174 -53 -292.5t-146.5 -190.5t-220 -103.5t-276.5 -31.5h-354zM408 195h96q102 0 184 21.5t139.5 71.5t88 136t30.5 215q0 211 -104.5 310.5t-286.5 99.5h-147v-854z" />
<glyph unicode="&#x111;" horiz-adv-x="997" d="M63 408q0 104 23 192t73 151.5t129 99.5t193 36q61 0 115 -17q23 -6 43 -14v426l246 33v-1082l16 -233h-209l-16 51q-43 -29 -90 -45q-74 -26 -160 -26q-188 0 -275.5 115.5t-87.5 312.5zM317 426q0 -274 191 -274q59 0 106 28q12 8 25 19v489q-15 10 -29 14 q-45 14 -84 15q-45 0 -82.5 -14.5t-65.5 -48t-44.5 -89t-16.5 -139.5zM449 979v166h581v-166h-581z" />
<glyph unicode="&#x112;" horiz-adv-x="1052" d="M133 0v1245h801v-196h-551v-312h532v-192h-532v-348h571v-197h-821zM234 1434v184h606v-184h-606z" />
<glyph unicode="&#x113;" horiz-adv-x="940" d="M63 438q0 449 431 449q119 0 193.5 -32t116.5 -89t57.5 -134t15.5 -169v-88h-562q0 -90 35 -146q47 -76 187 -75q102 0 163.5 23.5t116.5 47.5l45 -153q-27 -16 -66.5 -31.5t-89 -30t-102.5 -22.5t-106 -8q-240 0 -337.5 115.5t-97.5 342.5zM189 1055v184h606v-184h-606z M317 535h306q0 92 -31 142t-103 50q-57 0 -92 -17.5t-54 -52t-24 -86.5q-2 -16 -2 -36z" />
<glyph unicode="&#x116;" horiz-adv-x="1052" d="M133 0v1245h801v-196h-551v-312h532v-192h-532v-348h571v-197h-821zM436 1428v196h250v-196h-250z" />
<glyph unicode="&#x117;" horiz-adv-x="940" d="M63 438q0 449 431 449q119 0 193.5 -32t116.5 -89t57.5 -134t15.5 -169v-88h-562q0 -90 35 -146q47 -76 187 -75q102 0 163.5 23.5t116.5 47.5l45 -153q-27 -16 -66.5 -31.5t-89 -30t-102.5 -22.5t-106 -8q-240 0 -337.5 115.5t-97.5 342.5zM317 535h306q0 92 -31 142 t-103 50q-57 0 -92 -17.5t-54 -52t-24 -86.5q-2 -16 -2 -36zM364 1049v196h250v-196h-250z" />
<glyph unicode="&#x118;" horiz-adv-x="1052" d="M133 0v1245h801v-196h-551v-312h532v-192h-532v-348h571v-197h-821zM544 -233q0 78 41 132t150 105q49 23 99 38t98 26l22 -68q-33 -16 -61.5 -32.5t-55.5 -37.5q-35 -27 -49 -53.5t-14 -64.5q0 -86 90 -86q23 0 46.5 3t43.5 11l43 -127q-39 -18 -97.5 -29.5 t-115.5 -11.5q-121 0 -180.5 46t-59.5 149z" />
<glyph unicode="&#x119;" horiz-adv-x="940" d="M63 438q0 449 431 449q119 0 193.5 -32t116.5 -89t57.5 -134t15.5 -169v-88h-562q2 -109 52.5 -164t169.5 -55q102 0 163.5 23.5t116.5 47.5l45 -153q-18 -10 -52 -33t-62 -47q-33 -29 -50.5 -62.5t-17.5 -89.5q0 -45 21.5 -80.5t68.5 -35.5q23 0 46.5 3t43.5 11l43 -127 q-39 -18 -97 -29.5t-116 -11.5q-240 0 -239 199q0 92 47 151q27 33 69 64q-35 -4 -69 -4q-121 0 -203 28.5t-134 86t-75 143.5t-23 198zM317 535h306q0 92 -31 142t-103 50q-96 0 -133 -49t-39 -143z" />
<glyph unicode="&#x11a;" horiz-adv-x="1052" d="M133 0v1245h801v-196h-551v-312h532v-192h-532v-348h571v-197h-821zM201 1677h213l123 -176h20l131 176h207l-199 -299h-305z" />
<glyph unicode="&#x11b;" horiz-adv-x="940" d="M63 438q0 449 431 449q119 0 193.5 -32t116.5 -89t57.5 -134t15.5 -169v-88h-562q0 -90 35 -146q47 -76 187 -75q102 0 163.5 23.5t116.5 47.5l45 -153q-27 -16 -66.5 -31.5t-89 -30t-102.5 -22.5t-106 -8q-240 0 -337.5 115.5t-97.5 342.5zM150 1298h213l123 -176h20 l131 176h207l-199 -299h-305zM317 535h306q0 92 -31 142t-103 50q-57 0 -92 -17.5t-54 -52t-24 -86.5q-2 -16 -2 -36z" />
<glyph unicode="&#x11c;" horiz-adv-x="1273" d="M86 623q0 319 165 481t458 162q139 0 258.5 -43t201.5 -142l-151 -135q-53 57 -128 93t-177 36q-182 0 -276.5 -120.5t-94.5 -350.5q0 -213 96.5 -320.5t274.5 -107.5q55 0 112 6q41 6 80 17v293h-258v190h502v-619q-90 -41 -205 -62t-246 -21q-317 0 -464.5 166.5 t-147.5 476.5zM324 1378l198 299h306l190 -299h-213l-123 177h-20l-131 -177h-207z" />
<glyph unicode="&#x11d;" horiz-adv-x="980" d="M63 401q0 106 21.5 195.5t71 154t131.5 100.5t205 36q59 0 107 -14.5t85 -30.5l8 24h191v-886q0 -115 -34 -193t-93.5 -127t-141.5 -70.5t-180 -21.5q-92 0 -168 14.5t-131 36.5l64 166q35 -12 92 -24.5t131 -12.5q98 0 156.5 42t58.5 147v73q-41 -14 -89 -22t-99 -8 q-203 0 -294.5 111.5t-91.5 309.5zM168 999l198 299h306l190 -299h-213l-123 177h-20l-131 -177h-207zM315 416q0 -119 47.5 -194t165.5 -75q25 0 51.5 2.5t57.5 12.5v540q-51 14 -100 15q-119 0 -170.5 -69.5t-51.5 -231.5z" />
<glyph unicode="&#x11e;" horiz-adv-x="1273" d="M86 623q0 319 165 481t458 162q139 0 258.5 -43t201.5 -142l-151 -135q-53 57 -128 93t-177 36q-182 0 -276.5 -120.5t-94.5 -350.5q0 -213 96.5 -320.5t274.5 -107.5q55 0 112 6q41 6 80 17v293h-258v190h502v-619q-90 -41 -205 -62t-246 -21q-317 0 -464.5 166.5 t-147.5 476.5zM361 1675h184q4 -72 30.5 -113.5t102.5 -41.5t102.5 42t30.5 113h184q0 -160 -70.5 -237.5t-246.5 -77.5t-246.5 78t-70.5 237z" />
<glyph unicode="&#x11f;" horiz-adv-x="980" d="M63 401q0 106 21.5 195.5t71 154t131.5 100.5t205 36q59 0 107 -14.5t85 -30.5l8 24h191v-886q0 -115 -34 -193t-93.5 -127t-141.5 -70.5t-180 -21.5q-92 0 -168 14.5t-131 36.5l64 166q35 -12 92 -24.5t131 -12.5q98 0 156.5 42t58.5 147v73q-41 -14 -89 -22t-99 -8 q-203 0 -294.5 111.5t-91.5 309.5zM181 1298h184q4 -72 30.5 -113.5t102.5 -41.5t102.5 42t30.5 113h184q0 -160 -70.5 -237.5t-246.5 -77.5t-246.5 78t-70.5 237zM315 416q0 -119 47.5 -194t165.5 -75q25 0 51.5 2.5t57.5 12.5v540q-51 14 -100 15q-119 0 -170.5 -69.5 t-51.5 -231.5z" />
<glyph unicode="&#x120;" horiz-adv-x="1273" d="M86 623q0 319 165 481t458 162q139 0 258.5 -43t201.5 -142l-151 -135q-53 57 -128 93t-177 36q-182 0 -276.5 -120.5t-94.5 -350.5q0 -213 96.5 -320.5t274.5 -107.5q55 0 112 6q41 6 80 17v293h-258v190h502v-619q-90 -41 -205 -62t-246 -21q-317 0 -464.5 166.5 t-147.5 476.5zM563 1428v196h250v-196h-250z" />
<glyph unicode="&#x121;" horiz-adv-x="980" d="M63 401q0 106 21.5 195.5t71 154t131.5 100.5t205 36q59 0 107 -14.5t85 -30.5l8 24h191v-886q0 -115 -34 -193t-93.5 -127t-141.5 -70.5t-180 -21.5q-92 0 -168 14.5t-131 36.5l64 166q35 -12 92 -24.5t131 -12.5q98 0 156.5 42t58.5 147v73q-41 -14 -89 -22t-99 -8 q-203 0 -294.5 111.5t-91.5 309.5zM315 416q0 -119 47.5 -194t165.5 -75q25 0 51.5 2.5t57.5 12.5v540q-51 14 -100 15q-119 0 -170.5 -69.5t-51.5 -231.5zM369 1049v196h250v-196h-250z" />
<glyph unicode="&#x122;" horiz-adv-x="1273" d="M86 623q0 319 165 481t458 162q139 0 258.5 -43t201.5 -142l-151 -135q-53 57 -128 93t-177 36q-182 0 -276.5 -120.5t-94.5 -350.5q0 -213 96.5 -320.5t274.5 -107.5q55 0 112 6q41 6 80 17v293h-258v190h502v-619q-90 -41 -205 -62t-246 -21q-317 0 -464.5 166.5 t-147.5 476.5zM477 -487q33 47 52.5 90t29.5 88t14.5 95t4.5 112h221q0 -156 -40 -276t-136 -222z" />
<glyph unicode="&#x123;" horiz-adv-x="980" d="M63 401q0 106 21.5 195.5t71 154t131.5 100.5t205 36q59 0 107 -14.5t85 -30.5l8 24h191v-886q0 -115 -34 -193t-93.5 -127t-141.5 -70.5t-180 -21.5q-92 0 -168 14.5t-131 36.5l64 166q35 -12 92 -24.5t131 -12.5q98 0 156.5 42t58.5 147v73q-41 -14 -89 -22t-99 -8 q-203 0 -294.5 111.5t-91.5 309.5zM315 416q0 -119 47.5 -194t165.5 -75q25 0 51.5 2.5t57.5 12.5v540q-51 14 -100 15q-119 0 -170.5 -69.5t-51.5 -231.5zM393 968q0 156 40 276t136 222l146 -113q-33 -47 -52.5 -90t-29.5 -88t-14.5 -95t-4.5 -112h-221z" />
<glyph unicode="&#x124;" horiz-adv-x="1280" d="M133 0v1245h250v-522h514v522h250v-1245h-250v524h-514v-524h-250zM301 1378l198 299h306l190 -299h-213l-123 177h-20l-131 -177h-207z" />
<glyph unicode="&#x125;" horiz-adv-x="972" d="M-117 1425l198 299h306l190 -299h-213l-123 177h-20l-131 -177h-207zM98 0v1282l246 33v-496q33 18 70 31q47 18 95 26.5t91 8.5q84 0 138.5 -21.5t87 -60.5t45 -94.5t12.5 -124.5v-584h-246v530q0 33 -3 63t-14.5 52.5t-35 35.5t-64.5 13q-59 0 -104 -16 q-41 -16 -72 -37v-641h-246z" />
<glyph unicode="&#x126;" horiz-adv-x="1320" d="M25 874v181h1269v-181h-1269zM154 0v1245h249v-522h515v522h249v-1245h-249v524h-515v-524h-249z" />
<glyph unicode="&#x127;" horiz-adv-x="972" d="M-29 979v166h582v-166h-582zM98 0v1282l246 33v-496q33 18 70 31q47 18 95 26.5t91 8.5q84 0 138.5 -21.5t87 -60.5t45 -94.5t12.5 -124.5v-584h-246v530q0 33 -3 63t-14.5 52.5t-35 35.5t-64.5 13q-59 0 -104 -16q-41 -16 -72 -37v-641h-246z" />
<glyph unicode="&#x128;" horiz-adv-x="516" d="M-98 1542q41 45 103 76t134 31q41 0 73 -9.5t60.5 -21.5t56 -21.5t60.5 -9.5q47 0 88 18.5t78 45.5l67 -142q-41 -45 -103 -75.5t-134 -30.5q-41 0 -73 9t-60.5 21.5t-56 21.5t-60.5 9q-47 0 -88 -18t-78 -45zM133 0v1245h250v-1245h-250z" />
<glyph unicode="&#x129;" horiz-adv-x="446" d="M-41 1202q68 68 166 68q33 0 60.5 -9.5t52 -21.5t48 -21.5t50.5 -9.5q78 0 129 47l24 -165q-35 -31 -76.5 -48.5t-88.5 -17.5q-33 0 -60.5 9t-53.5 20.5t-49.5 21.5t-49.5 10q-41 0 -73 -13t-56 -36zM100 0v866h246v-866h-246z" />
<glyph unicode="&#x12a;" horiz-adv-x="516" d="M-41 1434v184h606v-184h-606zM133 0v1245h250v-1245h-250z" />
<glyph unicode="&#x12b;" horiz-adv-x="446" d="M-18 1055v184h483v-184h-483zM100 0v866h246v-866h-246z" />
<glyph unicode="&#x12e;" horiz-adv-x="516" d="M-51 -238q0 39 8 71t29.5 60.5t57.5 55t89 51.5q18 8 46 19.5t56.5 20.5t56 17.5t50.5 14.5l41 -72q-27 -8 -62.5 -23.5t-70.5 -37.5q-41 -27 -56.5 -58t-15.5 -69q0 -86 90 -86q23 0 46.5 3t43.5 11l43 -127q-39 -18 -97 -29.5t-116 -11.5q-121 0 -180 46t-59 144z M133 0v1245h250v-1245h-250z" />
<glyph unicode="&#x12f;" horiz-adv-x="446" d="M-68 -233q0 39 7.5 70.5t27 60t54 55.5t88.5 51q18 8 44.5 18.5t55.5 18.5t56.5 15t49.5 14l31 -70q-27 -8 -61.5 -24.5t-59.5 -36.5q-63 -49 -63 -127q0 -86 90 -86q23 0 46.5 3t43.5 11l43 -127q-39 -18 -97.5 -29.5t-115.5 -11.5q-121 0 -180.5 46t-59.5 149zM98 1049 v196h250v-196h-250zM100 0v866h246v-866h-246z" />
<glyph unicode="&#x130;" horiz-adv-x="516" d="M133 0v1245h250v-1245h-250zM137 1428v196h250v-196h-250z" />
<glyph unicode="&#x131;" horiz-adv-x="446" d="M100 0v866h246v-866h-246z" />
<glyph unicode="&#x134;" horiz-adv-x="702" d="M-10 23l30 182q41 -10 82 -15.5t70 -5.5q70 0 108.5 40t38.5 132v889h250v-868q0 -207 -89 -297t-290 -90q-45 0 -99 8t-101 25zM105 1378l198 299h306l190 -299h-213l-123 177h-20l-131 -177h-207z" />
<glyph unicode="&#x135;" horiz-adv-x="446" d="M-102 1010l178 299h305l170 -299h-203l-112 176h-21l-121 -176h-196zM-35 -244h21q72 0 93 35t21 125v950h246v-919q0 -104 -20.5 -175t-65.5 -114t-113.5 -60.5t-166.5 -17.5h-15v176z" />
<glyph unicode="&#x136;" horiz-adv-x="1148" d="M133 0v1245h250v-526h92l404 526h280l-477 -604l465 -641h-297l-375 526h-92v-526h-250zM352 -487q33 47 52.5 90t29.5 88t14.5 95t4.5 112h221q0 -156 -40 -276t-136 -222z" />
<glyph unicode="&#x137;" horiz-adv-x="911" d="M98 0v1282l244 33v-756h64l258 307h270l-340 -395l352 -471h-272l-275 377h-57v-377h-244zM256 -487q33 47 52.5 90t29.5 88t14.5 95t4.5 112h221q0 -156 -40 -276t-136 -222z" />
<glyph unicode="&#x138;" horiz-adv-x="913" d="M100 0v866h244v-329h66l256 329h270l-344 -415l356 -451h-272l-273 354h-59v-354h-244z" />
<glyph unicode="&#x139;" horiz-adv-x="903" d="M133 0v1245h250v-1048h510v-197h-760zM207 1380l211 299h272l-258 -299h-225z" />
<glyph unicode="&#x13a;" horiz-adv-x="464" d="M100 276v1006l244 33v-1032q0 -39 5 -62.5t16.5 -36t31 -16.5t47.5 -4v-170q-10 -2 -20 -2q-10 -2 -23 -2h-20q-80 0 -134.5 19.5t-86 56t-46 90t-14.5 120.5zM102 1425l211 299h272l-258 -299h-225z" />
<glyph unicode="&#x13b;" horiz-adv-x="903" d="M133 0v1245h250v-1048h510v-197h-760zM262 -487q33 47 52.5 90t29.5 88t14.5 95t4.5 112h221q0 -156 -40 -276t-136 -222z" />
<glyph unicode="&#x13c;" horiz-adv-x="462" d="M41 -487q33 47 52.5 90t29.5 88t14.5 95t4.5 112h221q0 -156 -40 -276t-136 -222zM98 276v1006l244 33v-1032q0 -39 5 -62.5t16.5 -36t31 -16.5t47.5 -4v-170q-10 -2 -20 -2q-10 -2 -23 -2h-20q-80 0 -134.5 19.5t-86 56t-46 90t-14.5 120.5z" />
<glyph unicode="&#x13d;" horiz-adv-x="903" d="M133 0v1245h250v-1048h510v-197h-760zM475 989l43 318h262l-123 -318h-182z" />
<glyph unicode="&#x13e;" horiz-adv-x="690" d="M98 276v1006l244 33v-1032q0 -39 5 -62.5t16.5 -36t31 -16.5t47.5 -4v-170q-10 -2 -20 -2q-10 -2 -23 -2h-20q-80 0 -134.5 19.5t-86 56t-46 90t-14.5 120.5zM436 989l43 318h238l-119 -318h-162z" />
<glyph unicode="&#x141;" horiz-adv-x="897" d="M0 342v195l653 378v-194zM127 0v1245h250v-1048h510v-197h-760z" />
<glyph unicode="&#x142;" horiz-adv-x="524" d="M0 346v195l524 374v-194zM125 276v1006l244 33v-1032q0 -39 5 -62.5t16 -36t30.5 -16.5t48.5 -4v-170q-10 -2 -20 -2q-10 -2 -23 -2h-20q-80 0 -134.5 19.5t-86 56t-46 90t-14.5 120.5z" />
<glyph unicode="&#x143;" horiz-adv-x="1378" d="M133 0v1245h432l414 -1052h16v1052h250v-1245h-432l-414 1053h-16v-1053h-250zM567 1380l211 299h272l-258 -299h-225z" />
<glyph unicode="&#x144;" horiz-adv-x="974" d="M84 866h227l6 -61q43 29 95 47q100 35 188 35q84 0 138.5 -21.5t87 -60.5t45 -95.5t12.5 -125.5v-584h-246v530q0 33 -3 64t-14.5 53.5t-35 35.5t-64.5 13q-59 0 -104 -16q-39 -14 -70 -35v-645h-246v633zM293 999l211 299h272l-258 -299h-225z" />
<glyph unicode="&#x145;" horiz-adv-x="1378" d="M133 0v1245h432l414 -1052h16v1052h250v-1245h-432l-414 1053h-16v-1053h-250zM448 -487q33 47 52.5 90t29.5 88t14.5 95t4.5 112h221q0 -156 -40 -276t-136 -222z" />
<glyph unicode="&#x146;" horiz-adv-x="974" d="M84 866h227l6 -61q43 29 95 47q100 35 188 35q84 0 138.5 -21.5t87 -60.5t45 -95.5t12.5 -125.5v-584h-246v530q0 33 -3 64t-14.5 53.5t-35 35.5t-64.5 13q-59 0 -104 -16q-39 -14 -70 -35v-645h-246v633zM280 -487q33 47 52.5 90t29.5 88t14.5 95t4.5 112h221 q0 -156 -40 -276t-136 -222z" />
<glyph unicode="&#x147;" horiz-adv-x="1378" d="M133 0v1245h432l414 -1052h16v1052h250v-1245h-432l-414 1053h-16v-1053h-250zM326 1677h213l123 -176h20l131 176h207l-199 -299h-305z" />
<glyph unicode="&#x148;" horiz-adv-x="974" d="M84 866h227l6 -61q43 29 95 47q100 35 188 35q84 0 138.5 -21.5t87 -60.5t45 -95.5t12.5 -125.5v-584h-246v530q0 33 -3 64t-14.5 53.5t-35 35.5t-64.5 13q-59 0 -104 -16q-39 -14 -70 -35v-645h-246v633zM146 1298h213l123 -176h20l131 176h207l-199 -299h-305z" />
<glyph unicode="&#x14a;" horiz-adv-x="1378" d="M133 0v1245h432l414 -1052h16v1052h250v-1245h-432l-414 1053h-16v-1053h-250zM825 -244h21q72 0 110.5 35t38.5 125v215h250v-184q0 -104 -22.5 -175t-71.5 -114t-126 -60.5t-185 -17.5h-15v176z" />
<glyph unicode="&#x14b;" horiz-adv-x="974" d="M84 866h227l6 -63l5 2q45 29 92 46t95 25.5t91 8.5q84 0 138.5 -21.5t87 -60.5t45 -94.5t12.5 -124.5v-637q0 -104 -20.5 -175t-65.5 -114t-114 -60.5t-167 -17.5h-14v176h20q72 0 93.5 35t21.5 125v614q0 33 -3 63t-14.5 52.5t-35 35.5t-64.5 13q-59 0 -104 -16 q-39 -16 -70 -35v-643h-246v633z" />
<glyph unicode="&#x14c;" horiz-adv-x="1306" d="M86 629q0 319 144.5 478t443.5 159q152 0 256 -45t168.5 -129t93.5 -205t29 -271q0 -317 -145.5 -476.5t-444.5 -159.5q-154 0 -257.5 45t-168 130t-92 204.5t-27.5 269.5zM340 608q0 -90 13.5 -169t47 -137t88 -93t138.5 -35q96 0 160.5 31t102.5 90t54.5 146t16.5 200 q0 88 -13.5 167t-45.5 138.5t-87 94t-139 34.5q-94 0 -157.5 -30.5t-103.5 -90t-57.5 -146.5t-17.5 -200zM342 1434v184h606v-184h-606z" />
<glyph unicode="&#x14d;" horiz-adv-x="999" d="M63 436q0 225 110 338t345 113q121 0 201 -32t128 -91t68.5 -144t20.5 -192q0 -225 -110.5 -336.5t-346.5 -111.5q-121 0 -200.5 31.5t-128 91t-68 143.5t-19.5 190zM213 1055v184h606v-184h-606zM313 422q0 -57 7.5 -107.5t26 -88.5t50 -59.5t82.5 -21.5q121 0 164 76 t43 223q0 57 -7 107.5t-25.5 88.5t-51.5 60.5t-84 22.5q-119 0 -162 -77t-43 -224z" />
<glyph unicode="&#x150;" horiz-adv-x="1306" d="M86 629q0 319 144.5 478t443.5 159q152 0 256 -45t168.5 -129t93.5 -205t29 -271q0 -317 -145.5 -476.5t-444.5 -159.5q-154 0 -257.5 45t-168 130t-92 204.5t-27.5 269.5zM313 1382l211 299h252l-258 -299h-205zM340 608q0 -90 13.5 -169t47 -137t88 -93t138.5 -35 q96 0 160.5 31t102.5 90t54.5 146t16.5 200q0 88 -13.5 167t-45.5 138.5t-87 94t-139 34.5q-94 0 -157.5 -30.5t-103.5 -90t-57.5 -146.5t-17.5 -200zM678 1382l211 299h252l-259 -299h-204z" />
<glyph unicode="&#x151;" horiz-adv-x="999" d="M63 436q0 225 110 338t345 113q121 0 201 -32t128 -91t68.5 -144t20.5 -192q0 -225 -110.5 -336.5t-346.5 -111.5q-121 0 -200.5 31.5t-128 91t-68 143.5t-19.5 190zM164 999l211 299h252l-258 -299h-205zM313 422q0 -57 7.5 -107.5t26 -88.5t50 -59.5t82.5 -21.5 q121 0 164 76t43 223q0 57 -7 107.5t-25.5 88.5t-51.5 60.5t-84 22.5q-119 0 -162 -77t-43 -224zM529 999l211 299h252l-259 -299h-204z" />
<glyph unicode="&#x152;" horiz-adv-x="1878" d="M86 629q0 319 144.5 478t443.5 159q152 0 252 -45q29 -12 53 -29v53h780v-196h-551v-312h533v-192h-533v-348h572v-197h-801v63q-131 -84 -348 -83q-154 0 -257.5 45t-168 130t-92 204.5t-27.5 269.5zM340 608q0 -90 13.5 -169t47 -137t88 -93t138.5 -35q96 0 160.5 31 t102.5 90t54.5 146t16.5 200q0 88 -13.5 167t-45.5 138.5t-87 94t-139 34.5q-94 0 -157.5 -30.5t-103.5 -90t-57.5 -146.5t-17.5 -200z" />
<glyph unicode="&#x153;" horiz-adv-x="1562" d="M63 436q0 225 110 338t345 113q193 0 291 -105q96 104 307 105q119 0 193.5 -32t116.5 -89t57.5 -134t15.5 -169v-88h-561q0 -90 35 -146q47 -76 186 -75q102 0 163.5 23.5t117.5 47.5l45 -153q-27 -16 -67 -31.5t-89 -30t-102.5 -22.5t-106.5 -8q-121 0 -200 28 q-72 27 -119 78q-49 -49 -123 -76q-82 -31 -199 -30q-121 0 -200.5 31.5t-128 91t-68 143.5t-19.5 190zM313 422q0 -57 7.5 -107.5t26 -88.5t50 -59.5t82.5 -21.5q121 0 164 76t43 223q0 57 -7 107.5t-25.5 88.5t-51.5 60.5t-84 22.5q-119 0 -162 -77t-43 -224zM940 535h305 q0 92 -30.5 142t-102.5 50q-57 0 -92 -17.5t-54.5 -52t-23.5 -86.5q-2 -16 -2 -36z" />
<glyph unicode="&#x154;" horiz-adv-x="1128" d="M133 0v1245h488q211 0 326.5 -86t115.5 -278q0 -84 -24.5 -148.5t-68.5 -111t-106 -76.5q-14 -6 -28 -15l266 -530h-271l-241 492h-209v-492h-248zM381 684h229q37 0 73 10.5t62.5 33t43 60t16.5 93.5q0 49 -17.5 81.5t-46 52t-63.5 27t-68 7.5h-229v-365zM397 1380 l211 299h272l-258 -299h-225z" />
<glyph unicode="&#x155;" horiz-adv-x="712" d="M76 866h227l12 -92q33 41 72 64q84 49 176 49q49 0 86 -9.5t62 -19.5l-58 -192q-45 27 -110 26q-70 0 -133 -35q-33 -16 -62 -49v-608h-246v621zM219 999l211 299h272l-258 -299h-225z" />
<glyph unicode="&#x156;" horiz-adv-x="1128" d="M133 0v1245h488q211 0 326.5 -86t115.5 -278q0 -84 -24.5 -148.5t-68.5 -111t-106 -76.5q-14 -6 -28 -15l266 -530h-271l-241 492h-209v-492h-248zM370 -487q33 47 52.5 90t29.5 88t14.5 95t4.5 112h221q0 -156 -40 -276t-136 -222zM381 684h229q37 0 73 10.5t62.5 33 t43 60t16.5 93.5q0 49 -17.5 81.5t-46 52t-63.5 27t-68 7.5h-229v-365z" />
<glyph unicode="&#x157;" horiz-adv-x="712" d="M18 -487q33 47 52.5 90t29.5 88t14.5 95t4.5 112h221q0 -156 -40 -276t-136 -222zM76 866h227l12 -92q33 41 72 64q84 49 176 49q49 0 86 -9.5t62 -19.5l-58 -192q-45 27 -110 26q-70 0 -133 -35q-33 -16 -62 -49v-608h-246v621z" />
<glyph unicode="&#x158;" horiz-adv-x="1128" d="M133 0v1245h488q211 0 326.5 -86t115.5 -278q0 -84 -24.5 -148.5t-68.5 -111t-106 -76.5q-14 -6 -28 -15l266 -530h-271l-241 492h-209v-492h-248zM207 1677h213l123 -176h20l131 176h207l-199 -299h-305zM381 684h229q37 0 73 10.5t62.5 33t43 60t16.5 93.5 q0 49 -17.5 81.5t-46 52t-63.5 27t-68 7.5h-229v-365z" />
<glyph unicode="&#x159;" horiz-adv-x="712" d="M21 1298h213l123 -176h20l131 176h207l-199 -299h-305zM76 866h227l12 -92q33 41 72 64q84 49 176 49q49 0 86 -9.5t62 -19.5l-58 -192q-45 27 -110 26q-70 0 -133 -35q-33 -16 -62 -49v-608h-246v621z" />
<glyph unicode="&#x15a;" horiz-adv-x="1042" d="M61 82l93 186q86 -43 169 -64.5t173 -21.5q131 0 185 41t54 103q0 27 -10 48t-25.5 36.5t-32 26t-28.5 16.5q-74 35 -157 62.5t-165 62.5q-59 27 -103 55.5t-72.5 67t-44 89t-15.5 119.5q0 166 122 261.5t351 95.5q98 0 211 -22.5t201 -72.5l-86 -184q-59 35 -144.5 58.5 t-179.5 23.5q-121 0 -173 -38t-52 -101q0 -61 39 -94t80 -50q61 -27 146 -56.5t161 -63.5q45 -23 86 -48.5t71.5 -63.5t48 -90t17.5 -126q0 -166 -128 -262t-353 -96q-102 0 -218 24.5t-221 77.5zM404 1380l211 299h272l-258 -299h-225z" />
<glyph unicode="&#x15b;" horiz-adv-x="843" d="M55 45l74 172q53 -29 123 -45t156 -16q70 0 107.5 17t37.5 60q0 55 -117 93q-39 10 -81 22t-74 23q-45 14 -84 33.5t-69 48t-46 68.5t-16 95q0 135 101 203t275 68q111 0 192 -17.5t152 -46.5l-71 -172q-55 29 -125 46.5t-148 17.5q-70 0 -107.5 -18.5t-37.5 -53.5 q0 -31 29 -50.5t88 -37.5q12 -4 32.5 -10t44 -13.5t45 -14.5t37.5 -11q43 -12 83 -30.5t69 -47.5t46 -70t17 -100q0 -139 -100 -208.5t-278 -69.5q-117 0 -200 18t-155 47zM295 999l211 299h272l-258 -299h-225z" />
<glyph unicode="&#x15c;" horiz-adv-x="1042" d="M61 82l93 186q86 -43 169 -64.5t173 -21.5q131 0 185 41t54 103q0 27 -10 48t-25.5 36.5t-32 26t-28.5 16.5q-74 35 -157 62.5t-165 62.5q-59 27 -103 55.5t-72.5 67t-44 89t-15.5 119.5q0 166 122 261.5t351 95.5q98 0 211 -22.5t201 -72.5l-86 -184q-59 35 -144.5 58.5 t-179.5 23.5q-121 0 -173 -38t-52 -101q0 -61 39 -94t80 -50q61 -27 146 -56.5t161 -63.5q45 -23 86 -48.5t71.5 -63.5t48 -90t17.5 -126q0 -166 -128 -262t-353 -96q-102 0 -218 24.5t-221 77.5zM197 1378l198 299h306l190 -299h-213l-123 177h-20l-131 -177h-207z" />
<glyph unicode="&#x15d;" horiz-adv-x="843" d="M55 45l74 172q53 -29 123 -45t156 -16q70 0 107.5 17t37.5 60q0 55 -117 93q-39 10 -81 22t-74 23q-45 14 -84 33.5t-69 48t-46 68.5t-16 95q0 135 101 203t275 68q111 0 192 -17.5t152 -46.5l-71 -172q-55 29 -125 46.5t-148 17.5q-70 0 -107.5 -18.5t-37.5 -53.5 q0 -31 29 -50.5t88 -37.5q12 -4 32.5 -10t44 -13.5t45 -14.5t37.5 -11q43 -12 83 -30.5t69 -47.5t46 -70t17 -100q0 -139 -100 -208.5t-278 -69.5q-117 0 -200 18t-155 47zM101 999l198 299h306l190 -299h-213l-123 177h-20l-131 -177h-207z" />
<glyph unicode="&#x15e;" horiz-adv-x="1042" d="M61 82l93 186q86 -43 169 -64.5t173 -21.5q131 0 185 41t54 103q0 27 -10 48t-25.5 36.5t-32 26t-28.5 16.5q-74 35 -157 62.5t-165 62.5q-59 27 -103 55.5t-72.5 67t-44 89t-15.5 119.5q0 166 122 261.5t351 95.5q98 0 211 -22.5t201 -72.5l-86 -184q-59 35 -144.5 58.5 t-179.5 23.5q-121 0 -173 -38t-52 -101q0 -61 39 -94t80 -50q61 -27 146 -56.5t161 -63.5q45 -23 86 -48.5t71.5 -63.5t48 -90t17.5 -126q0 -166 -128 -262t-353 -96q-102 0 -218 24.5t-221 77.5zM260 -397l54 133q33 -10 59.5 -15.5t58.5 -5.5q47 0 74 16.5t27 53.5 q0 25 -8.5 41t-27 26.5t-50 16.5t-76.5 14l43 115q170 -10 257 -54t87 -157q0 -115 -70.5 -166t-224.5 -51q-57 0 -112.5 10t-90.5 23z" />
<glyph unicode="&#x15f;" horiz-adv-x="843" d="M55 45l74 172q53 -29 123 -45t156 -16q70 0 107.5 17t37.5 60q0 55 -117 93q-39 10 -81 22t-74 23q-45 14 -84 33.5t-69 48t-46 68.5t-16 95q0 135 101 203t275 68q111 0 192 -17.5t152 -46.5l-71 -172q-55 29 -125 46.5t-148 17.5q-70 0 -107.5 -18.5t-37.5 -53.5 q0 -31 29 -50.5t88 -37.5q12 -4 32.5 -10t44 -13.5t45 -14.5t37.5 -11q43 -12 83 -30.5t69 -47.5t46 -70t17 -100q0 -139 -100 -208.5t-278 -69.5q-117 0 -200 18t-155 47zM172 -397l54 133q33 -10 59.5 -15.5t58.5 -5.5q47 0 74 16.5t27 53.5q0 25 -8.5 41t-27 26.5 t-50 16.5t-76.5 14l43 115q170 -10 257 -54t87 -157q0 -115 -70.5 -166t-224.5 -51q-57 0 -112.5 10t-90.5 23z" />
<glyph unicode="&#x160;" horiz-adv-x="1042" d="M61 82l93 186q86 -43 169 -64.5t173 -21.5q131 0 185 41t54 103q0 27 -10 48t-25.5 36.5t-32 26t-28.5 16.5q-74 35 -157 62.5t-165 62.5q-59 27 -103 55.5t-72.5 67t-44 89t-15.5 119.5q0 166 122 261.5t351 95.5q98 0 211 -22.5t201 -72.5l-86 -184q-59 35 -144.5 58.5 t-179.5 23.5q-121 0 -173 -38t-52 -101q0 -61 39 -94t80 -50q61 -27 146 -56.5t161 -63.5q45 -23 86 -48.5t71.5 -63.5t48 -90t17.5 -126q0 -166 -128 -262t-353 -96q-102 0 -218 24.5t-221 77.5zM189 1677h213l123 -176h20l131 176h207l-199 -299h-305z" />
<glyph unicode="&#x161;" horiz-adv-x="843" d="M55 45l74 172q53 -29 123 -45t156 -16q70 0 107.5 17t37.5 60q0 55 -117 93q-39 10 -81 22t-74 23q-45 14 -84 33.5t-69 48t-46 68.5t-16 95q0 135 101 203t275 68q111 0 192 -17.5t152 -46.5l-71 -172q-55 29 -125 46.5t-148 17.5q-70 0 -107.5 -18.5t-37.5 -53.5 q0 -31 29 -50.5t88 -37.5q12 -4 32.5 -10t44 -13.5t45 -14.5t37.5 -11q43 -12 83 -30.5t69 -47.5t46 -70t17 -100q0 -139 -100 -208.5t-278 -69.5q-117 0 -200 18t-155 47zM94 1298h213l123 -176h20l131 176h207l-199 -299h-305z" />
<glyph unicode="&#x162;" horiz-adv-x="1003" d="M10 1049v196h983v-196h-366v-1049h-250v1049h-367zM227 -397l54 133q33 -10 59.5 -15.5t58.5 -5.5q47 0 74 16.5t27 53.5q0 25 -8.5 41t-27 26.5t-50 16.5t-76.5 14l43 115q170 -10 257 -54t87 -157q0 -115 -70.5 -166t-224.5 -51q-57 0 -112.5 10t-90.5 23z" />
<glyph unicode="&#x163;" horiz-adv-x="765" d="M23 686v160l145 16v166l246 43v-205h297v-180h-297v-354q0 -33 3 -62.5t14 -52t33.5 -36t63.5 -13.5q51 0 95.5 11t83.5 32l38 -162q-133 -70 -296 -69q-84 0 -138.5 21.5t-85 60t-43 94t-12.5 125.5v405h-147zM172 -397l54 133q33 -10 59.5 -15.5t58.5 -5.5 q47 0 74 16.5t27 53.5q0 25 -8.5 41t-27 26.5t-50 16.5t-76.5 14l43 115q170 -10 257 -54t87 -157q0 -115 -70.5 -166t-224.5 -51q-57 0 -112.5 10t-90.5 23z" />
<glyph unicode="&#x164;" horiz-adv-x="1003" d="M10 1049v196h983v-196h-366v-1049h-250v1049h-367zM164 1677h213l123 -176h20l131 176h207l-199 -299h-305z" />
<glyph unicode="&#x165;" horiz-adv-x="765" d="M23 686v160l145 16v166l246 43v-205h297v-180h-297v-354q0 -33 3 -62.5t14 -52t33.5 -36t63.5 -13.5q51 0 95.5 11t83.5 32l38 -162q-133 -70 -296 -69q-84 0 -138.5 21.5t-85 60t-43 94t-12.5 125.5v405h-147zM528 989l43 318h242l-123 -318h-162z" />
<glyph unicode="&#x166;" horiz-adv-x="1003" d="M10 1049v196h983v-196h-366v-1049h-250v1049h-367zM74 545v192h856v-192h-856z" />
<glyph unicode="&#x167;" horiz-adv-x="765" d="M23 686v160l145 16v166l246 43v-205h297v-180h-297v-354q0 -33 3 -62.5t14 -52t33.5 -36t63.5 -13.5q51 0 95.5 11t83.5 32l38 -162q-133 -70 -296 -69q-84 0 -138.5 21.5t-85 60t-43 94t-12.5 125.5v405h-147zM25 377v172h673v-172h-673z" />
<glyph unicode="&#x168;" horiz-adv-x="1222" d="M117 508v737h250v-766q0 -145 52 -226t175 -81q143 0 202.5 77t59.5 261v735h250v-749q0 -137 -34 -234.5t-99.5 -160t-160.5 -92t-216 -29.5q-242 0 -360.5 123.5t-118.5 404.5zM256 1542q41 45 103 76t134 31q41 0 73 -9.5t60.5 -21.5t56 -21.5t60.5 -9.5q47 0 88 18.5 t78 45.5l67 -142q-41 -45 -103 -75.5t-134 -30.5q-41 0 -73 9t-60.5 21.5t-56 21.5t-60.5 9q-47 0 -88 -18t-78 -45z" />
<glyph unicode="&#x169;" horiz-adv-x="966" d="M92 283v583h246v-532q0 -35 3 -64.5t13.5 -52t33 -36t63.5 -13.5q59 0 102 16q37 14 68 35v647h245v-633l17 -233h-228l-8 59q-43 -27 -94 -45q-96 -35 -184 -34q-84 0 -137.5 21.5t-84 60t-43 95t-12.5 126.5zM129 1163q41 45 103 76t134 31q41 0 73 -9.5t60.5 -21.5 t56 -21.5t60.5 -9.5q47 0 88 18.5t78 45.5l67 -142q-41 -45 -103 -75.5t-134 -30.5q-41 0 -73 9t-60.5 21.5t-56 21.5t-60.5 9q-47 0 -88 -18t-78 -45z" />
<glyph unicode="&#x16a;" horiz-adv-x="1222" d="M117 508v737h250v-766q0 -145 52 -226t175 -81q143 0 202.5 77t59.5 261v735h250v-749q0 -137 -34 -234.5t-99.5 -160t-160.5 -92t-216 -29.5q-242 0 -360.5 123.5t-118.5 404.5zM309 1434v184h606v-184h-606z" />
<glyph unicode="&#x16b;" horiz-adv-x="966" d="M92 283v583h246v-532q0 -35 3 -64.5t13.5 -52t33 -36t63.5 -13.5q59 0 102 16q37 14 68 35v647h245v-633l17 -233h-228l-8 59q-43 -27 -94 -45q-96 -35 -184 -34q-84 0 -137.5 21.5t-84 60t-43 95t-12.5 126.5zM182 1055v184h606v-184h-606z" />
<glyph unicode="&#x16c;" horiz-adv-x="1222" d="M117 508v737h250v-766q0 -145 52 -226t175 -81q143 0 202.5 77t59.5 261v735h250v-749q0 -137 -34 -234.5t-99.5 -160t-160.5 -92t-216 -29.5q-242 0 -360.5 123.5t-118.5 404.5zM293 1675h184q4 -72 30.5 -113.5t102.5 -41.5t102.5 42t30.5 113h184q0 -160 -70.5 -237.5 t-246.5 -77.5t-246.5 78t-70.5 237z" />
<glyph unicode="&#x16d;" horiz-adv-x="966" d="M92 283v583h246v-532q0 -35 3 -64.5t13.5 -52t33 -36t63.5 -13.5q59 0 102 16q37 14 68 35v647h245v-633l17 -233h-228l-8 59q-43 -27 -94 -45q-96 -35 -184 -34q-84 0 -137.5 21.5t-84 60t-43 95t-12.5 126.5zM166 1298h184q4 -72 30.5 -113.5t102.5 -41.5t102.5 42 t30.5 113h184q0 -160 -70.5 -237.5t-246.5 -77.5t-246.5 78t-70.5 237z" />
<glyph unicode="&#x16e;" horiz-adv-x="1222" d="M117 508v737h250v-766q0 -145 52 -226t175 -81q143 0 202.5 77t59.5 261v735h250v-749q0 -137 -34 -234.5t-99.5 -160t-160.5 -92t-216 -29.5q-242 0 -360.5 123.5t-118.5 404.5zM387 1544q0 98 61.5 153.5t177.5 55.5q123 0 172.5 -60.5t49.5 -150.5q0 -98 -61.5 -152.5 t-178.5 -54.5q-123 0 -172 59.5t-49 149.5zM534 1544q0 -80 80 -80q84 0 84 80q0 78 -78 78q-86 0 -86 -78z" />
<glyph unicode="&#x16f;" horiz-adv-x="966" d="M92 283v583h246v-532q0 -35 3 -64.5t13.5 -52t33 -36t63.5 -13.5q59 0 102 16q37 14 68 35v647h245v-633l17 -233h-228l-8 59q-43 -27 -94 -45q-96 -35 -184 -34q-84 0 -137.5 21.5t-84 60t-43 95t-12.5 126.5zM252 1147q0 98 61.5 153.5t177.5 55.5q123 0 172.5 -60.5 t49.5 -150.5q0 -98 -61.5 -152.5t-178.5 -54.5q-123 0 -172 59.5t-49 149.5zM399 1147q0 -80 80 -80q84 0 84 80q0 78 -78 78q-86 0 -86 -78z" />
<glyph unicode="&#x170;" horiz-adv-x="1222" d="M117 508v737h250v-766q0 -145 52 -226t175 -81q143 0 202.5 77t59.5 261v735h250v-749q0 -137 -34 -234.5t-99.5 -160t-160.5 -92t-216 -29.5q-242 0 -360.5 123.5t-118.5 404.5zM262 1382l211 299h252l-258 -299h-205zM627 1382l211 299h252l-259 -299h-204z" />
<glyph unicode="&#x171;" horiz-adv-x="966" d="M92 283v583h246v-532q0 -35 3 -64.5t13.5 -52t33 -36t63.5 -13.5q59 0 102 16q37 14 68 35v647h245v-633l17 -233h-228l-8 59q-43 -27 -94 -45q-96 -35 -184 -34q-84 0 -137.5 21.5t-84 60t-43 95t-12.5 126.5zM151 999l211 299h252l-258 -299h-205zM516 999l211 299h252 l-259 -299h-204z" />
<glyph unicode="&#x172;" horiz-adv-x="1222" d="M117 508v737h250v-766q0 -145 52 -226t175 -81q143 0 202.5 77t59.5 261v735h250v-749q0 -137 -34 -234.5t-99.5 -160t-160.5 -92t-216 -29.5q-242 0 -360.5 123.5t-118.5 404.5zM432 -229q0 90 49 144t158 108q31 16 85 33.5t91 25.5v-72q-14 -4 -46 -18.5t-54 -32.5 q-29 -27 -41 -55.5t-12 -69.5q0 -45 21.5 -76.5t68.5 -31.5q23 0 46 3t44 11l43 -127q-39 -18 -97.5 -29.5t-115.5 -11.5q-240 0 -240 199z" />
<glyph unicode="&#x173;" horiz-adv-x="966" d="M92 283v583h246v-532q0 -35 3 -64.5t13.5 -52t33 -36t63.5 -13.5q59 0 102 16q37 14 68 35v647h245v-633l17 -233h-228l-8 59q-43 -27 -94 -45q-96 -35 -184 -34q-84 0 -137.5 21.5t-84 60t-43 95t-12.5 126.5zM473 -233q0 78 41 132t150 105q49 23 99 38t98 26l22 -68 q-33 -16 -61.5 -32.5t-55.5 -37.5q-35 -27 -49 -53.5t-14 -64.5q0 -86 90 -86q23 0 46.5 3t43.5 11l43 -127q-39 -18 -97.5 -29.5t-115.5 -11.5q-121 0 -180.5 46t-59.5 149z" />
<glyph unicode="&#x178;" horiz-adv-x="1140" d="M0 1245h287l276 -497h17l274 497h287l-447 -721v-524h-250v524q-51 80 -108 174.5t-115.5 189.5t-115 187t-105.5 170zM262 1399v196h239v-196h-239zM643 1399v196h239v-196h-239z" />
<glyph unicode="&#x179;" horiz-adv-x="1071" d="M51 0v156l664 897h-619v192h924v-155l-664 -895h662v-195h-967zM406 1380l211 299h272l-258 -299h-225z" />
<glyph unicode="&#x17a;" horiz-adv-x="854" d="M41 0v141l479 545h-457v180h750v-141l-481 -545h485v-180h-776zM289 999l211 299h272l-258 -299h-225z" />
<glyph unicode="&#x17b;" horiz-adv-x="1071" d="M51 0v156l664 897h-619v192h924v-155l-664 -895h662v-195h-967zM453 1401v196h250v-196h-250z" />
<glyph unicode="&#x17c;" horiz-adv-x="854" d="M41 0v141l479 545h-457v180h750v-141l-481 -545h485v-180h-776zM332 1049v196h250v-196h-250z" />
<glyph unicode="&#x17d;" horiz-adv-x="1071" d="M51 0v156l664 897h-619v192h924v-155l-664 -895h662v-195h-967zM227 1677h213l123 -176h20l131 176h207l-199 -299h-305z" />
<glyph unicode="&#x17e;" horiz-adv-x="854" d="M41 0v141l479 545h-457v180h750v-141l-481 -545h485v-180h-776zM115 1298h213l123 -176h20l131 176h207l-199 -299h-305z" />
<glyph unicode="&#x192;" horiz-adv-x="872" d="M0 -418l25 176q20 -4 38.5 -7t40.5 -3q88 0 125 39t37 117v641h-149v172h149v201q0 98 28 164.5t77 107.5t117.5 58.5t150.5 17.5q57 0 113.5 -8.5t99.5 -26.5l-51 -172q-31 16 -61.5 21t-65.5 5q-90 0 -126 -37.5t-36 -117.5v-213h264v-172h-264v-629 q0 -98 -27.5 -164.5t-77 -107.5t-118 -58.5t-150.5 -17.5q-35 0 -70.5 4t-68.5 10z" />
<glyph unicode="&#x218;" horiz-adv-x="1042" d="M61 82l93 186q86 -43 169 -64.5t173 -21.5q131 0 185 41t54 103q0 27 -10 48t-25.5 36.5t-32 26t-28.5 16.5q-74 35 -157 62.5t-165 62.5q-59 27 -103 55.5t-72.5 67t-44 89t-15.5 119.5q0 166 122 261.5t351 95.5q98 0 211 -22.5t201 -72.5l-86 -184q-59 35 -144.5 58.5 t-179.5 23.5q-121 0 -173 -38t-52 -101q0 -61 39 -94t80 -50q61 -27 146 -56.5t161 -63.5q45 -23 86 -48.5t71.5 -63.5t48 -90t17.5 -126q0 -166 -128 -262t-353 -96q-102 0 -218 24.5t-221 77.5zM329 -487q33 47 52.5 90t29.5 88t14.5 95t4.5 112h221q0 -156 -40 -276 t-136 -222z" />
<glyph unicode="&#x219;" horiz-adv-x="843" d="M55 45l74 172q53 -29 123 -45t156 -16q70 0 107.5 17t37.5 60q0 55 -117 93q-39 10 -81 22t-74 23q-45 14 -84 33.5t-69 48t-46 68.5t-16 95q0 135 101 203t275 68q111 0 192 -17.5t152 -46.5l-71 -172q-55 29 -125 46.5t-148 17.5q-70 0 -107.5 -18.5t-37.5 -53.5 q0 -31 29 -50.5t88 -37.5q12 -4 32.5 -10t44 -13.5t45 -14.5t37.5 -11q43 -12 83 -30.5t69 -47.5t46 -70t17 -100q0 -139 -100 -208.5t-278 -69.5q-117 0 -200 18t-155 47zM233 -487q33 47 52.5 90t29.5 88t14.5 95t4.5 112h221q0 -156 -40 -276t-136 -222z" />
<glyph unicode="&#x21a;" horiz-adv-x="1003" d="M10 1049v196h983v-196h-366v-1049h-250v1049h-367zM291 -487q33 47 52.5 90t29.5 88t14.5 95t4.5 112h221q0 -156 -40 -276t-136 -222z" />
<glyph unicode="&#x21b;" horiz-adv-x="765" d="M23 686v160l145 16v166l246 43v-205h297v-180h-297v-354q0 -33 3 -62.5t14 -52t33.5 -36t63.5 -13.5q51 0 95.5 11t83.5 32l38 -162q-133 -70 -296 -69q-84 0 -138.5 21.5t-85 60t-43 94t-12.5 125.5v405h-147zM221 -487q33 47 52.5 90t29.5 88t14.5 95t4.5 112h221 q0 -156 -40 -276t-136 -222z" />
<glyph unicode="&#x2c6;" d="M164 999l198 299h306l190 -299h-213l-123 177h-20l-131 -177h-207z" />
<glyph unicode="&#x2c7;" d="M164 1298h213l123 -176h20l131 176h207l-199 -299h-305z" />
<glyph unicode="&#x2d8;" d="M195 1298h184q4 -72 30.5 -113.5t102.5 -41.5t102.5 42t30.5 113h184q0 -160 -70.5 -237.5t-246.5 -77.5t-246.5 78t-70.5 237z" />
<glyph unicode="&#x2d9;" d="M387 1049v196h250v-196h-250z" />
<glyph unicode="&#x2da;" d="M250 1147q0 98 61.5 153.5t177.5 55.5q123 0 172.5 -60.5t49.5 -150.5q0 -98 -61.5 -152.5t-178.5 -54.5q-123 0 -172 59.5t-49 149.5zM397 1147q0 -80 80 -80q84 0 84 80q0 78 -78 78q-86 0 -86 -78z" />
<glyph unicode="&#x2db;" horiz-adv-x="575" d="M63 -233q0 78 41 132t150 105q49 23 99 38t98 26l22 -68q-33 -16 -61.5 -32.5t-55.5 -37.5q-35 -27 -49 -53.5t-14 -64.5q0 -86 90 -86q23 0 46.5 3t43.5 11l43 -127q-39 -18 -97.5 -29.5t-115.5 -11.5q-121 0 -180.5 46t-59.5 149z" />
<glyph unicode="&#x2dc;" d="M152 1163q41 45 103 76t134 31q41 0 73 -9.5t60.5 -21.5t56 -21.5t60.5 -9.5q47 0 88 18.5t78 45.5l67 -142q-41 -45 -103 -75.5t-134 -30.5q-41 0 -73 9t-60.5 21.5t-56 21.5t-60.5 9q-47 0 -88 -18t-78 -45z" />
<glyph unicode="&#x2dd;" d="M90 999l211 299h252l-258 -299h-205zM455 999l211 299h252l-259 -299h-204z" />
<glyph unicode="&#x3bc;" horiz-adv-x="974" d="M92 -420v1286h246v-532q0 -33 3 -62.5t14.5 -52t34 -36t63.5 -13.5q53 0 95 13.5t73 33.5l8 4v645h245v-633l17 -233h-227l-9 55q-98 -74 -231 -73q-59 0 -102 14l16 -416h-246z" />
<glyph unicode="&#x401;" horiz-adv-x="1052" d="M133 0v1245h801v-196h-551v-312h532v-192h-532v-348h571v-197h-821zM228 1399v196h239v-196h-239zM609 1399v196h239v-196h-239z" />
<glyph unicode="&#x402;" horiz-adv-x="1331" d="M10 1049v196h963v-196h-357v-304q72 25 141.5 36.5t157.5 11.5q80 0 146.5 -22.5t115 -72t75 -125t26.5 -182.5q0 -94 -22.5 -170t-74 -130t-134 -82.5t-203.5 -28.5q-37 0 -76 3t-76 11l31 190q18 -4 41.5 -7t54.5 -3q57 0 98 16.5t66 46t36 68.5t11 84q0 113 -54 159 t-140 46q-49 0 -110.5 -10.5t-109.5 -24.5v-559h-249v1049h-357z" />
<glyph unicode="&#x403;" horiz-adv-x="933" d="M133 0v1245h780v-196h-530v-1049h-250zM408 1380l211 299h272l-258 -299h-225z" />
<glyph unicode="&#x404;" horiz-adv-x="1153" d="M86 623q0 324 149.5 483.5t432.5 159.5q57 0 117.5 -10.5t118 -32t108.5 -55t88 -78.5l-148 -144q-51 59 -117.5 91t-158.5 32q-285 0 -328 -336h496v-184h-502q20 -358 332 -359q100 0 188 24t166 58l57 -192q-80 -45 -195.5 -72.5t-232.5 -27.5q-154 0 -261 41.5 t-176.5 123.5t-101.5 202t-32 276z" />
<glyph unicode="&#x405;" horiz-adv-x="1042" d="M61 82l93 186q86 -43 169 -64.5t173 -21.5q131 0 185 41t54 103q0 27 -10 48t-25.5 36.5t-32 26t-28.5 16.5q-74 35 -157 62.5t-165 62.5q-59 27 -103 55.5t-72.5 67t-44 89t-15.5 119.5q0 166 122 261.5t351 95.5q98 0 211 -22.5t201 -72.5l-86 -184q-59 35 -144.5 58.5 t-179.5 23.5q-121 0 -173 -38t-52 -101q0 -61 39 -94t80 -50q61 -27 146 -56.5t161 -63.5q45 -23 86 -48.5t71.5 -63.5t48 -90t17.5 -126q0 -166 -128 -262t-353 -96q-102 0 -218 24.5t-221 77.5z" />
<glyph unicode="&#x406;" horiz-adv-x="516" d="M133 0v1245h250v-1245h-250z" />
<glyph unicode="&#x407;" horiz-adv-x="516" d="M-47 1399v196h239v-196h-239zM133 0v1245h250v-1245h-250zM334 1399v196h239v-196h-239z" />
<glyph unicode="&#x408;" horiz-adv-x="702" d="M-10 23l30 182q41 -10 82 -15.5t70 -5.5q70 0 108.5 40t38.5 132v889h250v-868q0 -207 -89 -297t-290 -90q-45 0 -99 8t-101 25z" />
<glyph unicode="&#x409;" horiz-adv-x="1783" d="M0 6l18 215q20 -2 24.5 -3t27.5 -1q82 0 114.5 85t48.5 273q6 66 10.5 159t7.5 188.5t5 182.5t2 140h811v-452h227q211 0 327 -96.5t116 -299.5q0 -209 -116 -303t-327 -94h-477v1049h-327q-2 -39 -4.5 -100.5t-6.5 -136.5t-10 -159t-14 -166q-14 -129 -38 -222 t-64 -154.5t-98 -91t-144 -29.5q-23 0 -55.5 4t-57.5 12zM1069 195h211q33 0 68.5 8t64.5 30.5t47.5 62.5t18.5 101q0 59 -18.5 98.5t-47.5 63t-64.5 32.5t-68.5 9h-211v-405z" />
<glyph unicode="&#x40a;" horiz-adv-x="1841" d="M133 0v1245h250v-489h494v489h249v-489h267q193 0 298 -98.5t105 -278.5q0 -197 -108.5 -288t-319.5 -91h-491v557h-494v-557h-250zM1126 195h230q33 0 66.5 8t59 28.5t42 56.5t16.5 91q0 51 -15.5 87t-42 57.5t-59 30.5t-67.5 9h-230v-368z" />
<glyph unicode="&#x40b;" horiz-adv-x="1376" d="M10 1049v196h963v-196h-357v-304q72 25 141.5 36.5t157.5 11.5q80 0 146.5 -24t115 -69t75 -110.5t26.5 -149.5v-440h-250v408q0 100 -53 143t-139 43q-49 0 -110.5 -10.5t-109.5 -24.5v-559h-249v1049h-357z" />
<glyph unicode="&#x40c;" horiz-adv-x="1148" d="M133 0v1245h250v-526h92l383 526h281l-451 -604l459 -641h-297l-375 526h-92v-526h-250zM449 1380l211 299h272l-258 -299h-225z" />
<glyph unicode="&#x40e;" horiz-adv-x="1089" d="M-4 1245h276l295 -665h17l252 665h258l-406 -954q-31 -74 -65.5 -130.5t-79.5 -94t-104.5 -57t-141.5 -19.5q-41 0 -89 7t-93 28l28 188q45 -12 76 -17.5t60 -5.5q84 0 121.5 36t50.5 89zM242 1675h184q4 -72 30.5 -113.5t102.5 -41.5t102.5 42t30.5 113h184 q0 -160 -70.5 -237.5t-246.5 -77.5t-246.5 78t-70.5 237z" />
<glyph unicode="&#x40f;" horiz-adv-x="1257" d="M133 0v1245h250v-1048h491v1048h250v-1245h-381v-276h-229v276h-381z" />
<glyph unicode="&#x410;" horiz-adv-x="1232" d="M10 0l447 1245h331l435 -1245h-275l-104 324h-465l-105 -324h-264zM444 522h334l-155 531h-17z" />
<glyph unicode="&#x411;" horiz-adv-x="1140" d="M133 0v1245h852v-196h-606v-277h287q193 0 305 -99.5t112 -285.5q0 -201 -115.5 -294t-326.5 -93h-508zM379 195h246q33 0 68.5 8t64 29.5t47 58.5t18.5 96q0 55 -18.5 92t-47 59.5t-64.5 32t-68 9.5h-246v-385z" />
<glyph unicode="&#x412;" horiz-adv-x="1144" d="M133 0v1245h496q98 0 176 -16.5t131 -53t82 -97t29 -146.5q0 -90 -49.5 -159.5t-133.5 -106.5q94 -35 156.5 -110t62.5 -187q0 -98 -33.5 -168t-91 -114t-134 -65.5t-165.5 -21.5h-526zM375 195h246q39 0 75.5 8t63 27.5t43 53t16.5 87.5q0 55 -15.5 90t-43 56.5 t-63 29.5t-74.5 8h-248v-360zM375 741h243q76 0 123 40t47 116q0 47 -14 77t-37.5 47t-54.5 23.5t-66 6.5h-241v-310z" />
<glyph unicode="&#x413;" horiz-adv-x="933" d="M133 0v1245h780v-196h-530v-1049h-250z" />
<glyph unicode="&#x414;" horiz-adv-x="1269" d="M0 197h111q43 82 72.5 186t48 234.5t26.5 286t10 341.5h822v-1048h143v-463h-229v266h-775v-266h-229v463zM358 197h490v852h-348q-4 -117 -14.5 -236t-27 -230.5t-41 -211t-59.5 -174.5z" />
<glyph unicode="&#x415;" horiz-adv-x="1052" d="M133 0v1245h801v-196h-551v-312h532v-192h-532v-348h571v-197h-821z" />
<glyph unicode="&#x416;" horiz-adv-x="1671" d="M12 0l404 637l-398 608h263l335 -526h99v526h237v-526h103l336 526h260l-402 -604l410 -641h-281l-331 535h-95v-535h-237v535h-99l-333 -535h-271z" />
<glyph unicode="&#x417;" horiz-adv-x="1071" d="M37 80l67 192q84 -41 178.5 -64.5t202.5 -23.5q51 0 97.5 11.5t81 34t55 59.5t20.5 86q0 92 -74.5 137t-197.5 45h-162v186h103q49 0 103 6.5t99 26t75 53t30 89.5q0 86 -58.5 120.5t-144.5 34.5q-109 0 -181.5 -34.5t-123.5 -92.5l-148 144q78 94 198 135t271 41 q213 0 331 -83t118 -235q0 -98 -61.5 -168.5t-145.5 -105.5q106 -33 173 -105.5t67 -206.5q0 -102 -42 -174.5t-115 -118.5t-169.5 -67.5t-202.5 -21.5q-104 0 -223 23.5t-221 76.5z" />
<glyph unicode="&#x418;" horiz-adv-x="1351" d="M133 0v1245h250v-1052h16l414 1052h406v-1245h-250v1053h-17l-413 -1053h-406z" />
<glyph unicode="&#x419;" horiz-adv-x="1351" d="M133 0v1245h250v-1052h16l414 1052h406v-1245h-250v1053h-17l-413 -1053h-406zM371 1675h184q4 -72 30.5 -113.5t102.5 -41.5t102.5 42t30.5 113h184q0 -160 -70.5 -237.5t-246.5 -77.5t-246.5 78t-70.5 237z" />
<glyph unicode="&#x41a;" horiz-adv-x="1148" d="M133 0v1245h250v-526h92l383 526h281l-451 -604l459 -641h-297l-375 526h-92v-526h-250z" />
<glyph unicode="&#x41b;" horiz-adv-x="1222" d="M0 6l18 215q20 -2 24.5 -3t27.5 -1q82 0 114.5 85t48.5 273q6 66 10.5 159t7.5 188.5t5 182.5t2 140h832v-1245h-250v1049h-348q-2 -39 -4.5 -100.5t-6.5 -136.5t-10 -159t-14 -166q-14 -129 -38 -222t-64 -154.5t-98 -91t-144 -29.5q-23 0 -55.5 4t-57.5 12z" />
<glyph unicode="&#x41c;" horiz-adv-x="1605" d="M133 0v1245h442l230 -1052h16l223 1052h429v-1245h-250v1053h-17l-235 -1053h-332l-240 1053h-16v-1053h-250z" />
<glyph unicode="&#x41d;" horiz-adv-x="1280" d="M133 0v1245h250v-522h514v522h250v-1245h-250v524h-514v-524h-250z" />
<glyph unicode="&#x41e;" horiz-adv-x="1306" d="M86 629q0 319 144.5 478t443.5 159q152 0 256 -45t168.5 -129t93.5 -205t29 -271q0 -317 -145.5 -476.5t-444.5 -159.5q-154 0 -257.5 45t-168 130t-92 204.5t-27.5 269.5zM340 608q0 -90 13.5 -169t47 -137t88 -93t138.5 -35q96 0 160.5 31t102.5 90t54.5 146t16.5 200 q0 88 -13.5 167t-45.5 138.5t-87 94t-139 34.5q-94 0 -157.5 -30.5t-103.5 -90t-57.5 -146.5t-17.5 -200z" />
<glyph unicode="&#x41f;" horiz-adv-x="1269" d="M133 0v1245h1004v-1245h-250v1049h-504v-1049h-250z" />
<glyph unicode="&#x420;" horiz-adv-x="1087" d="M133 0v1245h467q211 0 326.5 -96t115.5 -289q0 -96 -31.5 -173t-87 -129t-132 -79.5t-166.5 -27.5h-244v-451h-248zM381 645h203q37 0 72.5 11.5t63.5 37t45 66.5t17 100q0 55 -18.5 91t-47 58.5t-63.5 32t-69 9.5h-203v-406z" />
<glyph unicode="&#x421;" horiz-adv-x="1153" d="M86 623q0 322 150.5 482.5t431.5 160.5q57 0 117.5 -10.5t118 -32t108.5 -55t88 -78.5l-148 -144q-51 59 -118.5 91t-157.5 32q-332 0 -332 -465q0 -414 330 -414q100 0 188 24t166 58l57 -192q-80 -45 -196.5 -72.5t-231.5 -27.5q-305 0 -438 165.5t-133 477.5z" />
<glyph unicode="&#x422;" horiz-adv-x="1003" d="M10 1049v196h983v-196h-366v-1049h-250v1049h-367z" />
<glyph unicode="&#x423;" horiz-adv-x="1089" d="M-4 1245h276l295 -665h17l252 665h258l-406 -954q-31 -74 -65.5 -130.5t-79.5 -94t-104.5 -57t-141.5 -19.5q-41 0 -89 7t-93 28l28 188q45 -12 76 -17.5t60 -5.5q84 0 121.5 36t50.5 89z" />
<glyph unicode="&#x424;" horiz-adv-x="1499" d="M57 633q0 244 123 367.5t367 123.5h37.5t42.5 -2v164h239v-162q23 2 42.5 2h39.5q260 0 377 -134t117 -371q0 -238 -125 -362t-371 -124q-20 0 -39.5 1t-40.5 3v-180h-239v180q-23 -2 -42.5 -3t-39.5 -1q-131 0 -223.5 35t-150.5 99.5t-86 156.5t-28 207zM293 612 q0 -133 66 -216t216 -83h21.5t34.5 4v631q-16 4 -31.5 4h-21.5q-147 0 -216 -86t-69 -254zM862 317q18 -4 32.5 -4h20.5q150 0 217.5 84t67.5 248q0 139 -66.5 224t-215.5 85h-22.5t-33.5 -4v-633z" />
<glyph unicode="&#x425;" horiz-adv-x="1159" d="M2 0l379 639l-352 606h290l248 -463h37l248 463h281l-355 -600l379 -645h-287l-276 506h-37l-276 -506h-279z" />
<glyph unicode="&#x426;" horiz-adv-x="1306" d="M133 0v1245h250v-1048h494v1048h249v-1048h144v-463h-230v266h-907z" />
<glyph unicode="&#x427;" horiz-adv-x="1150" d="M86 784v461h250v-428q0 -100 55 -143t148 -43q57 0 119.5 10t109.5 25v579h250v-1245h-250v479q-72 -25 -142.5 -36t-166.5 -11q-168 0 -270.5 91t-102.5 261z" />
<glyph unicode="&#x428;" horiz-adv-x="1732" d="M133 0v1245h250v-1048h358v1048h250v-1048h359v1048h249v-1245h-1466z" />
<glyph unicode="&#x429;" horiz-adv-x="1779" d="M133 0v1245h250v-1048h358v1048h250v-1048h359v1048h249v-1048h144v-463h-230v266h-1380z" />
<glyph unicode="&#x42a;" horiz-adv-x="1269" d="M0 1049v196h535v-452h247q211 0 327 -96.5t116 -299.5q0 -209 -116 -303t-327 -94h-497v1049h-285zM535 195h231q33 0 68.5 8t64.5 30.5t47.5 62.5t18.5 101q0 59 -18.5 98.5t-47.5 63t-64.5 32.5t-68.5 9h-231v-405z" />
<glyph unicode="&#x42b;" horiz-adv-x="1548" d="M133 0v1245h250v-452h217q211 0 326.5 -96.5t115.5 -299.5q0 -209 -115.5 -303t-326.5 -94h-467zM383 195h201q33 0 68.5 8t64 30.5t47 62.5t18.5 101q0 59 -18.5 98.5t-47 63t-64.5 32.5t-68 9h-201v-405zM1165 0v1245h250v-1245h-250z" />
<glyph unicode="&#x42c;" horiz-adv-x="1118" d="M133 0v1245h250v-452h248q211 0 326.5 -96.5t115.5 -299.5q0 -209 -115.5 -303t-326.5 -94h-498zM383 195h231q33 0 69 8t64.5 30.5t47 62.5t18.5 101q0 59 -18.5 98.5t-47 63t-64.5 32.5t-69 9h-231v-405z" />
<glyph unicode="&#x42d;" horiz-adv-x="1136" d="M37 80l65 192q78 -35 165 -61.5t192 -26.5q164 0 243.5 94.5t92.5 268.5h-502v188h500q-18 174 -102.5 256t-229.5 82q-92 0 -162 -37t-115 -90l-147 144q39 47 90 79.5t108.5 54t117 32t116.5 10.5q281 0 431.5 -150.5t150.5 -472.5q0 -156 -33 -278.5t-102.5 -208.5 t-178 -131t-262.5 -45q-123 0 -240.5 27.5t-197.5 72.5z" />
<glyph unicode="&#x42e;" horiz-adv-x="1736" d="M133 0v1245h250v-522h180q39 543 561 543q143 0 243.5 -45t163 -129t91.5 -205t29 -271q0 -637 -570 -636q-133 0 -227 37.5t-155.5 108.5t-94.5 171t-41 227h-180v-524h-250zM803 608q0 -94 13 -173t46 -137t86 -91t131 -33q90 0 150.5 29.5t97.5 88t53.5 145.5 t16.5 204q0 92 -13.5 172t-44 138.5t-83 91t-132.5 32.5q-176 0 -248.5 -116.5t-72.5 -350.5z" />
<glyph unicode="&#x42f;" horiz-adv-x="1155" d="M27 0l344 475q-117 41 -187.5 139.5t-70.5 245.5q0 193 115.5 289t326.5 96h467v-1245h-248v451h-141l-320 -451h-286zM373 860q0 -59 17.5 -100t45 -66.5t63.5 -37t72 -11.5h203v406h-203q-35 0 -69.5 -9.5t-63 -32t-47 -58.5t-18.5 -91z" />
<glyph unicode="&#x430;" horiz-adv-x="913" d="M51 254q0 86 27.5 140.5t79 85t123 43t159.5 12.5q29 0 64 -1.5t61 -3.5v41q0 70 -40 107t-128 37q-74 0 -141.5 -18.5t-120.5 -47.5l-49 150q70 37 170 62.5t203 25.5q102 0 169.5 -18.5t108.5 -60.5t58.5 -111.5t17.5 -174.5v-266q0 -53 20.5 -72.5t61.5 -19.5v-164 q-37 -8 -92 -8q-74 0 -122 21.5t-77 66.5q-47 -45 -119.5 -72.5t-136.5 -27.5q-96 0 -153.5 22.5t-90 61t-43 88t-10.5 102.5zM305 262q0 -55 21.5 -86t81.5 -31q33 0 77.5 13.5t79.5 46.5v164q-33 4 -63.5 5t-59.5 1q-78 0 -107.5 -30t-29.5 -83z" />
<glyph unicode="&#x431;" horiz-adv-x="1013" d="M78 559q0 154 16.5 273.5t64.5 206.5t133 140.5t220 75.5q76 12 129 21.5t90 18t63.5 14.5t51.5 10l43 -201q-59 -23 -148.5 -38t-203.5 -38q-68 -12 -117 -32.5t-83 -58.5t-52.5 -97t-24.5 -152q27 45 64.5 77t81 51.5t86.5 27.5t79 8q104 0 177 -31.5t118 -90 t64.5 -141.5t19.5 -185q0 -219 -110.5 -328.5t-345.5 -109.5q-109 0 -188 30.5t-130 99t-74.5 179t-23.5 270.5zM328 412q0 -53 8 -101.5t27.5 -85.5t51.5 -58.5t79 -21.5q121 0 163.5 74t42.5 215q0 53 -7 101.5t-25.5 85t-51 59t-84.5 22.5q-119 0 -161.5 -74.5 t-42.5 -215.5z" />
<glyph unicode="&#x432;" horiz-adv-x="925" d="M98 0v866h459q129 0 205 -52t76 -165q0 -72 -39 -115.5t-107 -70.5q74 -25 127 -74t53 -143q0 -59 -23.5 -105.5t-62 -77t-90 -47t-108.5 -16.5h-490zM336 170h182q109 0 109 104q0 43 -28 71t-81 28h-182v-203zM336 528h180q49 0 69.5 27.5t20.5 62.5t-19.5 56.5 t-66.5 21.5h-184v-168z" />
<glyph unicode="&#x433;" horiz-adv-x="704" d="M98 0v866h615v-180h-369v-686h-246z" />
<glyph unicode="&#x434;" horiz-adv-x="1042" d="M8 180h92q31 63 49.5 137t31 158t18.5 181.5t10 209.5h682v-686h123v-416h-209v236h-588v-236h-209v416zM334 180h315v506h-227q-8 -141 -28.5 -277.5t-59.5 -228.5z" />
<glyph unicode="&#x435;" horiz-adv-x="940" d="M63 438q0 449 431 449q119 0 193.5 -32t116.5 -89t57.5 -134t15.5 -169v-88h-562q0 -90 35 -146q47 -76 187 -75q102 0 163.5 23.5t116.5 47.5l45 -153q-27 -16 -66.5 -31.5t-89 -30t-102.5 -22.5t-106 -8q-240 0 -337.5 115.5t-97.5 342.5zM317 535h306q0 92 -31 142 t-103 50q-57 0 -92 -17.5t-54 -52t-24 -86.5q-2 -16 -2 -36z" />
<glyph unicode="&#x436;" horiz-adv-x="1314" d="M-27 0l312 449l-295 417h258l229 -344h64v344h233v-344h68l229 344h254l-295 -417l311 -449h-268l-235 352h-64v-352h-233v352h-68l-235 -352h-265z" />
<glyph unicode="&#x437;" horiz-adv-x="829" d="M16 55l68 162q61 -31 121.5 -51.5t144.5 -20.5q55 0 90 10.5t54.5 26t27.5 35t8 37.5q0 47 -38.5 72.5t-131.5 25.5h-120v156h114q47 0 78 10t49.5 25.5t25.5 35t7 35.5q0 47 -38 78t-105 31q-61 0 -115.5 -21.5t-89.5 -62.5l-131 127q63 63 147 92t207 29 q68 0 132.5 -12.5t114.5 -39t79.5 -69.5t29.5 -107q0 -72 -40.5 -121t-108.5 -75q74 -25 127 -74t53 -143q0 -133 -109.5 -199.5t-291.5 -66.5q-135 0 -220 23.5t-139 51.5z" />
<glyph unicode="&#x438;" d="M98 0v866h234v-673h14l236 673h344v-866h-234v674h-14l-236 -674h-344z" />
<glyph unicode="&#x439;" d="M98 0v866h234v-673h14l236 673h344v-866h-234v674h-14l-236 -674h-344zM207 1298h184q4 -72 30.5 -113.5t102.5 -41.5t102.5 42t30.5 113h184q0 -160 -70.5 -237.5t-246.5 -77.5t-246.5 78t-70.5 237z" />
<glyph unicode="&#x43a;" horiz-adv-x="911" d="M98 0v866h244v-340h57l269 340h262l-336 -417l352 -449h-272l-275 348h-57v-348h-244z" />
<glyph unicode="&#x43b;" horiz-adv-x="980" d="M4 4l12 189q10 -2 22.5 -3.5t27.5 -1.5q25 0 42 8.5t31.5 31t23.5 64.5t15 107q4 45 8 109.5t7.5 131.5t5.5 127t2 99h682v-866h-246v686h-217q-4 -53 -9 -136t-16 -183q-23 -201 -87 -289t-189 -88q-35 0 -67 4t-48 10z" />
<glyph unicode="&#x43c;" horiz-adv-x="1292" d="M98 0v866h359l194 -673h11l192 673h340v-866h-233v674h-15l-194 -674h-215l-195 674h-14v-674h-230z" />
<glyph unicode="&#x43d;" horiz-adv-x="962" d="M98 0v866h246v-342h274v342h246v-866h-246v344h-274v-344h-246z" />
<glyph unicode="&#x43e;" horiz-adv-x="999" d="M63 436q0 225 110 338t345 113q121 0 201 -32t128 -91t68.5 -144t20.5 -192q0 -225 -110.5 -336.5t-346.5 -111.5q-121 0 -200.5 31.5t-128 91t-68 143.5t-19.5 190zM313 422q0 -57 7.5 -107.5t26 -88.5t50 -59.5t82.5 -21.5q121 0 164 76t43 223q0 57 -7 107.5 t-25.5 88.5t-51.5 60.5t-84 22.5q-119 0 -162 -77t-43 -224z" />
<glyph unicode="&#x43f;" horiz-adv-x="954" d="M98 0v866h758v-866h-246v686h-266v-686h-246z" />
<glyph unicode="&#x440;" horiz-adv-x="983" d="M84 866h209l16 -51q43 29 88 45q76 27 162 27q186 0 274.5 -116t88.5 -312q0 -104 -22.5 -192.5t-73 -152t-130.5 -99t-192 -35.5q-61 0 -117 16q-20 6 -41 14v-409l-246 -33v1065zM346 176q15 -8 29 -12q45 -14 84 -14q45 0 83 14t65.5 48t44 89t16.5 139 q0 274 -191 275q-59 0 -106 -29q-12 -8 -25 -18v-492z" />
<glyph unicode="&#x441;" horiz-adv-x="876" d="M63 420q0 236 120 351.5t349 115.5q98 0 182.5 -32t127.5 -85l-137 -131q-35 43 -78 60.5t-97 17.5q-111 0 -165 -68.5t-54 -228.5q0 -129 47.5 -199.5t163.5 -70.5q78 0 134.5 17t117.5 48l45 -156q-47 -33 -131 -56t-190 -23q-238 0 -336.5 112.5t-98.5 327.5z" />
<glyph unicode="&#x442;" horiz-adv-x="790" d="M12 686v180h766v-180h-260v-686h-246v686h-260z" />
<glyph unicode="&#x443;" horiz-adv-x="890" d="M0 866h272l179 -585h18l172 585h250l-342 -936q-31 -82 -63.5 -148.5t-81 -114.5t-114 -73.5t-159.5 -25.5q-31 0 -64.5 2t-62.5 12l31 164q33 -6 71 -6q63 0 97.5 19.5t52.5 43.5q23 29 45.5 85.5t42.5 111.5z" />
<glyph unicode="&#x444;" horiz-adv-x="1355" d="M61 412q0 100 20.5 187t61.5 151.5t103.5 100.5t146.5 36q31 0 76 -4t88 -19v418l242 33v-451q43 14 88 18.5t76 4.5q170 0 250.5 -115t80.5 -319q0 -102 -20.5 -188.5t-61.5 -150t-103 -99t-146 -35.5q-31 0 -76 3t-88 17v-399l-242 -33v432q-43 -14 -88 -17t-76 -3 q-170 0 -251 113.5t-81 318.5zM303 432q0 -152 47 -223.5t125 -71.5q16 0 41 3t45 12v561q-20 10 -44.5 12t-41.5 2q-78 0 -125 -70.5t-47 -224.5zM795 152q20 -8 45 -11.5t41 -3.5q78 0 125 72t47 223q0 154 -47.5 224.5t-124.5 70.5q-16 0 -41 -2t-45 -12v-561z" />
<glyph unicode="&#x445;" horiz-adv-x="905" d="M0 0l256 444l-252 422h268l164 -321h31l164 321h262l-252 -417l264 -449h-270l-174 338h-31l-172 -338h-258z" />
<glyph unicode="&#x446;" horiz-adv-x="1003" d="M98 0v866h246v-686h262v686h246v-686h123v-416h-209v236h-668z" />
<glyph unicode="&#x447;" horiz-adv-x="917" d="M70 545v321h245v-280q0 -78 28 -111t99 -33q43 0 70 6.5t61 16.5v401h246v-866h-246v305q-53 -20 -110 -25.5t-98 -5.5q-135 0 -215 64.5t-80 206.5z" />
<glyph unicode="&#x448;" horiz-adv-x="1363" d="M98 0v866h246v-686h215v686h246v-686h215v686h246v-866h-1168z" />
<glyph unicode="&#x449;" horiz-adv-x="1417" d="M98 0v866h246v-686h215v686h246v-686h215v686h246v-686h123v-416h-209v236h-1082z" />
<glyph unicode="&#x44a;" horiz-adv-x="1046" d="M4 686v180h229h242v-293h225q63 0 120 -17t99 -52t66.5 -88.5t24.5 -124.5q0 -76 -24.5 -131.5t-70 -90t-106.5 -52t-137 -17.5h-439v686h-229zM475 170h160q125 0 125 121q0 49 -32 80.5t-93 31.5h-160v-233z" />
<glyph unicode="&#x44b;" horiz-adv-x="1300" d="M98 0v866h242v-293h205q63 0 119.5 -17t98.5 -52t66.5 -88.5t24.5 -124.5q0 -76 -24.5 -131.5t-69.5 -90t-106.5 -52t-137.5 -17.5h-418zM340 170h139q125 0 125 121q0 49 -31.5 80.5t-93.5 31.5h-139v-233zM956 0v866h246v-866h-246z" />
<glyph unicode="&#x44c;" horiz-adv-x="911" d="M98 0v866h242v-293h225q63 0 119.5 -17t98.5 -52t66.5 -88.5t24.5 -124.5q0 -76 -24.5 -131.5t-69.5 -90t-106.5 -52t-136.5 -17.5h-439zM340 170h160q125 0 125 121q0 49 -32 80.5t-93 31.5h-160v-233z" />
<glyph unicode="&#x44d;" horiz-adv-x="874" d="M16 51l68 162q61 -31 119.5 -49.5t142.5 -18.5q119 0 167 55.5t58 147.5h-340v164h340q-14 109 -70.5 160t-152.5 51q-53 0 -104 -21.5t-86 -62.5l-131 127q63 63 144 92t202 29q203 0 320.5 -105.5t117.5 -341.5q0 -109 -24.5 -193.5t-77 -144t-136.5 -91t-202 -31.5 q-135 0 -218 21.5t-137 49.5z" />
<glyph unicode="&#x44e;" horiz-adv-x="1355" d="M98 0v866h246v-348h133q33 369 422 369q111 0 185.5 -32t120.5 -91t66.5 -144t20.5 -192q0 -448 -432 -448q-100 0 -169.5 25.5t-116 72.5t-70 116.5t-29.5 155.5h-131v-350h-246zM711 422q0 -61 7 -112.5t24.5 -87.5t46 -56.5t73.5 -20.5q109 0 149 72t40 227 q0 61 -7.5 112.5t-25 88.5t-47 57.5t-74.5 20.5q-106 0 -146 -72.5t-40 -228.5z" />
<glyph unicode="&#x44f;" horiz-adv-x="948" d="M20 0l240 319q-82 23 -134 85.5t-52 170.5q0 152 93 221.5t245 69.5h438v-866h-242v293h-114l-209 -293h-265zM324 575q0 -49 31.5 -80.5t93.5 -31.5h159v233h-159q-125 0 -125 -121z" />
<glyph unicode="&#x451;" horiz-adv-x="940" d="M63 438q0 449 431 449q119 0 193.5 -32t116.5 -89t57.5 -134t15.5 -169v-88h-562q0 -90 35 -146q47 -76 187 -75q102 0 163.5 23.5t116.5 47.5l45 -153q-27 -16 -66.5 -31.5t-89 -30t-102.5 -22.5t-106 -8q-240 0 -337.5 115.5t-97.5 342.5zM185 1049v196h239v-196h-239z M317 535h306q0 92 -31 142t-103 50q-57 0 -92 -17.5t-54 -52t-24 -86.5q-2 -16 -2 -36zM566 1049v196h239v-196h-239z" />
<glyph unicode="&#x452;" horiz-adv-x="983" d="M-35 973v139h133v170l246 33v-203h307v-139h-307v-185q35 18 70 31q47 18 95 26.5t91 8.5q84 0 138.5 -21.5t87 -60.5t45 -94t12.5 -125v-619q0 -104 -20.5 -174.5t-65.5 -113.5t-114 -60.5t-167 -17.5h-14v176h20q72 0 93.5 35t21.5 125v596q0 33 -3 62.5t-14.5 52 t-35 36t-64.5 13.5q-55 0 -104 -17q-43 -16 -72 -37v-610h-246v973h-133z" />
<glyph unicode="&#x453;" horiz-adv-x="704" d="M98 0v866h615v-180h-369v-686h-246zM289 999l211 299h272l-258 -299h-225z" />
<glyph unicode="&#x454;" horiz-adv-x="876" d="M63 420q0 236 120 351.5t349 115.5q98 0 182.5 -32t127.5 -85l-137 -131q-35 43 -78 60.5t-97 17.5q-102 0 -156.5 -47t-68.5 -158h338v-164h-340q10 -98 60.5 -148t158.5 -50q78 0 134.5 17t117.5 48l45 -156q-47 -33 -131 -56t-190 -23q-238 0 -336.5 112.5 t-98.5 327.5z" />
<glyph unicode="&#x455;" horiz-adv-x="843" d="M55 45l74 172q53 -29 123 -45t156 -16q70 0 107.5 17t37.5 60q0 55 -117 93q-39 10 -81 22t-74 23q-45 14 -84 33.5t-69 48t-46 68.5t-16 95q0 135 101 203t275 68q111 0 192 -17.5t152 -46.5l-71 -172q-55 29 -125 46.5t-148 17.5q-70 0 -107.5 -18.5t-37.5 -53.5 q0 -31 29 -50.5t88 -37.5q12 -4 32.5 -10t44 -13.5t45 -14.5t37.5 -11q43 -12 83 -30.5t69 -47.5t46 -70t17 -100q0 -139 -100 -208.5t-278 -69.5q-117 0 -200 18t-155 47z" />
<glyph unicode="&#x456;" horiz-adv-x="446" d="M98 1049v196h250v-196h-250zM100 0v866h246v-866h-246z" />
<glyph unicode="&#x457;" horiz-adv-x="446" d="M-49 1049v196h215v-196h-215zM100 0v866h246v-866h-246zM276 1049v196h213v-196h-213z" />
<glyph unicode="&#x458;" horiz-adv-x="446" d="M-35 -256h21q72 0 93 35t21 125v962h246v-932q0 -104 -20.5 -174.5t-65.5 -113.5t-113.5 -60.5t-166.5 -17.5h-15v176zM98 1053v192h248v-192h-248z" />
<glyph unicode="&#x459;" horiz-adv-x="1419" d="M4 4l12 189q10 -2 22.5 -3.5t27.5 -1.5q25 0 42 8.5t31.5 31t23.5 64.5t15 107q4 45 8 109.5t7.5 131.5t5.5 127t2 99h426h241v-293h205q63 0 119.5 -17t98.5 -52t66.5 -88.5t24.5 -124.5q0 -76 -24.5 -131.5t-69.5 -90t-106.5 -52t-137.5 -17.5h-417v686h-207 q-4 -53 -9 -136t-16 -183q-23 -201 -87 -289t-189 -88q-35 0 -67 4t-48 10zM868 170h140q125 0 125 121q0 49 -32 80.5t-93 31.5h-140v-233z" />
<glyph unicode="&#x45a;" horiz-adv-x="1396" d="M98 0v866h246v-317h264v317h242v-317h211q63 0 118.5 -17.5t95.5 -51.5t62.5 -84t22.5 -117q0 -143 -88 -211t-240 -68h-424v369h-264v-369h-246zM850 170h149q115 0 115 109q0 41 -26.5 70.5t-88.5 29.5h-149v-209z" />
<glyph unicode="&#x45b;" horiz-adv-x="972" d="M-35 973v139h133v170l246 33v-203h307v-139h-307v-185q35 18 70 31q47 18 95 26.5t91 8.5q84 0 138.5 -21.5t87 -60.5t45 -94t12.5 -125v-553h-246v500q0 33 -3 62.5t-14.5 52t-35 36t-64.5 13.5q-55 0 -104 -17q-43 -16 -72 -37v-610h-246v973h-133z" />
<glyph unicode="&#x45c;" horiz-adv-x="911" d="M98 0v866h244v-340h57l269 340h262l-336 -417l352 -449h-272l-275 348h-57v-348h-244zM328 999l211 299h272l-258 -299h-225z" />
<glyph unicode="&#x45e;" horiz-adv-x="890" d="M0 866h272l179 -585h18l172 585h250l-342 -936q-31 -82 -63.5 -148.5t-81 -114.5t-114 -73.5t-159.5 -25.5q-31 0 -64.5 2t-62.5 12l31 164q33 -6 71 -6q63 0 97.5 19.5t52.5 43.5q23 29 45.5 85.5t42.5 111.5zM142 1298h184q4 -72 30.5 -113.5t102.5 -41.5t102.5 42 t30.5 113h184q0 -160 -70.5 -237.5t-246.5 -77.5t-246.5 78t-70.5 237z" />
<glyph unicode="&#x45f;" horiz-adv-x="950" d="M98 0v866h246v-686h262v686h246v-866h-272v-246h-209v246h-273z" />
<glyph unicode="&#x490;" horiz-adv-x="933" d="M133 0v1245h561v256h219v-452h-530v-1049h-250z" />
<glyph unicode="&#x491;" horiz-adv-x="704" d="M98 0v866h246h170v226h199v-406h-369v-686h-246z" />
<glyph unicode="&#x2000;" horiz-adv-x="876" />
<glyph unicode="&#x2001;" horiz-adv-x="1753" />
<glyph unicode="&#x2002;" horiz-adv-x="876" />
<glyph unicode="&#x2003;" horiz-adv-x="1753" />
<glyph unicode="&#x2004;" horiz-adv-x="584" />
<glyph unicode="&#x2005;" horiz-adv-x="438" />
<glyph unicode="&#x2006;" horiz-adv-x="292" />
<glyph unicode="&#x2007;" horiz-adv-x="292" />
<glyph unicode="&#x2008;" horiz-adv-x="219" />
<glyph unicode="&#x2009;" horiz-adv-x="350" />
<glyph unicode="&#x200a;" horiz-adv-x="97" />
<glyph unicode="&#x2010;" horiz-adv-x="692" d="M92 340v207h508v-207h-508z" />
<glyph unicode="&#x2011;" horiz-adv-x="692" d="M92 340v207h508v-207h-508z" />
<glyph unicode="&#x2012;" horiz-adv-x="692" d="M92 340v207h508v-207h-508z" />
<glyph unicode="&#x2013;" d="M94 365v192h834v-192h-834z" />
<glyph unicode="&#x2014;" horiz-adv-x="1536" d="M-2 365v192h1538v-192h-1538z" />
<glyph unicode="&#x2018;" horiz-adv-x="479" d="M88 779q0 94 11 168.5t32.5 138t54.5 119t78 110.5l149 -98q-37 -57 -57.5 -112.5t-29.5 -109t-11 -107.5t-2 -109h-225z" />
<glyph unicode="&#x2019;" horiz-adv-x="479" d="M66 860q37 57 57.5 112.5t29.5 109t11 107.5t2 109h225q0 -94 -11 -168.5t-32.5 -138t-54.5 -119t-78 -110.5z" />
<glyph unicode="&#x201a;" horiz-adv-x="483" d="M31 -207q37 57 57.5 112.5t29.5 109t11 107.5t2 109h225q0 -94 -11 -168.5t-32.5 -138t-54.5 -119t-78 -110.5z" />
<glyph unicode="&#x201c;" horiz-adv-x="858" d="M88 779q0 94 11 168.5t32.5 138t54.5 119t78 110.5l149 -98q-37 -57 -57.5 -112.5t-29.5 -109t-11 -107.5t-2 -109h-225zM467 779q0 94 11 168.5t32.5 138t54.5 119t78 110.5l149 -98q-37 -57 -57.5 -112.5t-29.5 -109t-11 -107.5t-2 -109h-225z" />
<glyph unicode="&#x201d;" horiz-adv-x="858" d="M66 860q37 57 57.5 112.5t29.5 109t11 107.5t2 109h225q0 -94 -11 -168.5t-32.5 -138t-54.5 -119t-78 -110.5zM424 860q37 57 57.5 112.5t29.5 109t11 107.5t2 109h225q0 -94 -11 -168.5t-32.5 -138t-54.5 -119t-78 -110.5z" />
<glyph unicode="&#x201e;" horiz-adv-x="837" d="M66 -207q37 57 57.5 112.5t29.5 109t11 107.5t2 109h225q0 -94 -11 -168.5t-32.5 -138t-54.5 -119t-78 -110.5zM424 -207q37 57 57.5 112.5t29.5 109t11 107.5t2 109h225q0 -94 -11 -168.5t-32.5 -138t-54.5 -119t-78 -110.5z" />
<glyph unicode="&#x2020;" horiz-adv-x="1087" d="M70 610v273l389 -56l-58 418h287l-61 -418l391 56v-273l-391 54l61 -418l-96 -666h-98l-93 666l58 418z" />
<glyph unicode="&#x2021;" horiz-adv-x="1087" d="M70 -57v272l389 -55l-35 252l35 252l-389 -54v273l389 -56l-58 418h287l-61 -418l391 56v-273l-391 54l37 -252l-37 -252l391 55v-272l-391 55l61 -418h-287l58 418z" />
<glyph unicode="&#x2022;" horiz-adv-x="565" d="M53 487q0 96 62.5 159t167.5 63q104 0 166.5 -62.5t62.5 -159.5q0 -96 -62.5 -159.5t-166.5 -63.5t-167 63.5t-63 159.5z" />
<glyph unicode="&#x2026;" horiz-adv-x="1394" d="M117 0v231h248v-231h-248zM575 0v231h248v-231h-248zM1034 0v231h248v-231h-248z" />
<glyph unicode="&#x202f;" horiz-adv-x="350" />
<glyph unicode="&#x2039;" horiz-adv-x="587" d="M31 432l311 373l162 -127l-203 -244l201 -237l-162 -136z" />
<glyph unicode="&#x203a;" horiz-adv-x="587" d="M84 188l203 244l-201 237l162 136l309 -371l-311 -373z" />
<glyph unicode="&#x205f;" horiz-adv-x="438" />
<glyph unicode="&#x20a9;" horiz-adv-x="1812" d="M47 403v138h227l-32 151h-195v137h164l-88 416h242l79 -416h246l70 416h307l74 -416h245l78 416h230l-88 -416h163v-137h-192l-31 -151h223v-138h-251l-84 -403h-324l-74 403h-250l-71 -403h-324l-88 403h-256zM471 692l29 -151h141l25 151h-195zM526 403l41 -208h17 l34 208h-92zM811 541h199l-27 151h-145zM862 829h96l-40 224h-17zM1165 692l27 -151h141l29 151h-197zM1217 403l36 -208h17l39 208h-92z" />
<glyph unicode="&#x20ac;" horiz-adv-x="1175" d="M16 420l50 137h129v66v45h-179l50 137h143q31 188 131 299q147 162 428 162q90 0 184.5 -24.5t169.5 -78.5l-75 -209q-51 53 -118 84t-153 31q-166 0 -246 -117q-41 -59 -61 -147h524l-51 -137h-491v-64v-47h452l-51 -137h-381q63 -231 313 -232q78 0 152 14.5t139 45.5 v-219q-72 -23 -151.5 -36t-157.5 -13q-305 0 -438 165q-86 106 -117 275h-195z" />
<glyph unicode="&#x20bd;" horiz-adv-x="1175" d="M37 229v148h184v110h-184v158h184v600h467q211 0 326.5 -96t115.5 -289q0 -170 -104 -271.5t-293 -101.5h-264v-110h289v-148h-289v-229h-248v229h-184zM469 645h203q37 0 72.5 11.5t63.5 36t45 63.5t17 94q0 57 -18 96t-47 62.5t-64.5 33t-68.5 9.5h-203v-406z" />
<glyph unicode="&#x2116;" horiz-adv-x="2066" d="M133 0v1245h428l373 -1052h16v1052h250v-1245h-428l-373 1053h-16v-1053h-250zM1323 936q0 166 80 248t254 82q88 0 147.5 -23.5t94 -66.5t50 -105.5t15.5 -140.5q0 -166 -81 -248t-255 -82q-88 0 -146.5 23.5t-94 66.5t-50 105.5t-14.5 140.5zM1364 344v164h559v-164 h-559zM1513 924q0 -80 22.5 -135.5t92.5 -55.5q86 0 116 52.5t30 156.5q0 39 -5.5 74t-18.5 60.5t-35.5 41t-57.5 15.5q-82 0 -113 -52.5t-31 -156.5z" />
<glyph unicode="&#x2122;" horiz-adv-x="1445" d="M0 1110v135h557v-135h-184v-506h-187v506h-186zM625 604v641h278l39 -160l47 -254h21l47 254l35 160h274v-641h-168v227l12 265h-22l-51 -260l-52 -205h-180l-53 211l-51 254h-23l13 -265v-227h-166z" />
<glyph unicode="&#x2212;" horiz-adv-x="1064" d="M115 406v192h833v-192h-833z" />
<glyph unicode="&#x25fc;" horiz-adv-x="870" d="M0 0v870h870v-870h-870z" />
<glyph unicode="&#xf6c3;" d="M311 -487q33 47 52.5 90t29.5 88t14.5 95t4.5 112h221q0 -156 -40 -276t-136 -222z" />
</font>
</defs>
</svg>
