<?xml version="1.0" standalone="no"?>
<!DOCTYPE svg PUBLIC "-//W3C//DTD SVG 1.1//EN" "http://www.w3.org/Graphics/SVG/1.1/DTD/svg11.dtd" >
<svg xmlns="http://www.w3.org/2000/svg" xmlns:xlink="http://www.w3.org/1999/xlink" version="1.1">
<metadata></metadata>
<defs>
<font id="lg_smartsemibold" horiz-adv-x="413" >
<font-face units-per-em="2048" ascent="1466" descent="-582" />
<missing-glyph horiz-adv-x="432" />
<glyph unicode="fi" horiz-adv-x="1038" d="M47 719v147h117v86q0 96 30.5 165t87 112t135.5 62.5t175 19.5q90 0 184 -11.5t154 -29.5v-199h-197v94h-8q-57 12 -121 13q-133 0 -190.5 -62.5t-57.5 -163.5v-86h572v-866h-193v719h-379v-719h-192v719h-117z" />
<glyph unicode="fl" horiz-adv-x="1056" d="M47 719v147h117v92q0 98 31.5 166t89 110t137.5 59.5t176 17.5q45 0 92 -3t91 -9.5t82 -13.5t65 -15v-1018q0 -78 20.5 -98.5t73.5 -20.5v-139q-6 -2 -18 -2q-10 -2 -21 -2h-18q-131 0 -180.5 67.5t-49.5 190.5v915h-8q-63 12 -127 13q-133 0 -188.5 -61.5t-55.5 -158.5 v-90h254v-147h-254v-719h-192v719h-117z" />
<glyph unicode="&#xd;" horiz-adv-x="419" />
<glyph horiz-adv-x="0" />
<glyph horiz-adv-x="0" />
<glyph unicode=" "  horiz-adv-x="432" />
<glyph unicode="&#x09;" horiz-adv-x="432" />
<glyph unicode="&#xa0;" horiz-adv-x="432" />
<glyph unicode="!" horiz-adv-x="473" d="M129 1245h215l-27 -917h-161zM135 0v195h203v-195h-203z" />
<glyph unicode="&#x22;" horiz-adv-x="792" d="M133 1298h188l-26 -471h-135zM471 1298h188l-26 -471h-135z" />
<glyph unicode="#" horiz-adv-x="1007" d="M119 266v135h147v203h-147v135h147v127h146v-127h182v127h145v-127h148v-135h-148v-203h148v-135h-148v-127h-145v127h-182v-127h-146v127h-147zM412 401h182v203h-182v-203z" />
<glyph unicode="$" horiz-adv-x="1005" d="M66 74l73 149q86 -39 166 -59q70 -16 148 -19v398q-88 33 -162 69q-102 49 -155.5 117t-53.5 197q0 82 32.5 144.5t92 105.5t143.5 63q47 12 103 18v168h120v-163q86 -4 170 -21q100 -18 183 -61l-70 -148q-59 29 -139 49q-68 18 -144 23v-397q39 -14 80 -31 q45 -18 86 -39q43 -23 80 -48.5t64.5 -61t44 -85t16.5 -116.5q0 -166 -127 -256q-96 -68 -244 -84v-154h-120v150q-90 4 -187 22q-109 23 -200 70zM281 940q0 -61 32.5 -100t87.5 -64q23 -12 52 -24v346q-70 -10 -109 -39q-63 -43 -63 -119zM573 152q70 9 111 38 q66 47 66 123q0 57 -32 95t-75 61q-33 14 -70 31v-348z" />
<glyph unicode="%" horiz-adv-x="1339" d="M49 934q0 154 61.5 244t196.5 90q129 0 190.5 -90.5t61.5 -243.5q0 -150 -61.5 -241t-190.5 -91q-135 0 -196.5 91t-61.5 241zM127 -59l903 1368h180l-905 -1368h-178zM193 934q0 -104 26.5 -160.5t87.5 -56.5q59 0 85 56.5t26 160.5t-25.5 162.5t-85.5 58.5 q-61 0 -87.5 -58.5t-26.5 -162.5zM803 313q0 152 61.5 243t194.5 91q129 0 191.5 -90t62.5 -244q0 -150 -62.5 -240.5t-191.5 -90.5q-133 0 -194.5 91t-61.5 240zM946 313q0 -104 26.5 -160.5t86.5 -56.5q61 0 85.5 56.5t24.5 160.5t-24.5 163t-85.5 59q-59 0 -86 -58.5 t-27 -163.5z" />
<glyph unicode="&#x26;" horiz-adv-x="1153" d="M55 315q0 143 88 240q61 68 166 121q-33 43 -59 88q-53 86 -53 184q0 74 26.5 132.5t73.5 99.5t114.5 63.5t147.5 22.5q74 0 135.5 -16.5t106.5 -50.5t70.5 -87t25.5 -127q0 -80 -33 -139.5t-88 -104.5t-127 -79q-33 -16 -67 -33l225 -254q25 35 45 76q45 86 76 170 l168 -43q-45 -106 -105 -213q-33 -61 -71 -115l221 -250h-234l-106 119q-57 -51 -125 -86q-102 -53 -234 -53q-84 0 -154.5 16t-122.5 55t-81 103.5t-29 160.5zM254 326q0 -98 55.5 -144.5t145.5 -46.5q88 0 159 45q43 25 80 60l-278 313q-7 -2 -13 -6q-45 -27 -77.5 -59.5 t-52 -72.5t-19.5 -89zM393 952q0 -80 39 -141q18 -29 45 -63q26 12 51 22q53 23 91 51.5t60.5 63.5t22.5 84q0 68 -35.5 106.5t-103.5 38.5q-170 0 -170 -162z" />
<glyph unicode="'" horiz-adv-x="448" d="M129 1298h188l-26 -471h-135z" />
<glyph unicode="(" horiz-adv-x="649" d="M92 502q0 150 24.5 268.5t73 220t117 192.5t156.5 185l121 -100q-76 -84 -132.5 -166t-93 -172t-55 -194.5t-18.5 -233.5q0 -131 18.5 -236.5t56 -198t94 -175t130.5 -168.5l-121 -101q-86 94 -155.5 186.5t-117 196t-73 224t-25.5 272.5z" />
<glyph unicode=")" horiz-adv-x="649" d="M63 -276q74 86 130.5 168.5t94.5 174t57.5 198t19.5 237.5q0 129 -18.5 233.5t-56.5 194.5t-94.5 172t-132.5 166l123 100q86 -94 155 -185t117 -192.5t72.5 -220t24.5 -268.5q0 -152 -24.5 -272.5t-72.5 -224t-117 -196t-155 -186.5z" />
<glyph unicode="*" horiz-adv-x="856" d="M55 915l58 193l245 -113l-30 269h200l-30 -267l245 111l58 -193l-260 -55l188 -205l-166 -112l-135 235l-135 -235l-166 112l186 205z" />
<glyph unicode="+" horiz-adv-x="1064" d="M135 424v156h314v309h165v-309h316v-156h-316v-307h-165v307h-314z" />
<glyph unicode="," horiz-adv-x="411" d="M23 -211q59 104 77.5 199.5t18.5 206.5h180q0 -82 -10 -148.5t-29.5 -124t-48.5 -109t-66 -102.5z" />
<glyph unicode="-" horiz-adv-x="692" d="M100 360v164h490v-164h-490z" />
<glyph unicode="." d="M102 0v195h205v-195h-205z" />
<glyph unicode="/" horiz-adv-x="700" d="M8 -68l498 1366h186l-497 -1366h-187z" />
<glyph unicode="0" horiz-adv-x="1064" d="M68 621q0 137 25.5 254.5t80.5 204.5t144.5 136.5t216.5 49.5q125 0 213 -50.5t143 -136.5t79.5 -202.5t24.5 -251.5q0 -137 -25.5 -255t-80.5 -205t-144.5 -136t-216.5 -49t-215 50t-142 138t-78.5 203.5t-24.5 249.5zM262 621q0 -111 14.5 -200t46 -153.5t83 -99.5 t122.5 -35q74 0 125.5 35t84 99.5t47 155.5t14.5 202q0 100 -13.5 189t-44 155.5t-80.5 104.5t-124 38q-76 0 -128.5 -37t-85 -101.5t-47 -154.5t-14.5 -198z" />
<glyph unicode="1" horiz-adv-x="1064" d="M170 1051l385 194h135v-1245h-196v1055l-263 -131z" />
<glyph unicode="2" horiz-adv-x="1064" d="M94 1153q96 53 195.5 83t206.5 30q94 0 175 -19.5t138 -62.5t90 -110.5t33 -164.5q0 -61 -19.5 -119.5t-54.5 -113.5t-82 -110.5t-102 -112.5l-291 -297h584v-156h-854v113l413 424q113 117 156 200.5t43 165.5q0 104 -69.5 156.5t-174.5 52.5q-92 0 -171 -26.5 t-150 -67.5z" />
<glyph unicode="3" horiz-adv-x="1064" d="M74 125l102 127q51 -39 132 -75t188 -36q123 0 200.5 54.5t77.5 164.5q0 104 -75.5 158.5t-211.5 54.5q-43 0 -72.5 -4t-45.5 -8l-4 164h71q53 0 106.5 10t95.5 34t68.5 61.5t26.5 93.5q0 98 -63.5 141t-165.5 43q-92 0 -171 -33t-132 -69l-80 131q27 20 66.5 42.5t91 42 t113 32t128.5 12.5q195 0 306.5 -76t111.5 -246q0 -49 -16.5 -92t-44 -77t-63.5 -58.5t-75 -38.5q109 -35 177.5 -110.5t68.5 -209.5q0 -96 -36 -166.5t-99.5 -117.5t-153.5 -70.5t-196 -23.5q-150 0 -258.5 44t-167.5 101z" />
<glyph unicode="4" horiz-adv-x="1064" d="M45 268v117l496 860h301v-827h164v-150h-164v-268h-195v268h-602zM254 418h393v672h-16z" />
<glyph unicode="5" horiz-adv-x="1064" d="M102 127l109 129q53 -47 122.5 -82t164.5 -35q129 0 198.5 61.5t69.5 180.5q0 68 -26.5 116t-72.5 77.5t-108.5 43t-136.5 13.5h-238v614h707v-151h-510v-312h57q248 0 389.5 -89t141.5 -296t-129 -312t-346 -105q-137 0 -233.5 44t-158.5 103z" />
<glyph unicode="6" horiz-adv-x="1064" d="M94 563q0 164 32 294t100.5 221t175 139t255.5 48q80 0 145.5 -12t119.5 -35l-45 -145q-43 16 -96.5 26.5t-112.5 10.5q-115 0 -187.5 -43t-113.5 -118t-56 -173q-4 -27 -8 -53q43 29 98 47q82 27 170 26q199 0 301.5 -96t102.5 -291q0 -96 -28.5 -176t-84 -136 t-136.5 -87t-185 -31q-217 0 -332 136.5t-115 447.5zM295 561q0 -84 10 -160q8 -80 35 -140t75 -96t128 -36q111 0 172 66.5t61 201.5q0 117 -63.5 178.5t-173.5 61.5q-86 0 -156 -29q-49 -20 -88 -47z" />
<glyph unicode="7" horiz-adv-x="1064" d="M82 1092v153h901v-106l-459 -1139h-207l445 1092h-680z" />
<glyph unicode="8" horiz-adv-x="1064" d="M72 336q0 59 18.5 110.5t49 91.5t71.5 67.5t88 41.5q-82 35 -137.5 103.5t-55.5 179.5q0 160 111 248t315 88q203 0 313.5 -88t110.5 -248q0 -111 -55 -180.5t-137 -102.5q92 -29 159.5 -108.5t67.5 -202.5q0 -176 -121.5 -266t-337.5 -90q-215 0 -337.5 90t-122.5 266z M283 350q0 -109 64.5 -165t184.5 -56q115 0 179.5 56t64.5 165q0 104 -64.5 158.5t-179.5 54.5q-121 0 -185 -54t-64 -159zM309 915q0 -96 58.5 -148t164.5 -52q102 0 159 52t57 148q0 98 -56.5 149.5t-159.5 51.5q-106 0 -164.5 -51t-58.5 -150z" />
<glyph unicode="9" horiz-adv-x="1064" d="M90 836q0 96 28.5 176t84 136t136.5 87t185 31q217 0 332 -136.5t115 -447.5q0 -164 -32 -294t-100.5 -221t-175 -139t-255.5 -48q-80 0 -145.5 12t-119.5 35l45 145q43 -16 96.5 -26.5t112.5 -10.5q115 0 187.5 43t113.5 118t56 173q4 27 8 53q-43 -29 -98 -47 q-82 -27 -170 -26q-199 0 -301.5 96t-102.5 291zM289 848q0 -117 63.5 -178.5t173.5 -61.5q86 0 156 29q49 20 88 47q0 84 -10 160q-8 80 -35 140t-75 96t-128 36q-111 0 -172 -66.5t-61 -201.5z" />
<glyph unicode=":" d="M102 0v195h205v-195h-205zM102 670v195h205v-195h-205z" />
<glyph unicode=";" d="M23 -211q59 104 77.5 199.5t18.5 206.5h180q0 -82 -10 -148.5t-29.5 -124t-48.5 -109t-66 -102.5zM106 670v195h205v-195h-205z" />
<glyph unicode="&#x3c;" horiz-adv-x="1064" d="M193 502l524 524l121 -111l-408 -407l410 -410l-123 -121z" />
<glyph unicode="=" horiz-adv-x="1064" d="M131 289v155h801v-155h-801zM131 559v156h801v-156h-801z" />
<glyph unicode="&#x3e;" horiz-adv-x="1064" d="M186 906l123 121l524 -525l-524 -524l-121 111l408 407z" />
<glyph unicode="?" horiz-adv-x="811" d="M35 1176q61 37 150 63.5t190 26.5q80 0 147.5 -17.5t115.5 -53.5t75.5 -92t27.5 -132q0 -72 -23.5 -124t-58 -95t-74.5 -80t-75 -77t-58.5 -87t-23.5 -111v-69h-180v102q0 104 45 175t98 125t98.5 103.5t45.5 110.5q0 72 -48.5 115t-146.5 43q-74 0 -139.5 -22.5 t-108.5 -51.5zM238 0v195h204v-195h-204z" />
<glyph unicode="@" horiz-adv-x="1896" d="M80 270q0 244 71.5 430.5t202.5 312.5t314.5 189.5t408.5 63.5q178 0 317.5 -38t235.5 -121t147.5 -213t51.5 -314q0 -121 -30 -228.5t-90 -187.5t-152.5 -127t-215.5 -47q-113 0 -184 55q-39 31 -61 80q-6 -8 -15 -16q-35 -37 -79 -66t-98 -46t-122 -17 q-145 0 -214.5 91t-69.5 234q0 291 144.5 436.5t416.5 145.5q74 0 153.5 -13.5t137.5 -42.5l-95 -471q-10 -51 -10 -94q0 -53 25.5 -87t85.5 -34q74 0 128 34t90 92.5t52 139.5t16 173q0 150 -37.5 251t-110.5 162.5t-180.5 88t-246.5 26.5q-190 0 -339.5 -55.5t-252 -162 t-156 -263t-53.5 -361.5q0 -147 37 -250.5t107.5 -168t173 -93t231.5 -28.5q96 0 175 13t171 38l43 -143q-90 -29 -186 -46.5t-207 -17.5q-350 0 -540.5 168t-190.5 528zM694 330q0 -100 36 -152.5t95 -52.5q82 0 142 49q43 37 84 94l98 469q-43 11 -94 11 q-188 0 -274.5 -112t-86.5 -306z" />
<glyph unicode="A" horiz-adv-x="1196" d="M12 0l451 1245h272l447 -1245h-217l-117 344h-508l-117 -344h-211zM393 504h400l-191 586h-16z" />
<glyph unicode="B" horiz-adv-x="1112" d="M135 0v1245h465q186 0 295 -70.5t109 -238.5q0 -100 -49.5 -168.5t-139.5 -103.5q98 -31 161.5 -105t63.5 -199q0 -96 -33.5 -164.5t-90 -111.5t-132 -63.5t-159.5 -20.5h-490zM328 158h266q47 0 90 8t76 31.5t52 62.5t19 100t-17 102.5t-48 65t-73 33.5t-91 10h-274 v-413zM328 723h268q98 0 150.5 48t52.5 136q0 55 -16.5 90t-46 55.5t-67.5 27.5t-81 7h-260v-364z" />
<glyph unicode="C" horiz-adv-x="1128" d="M84 623q0 330 148.5 486.5t420.5 156.5q117 0 229.5 -41t180.5 -125l-117 -115q-53 59 -120.5 91t-166.5 32q-193 0 -282.5 -128t-89.5 -376q0 -223 87 -340t273 -117q113 0 202 24t161 54l47 -153q-76 -39 -189.5 -65.5t-230.5 -26.5q-293 2 -423 163.5t-130 479.5z" />
<glyph unicode="D" horiz-adv-x="1222" d="M135 0v1245h377q150 0 266.5 -33.5t196.5 -108.5t122 -195t42 -290q0 -176 -51.5 -294.5t-141.5 -190.5t-214 -102.5t-269 -30.5h-328zM332 158h125q113 0 200.5 22.5t149 76.5t93.5 147.5t32 234.5q0 233 -108.5 340.5t-313.5 107.5h-178v-929z" />
<glyph unicode="E" horiz-adv-x="1024" d="M135 0v1245h770v-158h-573v-368h555v-156h-555v-405h594v-158h-791z" />
<glyph unicode="F" horiz-adv-x="954" d="M135 0v1245h744v-158h-547v-368h508v-156h-508v-563h-197z" />
<glyph unicode="G" horiz-adv-x="1234" d="M84 623q0 328 158.5 485.5t437.5 157.5q135 0 246.5 -42t183.5 -130l-121 -109q-53 57 -125.5 92t-179.5 35q-205 0 -302 -130t-97 -378q0 -229 96 -348t293 -119q84 0 151 13q49 8 90 18v336h-286v153h479v-594q-86 -39 -199.5 -61t-244.5 -22q-301 0 -440.5 164.5 t-139.5 478.5z" />
<glyph unicode="H" horiz-adv-x="1251" d="M135 0v1245h197v-540h588v540h196v-1245h-196v545h-588v-545h-197z" />
<glyph unicode="I" horiz-adv-x="468" d="M135 0v1245h197v-1245h-197z" />
<glyph unicode="J" horiz-adv-x="667" d="M2 18l27 148q35 -10 72.5 -14.5t66.5 -4.5q82 0 126 43t44 156v899h197v-876q0 -203 -83 -291t-270 -88q-43 0 -91 6t-89 22z" />
<glyph unicode="K" horiz-adv-x="1095" d="M135 0v1245h197v-545h100l442 545h226l-504 -610l483 -635h-237l-410 547h-100v-547h-197z" />
<glyph unicode="L" horiz-adv-x="884" d="M135 0v1245h197v-1087h547v-158h-744z" />
<glyph unicode="M" horiz-adv-x="1556" d="M135 0v1245h354l291 -1089h17l280 1089h344v-1245h-196v1090h-17l-293 -1090h-266l-301 1090h-16v-1090h-197z" />
<glyph unicode="N" horiz-adv-x="1325" d="M135 0v1245h344l496 -1089h16v1089h197v-1245h-342l-498 1090h-16v-1090h-197z" />
<glyph unicode="O" horiz-adv-x="1257" d="M84 629q0 324 137 480.5t428 156.5q145 0 245.5 -45t162 -129t89.5 -204t28 -272q0 -322 -138.5 -479t-431.5 -157q-147 0 -246.5 45t-160 129t-87 203.5t-26.5 271.5zM285 608q0 -98 14 -184t50 -149.5t97.5 -100.5t153.5 -37q106 0 177 33t114 96.5t60.5 157.5 t17.5 217q0 96 -14.5 182t-50.5 150.5t-97.5 101.5t-155.5 37q-104 0 -173.5 -32.5t-112.5 -96t-61.5 -158t-18.5 -217.5z" />
<glyph unicode="P" horiz-adv-x="1062" d="M135 0v1245h443q209 0 319.5 -93t110.5 -284q0 -96 -30 -169.5t-84 -126t-129 -79t-163 -26.5h-270v-467h-197zM332 625h239q49 0 91.5 14t74 43t50 75t18.5 111q0 61 -19.5 102.5t-52.5 68t-75 37.5t-87 11h-239v-462z" />
<glyph unicode="Q" horiz-adv-x="1257" d="M84 627q0 324 137 481.5t430 157.5q147 0 247.5 -45t161 -129t87.5 -205t27 -273q0 -182 -48.5 -304t-128.5 -195q-27 -25 -53 -43l248 -232l-150 -106l-264 266q-86 -20 -174 -20q-145 0 -244.5 44t-161 128t-88 203.5t-26.5 271.5zM285 606q0 -100 14 -186t49 -149.5 t96.5 -100.5t155.5 -37q106 0 177 33t114 96.5t60.5 157.5t17.5 219q0 98 -13.5 184t-48.5 150.5t-96 101.5t-158 37q-104 0 -174.5 -32.5t-113.5 -96t-61.5 -159t-18.5 -218.5z" />
<glyph unicode="R" horiz-adv-x="1101" d="M135 0v1245h457q211 0 320.5 -84t109.5 -274q0 -164 -88 -252q-61 -61 -148 -94l271 -541h-215l-250 510h-260v-510h-197zM332 666h258q98 0 162.5 49t64.5 172q0 109 -64.5 154.5t-162.5 45.5h-258v-421z" />
<glyph unicode="S" horiz-adv-x="1013" d="M68 74l73 149q86 -41 165 -61.5t171 -20.5q143 0 208 48.5t65 123.5q0 57 -32 95t-75 61q-74 37 -171 69.5t-179 73.5q-102 49 -156.5 117t-54.5 197q0 82 32.5 145.5t93 106.5t144.5 65.5t189 22.5q102 0 202.5 -20.5t182.5 -65.5l-68 -148q-57 29 -139 52.5t-178 23.5 q-129 0 -194.5 -45t-65.5 -123q0 -61 33.5 -100t86.5 -64q33 -16 75 -32.5t87 -33t90 -35t86 -38.5q43 -23 81 -48.5t65.5 -61t44 -85t16.5 -116.5q0 -84 -32.5 -147.5t-94 -108.5t-147.5 -67.5t-191 -22.5q-104 0 -212.5 23.5t-200.5 70.5z" />
<glyph unicode="T" horiz-adv-x="968" d="M6 1087v158h957v-158h-381v-1087h-197v1087h-379z" />
<glyph unicode="U" horiz-adv-x="1198" d="M121 492v753h196v-782q0 -156 59.5 -242t205.5 -86q164 0 231.5 82t67.5 277v751h196v-766q0 -266 -127 -382.5t-366 -116.5q-238 0 -350.5 119.5t-112.5 392.5z" />
<glyph unicode="V" horiz-adv-x="1093" d="M6 1245h213l332 -1089h16l316 1089h204l-395 -1245h-272z" />
<glyph unicode="W" horiz-adv-x="1744" d="M8 1245h215l262 -1089h17l227 1089h299l236 -1089h16l252 1089h205l-324 -1245h-291l-239 1090h-17l-229 -1090h-293z" />
<glyph unicode="X" horiz-adv-x="1132" d="M14 0l387 639l-362 606h231l279 -497h37l282 497h222l-361 -602l389 -643h-227l-309 539h-37l-307 -539h-224z" />
<glyph unicode="Y" horiz-adv-x="1087" d="M-2 1245h231l308 -530h16l307 530h227l-446 -713v-532h-197v530q-23 35 -58.5 93.5t-77.5 126t-88 140.5t-88 140.5t-77 123.5t-57 91z" />
<glyph unicode="Z" horiz-adv-x="1040" d="M47 0v127l694 963h-649v155h891v-127l-694 -960h692v-158h-934z" />
<glyph unicode="[" horiz-adv-x="647" d="M92 -369v1686h471v-156h-276v-1376h276v-154h-471z" />
<glyph unicode="\" horiz-adv-x="700" d="M8 1298h187l497 -1366h-186z" />
<glyph unicode="]" horiz-adv-x="647" d="M84 -215h276v1376h-276v156h471v-1686h-471v154z" />
<glyph unicode="^" horiz-adv-x="860" d="M57 584l230 661h288l228 -661h-170l-195 532h-16l-186 -532h-179z" />
<glyph unicode="_" horiz-adv-x="802" d="M68 -82h667v-137h-667v137z" />
<glyph unicode="`" horiz-adv-x="1007" d="M266 1294h215l217 -299h-184z" />
<glyph unicode="a" horiz-adv-x="894" d="M59 250q0 82 28 135t77 84t118.5 42t153.5 11q78 0 156 -6v41q0 100 -40 144t-149 44q-76 0 -145.5 -19t-120.5 -46l-43 123q70 35 163 59.5t196 24.5q94 0 158.5 -18.5t103.5 -60.5t55 -111.5t16 -170.5v-290q0 -59 20.5 -81t61.5 -22v-135q-31 -6 -71 -6 q-70 0 -111 23.5t-63 68.5q-47 -43 -122 -73.5t-157 -30.5q-86 0 -141.5 21.5t-87 58t-44 86t-12.5 104.5zM260 256q0 -70 29.5 -104.5t105.5 -34.5q47 0 101.5 21.5t95.5 56.5v184q-41 6 -80 7t-80 1q-98 0 -135 -32.5t-37 -98.5z" />
<glyph unicode="b" horiz-adv-x="960" d="M109 0v1286l194 25v-486q37 23 74 35q72 27 158 27q184 0 272 -116t88 -318q0 -104 -22.5 -190.5t-72.5 -150t-129 -98t-192 -34.5q-66 0 -119 16q-47 12 -94 39l-14 -35h-143zM303 160q24 -17 49 -25q49 -16 97 -16q113 0 179 73.5t66 249.5q0 68 -12 123.5t-38 95 t-67.5 62t-103.5 22.5q-70 0 -123 -30q-23 -12 -47 -33v-522z" />
<glyph unicode="c" horiz-adv-x="843" d="M68 420q0 236 115.5 351.5t338.5 115.5q90 0 167 -30t120 -81l-111 -106q-70 78 -180 78q-125 0 -189.5 -78t-64.5 -252q0 -139 55.5 -219t188.5 -80q76 0 132 16.5t112 44.5l39 -127q-43 -29 -124 -51t-178 -22q-115 0 -194.5 28.5t-130.5 85t-73.5 138t-22.5 188.5z " />
<glyph unicode="d" horiz-adv-x="970" d="M68 414q0 104 22.5 190t72.5 149.5t129 98.5t191 35q66 0 117 -17q29 -8 59 -22v438l193 25v-1084l16 -227h-168l-16 57q-47 -35 -98 -53q-72 -24 -158 -24q-188 0 -274 114.5t-86 319.5zM268 424q0 -68 11.5 -123t38 -95t67.5 -62.5t102 -22.5q72 0 123 31q25 14 49 34 v521q-24 16 -49 24q-49 16 -96 17q-115 0 -180.5 -74t-65.5 -250z" />
<glyph unicode="e" horiz-adv-x="917" d="M68 438q0 449 413 449q113 0 184.5 -32t111.5 -89t55.5 -134t15.5 -169v-78h-580q2 -127 47 -188q57 -74 201 -74q98 0 162.5 23.5t114.5 46.5l41 -125q-25 -14 -63 -29.5t-85 -29t-98.5 -21.5t-102.5 -8q-117 0 -196.5 28.5t-128.5 86t-70.5 143.5t-21.5 200zM270 520 h377q0 123 -42 178.5t-126 55.5q-66 0 -106.5 -19.5t-64 -58.5t-32.5 -98q-4 -27 -6 -58z" />
<glyph unicode="f" horiz-adv-x="643" d="M37 719v147h125v105q0 98 25.5 162.5t70.5 104.5t108.5 56.5t139.5 16.5q53 0 104.5 -8.5t91.5 -24.5l-40 -139q-63 24 -131 24h-5q-94 0 -132 -45t-38 -147v-105h301v-147h-301v-719h-192v719h-127z" />
<glyph unicode="g" horiz-adv-x="960" d="M68 410q0 104 21.5 192t71.5 151.5t131 98.5t200 35q63 0 112 -14.5t90 -34.5l8 28h150v-897q0 -111 -30.5 -186.5t-87 -122.5t-134.5 -67.5t-170 -20.5q-86 0 -158.5 12.5t-126.5 32.5l50 137q41 -12 97 -24.5t132 -12.5q51 0 94 11.5t75 37t49 68.5t17 107v88 q-49 -23 -101 -36t-116 -13q-197 0 -285.5 112.5t-88.5 317.5zM268 416q0 -61 11.5 -114.5t38 -94.5t71.5 -64.5t113 -23.5q41 0 78.5 10t78.5 31v555q-35 14 -67.5 23.5t-71.5 9.5q-133 0 -192.5 -78t-59.5 -254z" />
<glyph unicode="h" horiz-adv-x="958" d="M109 0v1286l194 25v-500q39 25 84 39q98 35 188 35q86 0 140.5 -21.5t86.5 -61.5t44 -98.5t12 -134.5v-569h-192v528q0 43 -5.5 81t-20.5 64.5t-44 42t-78 15.5q-55 0 -100 -14.5t-82 -36.5q-16 -10 -33 -23v-657h-194z" />
<glyph unicode="i" d="M109 1059v174h196v-174h-196zM111 0v866h192v-866h-192z" />
<glyph unicode="j" d="M-43 -285h18q84 0 110 39t26 148v964h192v-929q0 -98 -15.5 -168t-53 -113t-101 -63.5t-160.5 -20.5h-16v143zM109 1063v170h194v-170h-194z" />
<glyph unicode="k" horiz-adv-x="890" d="M109 0v1286l192 25v-768h76l297 323h217l-363 -395l375 -471h-219l-311 395h-72v-395h-192z" />
<glyph unicode="l" horiz-adv-x="430" d="M109 248v1038l192 25v-1059q0 -78 20.5 -98.5t73.5 -20.5v-139q-6 -2 -18 -2q-10 -2 -21 -2h-18q-131 0 -180 67.5t-49 190.5z" />
<glyph unicode="m" horiz-adv-x="1433" d="M94 866h180l5 -67q45 33 94 53q86 35 174 35q84 0 136 -21.5t81 -62.5l4 -4q47 33 104 53q98 35 185 35q84 0 137 -21.5t84 -62.5t43 -100.5t12 -133.5v-569h-192v528q0 45 -4 82t-17.5 64.5t-41 43t-72.5 15.5q-53 0 -97.5 -14t-79.5 -39l-18 -12q6 -45 6 -99v-569h-192 v528q0 45 -3.5 82t-17.5 64.5t-40.5 43t-74.5 15.5q-53 0 -96 -14t-78 -39l-12 -8v-672h-192v635z" />
<glyph unicode="n" horiz-adv-x="960" d="M94 866h180l7 -67q49 33 106 53q98 35 188 35q86 0 140.5 -21.5t86.5 -62.5t44 -99.5t12 -134.5v-569h-192v528q0 45 -5.5 82t-20.5 64.5t-44 43t-78 15.5q-55 0 -100 -15.5t-82 -37.5q-16 -10 -33 -23v-657h-192v635z" />
<glyph unicode="o" horiz-adv-x="976" d="M68 436q0 229 105.5 340t334.5 111q115 0 191.5 -32t123.5 -91t66.5 -144t19.5 -192q0 -229 -106.5 -338.5t-335.5 -109.5q-115 0 -191.5 31.5t-123 90t-65.5 143.5t-19 191zM266 422q0 -63 8.5 -118.5t31 -97.5t61.5 -65.5t100 -23.5q141 0 192.5 83t51.5 244 q0 61 -8.5 117.5t-31 98.5t-62.5 67t-101 25q-139 0 -190.5 -85t-51.5 -245z" />
<glyph unicode="p" horiz-adv-x="962" d="M94 866h166l16 -57q49 33 101 51q72 27 158 27q184 0 272 -116t88 -318q0 -104 -22.5 -190.5t-72.5 -150t-129 -98t-192 -34.5q-66 0 -119 16q-29 6 -57 20v-419l-192 -25v1069zM303 160q24 -17 49 -25q49 -16 97 -16q113 0 179 73.5t66 249.5q0 68 -12 123.5t-38 95 t-67.5 62t-103.5 22.5q-70 0 -123 -30q-23 -12 -47 -33v-522z" />
<glyph unicode="q" horiz-adv-x="962" d="M68 414q0 104 22.5 190t72.5 149.5t128.5 98.5t191.5 35q66 0 117 -17q45 -12 92 -39l15 35h145v-1269l-195 -25v467q-35 -20 -71 -35q-69 -24 -151 -24h-7q-188 0 -274 114.5t-86 319.5zM268 424q0 -68 11.5 -123t38 -95t67.5 -62.5t102 -22.5q72 0 123 31q23 14 47 32 v525q-24 14 -47 22q-49 16 -96 17q-115 0 -180.5 -74t-65.5 -250z" />
<glyph unicode="r" horiz-adv-x="677" d="M88 866h180l13 -104q43 51 94 78q86 47 176 47q41 0 74.5 -7.5t56.5 -17.5l-49 -157q-37 22 -100 22h-5q-74 0 -141 -41q-41 -25 -80 -68v-618h-194v625z" />
<glyph unicode="s" horiz-adv-x="819" d="M59 41l60 141q51 -29 119.5 -44t148.5 -15q78 0 131 20.5t53 81.5q0 68 -110 109q-51 16 -105.5 33.5t-99.5 35.5q-78 27 -131 77t-53 149q0 68 28.5 117t77.5 80.5t115.5 46t140.5 14.5q104 0 181 -16.5t137 -41.5l-60 -139q-53 27 -117.5 41t-140.5 14 q-92 0 -135 -26.5t-43 -69.5q0 -35 26 -57t83 -45q16 -8 41.5 -17.5t52.5 -19.5l108 -35q39 -12 75 -30.5t61.5 -46t41 -65.5t15.5 -89q0 -135 -97.5 -199.5t-275.5 -64.5q-98 0 -180 16t-148 45z" />
<glyph unicode="t" horiz-adv-x="727" d="M23 719v129l145 16v174l194 33v-205h312v-147h-312v-389q0 -45 4.5 -82t17.5 -62.5t42 -40t78 -14.5q45 0 87 10.5t79 26.5l32 -131q-59 -29 -125.5 -43t-134.5 -14q-84 0 -137 21.5t-82.5 61t-41 95t-11.5 121.5v440h-147z" />
<glyph unicode="u" horiz-adv-x="954" d="M100 297v569h195v-530q0 -45 4 -82t19.5 -64.5t44 -43t77.5 -15.5q53 0 97.5 14.5t80.5 36.5q16 12 33 23v661h193v-635l16 -231h-180l-8 68q-49 -33 -105 -54q-93 -34 -181 -34h-5q-86 0 -140.5 21.5t-85 62t-43 99t-12.5 134.5z" />
<glyph unicode="v" horiz-adv-x="864" d="M2 866h207l215 -729h18l222 729h198l-305 -866h-258z" />
<glyph unicode="w" horiz-adv-x="1343" d="M16 866h201l164 -729h16l142 729h270l139 -729h17l170 729h192l-237 -866h-271l-139 729h-18l-142 -729h-276z" />
<glyph unicode="x" horiz-adv-x="880" d="M12 0l267 444l-263 422h213l195 -342h31l192 342h209l-260 -417l272 -449h-215l-202 360h-29l-203 -360h-207z" />
<glyph unicode="y" horiz-adv-x="858" d="M6 866h213l215 -639h19l202 639h197l-336 -927q-31 -82 -61.5 -150t-75.5 -116t-107.5 -74.5t-154.5 -26.5q-27 0 -54.5 1t-52.5 11l25 135q31 -6 67 -6q66 0 103 21.5t57 50.5q23 33 46.5 93.5t43.5 115.5z" />
<glyph unicode="z" horiz-adv-x="843" d="M47 0v117l514 602h-493v147h727v-116l-516 -603h520v-147h-752z" />
<glyph unicode="{" horiz-adv-x="675" d="M51 414v172q61 8 101.5 46t40.5 124v336q0 86 24.5 139t68.5 82.5t103.5 40t126.5 10.5h100v-156h-28q-111 0 -156 -37.5t-45 -138.5v-293q0 -111 -38 -162t-120 -65v-18q39 -10 68 -26.5t49.5 -43.5t30.5 -64.5t10 -93.5v-297q0 -96 48 -130t153 -34h28v-155h-100 q-68 0 -126 7t-102 34.5t-69.5 82t-25.5 150.5v320q0 80 -40 121t-102 49z" />
<glyph unicode="|" horiz-adv-x="405" d="M125 -354v1714h156v-1714h-156z" />
<glyph unicode="}" horiz-adv-x="675" d="M59 -195h29q104 0 152.5 34t48.5 130v297q0 55 10 93t29.5 65t49.5 43t68 27v18q-82 14 -119.5 65.5t-37.5 161.5v293q0 100 -45 138t-156 38h-29v156h101q68 0 127 -10.5t103 -40t68.5 -82.5t24.5 -139v-336q0 -86 40 -124t102 -46v-172q-61 -8 -101.5 -49t-40.5 -121 v-320q0 -96 -25.5 -150.5t-69.5 -82t-102.5 -34.5t-125.5 -7h-101v155z" />
<glyph unicode="~" horiz-adv-x="888" d="M55 504q45 39 111.5 66.5t140.5 27.5q45 0 80 -10t67.5 -23.5t63.5 -24t68 -10.5q55 0 99 17.5t85 44.5l61 -117q-47 -43 -111.5 -70.5t-137.5 -27.5q-47 0 -83 11t-68 23.5t-62.5 23.5t-67.5 11q-53 0 -99 -16t-87 -45z" />
<glyph unicode="&#xa1;" horiz-adv-x="464" d="M125 -379l27 918h159l27 -918h-213zM129 672v194h205v-194h-205z" />
<glyph unicode="&#xa2;" horiz-adv-x="860" d="M53 420q0 211 94.5 324.5t274.5 136.5v159h121v-155q82 -8 149.5 -37t106.5 -72l-111 -106q-55 61 -145 71v-620q59 4 106 19.5t92 37.5l37 -123q-37 -23 -97 -43t-138 -28v-158h-121v156q-199 14 -284 125.5t-85 312.5zM250 418q0 -119 39 -195t133 -96v608 q-86 -23 -129 -99.5t-43 -217.5z" />
<glyph unicode="&#xa3;" horiz-adv-x="929" d="M76 0v135q84 61 116.5 145.5t32.5 204.5v41h-143v148h143v168q0 123 32 204.5t87 131t132 69t167 19.5q59 0 114.5 -10.5t102.5 -26.5l-53 -139q-70 29 -156 28q-117 0 -172 -59.5t-55 -210.5v-174h371v-148h-373v-41q0 -119 -28.5 -194.5t-98.5 -132.5h551v-158h-770z " />
<glyph unicode="&#xa4;" horiz-adv-x="919" d="M47 215l129 129q-10 20 -18 41q-20 57 -21 125q0 70 25 127q8 18 16 35l-131 131l117 119l135 -136q16 8 35 15q61 25 135 24q74 0 131 -24l23 -10l129 131l118 -119l-131 -131q10 -18 19 -41q20 -57 20 -125q0 -66 -24 -123q-6 -18 -17 -35l133 -133l-118 -117l-136 135 q-16 -8 -34 -16q-59 -23 -133 -22q-74 0 -132 24l-22 10l-131 -131zM307 506q0 -66 35 -112t107 -46q78 0 119.5 44t41.5 120q0 66 -34.5 112t-106.5 46q-80 0 -121 -45t-41 -119z" />
<glyph unicode="&#xa5;" horiz-adv-x="1107" d="M8 1245h232l307 -530h16l307 530h228l-340 -540h233v-121h-309l-31 -52v-63h340v-119h-340v-350h-196v350h-340v119h340v61q-14 23 -35 54h-305v121h231q-14 20 -29 45q-41 68 -87 140.5t-88 140t-76.5 123.5t-57.5 91z" />
<glyph unicode="&#xa6;" horiz-adv-x="405" d="M125 303h156v-657h-156v657zM125 702v658h156v-658h-156z" />
<glyph unicode="&#xa7;" horiz-adv-x="1003" d="M86 434q0 141 100 213q35 25 76 41q-66 39 -104 86q-49 61 -49 178q0 76 30.5 134.5t87 98.5t135 60.5t177.5 20.5q96 0 190 -18.5t172 -59.5l-63 -139q-53 27 -130 47t-167 20q-123 0 -185.5 -39t-62.5 -110q0 -57 32.5 -90t80.5 -58q63 -29 154 -61.5t167 -71.5 q41 -20 77 -44t61.5 -56.5t40 -77.5t14.5 -107q0 -141 -103 -215q-33 -25 -76 -43q23 -12 43 -24q37 -25 62.5 -57.5t39 -76.5t13.5 -102q0 -152 -116.5 -231.5t-315.5 -79.5q-96 0 -196.5 19.5t-178.5 60.5l66 141q63 -33 140 -52.5t167 -19.5q129 0 189.5 39t60.5 107 q0 53 -31 86.5t-84 60.5q-31 14 -72 29.5t-85 32t-88 35t-81 36.5q-41 20 -75.5 45t-59 58t-39 78t-14.5 106zM268 457q0 -57 27 -94t74 -60q70 -35 159 -65q25 -8 50 -19q72 18 108 49q53 47 53 109q0 53 -26.5 89.5t-75.5 61.5q-72 35 -164 66l-53 18q-63 -14 -98 -45 q-53 -47 -54 -110z" />
<glyph unicode="&#xa8;" horiz-adv-x="1007" d="M229 1059v174h191v-174h-191zM586 1059v174h190v-174h-190z" />
<glyph unicode="&#xa9;" horiz-adv-x="1503" d="M88 623q0 154 49 273.5t137 201.5t210 125t268 43q143 0 265 -43t211 -126t138 -201.5t49 -272.5t-49 -273t-138 -201.5t-211 -125.5t-265 -43q-145 0 -267.5 43t-210.5 125.5t-137 201.5t-49 273zM223 623q0 -121 37 -217.5t105.5 -164t166 -104.5t220.5 -37t220 37 t165.5 105.5t104.5 165t36 215.5t-37 216t-105.5 164.5t-166 104.5t-217.5 37q-125 0 -223.5 -38t-166 -106.5t-103.5 -165t-36 -212.5zM414 614q0 184 91 274.5t269 90.5q72 0 132.5 -23.5t94.5 -62.5l-90 -88q-51 59 -139 59q-98 0 -147.5 -59.5t-49.5 -192.5 q0 -98 46.5 -162.5t142.5 -64.5q59 0 103 13.5t89 35.5l31 -104q-35 -23 -98.5 -41.5t-140.5 -18.5q-174 0 -254 92.5t-80 251.5z" />
<glyph unicode="&#xab;" horiz-adv-x="948" d="M29 432l311 373l129 -100l-225 -271l223 -266l-129 -107zM399 432l326 373l125 -100l-236 -271l238 -266l-129 -107z" />
<glyph unicode="&#xad;" horiz-adv-x="692" d="M100 360v164h490v-164h-490z" />
<glyph unicode="&#xae;" horiz-adv-x="978" d="M55 922q0 100 33 178t90.5 132t137 82.5t173.5 28.5t174 -28.5t138.5 -82.5t90.5 -132t32 -178t-32 -179t-90.5 -132.5t-138 -82t-174.5 -28.5q-94 0 -173.5 28.5t-137 82t-90.5 132t-33 179.5zM154 922q0 -152 89 -244t246 -92q160 0 248 92t88 244t-88 243.5t-248 91.5 q-158 0 -246.5 -93t-88.5 -242zM317 698v453h187q84 0 127 -32t43 -103q0 -49 -20.5 -80t-57.5 -47l98 -191h-123l-86 172h-53v-172h-115zM432 952h68q57 0 57 64q0 29 -16.5 39t-40.5 10h-68v-113z" />
<glyph unicode="&#xaf;" horiz-adv-x="1007" d="M217 1073v150h567v-150h-567z" />
<glyph unicode="&#xb0;" horiz-adv-x="649" d="M39 995q0 125 78 198t219 73q139 0 204.5 -79t65.5 -196q0 -121 -79 -194.5t-220 -73.5t-204.5 78t-63.5 194zM190 991q0 -53 26.5 -91t92.5 -38q78 0 112 35t34 100q0 53 -27 91t-92 38q-78 0 -112 -37.5t-34 -97.5z" />
<glyph unicode="&#xb2;" horiz-adv-x="579" d="M41 1188q59 35 120.5 51t114.5 16q104 0 172 -40.5t68 -147.5q0 -63 -43 -118.5t-98 -110.5l-127 -125h280v-111h-475v76l228 223q47 47 64 81t17 69q0 43 -26.5 68.5t-75.5 25.5q-80 0 -172 -51z" />
<glyph unicode="&#xb3;" horiz-adv-x="579" d="M37 674l67 86q29 -23 73 -38t91 -15q53 0 87 21.5t34 68.5q0 45 -35 67.5t-94 22.5q-23 0 -37 -1t-37 -5v102h52q47 0 90 20.5t43 67.5q0 39 -31 57.5t-72 18.5q-49 0 -88 -15.5t-69 -37.5l-54 92q35 27 94.5 48t133.5 21q106 0 167.5 -37.5t61.5 -130.5 q0 -51 -30.5 -84.5t-73.5 -46.5q55 -16 92 -56t37 -105q0 -51 -21.5 -89t-57.5 -64t-84 -38t-104 -12q-78 0 -136 22.5t-99 59.5z" />
<glyph unicode="&#xb4;" horiz-adv-x="1007" d="M303 995l217 299h217l-250 -299h-184z" />
<glyph unicode="&#xb5;" horiz-adv-x="960" d="M100 -418v1284h195v-530q0 -43 4 -81t19.5 -64.5t44 -42t77.5 -15.5q100 0 174 47q23 12 41 27v659h195v-635l14 -231h-178l-8 63q-115 -82 -260 -81q-59 0 -103 12q-18 6 -32 12l12 -424h-195z" />
<glyph unicode="&#xb6;" horiz-adv-x="1105" d="M68 836q0 98 19 174.5t64.5 129t121 79t190.5 26.5h510v-1648l-144 -19v1512h-153v-1493l-141 -19v871h-115q-106 0 -175 29.5t-108 81.5t-54 123t-15 153z" />
<glyph unicode="&#xb7;" d="M102 403v195h205v-195h-205z" />
<glyph unicode="&#xb8;" horiz-adv-x="1007" d="M276 -393l46 110q33 -10 62.5 -16t64.5 -6q55 0 82.5 16.5t27.5 57.5q0 51 -39 68.5t-143 27.5l39 102q166 -8 244.5 -50t78.5 -146t-64.5 -151.5t-205.5 -47.5q-55 0 -106.5 10t-86.5 25z" />
<glyph unicode="&#xb9;" horiz-adv-x="579" d="M74 1141l219 106h96v-645h-137v510l-133 -63z" />
<glyph unicode="&#xbb;" horiz-adv-x="948" d="M111 698l129 107l324 -371l-326 -373l-125 100l236 271zM494 161l225 271l-223 266l129 107l309 -371l-311 -373z" />
<glyph unicode="&#xbd;" horiz-adv-x="1294" d="M86 1141l219 106h96v-645h-137v512l-133 -63zM92 -61l903 1368h174l-903 -1368h-174zM795 586q59 35 120.5 50t116.5 15q104 0 171 -41t67 -145q0 -63 -42 -119.5t-98 -109.5l-129 -127h283v-109h-475v74l227 223q45 49 63.5 82t18.5 67q0 43 -26.5 70t-77.5 27 q-41 0 -83 -14.5t-89 -36.5z" />
<glyph unicode="&#xbf;" horiz-adv-x="811" d="M70 -105q0 72 23.5 124t58 95t74.5 80t75 77t58.5 87t23.5 111v69h180v-102q0 -104 -45 -175t-98 -125t-98.5 -103.5t-45.5 -110.5q0 -72 48.5 -115t146.5 -43q74 0 139.5 22.5t108.5 51.5l57 -148q-61 -37 -150 -63.5t-190 -26.5q-80 0 -147.5 17.5t-115.5 53.5 t-75.5 92t-27.5 132zM369 671v195h204v-195h-204z" />
<glyph unicode="&#xc0;" horiz-adv-x="1196" d="M12 0l451 1245h272l447 -1245h-217l-117 344h-508l-117 -344h-211zM291 1673h215l217 -299h-184zM393 504h400l-191 586h-16z" />
<glyph unicode="&#xc1;" horiz-adv-x="1196" d="M12 0l451 1245h272l447 -1245h-217l-117 344h-508l-117 -344h-211zM393 504h400l-191 586h-16zM471 1374l217 299h217l-250 -299h-184z" />
<glyph unicode="&#xc2;" horiz-adv-x="1196" d="M12 0l451 1245h272l447 -1245h-217l-117 344h-508l-117 -344h-211zM276 1374l201 299h248l196 -299h-174l-139 199h-18l-146 -199h-168zM393 504h400l-191 586h-16z" />
<glyph unicode="&#xc3;" horiz-adv-x="1196" d="M12 0l451 1245h272l447 -1245h-217l-117 344h-508l-117 -344h-211zM266 1540q37 37 92 63.5t119 26.5q39 0 69.5 -9t58.5 -21.5t55.5 -21.5t58.5 -9q45 0 81.5 17.5t71.5 39.5l58 -114q-41 -39 -95.5 -66t-117.5 -27q-39 0 -71 9.5t-59.5 21.5t-54 21.5t-57.5 9.5 q-45 0 -82 -16.5t-70 -38.5zM393 504h400l-191 586h-16z" />
<glyph unicode="&#xc4;" horiz-adv-x="1196" d="M12 0l451 1245h272l447 -1245h-217l-117 344h-508l-117 -344h-211zM319 1438v174h191v-174h-191zM393 504h400l-191 586h-16zM676 1438v174h190v-174h-190z" />
<glyph unicode="&#xc5;" horiz-adv-x="1196" d="M12 0l451 1245h272l447 -1245h-217l-117 344h-508l-117 -344h-211zM385 1534q0 92 55.5 142.5t161.5 50.5q111 0 156 -54.5t45 -140.5q0 -92 -55 -141t-164 -49q-111 0 -155 53t-44 139zM393 504h400l-191 586h-16zM508 1532q0 -39 18.5 -60.5t63.5 -21.5q86 0 86 84 q0 39 -17.5 60.5t-60.5 21.5q-90 0 -90 -84z" />
<glyph unicode="&#xc6;" horiz-adv-x="1730" d="M-23 0l750 1245h887v-158h-586l21 -368h544v-156h-536l22 -405h553v-158h-741l-19 344h-483l-203 -344h-209zM481 504h385l-30 583h-17z" />
<glyph unicode="&#xc7;" horiz-adv-x="1128" d="M84 623q0 330 148.5 486.5t420.5 156.5q117 0 229.5 -41t180.5 -125l-117 -115q-53 59 -120.5 91t-166.5 32q-193 0 -282.5 -128t-89.5 -376q0 -223 87 -340t273 -117q113 0 202 24t161 54l47 -153q-76 -39 -189.5 -65.5t-230.5 -26.5q-293 2 -423 163.5t-130 479.5z M380 -393l46 110q33 -10 62.5 -16t64.5 -6q55 0 82.5 16.5t27.5 57.5q0 51 -39 68.5t-143 27.5l39 102q166 -8 244.5 -50t78.5 -146t-64.5 -151.5t-205.5 -47.5q-55 0 -106.5 10t-86.5 25z" />
<glyph unicode="&#xc8;" horiz-adv-x="1024" d="M135 0v1245h770v-158h-573v-368h555v-156h-555v-405h594v-158h-791zM219 1673h215l217 -299h-184z" />
<glyph unicode="&#xc9;" horiz-adv-x="1024" d="M135 0v1245h770v-158h-573v-368h555v-156h-555v-405h594v-158h-791zM397 1374l217 299h217l-250 -299h-184z" />
<glyph unicode="&#xca;" horiz-adv-x="1024" d="M135 0v1245h770v-158h-573v-368h555v-156h-555v-405h594v-158h-791zM200 1374l201 299h248l196 -299h-174l-139 199h-18l-146 -199h-168z" />
<glyph unicode="&#xcb;" horiz-adv-x="1024" d="M135 0v1245h770v-158h-573v-368h555v-156h-555v-405h594v-158h-791zM245 1417v174h191v-174h-191zM602 1417v174h190v-174h-190z" />
<glyph unicode="&#xcc;" horiz-adv-x="468" d="M-68 1673h215l217 -299h-184zM135 0v1245h197v-1245h-197z" />
<glyph unicode="&#xcd;" horiz-adv-x="468" d="M121 1374l217 299h217l-250 -299h-184zM135 0v1245h197v-1245h-197z" />
<glyph unicode="&#xce;" horiz-adv-x="468" d="M-84 1374l201 299h248l196 -299h-174l-139 199h-18l-146 -199h-168zM135 0v1245h197v-1245h-197z" />
<glyph unicode="&#xcf;" horiz-adv-x="468" d="M-35 1417v174h191v-174h-191zM135 0v1245h197v-1245h-197zM322 1417v174h190v-174h-190z" />
<glyph unicode="&#xd0;" horiz-adv-x="1243" d="M29 551v158h598v-158h-598zM156 0v1245h376q150 0 266.5 -33.5t196.5 -108.5t122 -195t42 -290q0 -176 -51 -294.5t-141 -190.5t-214 -102.5t-270 -30.5h-327zM352 158h125q113 0 201 22.5t149.5 76.5t93 147.5t31.5 234.5q0 233 -108.5 340.5t-313.5 107.5h-178v-929z " />
<glyph unicode="&#xd1;" horiz-adv-x="1325" d="M135 0v1245h344l496 -1089h16v1089h197v-1245h-342l-498 1090h-16v-1090h-197zM346 1542q37 37 92 63.5t119 26.5q39 0 69.5 -9t58.5 -21.5t55.5 -21.5t58.5 -9q45 0 81.5 17.5t71.5 39.5l58 -114q-41 -39 -95.5 -66t-117.5 -27q-39 0 -71 9.5t-59.5 21.5t-54 21.5 t-57.5 9.5q-45 0 -82 -16.5t-70 -38.5z" />
<glyph unicode="&#xd2;" horiz-adv-x="1257" d="M84 629q0 324 137 480.5t428 156.5q145 0 245.5 -45t162 -129t89.5 -204t28 -272q0 -322 -138.5 -479t-431.5 -157q-147 0 -246.5 45t-160 129t-87 203.5t-26.5 271.5zM285 608q0 -98 14 -184t50 -149.5t97.5 -100.5t153.5 -37q106 0 177 33t114 96.5t60.5 157.5 t17.5 217q0 96 -14.5 182t-50.5 150.5t-97.5 101.5t-155.5 37q-104 0 -173.5 -32.5t-112.5 -96t-61.5 -158t-18.5 -217.5zM321 1673h215l217 -299h-184z" />
<glyph unicode="&#xd3;" horiz-adv-x="1257" d="M84 629q0 324 137 480.5t428 156.5q145 0 245.5 -45t162 -129t89.5 -204t28 -272q0 -322 -138.5 -479t-431.5 -157q-147 0 -246.5 45t-160 129t-87 203.5t-26.5 271.5zM285 608q0 -98 14 -184t50 -149.5t97.5 -100.5t153.5 -37q106 0 177 33t114 96.5t60.5 157.5 t17.5 217q0 96 -14.5 182t-50.5 150.5t-97.5 101.5t-155.5 37q-104 0 -173.5 -32.5t-112.5 -96t-61.5 -158t-18.5 -217.5zM493 1374l217 299h217l-250 -299h-184z" />
<glyph unicode="&#xd4;" horiz-adv-x="1257" d="M84 629q0 324 137 480.5t428 156.5q145 0 245.5 -45t162 -129t89.5 -204t28 -272q0 -322 -138.5 -479t-431.5 -157q-147 0 -246.5 45t-160 129t-87 203.5t-26.5 271.5zM285 608q0 -98 14 -184t50 -149.5t97.5 -100.5t153.5 -37q106 0 177 33t114 96.5t60.5 157.5 t17.5 217q0 96 -14.5 182t-50.5 150.5t-97.5 101.5t-155.5 37q-104 0 -173.5 -32.5t-112.5 -96t-61.5 -158t-18.5 -217.5zM313 1374l201 299h248l196 -299h-174l-139 199h-18l-146 -199h-168z" />
<glyph unicode="&#xd5;" horiz-adv-x="1257" d="M84 629q0 324 137 480.5t428 156.5q145 0 245.5 -45t162 -129t89.5 -204t28 -272q0 -322 -138.5 -479t-431.5 -157q-147 0 -246.5 45t-160 129t-87 203.5t-26.5 271.5zM285 608q0 -98 14 -184t50 -149.5t97.5 -100.5t153.5 -37q106 0 177 33t114 96.5t60.5 157.5 t17.5 217q0 96 -14.5 182t-50.5 150.5t-97.5 101.5t-155.5 37q-104 0 -173.5 -32.5t-112.5 -96t-61.5 -158t-18.5 -217.5zM309 1540q37 37 92 63.5t119 26.5q39 0 69.5 -9t58.5 -21.5t55.5 -21.5t58.5 -9q45 0 81.5 17.5t71.5 39.5l58 -114q-41 -39 -95.5 -66t-117.5 -27 q-39 0 -71 9.5t-59.5 21.5t-54 21.5t-57.5 9.5q-45 0 -82 -16.5t-70 -38.5z" />
<glyph unicode="&#xd6;" horiz-adv-x="1257" d="M84 629q0 324 137 480.5t428 156.5q145 0 245.5 -45t162 -129t89.5 -204t28 -272q0 -322 -138.5 -479t-431.5 -157q-147 0 -246.5 45t-160 129t-87 203.5t-26.5 271.5zM285 608q0 -98 14 -184t50 -149.5t97.5 -100.5t153.5 -37q106 0 177 33t114 96.5t60.5 157.5 t17.5 217q0 96 -14.5 182t-50.5 150.5t-97.5 101.5t-155.5 37q-104 0 -173.5 -32.5t-112.5 -96t-61.5 -158t-18.5 -217.5zM360 1417v174h191v-174h-191zM717 1417v174h190v-174h-190z" />
<glyph unicode="&#xd7;" horiz-adv-x="1064" d="M123 215l287 287l-287 289l123 120l286 -286l287 286l121 -120l-287 -289l287 -287l-121 -121l-287 287l-286 -287z" />
<glyph unicode="&#xd8;" horiz-adv-x="1257" d="M68 2l120 162q-53 80 -77 190q-27 121 -27 273q0 324 137 482.5t428 158.5q145 0 246 -45q31 -14 57 -33l105 141l121 -80l-121 -161q61 -84 88 -203q29 -121 29 -273q0 -322 -138.5 -480.5t-431.5 -158.5q-147 0 -248 45q-35 16 -67 37l-103 -137zM276 606 q0 -98 15 -186q8 -47 20 -90l539 723q-17 16 -37 28q-61 39 -162 39q-207 0 -291 -133t-84 -381zM393 197q20 -18 45 -35q63 -37 162 -37q106 0 178 34t116 99.5t62.5 161.5t18.5 219q0 98 -14 184q-8 55 -25 103z" />
<glyph unicode="&#xd9;" horiz-adv-x="1198" d="M121 492v753h196v-782q0 -156 59.5 -242t205.5 -86q164 0 231.5 82t67.5 277v751h196v-766q0 -266 -127 -382.5t-366 -116.5q-238 0 -350.5 119.5t-112.5 392.5zM295 1673h215l217 -299h-184z" />
<glyph unicode="&#xda;" horiz-adv-x="1198" d="M121 492v753h196v-782q0 -156 59.5 -242t205.5 -86q164 0 231.5 82t67.5 277v751h196v-766q0 -266 -127 -382.5t-366 -116.5q-238 0 -350.5 119.5t-112.5 392.5zM461 1374l217 299h217l-250 -299h-184z" />
<glyph unicode="&#xdb;" horiz-adv-x="1198" d="M121 492v753h196v-782q0 -156 59.5 -242t205.5 -86q164 0 231.5 82t67.5 277v751h196v-766q0 -266 -127 -382.5t-366 -116.5q-238 0 -350.5 119.5t-112.5 392.5zM272 1374l201 299h248l196 -299h-174l-139 199h-18l-146 -199h-168z" />
<glyph unicode="&#xdc;" horiz-adv-x="1198" d="M121 492v753h196v-782q0 -156 59.5 -242t205.5 -86q164 0 231.5 82t67.5 277v751h196v-766q0 -266 -127 -382.5t-366 -116.5q-238 0 -350.5 119.5t-112.5 392.5zM325 1417v174h191v-174h-191zM682 1417v174h190v-174h-190z" />
<glyph unicode="&#xdd;" horiz-adv-x="1087" d="M-2 1245h231l308 -530h16l307 530h227l-446 -713v-532h-197v530q-23 35 -58.5 93.5t-77.5 126t-88 140.5t-88 140.5t-77 123.5t-57 91zM426 1374l217 299h217l-250 -299h-184z" />
<glyph unicode="&#xde;" horiz-adv-x="1060" d="M131 0v1245h197v-231h245q211 0 321 -94.5t110 -284.5q0 -92 -30 -166t-84 -124t-129 -76.5t-163 -26.5h-270v-242h-197zM328 397h239q49 0 91 13.5t74 42t50.5 73.5t18.5 109q0 59 -19.5 101t-52.5 67.5t-75 38t-87 12.5h-239v-457z" />
<glyph unicode="&#xdf;" horiz-adv-x="1042" d="M106 0v821q0 248 119 359.5t330 111.5q68 0 132.5 -17.5t114.5 -52t80.5 -87t30.5 -123.5q0 -51 -19.5 -91t-50 -72t-70.5 -58.5t-83 -53.5q-41 -29 -64.5 -51t-23.5 -57t21.5 -54.5t62.5 -37.5q8 -4 26.5 -11.5t39 -16.5t40 -17.5t29.5 -12.5q82 -39 129 -91t47 -148 q0 -129 -86 -192.5t-243 -63.5q-172 0 -287 57l55 137q41 -20 100.5 -37.5t127.5 -17.5q70 0 110.5 23.5t40.5 72.5q0 41 -24.5 68.5t-85.5 52.5q-8 4 -25.5 11t-36 14.5t-34 13.5t-21.5 8q-72 29 -121 79t-49 140q0 70 34.5 129.5t137.5 118.5q61 39 93 71.5t32 86.5 q0 35 -14.5 60.5t-38 41.5t-54 23.5t-63.5 7.5q-66 0 -112 -23.5t-75.5 -64.5t-44 -96.5t-14.5 -118.5v-842h-193z" />
<glyph unicode="&#xe0;" horiz-adv-x="892" d="M59 250q0 82 28 135t77 84t118.5 42t153.5 11q78 0 156 -6v41q0 100 -40 144t-149 44q-76 0 -145.5 -19t-120.5 -46l-43 123q70 35 163 59.5t196 24.5q94 0 158.5 -18.5t103.5 -60.5t55 -111.5t16 -170.5v-290q0 -59 20.5 -81t61.5 -22v-135q-31 -6 -71 -6 q-70 0 -111 23.5t-63 68.5q-47 -43 -122 -73.5t-157 -30.5q-86 0 -141.5 21.5t-87 58t-44 86t-12.5 104.5zM168 1294h215l217 -299h-184zM260 256q0 -70 29.5 -104.5t105.5 -34.5q47 0 101.5 21.5t95.5 56.5v184q-41 6 -80 7t-80 1q-98 0 -135 -32.5t-37 -98.5z" />
<glyph unicode="&#xe1;" horiz-adv-x="892" d="M59 250q0 82 28 135t77 84t118.5 42t153.5 11q78 0 156 -6v41q0 100 -40 144t-149 44q-76 0 -145.5 -19t-120.5 -46l-43 123q70 35 163 59.5t196 24.5q94 0 158.5 -18.5t103.5 -60.5t55 -111.5t16 -170.5v-290q0 -59 20.5 -81t61.5 -22v-135q-31 -6 -71 -6 q-70 0 -111 23.5t-63 68.5q-47 -43 -122 -73.5t-157 -30.5q-86 0 -141.5 21.5t-87 58t-44 86t-12.5 104.5zM260 256q0 -70 29.5 -104.5t105.5 -34.5q47 0 101.5 21.5t95.5 56.5v184q-41 6 -80 7t-80 1q-98 0 -135 -32.5t-37 -98.5zM295 995l217 299h217l-250 -299h-184z" />
<glyph unicode="&#xe2;" horiz-adv-x="892" d="M59 250q0 82 28 135t77 84t118.5 42t153.5 11q78 0 156 -6v41q0 100 -40 144t-149 44q-76 0 -145.5 -19t-120.5 -46l-43 123q70 35 163 59.5t196 24.5q94 0 158.5 -18.5t103.5 -60.5t55 -111.5t16 -170.5v-290q0 -59 20.5 -81t61.5 -22v-135q-31 -6 -71 -6 q-70 0 -111 23.5t-63 68.5q-47 -43 -122 -73.5t-157 -30.5q-86 0 -141.5 21.5t-87 58t-44 86t-12.5 104.5zM123 995l201 299h248l196 -299h-174l-139 199h-18l-146 -199h-168zM260 256q0 -70 29.5 -104.5t105.5 -34.5q47 0 101.5 21.5t95.5 56.5v184q-41 6 -80 7t-80 1 q-98 0 -135 -32.5t-37 -98.5z" />
<glyph unicode="&#xe3;" horiz-adv-x="892" d="M59 250q0 82 28 135t77 84t118.5 42t153.5 11q78 0 156 -6v41q0 100 -40 144t-149 44q-76 0 -145.5 -19t-120.5 -46l-43 123q70 35 163 59.5t196 24.5q94 0 158.5 -18.5t103.5 -60.5t55 -111.5t16 -170.5v-290q0 -59 20.5 -81t61.5 -22v-135q-31 -6 -71 -6 q-70 0 -111 23.5t-63 68.5q-47 -43 -122 -73.5t-157 -30.5q-86 0 -141.5 21.5t-87 58t-44 86t-12.5 104.5zM106 1161q37 37 92 63.5t119 26.5q39 0 69.5 -9t58.5 -21.5t55.5 -21.5t58.5 -9q45 0 81.5 17.5t71.5 39.5l58 -114q-41 -39 -95.5 -66t-117.5 -27q-39 0 -71 9.5 t-59.5 21.5t-54 21.5t-57.5 9.5q-45 0 -82 -16.5t-70 -38.5zM260 256q0 -70 29.5 -104.5t105.5 -34.5q47 0 101.5 21.5t95.5 56.5v184q-41 6 -80 7t-80 1q-98 0 -135 -32.5t-37 -98.5z" />
<glyph unicode="&#xe4;" horiz-adv-x="892" d="M59 250q0 82 28 135t77 84t118.5 42t153.5 11q78 0 156 -6v41q0 100 -40 144t-149 44q-76 0 -145.5 -19t-120.5 -46l-43 123q70 35 163 59.5t196 24.5q94 0 158.5 -18.5t103.5 -60.5t55 -111.5t16 -170.5v-290q0 -59 20.5 -81t61.5 -22v-135q-31 -6 -71 -6 q-70 0 -111 23.5t-63 68.5q-47 -43 -122 -73.5t-157 -30.5q-86 0 -141.5 21.5t-87 58t-44 86t-12.5 104.5zM174 1059v174h191v-174h-191zM260 256q0 -70 29.5 -104.5t105.5 -34.5q47 0 101.5 21.5t95.5 56.5v184q-41 6 -80 7t-80 1q-98 0 -135 -32.5t-37 -98.5zM531 1059 v174h190v-174h-190z" />
<glyph unicode="&#xe5;" horiz-adv-x="892" d="M59 250q0 82 28 135t77 84t118.5 42t153.5 11q78 0 156 -6v41q0 100 -40 144t-149 44q-76 0 -145.5 -19t-120.5 -46l-43 123q70 35 163 59.5t196 24.5q94 0 158.5 -18.5t103.5 -60.5t55 -111.5t16 -170.5v-290q0 -59 20.5 -81t61.5 -22v-135q-31 -6 -71 -6 q-70 0 -111 23.5t-63 68.5q-47 -43 -122 -73.5t-157 -30.5q-86 0 -141.5 21.5t-87 58t-44 86t-12.5 104.5zM243 1157q0 92 55.5 142.5t161.5 50.5q111 0 156 -54.5t45 -140.5q0 -92 -55 -141t-164 -49q-111 0 -155 53t-44 139zM260 256q0 -70 29.5 -104.5t105.5 -34.5 q47 0 101.5 21.5t95.5 56.5v184q-41 6 -80 7t-80 1q-98 0 -135 -32.5t-37 -98.5zM366 1155q0 -39 18.5 -60.5t63.5 -21.5q86 0 86 84q0 39 -17.5 60.5t-60.5 21.5q-90 0 -90 -84z" />
<glyph unicode="&#xe6;" horiz-adv-x="1441" d="M59 250q0 80 28 131t79 81t120.5 42t155.5 12h158v39q0 100 -43 145t-151 45q-76 0 -147 -20t-120 -45l-45 123q72 35 165 59.5t196 24.5q106 0 169.5 -25.5t98.5 -85.5q92 111 289 111q111 0 181.5 -32t110 -89t55 -134t15.5 -169v-78h-583q4 -141 62 -201.5t187 -60.5 q98 0 164 23.5t117 46.5l41 -125q-25 -14 -62.5 -29.5t-85 -29t-99.5 -21.5t-103 -8q-223 0 -318 104q-51 -37 -134 -70.5t-200 -33.5q-84 0 -141 22.5t-92 59t-51.5 86t-16.5 102.5zM260 258q0 -66 32.5 -102.5t108.5 -36.5q63 0 122 23.5t106 58.5q-12 39 -17.5 85 t-9.5 99h-168q-98 0 -136 -33t-38 -94zM793 514h383q0 129 -42 184.5t-128 55.5q-115 0 -162 -60.5t-51 -179.5z" />
<glyph unicode="&#xe7;" horiz-adv-x="845" d="M68 420q0 236 115.5 351.5t338.5 115.5q90 0 167 -30t120 -81l-111 -106q-70 78 -180 78q-125 0 -189.5 -78t-64.5 -252q0 -139 55.5 -219t188.5 -80q76 0 132 16.5t112 44.5l39 -127q-43 -29 -124 -51t-178 -22q-115 0 -194.5 28.5t-130.5 85t-73.5 138t-22.5 188.5z M235 -393l46 110q33 -10 62.5 -16t64.5 -6q55 0 82.5 16.5t27.5 57.5q0 51 -39 68.5t-143 27.5l39 102q166 -8 244.5 -50t78.5 -146t-64.5 -151.5t-205.5 -47.5q-55 0 -106.5 10t-86.5 25z" />
<glyph unicode="&#xe8;" horiz-adv-x="917" d="M68 438q0 449 413 449q113 0 184.5 -32t111.5 -89t55.5 -134t15.5 -169v-78h-580q2 -127 47 -188q57 -74 201 -74q98 0 162.5 23.5t114.5 46.5l41 -125q-25 -14 -63 -29.5t-85 -29t-98.5 -21.5t-102.5 -8q-117 0 -196.5 28.5t-128.5 86t-70.5 143.5t-21.5 200zM207 1294 h215l217 -299h-184zM270 520h377q0 123 -42 178.5t-126 55.5q-66 0 -106.5 -19.5t-64 -58.5t-32.5 -98q-4 -27 -6 -58z" />
<glyph unicode="&#xe9;" horiz-adv-x="917" d="M68 438q0 449 413 449q113 0 184.5 -32t111.5 -89t55.5 -134t15.5 -169v-78h-580q2 -127 47 -188q57 -74 201 -74q98 0 162.5 23.5t114.5 46.5l41 -125q-25 -14 -63 -29.5t-85 -29t-98.5 -21.5t-102.5 -8q-117 0 -196.5 28.5t-128.5 86t-70.5 143.5t-21.5 200zM270 520 h377q0 123 -42 178.5t-126 55.5q-66 0 -106.5 -19.5t-64 -58.5t-32.5 -98q-4 -27 -6 -58zM336 995l217 299h217l-250 -299h-184z" />
<glyph unicode="&#xea;" horiz-adv-x="917" d="M68 438q0 449 413 449q113 0 184.5 -32t111.5 -89t55.5 -134t15.5 -169v-78h-580q2 -127 47 -188q57 -74 201 -74q98 0 162.5 23.5t114.5 46.5l41 -125q-25 -14 -63 -29.5t-85 -29t-98.5 -21.5t-102.5 -8q-117 0 -196.5 28.5t-128.5 86t-70.5 143.5t-21.5 200zM164 995 l201 299h248l196 -299h-174l-139 199h-18l-146 -199h-168zM270 520h377q0 123 -42 178.5t-126 55.5q-66 0 -106.5 -19.5t-64 -58.5t-32.5 -98q-4 -27 -6 -58z" />
<glyph unicode="&#xeb;" horiz-adv-x="917" d="M68 438q0 449 413 449q113 0 184.5 -32t111.5 -89t55.5 -134t15.5 -169v-78h-580q2 -127 47 -188q57 -74 201 -74q98 0 162.5 23.5t114.5 46.5l41 -125q-25 -14 -63 -29.5t-85 -29t-98.5 -21.5t-102.5 -8q-117 0 -196.5 28.5t-128.5 86t-70.5 143.5t-21.5 200zM204 1059 v174h191v-174h-191zM270 520h377q0 123 -42 178.5t-126 55.5q-66 0 -106.5 -19.5t-64 -58.5t-32.5 -98q-4 -27 -6 -58zM561 1059v174h190v-174h-190z" />
<glyph unicode="&#xec;" d="M-56 1294h215l217 -299h-184zM111 0v866h192v-866h-192z" />
<glyph unicode="&#xed;" d="M43 995l217 299h217l-250 -299h-184zM111 0v866h192v-866h-192z" />
<glyph unicode="&#xee;" d="M-90 1004l176 299h248l172 -299h-166l-123 196h-18l-127 -196h-162zM111 0v866h192v-866h-192z" />
<glyph unicode="&#xef;" d="M-37 1059v174h174v-174h-174zM111 0v866h192v-866h-192zM270 1059v174h172v-174h-172z" />
<glyph unicode="&#xf0;" horiz-adv-x="978" d="M68 436q0 223 107.5 336t305.5 113q92 0 160 -31q18 -8 35 -18q-18 57 -49 106q-45 68 -121 121l-287 -139l-51 98l217 104q-100 39 -246 56l27 135q166 -23 303 -72q43 -16 84 -37l223 109l53 -98l-167 -80q23 -18 40 -37q98 -92 152.5 -237.5t54.5 -358.5 q0 -281 -106.5 -405t-313.5 -124q-115 0 -194.5 32t-130.5 91.5t-73.5 144.5t-22.5 191zM266 422q0 -66 11.5 -121t38 -97t69.5 -65.5t104 -23.5q70 0 114 26.5t69.5 74.5t36 115.5t10.5 149.5q0 98 -10 189q-29 19 -66 37q-70 33 -141 32q-129 0 -182.5 -79.5t-53.5 -237.5 z" />
<glyph unicode="&#xf1;" horiz-adv-x="960" d="M94 866h180l7 -67q49 33 106 53q98 35 188 35q86 0 140.5 -21.5t86.5 -62.5t44 -99.5t12 -134.5v-569h-192v528q0 45 -5.5 82t-20.5 64.5t-44 43t-78 15.5q-55 0 -100 -15.5t-82 -37.5q-16 -10 -33 -23v-657h-192v635zM160 1161q37 37 92 63.5t119 26.5q39 0 69.5 -9 t58.5 -21.5t55.5 -21.5t58.5 -9q45 0 81.5 17.5t71.5 39.5l58 -114q-41 -39 -95.5 -66t-117.5 -27q-39 0 -71 9.5t-59.5 21.5t-54 21.5t-57.5 9.5q-45 0 -82 -16.5t-70 -38.5z" />
<glyph unicode="&#xf2;" horiz-adv-x="976" d="M68 436q0 229 105.5 340t334.5 111q115 0 191.5 -32t123.5 -91t66.5 -144t19.5 -192q0 -229 -106.5 -338.5t-335.5 -109.5q-115 0 -191.5 31.5t-123 90t-65.5 143.5t-19 191zM223 1294h215l217 -299h-184zM266 422q0 -63 8.5 -118.5t31 -97.5t61.5 -65.5t100 -23.5 q141 0 192.5 83t51.5 244q0 61 -8.5 117.5t-31 98.5t-62.5 67t-101 25q-139 0 -190.5 -85t-51.5 -245z" />
<glyph unicode="&#xf3;" horiz-adv-x="976" d="M68 436q0 229 105.5 340t334.5 111q115 0 191.5 -32t123.5 -91t66.5 -144t19.5 -192q0 -229 -106.5 -338.5t-335.5 -109.5q-115 0 -191.5 31.5t-123 90t-65.5 143.5t-19 191zM266 422q0 -63 8.5 -118.5t31 -97.5t61.5 -65.5t100 -23.5q141 0 192.5 83t51.5 244 q0 61 -8.5 117.5t-31 98.5t-62.5 67t-101 25q-139 0 -190.5 -85t-51.5 -245zM360 995l217 299h217l-250 -299h-184z" />
<glyph unicode="&#xf4;" horiz-adv-x="976" d="M68 436q0 229 105.5 340t334.5 111q115 0 191.5 -32t123.5 -91t66.5 -144t19.5 -192q0 -229 -106.5 -338.5t-335.5 -109.5q-115 0 -191.5 31.5t-123 90t-65.5 143.5t-19 191zM176 995l201 299h248l196 -299h-174l-139 199h-18l-146 -199h-168zM266 422q0 -63 8.5 -118.5 t31 -97.5t61.5 -65.5t100 -23.5q141 0 192.5 83t51.5 244q0 61 -8.5 117.5t-31 98.5t-62.5 67t-101 25q-139 0 -190.5 -85t-51.5 -245z" />
<glyph unicode="&#xf5;" horiz-adv-x="976" d="M68 436q0 229 105.5 340t334.5 111q115 0 191.5 -32t123.5 -91t66.5 -144t19.5 -192q0 -229 -106.5 -338.5t-335.5 -109.5q-115 0 -191.5 31.5t-123 90t-65.5 143.5t-19 191zM172 1161q37 37 92 63.5t119 26.5q39 0 69.5 -9t58.5 -21.5t55.5 -21.5t58.5 -9 q45 0 81.5 17.5t71.5 39.5l58 -114q-41 -39 -95.5 -66t-117.5 -27q-39 0 -71 9.5t-59.5 21.5t-54 21.5t-57.5 9.5q-45 0 -82 -16.5t-70 -38.5zM266 422q0 -63 8.5 -118.5t31 -97.5t61.5 -65.5t100 -23.5q141 0 192.5 83t51.5 244q0 61 -8.5 117.5t-31 98.5t-62.5 67t-101 25 q-139 0 -190.5 -85t-51.5 -245z" />
<glyph unicode="&#xf6;" horiz-adv-x="976" d="M68 436q0 229 105.5 340t334.5 111q115 0 191.5 -32t123.5 -91t66.5 -144t19.5 -192q0 -229 -106.5 -338.5t-335.5 -109.5q-115 0 -191.5 31.5t-123 90t-65.5 143.5t-19 191zM223 1059v174h191v-174h-191zM266 422q0 -63 8.5 -118.5t31 -97.5t61.5 -65.5t100 -23.5 q141 0 192.5 83t51.5 244q0 61 -8.5 117.5t-31 98.5t-62.5 67t-101 25q-139 0 -190.5 -85t-51.5 -245zM580 1059v174h190v-174h-190z" />
<glyph unicode="&#xf7;" horiz-adv-x="1007" d="M111 424v156h786v-156h-786zM403 115v194h203v-194h-203zM403 694v195h203v-195h-203z" />
<glyph unicode="&#xf8;" horiz-adv-x="976" d="M41 25l90 106q-35 57 -49 134t-14 171q0 229 105.5 341t334.5 112q68 0 120 -12.5t95 -34.5l86 102l125 -102l-90 -109q35 -57 50 -134t15 -171q0 -229 -106.5 -340t-335.5 -111q-70 0 -123 11.5t-94 34.5l-84 -103zM258 422q0 -76 14 -131l361 430q-49 39 -125 39 q-141 0 -195.5 -88t-54.5 -250zM342 143q23 -16 53.5 -26.5t71.5 -10.5q143 0 197.5 86.5t54.5 251.5q0 35 -3 69t-14 62z" />
<glyph unicode="&#xf9;" horiz-adv-x="954" d="M100 297v569h195v-530q0 -45 4 -82t19.5 -64.5t44 -43t77.5 -15.5q53 0 97.5 14.5t80.5 36.5q16 12 33 23v661h193v-635l16 -231h-180l-8 68q-49 -33 -105 -54q-96 -35 -186 -34q-86 0 -140.5 21.5t-85 62t-43 99t-12.5 134.5zM153 1294h215l217 -299h-184z" />
<glyph unicode="&#xfa;" horiz-adv-x="954" d="M100 297v569h195v-530q0 -45 4 -82t19.5 -64.5t44 -43t77.5 -15.5q53 0 97.5 14.5t80.5 36.5q16 12 33 23v661h193v-635l16 -231h-180l-8 68q-49 -33 -105 -54q-96 -35 -186 -34q-86 0 -140.5 21.5t-85 62t-43 99t-12.5 134.5zM375 995l217 299h217l-250 -299h-184z" />
<glyph unicode="&#xfb;" horiz-adv-x="954" d="M100 297v569h195v-530q0 -45 4 -82t19.5 -64.5t44 -43t77.5 -15.5q53 0 97.5 14.5t80.5 36.5q16 12 33 23v661h193v-635l16 -231h-180l-8 68q-49 -33 -105 -54q-96 -35 -186 -34q-86 0 -140.5 21.5t-85 62t-43 99t-12.5 134.5zM157 995l201 299h248l196 -299h-174 l-139 199h-18l-146 -199h-168z" />
<glyph unicode="&#xfc;" horiz-adv-x="954" d="M100 297v569h195v-530q0 -45 4 -82t19.5 -64.5t44 -43t77.5 -15.5q53 0 97.5 14.5t80.5 36.5q16 12 33 23v661h193v-635l16 -231h-180l-8 68q-49 -33 -105 -54q-96 -35 -186 -34q-86 0 -140.5 21.5t-85 62t-43 99t-12.5 134.5zM204 1059v174h191v-174h-191zM561 1059v174 h190v-174h-190z" />
<glyph unicode="&#xfd;" horiz-adv-x="858" d="M6 866h213l215 -639h19l202 639h197l-336 -927q-31 -82 -61.5 -150t-75.5 -116t-107.5 -74.5t-154.5 -26.5q-27 0 -54.5 1t-52.5 11l25 135q31 -6 67 -6q66 0 103 21.5t57 50.5q23 33 46.5 93.5t43.5 115.5zM334 995l217 299h217l-250 -299h-184z" />
<glyph unicode="&#xfe;" horiz-adv-x="962" d="M106 418h195v-813l-195 -25v838zM109 0v1286l194 25v-486q37 23 74 35q72 27 158 27q184 0 272 -116t88 -318q0 -104 -22.5 -190.5t-72.5 -150t-129 -98t-192 -34.5q-66 0 -119 16q-47 12 -94 39l-14 -35h-143zM303 160q24 -17 49 -25q49 -16 97 -16q113 0 179 73.5 t66 249.5q0 68 -12 123.5t-38 95t-67.5 62t-103.5 22.5q-70 0 -123 -30q-23 -12 -47 -33v-522z" />
<glyph unicode="&#xff;" horiz-adv-x="858" d="M6 866h213l215 -639h19l202 639h197l-336 -927q-31 -82 -61.5 -150t-75.5 -116t-107.5 -74.5t-154.5 -26.5q-27 0 -54.5 1t-52.5 11l25 135q31 -6 67 -6q66 0 103 21.5t57 50.5q23 33 46.5 93.5t43.5 115.5zM163 1059v174h191v-174h-191zM520 1059v174h190v-174h-190z " />
<glyph unicode="&#x100;" horiz-adv-x="1196" d="M12 0l451 1245h272l447 -1245h-217l-117 344h-508l-117 -344h-211zM315 1452v150h567v-150h-567zM393 504h400l-191 586h-16z" />
<glyph unicode="&#x101;" horiz-adv-x="892" d="M59 250q0 82 28 135t77 84t118.5 42t153.5 11q78 0 156 -6v41q0 100 -40 144t-149 44q-76 0 -145.5 -19t-120.5 -46l-43 123q70 35 163 59.5t196 24.5q94 0 158.5 -18.5t103.5 -60.5t55 -111.5t16 -170.5v-290q0 -59 20.5 -81t61.5 -22v-135q-31 -6 -71 -6 q-70 0 -111 23.5t-63 68.5q-47 -43 -122 -73.5t-157 -30.5q-86 0 -141.5 21.5t-87 58t-44 86t-12.5 104.5zM176 1073v150h567v-150h-567zM260 256q0 -70 29.5 -104.5t105.5 -34.5q47 0 101.5 21.5t95.5 56.5v184q-41 6 -80 7t-80 1q-98 0 -135 -32.5t-37 -98.5z" />
<glyph unicode="&#x102;" horiz-adv-x="1196" d="M12 0l451 1245h272l447 -1245h-217l-117 344h-508l-117 -344h-211zM295 1671h149q4 -80 36 -129t114 -49t113.5 49t35.5 129h150q0 -152 -69.5 -230.5t-229.5 -78.5q-162 0 -230.5 78t-68.5 231zM393 504h400l-191 586h-16z" />
<glyph unicode="&#x103;" horiz-adv-x="892" d="M59 250q0 82 28 135t77 84t118.5 42t153.5 11q78 0 156 -6v41q0 100 -40 144t-149 44q-76 0 -145.5 -19t-120.5 -46l-43 123q70 35 163 59.5t196 24.5q94 0 158.5 -18.5t103.5 -60.5t55 -111.5t16 -170.5v-290q0 -59 20.5 -81t61.5 -22v-135q-31 -6 -71 -6 q-70 0 -111 23.5t-63 68.5q-47 -43 -122 -73.5t-157 -30.5q-86 0 -141.5 21.5t-87 58t-44 86t-12.5 104.5zM139 1294h149q4 -80 36 -129t114 -49t113.5 49t35.5 129h150q0 -152 -69.5 -230.5t-229.5 -78.5q-162 0 -230.5 78t-68.5 231zM260 256q0 -70 29.5 -104.5 t105.5 -34.5q47 0 101.5 21.5t95.5 56.5v184q-41 6 -80 7t-80 1q-98 0 -135 -32.5t-37 -98.5z" />
<glyph unicode="&#x104;" horiz-adv-x="1196" d="M12 0l451 1245h272l447 -1245h-217l-117 344h-508l-117 -344h-211zM393 504h400l-191 586h-16zM791 -240q0 66 31.5 120t127.5 110q35 18 92.5 38.5t100.5 37.5l39 -66q-29 -12 -60.5 -28.5t-64.5 -37.5q-49 -37 -66.5 -69.5t-17.5 -73.5q0 -86 94 -86q55 0 96 14 l35 -108q-35 -16 -84 -25.5t-100 -9.5q-117 0 -170 45t-53 139z" />
<glyph unicode="&#x105;" horiz-adv-x="892" d="M59 250q0 82 28 135t77 84t118.5 42t153.5 11q78 0 156 -6v41q0 100 -40 144t-149 44q-76 0 -145.5 -19t-120.5 -46l-43 123q70 35 163 59.5t196 24.5q94 0 158.5 -18.5t103.5 -60.5t55 -111.5t16 -170.5v-290q0 -59 20.5 -81t61.5 -22v-135q-31 -6 -71 -6 q-70 0 -111 23.5t-63 68.5q-47 -43 -122 -73.5t-157 -30.5q-86 0 -141.5 21.5t-87 58t-44 86t-12.5 104.5zM260 256q0 -70 29.5 -104.5t105.5 -34.5q47 0 101.5 21.5t95.5 56.5v184q-41 6 -80 7t-80 1q-98 0 -135 -32.5t-37 -98.5zM494 -240q0 70 35.5 123.5t134.5 106.5 q43 23 88 40t92 31l24 -63q-35 -18 -63.5 -35.5t-54.5 -38.5q-43 -35 -57.5 -64.5t-14.5 -68.5q0 -86 94 -86q55 0 96 14l35 -108q-35 -16 -85 -25.5t-101 -9.5q-117 0 -170 45t-53 139z" />
<glyph unicode="&#x106;" horiz-adv-x="1128" d="M84 623q0 330 148.5 486.5t420.5 156.5q117 0 229.5 -41t180.5 -125l-117 -115q-53 59 -120.5 91t-166.5 32q-193 0 -282.5 -128t-89.5 -376q0 -223 87 -340t273 -117q113 0 202 24t161 54l47 -153q-76 -39 -189.5 -65.5t-230.5 -26.5q-293 2 -423 163.5t-130 479.5z M534 1374l217 299h217l-250 -299h-184z" />
<glyph unicode="&#x107;" horiz-adv-x="845" d="M68 420q0 236 115.5 351.5t338.5 115.5q90 0 167 -30t120 -81l-111 -106q-70 78 -180 78q-125 0 -189.5 -78t-64.5 -252q0 -139 55.5 -219t188.5 -80q76 0 132 16.5t112 44.5l39 -127q-43 -29 -124 -51t-178 -22q-115 0 -194.5 28.5t-130.5 85t-73.5 138t-22.5 188.5z M332 995l217 299h217l-250 -299h-184z" />
<glyph unicode="&#x108;" horiz-adv-x="1128" d="M84 623q0 330 148.5 486.5t420.5 156.5q117 0 229.5 -41t180.5 -125l-117 -115q-53 59 -120.5 91t-166.5 32q-193 0 -282.5 -128t-89.5 -376q0 -223 87 -340t273 -117q113 0 202 24t161 54l47 -153q-76 -39 -189.5 -65.5t-230.5 -26.5q-293 2 -423 163.5t-130 479.5z M319 1374l201 299h248l196 -299h-174l-139 199h-18l-146 -199h-168z" />
<glyph unicode="&#x109;" horiz-adv-x="845" d="M68 420q0 236 115.5 351.5t338.5 115.5q90 0 167 -30t120 -81l-111 -106q-70 78 -180 78q-125 0 -189.5 -78t-64.5 -252q0 -139 55.5 -219t188.5 -80q76 0 132 16.5t112 44.5l39 -127q-43 -29 -124 -51t-178 -22q-115 0 -194.5 28.5t-130.5 85t-73.5 138t-22.5 188.5z M166 995l201 299h248l196 -299h-174l-139 199h-18l-146 -199h-168z" />
<glyph unicode="&#x10a;" horiz-adv-x="1128" d="M84 623q0 330 148.5 486.5t420.5 156.5q117 0 229.5 -41t180.5 -125l-117 -115q-53 59 -120.5 91t-166.5 32q-193 0 -282.5 -128t-89.5 -376q0 -223 87 -340t273 -117q113 0 202 24t161 54l47 -153q-76 -39 -189.5 -65.5t-230.5 -26.5q-293 2 -423 163.5t-130 479.5z M539 1438v174h196v-174h-196z" />
<glyph unicode="&#x10b;" horiz-adv-x="845" d="M68 420q0 236 115.5 351.5t338.5 115.5q90 0 167 -30t120 -81l-111 -106q-70 78 -180 78q-125 0 -189.5 -78t-64.5 -252q0 -139 55.5 -219t188.5 -80q76 0 132 16.5t112 44.5l39 -127q-43 -29 -124 -51t-178 -22q-115 0 -194.5 28.5t-130.5 85t-73.5 138t-22.5 188.5z M392 1059v174h196v-174h-196z" />
<glyph unicode="&#x10c;" horiz-adv-x="1128" d="M84 623q0 330 148.5 486.5t420.5 156.5q117 0 229.5 -41t180.5 -125l-117 -115q-53 59 -120.5 91t-166.5 32q-193 0 -282.5 -128t-89.5 -376q0 -223 87 -340t273 -117q113 0 202 24t161 54l47 -153q-76 -39 -189.5 -65.5t-230.5 -26.5q-293 2 -423 163.5t-130 479.5z M323 1673h174l140 -198h18l145 198h168l-200 -299h-248z" />
<glyph unicode="&#x10d;" horiz-adv-x="845" d="M68 420q0 236 115.5 351.5t338.5 115.5q90 0 167 -30t120 -81l-111 -106q-70 78 -180 78q-125 0 -189.5 -78t-64.5 -252q0 -139 55.5 -219t188.5 -80q76 0 132 16.5t112 44.5l39 -127q-43 -29 -124 -51t-178 -22q-115 0 -194.5 28.5t-130.5 85t-73.5 138t-22.5 188.5z M176 1294h174l140 -198h18l145 198h168l-200 -299h-248z" />
<glyph unicode="&#x10e;" horiz-adv-x="1222" d="M135 0v1245h377q150 0 266.5 -33.5t196.5 -108.5t122 -195t42 -290q0 -176 -51.5 -294.5t-141.5 -190.5t-214 -102.5t-269 -30.5h-328zM248 1673h174l140 -198h18l145 198h168l-200 -299h-248zM332 158h125q113 0 200.5 22.5t149 76.5t93.5 147.5t32 234.5 q0 233 -108.5 340.5t-313.5 107.5h-178v-929z" />
<glyph unicode="&#x10f;" horiz-adv-x="1206" d="M68 414q0 104 22.5 190t72.5 149.5t129 98.5t191 35q66 0 117 -17q29 -8 59 -22v438l193 25v-1084l16 -227h-168l-16 57q-47 -35 -98 -53q-72 -24 -158 -24q-188 0 -274 114.5t-86 319.5zM268 424q0 -68 11.5 -123t38 -95t67.5 -62.5t102 -22.5q72 0 123 31q25 14 49 34 v521q-24 16 -49 24q-49 16 -96 17q-115 0 -180.5 -74t-65.5 -250zM956 987l54 318h190l-110 -318h-134z" />
<glyph unicode="&#x110;" horiz-adv-x="1243" d="M29 551v158h598v-158h-598zM156 0v1245h376q150 0 266.5 -33.5t196.5 -108.5t122 -195t42 -290q0 -176 -51 -294.5t-141 -190.5t-214 -102.5t-270 -30.5h-327zM352 158h125q113 0 201 22.5t149.5 76.5t93 147.5t31.5 234.5q0 233 -108.5 340.5t-313.5 107.5h-178v-929z " />
<glyph unicode="&#x111;" horiz-adv-x="970" d="M68 414q0 104 22.5 190t72.5 149.5t129 98.5t191 35q66 0 117 -17q29 -8 59 -22v438l193 25v-1084l16 -227h-168l-16 57q-47 -35 -98 -53q-72 -24 -158 -24q-188 0 -274 114.5t-86 319.5zM268 424q0 -68 11.5 -123t38 -95t67.5 -62.5t102 -22.5q72 0 123 31q25 14 49 34 v521q-24 16 -49 24q-49 16 -96 17q-115 0 -180.5 -74t-65.5 -250zM432 999v138h559v-138h-559z" />
<glyph unicode="&#x112;" horiz-adv-x="1024" d="M135 0v1245h770v-158h-573v-368h555v-156h-555v-405h594v-158h-791zM240 1452v150h567v-150h-567z" />
<glyph unicode="&#x113;" horiz-adv-x="917" d="M68 438q0 449 413 449q113 0 184.5 -32t111.5 -89t55.5 -134t15.5 -169v-78h-580q2 -127 47 -188q57 -74 201 -74q98 0 162.5 23.5t114.5 46.5l41 -125q-25 -14 -63 -29.5t-85 -29t-98.5 -21.5t-102.5 -8q-117 0 -196.5 28.5t-128.5 86t-70.5 143.5t-21.5 200zM197 1073 v150h567v-150h-567zM270 520h377q0 123 -42 178.5t-126 55.5q-66 0 -106.5 -19.5t-64 -58.5t-32.5 -98q-4 -27 -6 -58z" />
<glyph unicode="&#x116;" horiz-adv-x="1024" d="M135 0v1245h770v-158h-573v-368h555v-156h-555v-405h594v-158h-791zM441 1438v174h196v-174h-196z" />
<glyph unicode="&#x117;" horiz-adv-x="917" d="M68 438q0 449 413 449q113 0 184.5 -32t111.5 -89t55.5 -134t15.5 -169v-78h-580q2 -127 47 -188q57 -74 201 -74q98 0 162.5 23.5t114.5 46.5l41 -125q-25 -14 -63 -29.5t-85 -29t-98.5 -21.5t-102.5 -8q-117 0 -196.5 28.5t-128.5 86t-70.5 143.5t-21.5 200zM270 520 h377q0 123 -42 178.5t-126 55.5q-66 0 -106.5 -19.5t-64 -58.5t-32.5 -98q-4 -27 -6 -58zM375 1059v174h196v-174h-196z" />
<glyph unicode="&#x118;" horiz-adv-x="1024" d="M135 0v1245h770v-158h-573v-368h555v-156h-555v-405h594v-158h-791zM547 -240q0 70 36 122t134 108q41 23 87 40t94 31l26 -61q-33 -18 -61.5 -35.5t-53.5 -36.5q-47 -35 -62 -65.5t-15 -71.5q0 -86 94 -86q55 0 96 14l35 -108q-35 -16 -85 -25.5t-101 -9.5 q-117 0 -170.5 45t-53.5 139z" />
<glyph unicode="&#x119;" horiz-adv-x="917" d="M68 438q0 449 413 449q113 0 184.5 -32t111.5 -89t55.5 -134t15.5 -169v-78h-580q2 -141 60.5 -201.5t187.5 -60.5q98 0 162.5 24.5t114.5 47.5l41 -125q-39 -20 -81 -45t-77 -52q-43 -35 -65.5 -71.5t-22.5 -89.5q0 -43 21.5 -75t72.5 -32q55 0 96 14l35 -108 q-35 -16 -85 -25.5t-101 -9.5q-117 0 -170.5 47t-53.5 139q0 84 41 140q35 43 97 82q-27 -2 -56 -2q-117 0 -196.5 27.5t-128.5 85t-70.5 143.5t-21.5 200zM270 520h377q0 123 -42 178.5t-126 55.5q-115 0 -160 -58.5t-49 -175.5z" />
<glyph unicode="&#x11a;" horiz-adv-x="1024" d="M135 0v1245h770v-158h-573v-368h555v-156h-555v-405h594v-158h-791zM205 1673h174l140 -198h18l145 198h168l-200 -299h-248z" />
<glyph unicode="&#x11b;" horiz-adv-x="917" d="M68 438q0 449 413 449q113 0 184.5 -32t111.5 -89t55.5 -134t15.5 -169v-78h-580q2 -127 47 -188q57 -74 201 -74q98 0 162.5 23.5t114.5 46.5l41 -125q-25 -14 -63 -29.5t-85 -29t-98.5 -21.5t-102.5 -8q-117 0 -196.5 28.5t-128.5 86t-70.5 143.5t-21.5 200zM155 1294 h174l140 -198h18l145 198h168l-200 -299h-248zM270 520h377q0 123 -42 178.5t-126 55.5q-66 0 -106.5 -19.5t-64 -58.5t-32.5 -98q-4 -27 -6 -58z" />
<glyph unicode="&#x11c;" horiz-adv-x="1234" d="M84 623q0 328 158.5 485.5t437.5 157.5q135 0 246.5 -42t183.5 -130l-121 -109q-53 57 -125.5 92t-179.5 35q-205 0 -302 -130t-97 -378q0 -229 96 -348t293 -119q84 0 151 13q49 8 90 18v336h-286v153h479v-594q-86 -39 -199.5 -61t-244.5 -22q-301 0 -440.5 164.5 t-139.5 478.5zM330 1374l201 299h248l196 -299h-174l-139 199h-18l-146 -199h-168z" />
<glyph unicode="&#x11d;" horiz-adv-x="960" d="M68 410q0 104 21.5 192t71.5 151.5t131 98.5t200 35q63 0 112 -14.5t90 -34.5l8 28h150v-897q0 -111 -30.5 -186.5t-87 -122.5t-134.5 -67.5t-170 -20.5q-86 0 -158.5 12.5t-126.5 32.5l50 137q41 -12 97 -24.5t132 -12.5q51 0 94 11.5t75 37t49 68.5t17 107v88 q-49 -23 -101 -36t-116 -13q-197 0 -285.5 112.5t-88.5 317.5zM180 995l201 299h248l196 -299h-174l-139 199h-18l-146 -199h-168zM268 416q0 -61 11.5 -114.5t38 -94.5t71.5 -64.5t113 -23.5q41 0 78.5 10t78.5 31v555q-35 14 -67.5 23.5t-71.5 9.5q-133 0 -192.5 -78 t-59.5 -254z" />
<glyph unicode="&#x11e;" horiz-adv-x="1234" d="M84 623q0 328 158.5 485.5t437.5 157.5q135 0 246.5 -42t183.5 -130l-121 -109q-53 57 -125.5 92t-179.5 35q-205 0 -302 -130t-97 -378q0 -229 96 -348t293 -119q84 0 151 13q49 8 90 18v336h-286v153h479v-594q-86 -39 -199.5 -61t-244.5 -22q-301 0 -440.5 164.5 t-139.5 478.5zM352 1671h149q4 -80 36 -129t114 -49t113.5 49t35.5 129h150q0 -152 -69.5 -230.5t-229.5 -78.5q-162 0 -230.5 78t-68.5 231z" />
<glyph unicode="&#x11f;" horiz-adv-x="960" d="M68 410q0 104 21.5 192t71.5 151.5t131 98.5t200 35q63 0 112 -14.5t90 -34.5l8 28h150v-897q0 -111 -30.5 -186.5t-87 -122.5t-134.5 -67.5t-170 -20.5q-86 0 -158.5 12.5t-126.5 32.5l50 137q41 -12 97 -24.5t132 -12.5q51 0 94 11.5t75 37t49 68.5t17 107v88 q-49 -23 -101 -36t-116 -13q-197 0 -285.5 112.5t-88.5 317.5zM187 1294h149q4 -80 36 -129t114 -49t113.5 49t35.5 129h150q0 -152 -69.5 -230.5t-229.5 -78.5q-162 0 -230.5 78t-68.5 231zM268 416q0 -61 11.5 -114.5t38 -94.5t71.5 -64.5t113 -23.5q41 0 78.5 10t78.5 31 v555q-35 14 -67.5 23.5t-71.5 9.5q-133 0 -192.5 -78t-59.5 -254z" />
<glyph unicode="&#x120;" horiz-adv-x="1234" d="M84 623q0 328 158.5 485.5t437.5 157.5q135 0 246.5 -42t183.5 -130l-121 -109q-53 57 -125.5 92t-179.5 35q-205 0 -302 -130t-97 -378q0 -229 96 -348t293 -119q84 0 151 13q49 8 90 18v336h-286v153h479v-594q-86 -39 -199.5 -61t-244.5 -22q-301 0 -440.5 164.5 t-139.5 478.5zM564 1438v174h196v-174h-196z" />
<glyph unicode="&#x121;" horiz-adv-x="960" d="M68 410q0 104 21.5 192t71.5 151.5t131 98.5t200 35q63 0 112 -14.5t90 -34.5l8 28h150v-897q0 -111 -30.5 -186.5t-87 -122.5t-134.5 -67.5t-170 -20.5q-86 0 -158.5 12.5t-126.5 32.5l50 137q41 -12 97 -24.5t132 -12.5q51 0 94 11.5t75 37t49 68.5t17 107v88 q-49 -23 -101 -36t-116 -13q-197 0 -285.5 112.5t-88.5 317.5zM268 416q0 -61 11.5 -114.5t38 -94.5t71.5 -64.5t113 -23.5q41 0 78.5 10t78.5 31v555q-35 14 -67.5 23.5t-71.5 9.5q-133 0 -192.5 -78t-59.5 -254zM394 1059v174h196v-174h-196z" />
<glyph unicode="&#x122;" horiz-adv-x="1234" d="M84 623q0 328 158.5 485.5t437.5 157.5q135 0 246.5 -42t183.5 -130l-121 -109q-53 57 -125.5 92t-179.5 35q-205 0 -302 -130t-97 -378q0 -229 96 -348t293 -119q84 0 151 13q49 8 90 18v336h-286v153h479v-594q-86 -39 -199.5 -61t-244.5 -22q-301 0 -440.5 164.5 t-139.5 478.5zM477 -463q63 82 83.5 165t20.5 194h179q0 -137 -40 -247t-126 -204z" />
<glyph unicode="&#x123;" horiz-adv-x="960" d="M68 410q0 104 21.5 192t71.5 151.5t131 98.5t200 35q63 0 112 -14.5t90 -34.5l8 28h150v-897q0 -111 -30.5 -186.5t-87 -122.5t-134.5 -67.5t-170 -20.5q-86 0 -158.5 12.5t-126.5 32.5l50 137q41 -12 97 -24.5t132 -12.5q51 0 94 11.5t75 37t49 68.5t17 107v88 q-49 -23 -101 -36t-116 -13q-197 0 -285.5 112.5t-88.5 317.5zM268 416q0 -61 11.5 -114.5t38 -94.5t71.5 -64.5t113 -23.5q41 0 78.5 10t78.5 31v555q-35 14 -67.5 23.5t-71.5 9.5q-133 0 -192.5 -78t-59.5 -254zM415 966q0 137 40 247t126 204l117 -92q-63 -82 -83.5 -165 t-20.5 -194h-179z" />
<glyph unicode="&#x124;" horiz-adv-x="1251" d="M135 0v1245h197v-540h588v540h196v-1245h-196v545h-588v-545h-197zM307 1374l201 299h248l196 -299h-174l-139 199h-18l-146 -199h-168z" />
<glyph unicode="&#x125;" horiz-adv-x="958" d="M-109 1405l201 299h248l196 -299h-174l-139 199h-18l-146 -199h-168zM109 0v1286l194 25v-500q39 25 84 39q98 35 188 35q86 0 140.5 -21.5t86.5 -61.5t44 -98.5t12 -134.5v-569h-192v528q0 43 -5.5 81t-20.5 64.5t-44 42t-78 15.5q-55 0 -100 -14.5t-82 -36.5 q-16 -10 -33 -23v-657h-194z" />
<glyph unicode="&#x126;" horiz-adv-x="1280" d="M20 889v145h1237v-145h-1237zM147 0v1245h197v-540h588v540h196v-1245h-196v545h-588v-545h-197z" />
<glyph unicode="&#x127;" horiz-adv-x="958" d="M-18 999v138h559v-138h-559zM109 0v1286l194 25v-500q39 25 84 39q98 35 188 35q86 0 140.5 -21.5t86.5 -61.5t44 -98.5t12 -134.5v-569h-192v528q0 43 -5.5 81t-20.5 64.5t-44 42t-78 15.5q-55 0 -100 -14.5t-82 -36.5q-16 -10 -33 -23v-657h-194z" />
<glyph unicode="&#x128;" horiz-adv-x="468" d="M-92 1540q37 37 92 63.5t119 26.5q39 0 69.5 -9t58.5 -21.5t55.5 -21.5t58.5 -9q45 0 81.5 17.5t71.5 39.5l58 -114q-41 -39 -95.5 -66t-117.5 -27q-39 0 -71 9.5t-59.5 21.5t-54 21.5t-57.5 9.5q-45 0 -82 -16.5t-70 -38.5zM135 0v1245h197v-1245h-197z" />
<glyph unicode="&#x129;" d="M-47 1186q33 29 71.5 46t86.5 17q35 0 60.5 -8t48 -19.5t44 -19.5t47.5 -8q39 0 68 11.5t55 31.5l29 -131q-35 -29 -74 -45.5t-86 -16.5q-35 0 -60.5 8.5t-48 19.5t-45 19.5t-49.5 8.5q-39 0 -66.5 -12.5t-51.5 -32.5zM111 0v866h192v-866h-192z" />
<glyph unicode="&#x12a;" horiz-adv-x="468" d="M-45 1452v150h567v-150h-567zM135 0v1245h197v-1245h-197z" />
<glyph unicode="&#x12b;" d="M-20 1073v150h456v-150h-456zM111 0v866h192v-866h-192z" />
<glyph unicode="&#x12e;" horiz-adv-x="468" d="M-63 -242q0 66 33.5 120t129.5 108q37 20 90.5 41.5t98.5 38.5l39 -66q-29 -12 -60.5 -28.5t-64.5 -37.5q-49 -37 -66.5 -69.5t-17.5 -73.5q0 -86 94 -86q55 0 96 14l35 -108q-35 -16 -84 -25.5t-100 -9.5q-117 0 -170 45t-53 137zM131 0v1245h197v-1245h-197z" />
<glyph unicode="&#x12f;" d="M-76 -240q0 66 32 120t128 110q35 18 89 37.5t99 35.5l31 -63q-29 -12 -60.5 -29.5t-56.5 -36.5q-43 -35 -60 -68.5t-17 -74.5q0 -86 94 -86q55 0 96 14l35 -108q-35 -16 -85.5 -25.5t-101.5 -9.5q-117 0 -170 45t-53 139zM109 1059v174h196v-174h-196zM111 0v866h192 v-866h-192z" />
<glyph unicode="&#x130;" horiz-adv-x="468" d="M135 0v1245h197v-1245h-197zM142 1438v174h196v-174h-196z" />
<glyph unicode="&#x131;" d="M111 0v866h192v-866h-192z" />
<glyph unicode="&#x134;" horiz-adv-x="667" d="M2 18l27 148q35 -10 72.5 -14.5t66.5 -4.5q82 0 126 43t44 156v899h197v-876q0 -203 -83 -291t-270 -88q-43 0 -91 6t-89 22zM121 1374l201 299h248l196 -299h-174l-139 199h-18l-146 -199h-168z" />
<glyph unicode="&#x135;" d="M-90 1004l176 299h248l172 -299h-166l-123 196h-18l-127 -196h-162zM-43 -274h18q84 0 110 38.5t26 147.5v954h192v-919q0 -98 -15.5 -168t-53 -113t-101 -63.5t-160.5 -20.5h-16v144z" />
<glyph unicode="&#x136;" horiz-adv-x="1095" d="M135 0v1245h197v-545h100l442 545h226l-504 -610l483 -635h-237l-410 547h-100v-547h-197zM348 -461q63 82 83.5 165t20.5 194h179q0 -137 -40 -247t-126 -204z" />
<glyph unicode="&#x137;" horiz-adv-x="890" d="M109 0v1286l192 25v-768h76l297 323h217l-363 -395l375 -471h-219l-311 395h-72v-395h-192zM260 -461q63 82 83.5 165t20.5 194h179q0 -137 -40 -247t-126 -204z" />
<glyph unicode="&#x138;" horiz-adv-x="890" d="M111 0v866h192v-344h78l293 344h219l-367 -415l379 -451h-219l-311 375h-72v-375h-192z" />
<glyph unicode="&#x139;" horiz-adv-x="880" d="M135 0v1245h197v-1087h547v-158h-744zM182 1374l217 299h217l-250 -299h-184z" />
<glyph unicode="&#x13a;" horiz-adv-x="430" d="M109 248v1038l192 25v-1059q0 -78 20.5 -98.5t73.5 -20.5v-139q-6 -2 -18 -2q-10 -2 -21 -2h-18q-131 0 -180 67.5t-49 190.5zM110 1423l217 299h217l-250 -299h-184z" />
<glyph unicode="&#x13b;" horiz-adv-x="884" d="M135 0v1245h197v-1087h547v-158h-744zM276 -463q63 82 83.5 165t20.5 194h179q0 -137 -40 -247t-126 -204z" />
<glyph unicode="&#x13c;" horiz-adv-x="430" d="M47 -463q63 82 83.5 165t20.5 194h179q0 -137 -40 -247t-126 -204zM109 248v1038l192 25v-1059q0 -78 20.5 -98.5t73.5 -20.5v-139q-6 -2 -18 -2q-10 -2 -21 -2h-18q-131 0 -180 67.5t-49 190.5z" />
<glyph unicode="&#x13d;" horiz-adv-x="880" d="M131 0v1245h197v-1087h546v-158h-743zM432 987l53 318h207l-112 -318h-148z" />
<glyph unicode="&#x13e;" horiz-adv-x="655" d="M109 248v1038l192 25v-1059q0 -78 20.5 -98.5t73.5 -20.5v-139q-6 -2 -18 -2q-10 -2 -21 -2h-18q-131 0 -180 67.5t-49 190.5zM408 987l53 318h190l-110 -318h-133z" />
<glyph unicode="&#x141;" horiz-adv-x="876" d="M0 383v162l588 360v-162zM129 0v1245h197v-1087h546v-158h-743z" />
<glyph unicode="&#x142;" horiz-adv-x="485" d="M-4 379v162l498 354v-162zM127 248v1038l192 25v-1059q0 -78 20.5 -98.5t74.5 -20.5v-139q-6 -2 -19 -2q-10 -2 -20 -2h-19q-131 0 -180 67.5t-49 190.5z" />
<glyph unicode="&#x143;" horiz-adv-x="1325" d="M135 0v1245h344l496 -1089h16v1089h197v-1245h-342l-498 1090h-16v-1090h-197zM559 1374l217 299h217l-250 -299h-184z" />
<glyph unicode="&#x144;" horiz-adv-x="960" d="M94 866h180l7 -67q49 33 106 53q98 35 188 35q86 0 140.5 -21.5t86.5 -62.5t44 -99.5t12 -134.5v-569h-192v528q0 45 -5.5 82t-20.5 64.5t-44 43t-78 15.5q-55 0 -100 -15.5t-82 -37.5q-16 -10 -33 -23v-657h-192v635zM317 995l217 299h217l-250 -299h-184z" />
<glyph unicode="&#x145;" horiz-adv-x="1325" d="M135 0v1245h344l496 -1089h16v1089h197v-1245h-342l-498 1090h-16v-1090h-197zM459 -461q63 82 83.5 165t20.5 194h179q0 -137 -40 -247t-126 -204z" />
<glyph unicode="&#x146;" horiz-adv-x="960" d="M94 866h180l7 -67q49 33 106 53q98 35 188 35q86 0 140.5 -21.5t86.5 -62.5t44 -99.5t12 -134.5v-569h-192v528q0 45 -5.5 82t-20.5 64.5t-44 43t-78 15.5q-55 0 -100 -15.5t-82 -37.5q-16 -10 -33 -23v-657h-192v635zM295 -461q63 82 83.5 165t20.5 194h179 q0 -137 -40 -247t-126 -204z" />
<glyph unicode="&#x147;" horiz-adv-x="1325" d="M135 0v1245h344l496 -1089h16v1089h197v-1245h-342l-498 1090h-16v-1090h-197zM338 1673h174l140 -198h18l145 198h168l-200 -299h-248z" />
<glyph unicode="&#x148;" horiz-adv-x="960" d="M94 866h180l7 -67q49 33 106 53q98 35 188 35q86 0 140.5 -21.5t86.5 -62.5t44 -99.5t12 -134.5v-569h-192v528q0 45 -5.5 82t-20.5 64.5t-44 43t-78 15.5q-55 0 -100 -15.5t-82 -37.5q-16 -10 -33 -23v-657h-192v635zM162 1294h174l140 -198h18l145 198h168l-200 -299 h-248z" />
<glyph unicode="&#x14a;" horiz-adv-x="1325" d="M135 0v1245h344l496 -1089h16v1089h197v-1245h-342l-498 1090h-16v-1090h-197zM817 -274h17q86 0 121.5 38.5t35.5 147.5v469h197v-434q0 -98 -16.5 -168t-57.5 -113t-109.5 -63.5t-170.5 -20.5h-17v144z" />
<glyph unicode="&#x14b;" horiz-adv-x="960" d="M94 866h180l7 -67q49 33 106 51q98 35 188 35q86 0 140.5 -21.5t86.5 -61.5t44 -98.5t12 -134.5v-622q0 -98 -15.5 -168t-53 -113t-101 -63.5t-160.5 -20.5h-16v144h16q43 0 70 8t42 29.5t20.5 57.5t5.5 91v616q0 43 -5.5 81t-20.5 64.5t-44 42t-78 15.5 q-55 0 -100 -14.5t-82 -36.5q-16 -10 -33 -23v-657h-192v635z" />
<glyph unicode="&#x14c;" horiz-adv-x="1257" d="M84 629q0 324 137 480.5t428 156.5q145 0 245.5 -45t162 -129t89.5 -204t28 -272q0 -322 -138.5 -479t-431.5 -157q-147 0 -246.5 45t-160 129t-87 203.5t-26.5 271.5zM285 608q0 -98 14 -184t50 -149.5t97.5 -100.5t153.5 -37q106 0 177 33t114 96.5t60.5 157.5 t17.5 217q0 96 -14.5 182t-50.5 150.5t-97.5 101.5t-155.5 37q-104 0 -173.5 -32.5t-112.5 -96t-61.5 -158t-18.5 -217.5zM340 1452v150h567v-150h-567z" />
<glyph unicode="&#x14d;" horiz-adv-x="976" d="M68 436q0 229 105.5 340t334.5 111q115 0 191.5 -32t123.5 -91t66.5 -144t19.5 -192q0 -229 -106.5 -338.5t-335.5 -109.5q-115 0 -191.5 31.5t-123 90t-65.5 143.5t-19 191zM217 1073v150h567v-150h-567zM266 422q0 -63 8.5 -118.5t31 -97.5t61.5 -65.5t100 -23.5 q141 0 192.5 83t51.5 244q0 61 -8.5 117.5t-31 98.5t-62.5 67t-101 25q-139 0 -190.5 -85t-51.5 -245z" />
<glyph unicode="&#x150;" horiz-adv-x="1257" d="M84 629q0 324 137 480.5t428 156.5q145 0 245.5 -45t162 -129t89.5 -204t28 -272q0 -322 -138.5 -479t-431.5 -157q-147 0 -246.5 45t-160 129t-87 203.5t-26.5 271.5zM285 608q0 -98 14 -184t50 -149.5t97.5 -100.5t153.5 -37q106 0 177 33t114 96.5t60.5 157.5 t17.5 217q0 96 -14.5 182t-50.5 150.5t-97.5 101.5t-155.5 37q-104 0 -173.5 -32.5t-112.5 -96t-61.5 -158t-18.5 -217.5zM323 1376l215 299h203l-250 -299h-168zM682 1376l217 299h203l-250 -299h-170z" />
<glyph unicode="&#x151;" horiz-adv-x="976" d="M68 436q0 229 105.5 340t334.5 111q115 0 191.5 -32t123.5 -91t66.5 -144t19.5 -192q0 -229 -106.5 -338.5t-335.5 -109.5q-115 0 -191.5 31.5t-123 90t-65.5 143.5t-19 191zM192 995l215 299h203l-250 -299h-168zM266 422q0 -63 8.5 -118.5t31 -97.5t61.5 -65.5 t100 -23.5q141 0 192.5 83t51.5 244q0 61 -8.5 117.5t-31 98.5t-62.5 67t-101 25q-139 0 -190.5 -85t-51.5 -245zM551 995l217 299h203l-250 -299h-170z" />
<glyph unicode="&#x152;" horiz-adv-x="1857" d="M84 629q0 324 137 480.5t428 156.5q143 0 240.5 -44t157 -128t84 -204t24.5 -272q0 -324 -131 -481t-420 -157q-147 0 -246.5 45t-160 129t-87 203.5t-26.5 271.5zM285 608q0 -98 14 -184t50 -149.5t97.5 -100.5t153.5 -37q106 0 177 33t114 96.5t60.5 157.5t17.5 217 q0 96 -14.5 182t-50.5 150.5t-97.5 101.5t-155.5 37q-104 0 -173.5 -32.5t-112.5 -96t-61.5 -158t-18.5 -217.5z" />
<glyph unicode="&#x153;" horiz-adv-x="1558" d="M68 436q0 229 105.5 340t334.5 111q188 0 285 -109q8 -10 16 -22l14 18q96 113 301 113q113 0 184.5 -32t111.5 -89t55.5 -134t15.5 -169v-78h-580q0 -127 47 -188q57 -74 201 -74q98 0 162.5 23.5t114.5 46.5l41 -125q-25 -14 -63 -29.5t-85 -29t-98.5 -21.5t-102.5 -8 q-113 0 -189.5 27.5t-123.5 84.5q-8 10 -14 21l-10 -13q-98 -121 -324 -120q-115 0 -191.5 31.5t-123 90t-65.5 143.5t-19 191zM266 422q0 -63 8.5 -118.5t31 -97.5t61.5 -65.5t100 -23.5q141 0 192.5 83t51.5 244q0 61 -8.5 117.5t-31 98.5t-62.5 67t-101 25 q-139 0 -190.5 -85t-51.5 -245zM913 520h377q0 123 -42 178.5t-126 55.5q-129 0 -172 -78q-33 -55 -37 -156z" />
<glyph unicode="&#x154;" horiz-adv-x="1101" d="M135 0v1245h457q211 0 320.5 -84t109.5 -274q0 -164 -88 -252q-61 -61 -148 -94l271 -541h-215l-250 510h-260v-510h-197zM332 666h258q98 0 162.5 49t64.5 172q0 109 -64.5 154.5t-162.5 45.5h-258v-421zM405 1374l217 299h217l-250 -299h-184z" />
<glyph unicode="&#x155;" horiz-adv-x="677" d="M88 866h180l13 -104q43 51 94 78q86 47 176 47q41 0 74.5 -7.5t56.5 -17.5l-49 -157q-39 23 -105 22q-74 0 -141 -41q-41 -25 -80 -68v-618h-194v625zM227 995l217 299h217l-250 -299h-184z" />
<glyph unicode="&#x156;" horiz-adv-x="1101" d="M135 0v1245h457q211 0 320.5 -84t109.5 -274q0 -164 -88 -252q-61 -61 -148 -94l271 -541h-215l-250 510h-260v-510h-197zM332 666h258q98 0 162.5 49t64.5 172q0 109 -64.5 154.5t-162.5 45.5h-258v-421zM369 -463q63 82 83.5 165t20.5 194h179q0 -137 -40 -247 t-126 -204z" />
<glyph unicode="&#x157;" horiz-adv-x="677" d="M18 -463q63 82 83.5 165t20.5 194h179q0 -137 -40 -247t-126 -204zM88 866h180l13 -104q43 51 94 78q86 47 176 47q41 0 74.5 -7.5t56.5 -17.5l-49 -157q-39 23 -105 22q-74 0 -141 -41q-41 -25 -80 -68v-618h-194v625z" />
<glyph unicode="&#x158;" horiz-adv-x="1101" d="M135 0v1245h457q211 0 320.5 -84t109.5 -274q0 -164 -88 -252q-61 -61 -148 -94l271 -541h-215l-250 510h-260v-510h-197zM209 1673h174l140 -198h18l145 198h168l-200 -299h-248zM332 666h258q98 0 162.5 49t64.5 172q0 109 -64.5 154.5t-162.5 45.5h-258v-421z" />
<glyph unicode="&#x159;" horiz-adv-x="677" d="M33 1294h174l140 -198h18l145 198h168l-200 -299h-248zM88 866h180l13 -104q43 51 94 78q86 47 176 47q41 0 74.5 -7.5t56.5 -17.5l-49 -157q-39 23 -105 22q-74 0 -141 -41q-41 -25 -80 -68v-618h-194v625z" />
<glyph unicode="&#x15a;" horiz-adv-x="1013" d="M68 74l73 149q86 -41 165 -61.5t171 -20.5q143 0 208 48.5t65 123.5q0 57 -32 95t-75 61q-74 37 -171 69.5t-179 73.5q-102 49 -156.5 117t-54.5 197q0 82 32.5 145.5t93 106.5t144.5 65.5t189 22.5q102 0 202.5 -20.5t182.5 -65.5l-68 -148q-57 29 -139 52.5t-178 23.5 q-129 0 -194.5 -45t-65.5 -123q0 -61 33.5 -100t86.5 -64q33 -16 75 -32.5t87 -33t90 -35t86 -38.5q43 -23 81 -48.5t65.5 -61t44 -85t16.5 -116.5q0 -84 -32.5 -147.5t-94 -108.5t-147.5 -67.5t-191 -22.5q-104 0 -212.5 23.5t-200.5 70.5zM409 1374l217 299h217l-250 -299 h-184z" />
<glyph unicode="&#x15b;" horiz-adv-x="819" d="M59 41l60 141q51 -29 119.5 -44t148.5 -15q78 0 131 20.5t53 81.5q0 68 -110 109q-51 16 -105.5 33.5t-99.5 35.5q-78 27 -131 77t-53 149q0 68 28.5 117t77.5 80.5t115.5 46t140.5 14.5q104 0 181 -16.5t137 -41.5l-60 -139q-53 27 -117.5 41t-140.5 14 q-92 0 -135 -26.5t-43 -69.5q0 -35 26 -57t83 -45q16 -8 41.5 -17.5t52.5 -19.5l108 -35q39 -12 75 -30.5t61.5 -46t41 -65.5t15.5 -89q0 -135 -97.5 -199.5t-275.5 -64.5q-98 0 -180 16t-148 45zM303 995l217 299h217l-250 -299h-184z" />
<glyph unicode="&#x15c;" horiz-adv-x="1013" d="M68 74l73 149q86 -41 165 -61.5t171 -20.5q143 0 208 48.5t65 123.5q0 57 -32 95t-75 61q-74 37 -171 69.5t-179 73.5q-102 49 -156.5 117t-54.5 197q0 82 32.5 145.5t93 106.5t144.5 65.5t189 22.5q102 0 202.5 -20.5t182.5 -65.5l-68 -148q-57 29 -139 52.5t-178 23.5 q-129 0 -194.5 -45t-65.5 -123q0 -61 33.5 -100t86.5 -64q33 -16 75 -32.5t87 -33t90 -35t86 -38.5q43 -23 81 -48.5t65.5 -61t44 -85t16.5 -116.5q0 -84 -32.5 -147.5t-94 -108.5t-147.5 -67.5t-191 -22.5q-104 0 -212.5 23.5t-200.5 70.5zM203 1374l201 299h248l196 -299 h-174l-139 199h-18l-146 -199h-168z" />
<glyph unicode="&#x15d;" horiz-adv-x="819" d="M59 41l60 141q51 -29 119.5 -44t148.5 -15q78 0 131 20.5t53 81.5q0 68 -110 109q-51 16 -105.5 33.5t-99.5 35.5q-78 27 -131 77t-53 149q0 68 28.5 117t77.5 80.5t115.5 46t140.5 14.5q104 0 181 -16.5t137 -41.5l-60 -139q-53 27 -117.5 41t-140.5 14 q-92 0 -135 -26.5t-43 -69.5q0 -35 26 -57t83 -45q16 -8 41.5 -17.5t52.5 -19.5l108 -35q39 -12 75 -30.5t61.5 -46t41 -65.5t15.5 -89q0 -135 -97.5 -199.5t-275.5 -64.5q-98 0 -180 16t-148 45zM112 995l201 299h248l196 -299h-174l-139 199h-18l-146 -199h-168z" />
<glyph unicode="&#x15e;" horiz-adv-x="1013" d="M68 74l73 149q86 -41 165 -61.5t171 -20.5q143 0 208 48.5t65 123.5q0 57 -32 95t-75 61q-74 37 -171 69.5t-179 73.5q-102 49 -156.5 117t-54.5 197q0 82 32.5 145.5t93 106.5t144.5 65.5t189 22.5q102 0 202.5 -20.5t182.5 -65.5l-68 -148q-57 29 -139 52.5t-178 23.5 q-129 0 -194.5 -45t-65.5 -123q0 -61 33.5 -100t86.5 -64q33 -16 75 -32.5t87 -33t90 -35t86 -38.5q43 -23 81 -48.5t65.5 -61t44 -85t16.5 -116.5q0 -84 -32.5 -147.5t-94 -108.5t-147.5 -67.5t-191 -22.5q-104 0 -212.5 23.5t-200.5 70.5zM266 -393l46 110 q33 -10 62.5 -16t64.5 -6q55 0 82.5 16.5t27.5 57.5q0 51 -39 68.5t-143 27.5l39 102q166 -8 244.5 -50t78.5 -146t-64.5 -151.5t-205.5 -47.5q-55 0 -106.5 10t-86.5 25z" />
<glyph unicode="&#x15f;" horiz-adv-x="819" d="M59 41l60 141q51 -29 119.5 -44t148.5 -15q78 0 131 20.5t53 81.5q0 68 -110 109q-51 16 -105.5 33.5t-99.5 35.5q-78 27 -131 77t-53 149q0 68 28.5 117t77.5 80.5t115.5 46t140.5 14.5q104 0 181 -16.5t137 -41.5l-60 -139q-53 27 -117.5 41t-140.5 14 q-92 0 -135 -26.5t-43 -69.5q0 -35 26 -57t83 -45q16 -8 41.5 -17.5t52.5 -19.5l108 -35q39 -12 75 -30.5t61.5 -46t41 -65.5t15.5 -89q0 -135 -97.5 -199.5t-275.5 -64.5q-98 0 -180 16t-148 45zM178 -393l46 110q33 -10 62.5 -16t64.5 -6q55 0 82.5 16.5t27.5 57.5 q0 51 -39 68.5t-143 27.5l39 102q166 -8 244.5 -50t78.5 -146t-64.5 -151.5t-205.5 -47.5q-55 0 -106.5 10t-86.5 25z" />
<glyph unicode="&#x160;" horiz-adv-x="1013" d="M68 74l73 149q86 -41 165 -61.5t171 -20.5q143 0 208 48.5t65 123.5q0 57 -32 95t-75 61q-74 37 -171 69.5t-179 73.5q-102 49 -156.5 117t-54.5 197q0 82 32.5 145.5t93 106.5t144.5 65.5t189 22.5q102 0 202.5 -20.5t182.5 -65.5l-68 -148q-57 29 -139 52.5t-178 23.5 q-129 0 -194.5 -45t-65.5 -123q0 -61 33.5 -100t86.5 -64q33 -16 75 -32.5t87 -33t90 -35t86 -38.5q43 -23 81 -48.5t65.5 -61t44 -85t16.5 -116.5q0 -84 -32.5 -147.5t-94 -108.5t-147.5 -67.5t-191 -22.5q-104 0 -212.5 23.5t-200.5 70.5zM194 1673h174l140 -198h18 l145 198h168l-200 -299h-248z" />
<glyph unicode="&#x161;" horiz-adv-x="819" d="M59 41l60 141q51 -29 119.5 -44t148.5 -15q78 0 131 20.5t53 81.5q0 68 -110 109q-51 16 -105.5 33.5t-99.5 35.5q-78 27 -131 77t-53 149q0 68 28.5 117t77.5 80.5t115.5 46t140.5 14.5q104 0 181 -16.5t137 -41.5l-60 -139q-53 27 -117.5 41t-140.5 14 q-92 0 -135 -26.5t-43 -69.5q0 -35 26 -57t83 -45q16 -8 41.5 -17.5t52.5 -19.5l108 -35q39 -12 75 -30.5t61.5 -46t41 -65.5t15.5 -89q0 -135 -97.5 -199.5t-275.5 -64.5q-98 0 -180 16t-148 45zM100 1294h174l140 -198h18l145 198h168l-200 -299h-248z" />
<glyph unicode="&#x162;" horiz-adv-x="968" d="M6 1087v158h957v-158h-381v-1087h-197v1087h-379zM237 -393l46 110q33 -10 62.5 -16t64.5 -6q55 0 82.5 16.5t27.5 57.5q0 51 -39 68.5t-143 27.5l39 102q166 -8 244.5 -50t78.5 -146t-64.5 -151.5t-205.5 -47.5q-55 0 -106.5 10t-86.5 25z" />
<glyph unicode="&#x163;" horiz-adv-x="727" d="M23 719v129l145 16v174l194 33v-205h312v-147h-312v-389q0 -45 4.5 -82t17.5 -62.5t42 -40t78 -14.5q45 0 87 10.5t79 26.5l32 -131q-59 -29 -125.5 -43t-134.5 -14q-84 0 -137 21.5t-82.5 61t-41 95t-11.5 121.5v440h-147zM172 -393l46 110q33 -10 62.5 -16t64.5 -6 q55 0 82.5 16.5t27.5 57.5q0 51 -39 68.5t-143 27.5l39 102q166 -8 244.5 -50t78.5 -146t-64.5 -151.5t-205.5 -47.5q-55 0 -106.5 10t-86.5 25z" />
<glyph unicode="&#x164;" horiz-adv-x="989" d="M16 1087v158h957v-158h-381v-1087h-197v1087h-379zM178 1673h174l140 -198h18l145 198h168l-200 -299h-248z" />
<glyph unicode="&#x165;" horiz-adv-x="727" d="M23 719v129l145 16v174l194 33v-205h312v-147h-312v-389q0 -45 4.5 -82t17.5 -62.5t42 -40t78 -14.5q45 0 87 10.5t79 26.5l32 -131q-59 -29 -125.5 -43t-134.5 -14q-84 0 -137 21.5t-82.5 61t-41 95t-11.5 121.5v440h-147zM481 987l51 318h195l-113 -318h-133z" />
<glyph unicode="&#x166;" horiz-adv-x="968" d="M6 1087v158h957v-158h-381v-1087h-197v1087h-379zM70 563v156h827v-156h-827z" />
<glyph unicode="&#x167;" horiz-adv-x="727" d="M23 719v129l145 16v174l194 33v-205h312v-147h-312v-389q0 -45 4.5 -82t17.5 -62.5t42 -40t78 -14.5q45 0 87 10.5t79 26.5l32 -131q-59 -29 -125.5 -43t-134.5 -14q-84 0 -137 21.5t-82.5 61t-41 95t-11.5 121.5v440h-147zM25 393v142h639v-142h-639z" />
<glyph unicode="&#x168;" horiz-adv-x="1198" d="M121 492v753h196v-782q0 -156 59.5 -242t205.5 -86q164 0 231.5 82t67.5 277v751h196v-766q0 -266 -127 -382.5t-366 -116.5q-238 0 -350.5 119.5t-112.5 392.5zM266 1540q37 37 92 63.5t119 26.5q39 0 69.5 -9t58.5 -21.5t55.5 -21.5t58.5 -9q45 0 81.5 17.5t71.5 39.5 l58 -114q-41 -39 -95.5 -66t-117.5 -27q-39 0 -71 9.5t-59.5 21.5t-54 21.5t-57.5 9.5q-45 0 -82 -16.5t-70 -38.5z" />
<glyph unicode="&#x169;" horiz-adv-x="954" d="M100 297v569h195v-530q0 -45 4 -82t19.5 -64.5t44 -43t77.5 -15.5q53 0 97.5 14.5t80.5 36.5q16 12 33 23v661h193v-635l16 -231h-180l-8 68q-49 -33 -105 -54q-96 -35 -186 -34q-86 0 -140.5 21.5t-85 62t-43 99t-12.5 134.5zM152 1161q37 37 92 63.5t119 26.5 q39 0 69.5 -9t58.5 -21.5t55.5 -21.5t58.5 -9q45 0 81.5 17.5t71.5 39.5l58 -114q-41 -39 -95.5 -66t-117.5 -27q-39 0 -71 9.5t-59.5 21.5t-54 21.5t-57.5 9.5q-45 0 -82 -16.5t-70 -38.5z" />
<glyph unicode="&#x16a;" horiz-adv-x="1198" d="M121 492v753h196v-782q0 -156 59.5 -242t205.5 -86q164 0 231.5 82t67.5 277v751h196v-766q0 -266 -127 -382.5t-366 -116.5q-238 0 -350.5 119.5t-112.5 392.5zM313 1452v150h567v-150h-567z" />
<glyph unicode="&#x16b;" horiz-adv-x="954" d="M100 297v569h195v-530q0 -45 4 -82t19.5 -64.5t44 -43t77.5 -15.5q53 0 97.5 14.5t80.5 36.5q16 12 33 23v661h193v-635l16 -231h-180l-8 68q-49 -33 -105 -54q-96 -35 -186 -34q-86 0 -140.5 21.5t-85 62t-43 99t-12.5 134.5zM194 1073v150h567v-150h-567z" />
<glyph unicode="&#x16c;" horiz-adv-x="1198" d="M121 492v753h196v-782q0 -156 59.5 -242t205.5 -86q164 0 231.5 82t67.5 277v751h196v-766q0 -266 -127 -382.5t-366 -116.5q-238 0 -350.5 119.5t-112.5 392.5zM297 1671h149q4 -80 36 -129t114 -49t113.5 49t35.5 129h150q0 -152 -69.5 -230.5t-229.5 -78.5 q-162 0 -230.5 78t-68.5 231z" />
<glyph unicode="&#x16d;" horiz-adv-x="954" d="M100 297v569h195v-530q0 -45 4 -82t19.5 -64.5t44 -43t77.5 -15.5q53 0 97.5 14.5t80.5 36.5q16 12 33 23v661h193v-635l16 -231h-180l-8 68q-49 -33 -105 -54q-96 -35 -186 -34q-86 0 -140.5 21.5t-85 62t-43 99t-12.5 134.5zM174 1294h149q4 -80 36 -129t114 -49 t113.5 49t35.5 129h150q0 -152 -69.5 -230.5t-229.5 -78.5q-162 0 -230.5 78t-68.5 231z" />
<glyph unicode="&#x16e;" horiz-adv-x="1198" d="M121 492v753h196v-782q0 -156 59.5 -242t205.5 -86q164 0 231.5 82t67.5 277v751h196v-766q0 -266 -127 -382.5t-366 -116.5q-238 0 -350.5 119.5t-112.5 392.5zM391 1534q0 92 55.5 142.5t161.5 50.5q111 0 156 -54.5t45 -140.5q0 -92 -55 -141t-164 -49q-111 0 -155 53 t-44 139zM514 1532q0 -39 18.5 -60.5t63.5 -21.5q86 0 86 84q0 39 -17.5 60.5t-60.5 21.5q-90 0 -90 -84z" />
<glyph unicode="&#x16f;" horiz-adv-x="954" d="M100 297v569h195v-530q0 -45 4 -82t19.5 -64.5t44 -43t77.5 -15.5q53 0 97.5 14.5t80.5 36.5q16 12 33 23v661h193v-635l16 -231h-180l-8 68q-49 -33 -105 -54q-96 -35 -186 -34q-86 0 -140.5 21.5t-85 62t-43 99t-12.5 134.5zM268 1157q0 92 55.5 142.5t161.5 50.5 q111 0 156 -54.5t45 -140.5q0 -92 -55 -141t-164 -49q-111 0 -155 53t-44 139zM391 1155q0 -39 18.5 -60.5t63.5 -21.5q86 0 86 84q0 39 -17.5 60.5t-60.5 21.5q-90 0 -90 -84z" />
<glyph unicode="&#x170;" horiz-adv-x="1198" d="M121 492v753h196v-782q0 -156 59.5 -242t205.5 -86q164 0 231.5 82t67.5 277v751h196v-766q0 -266 -127 -382.5t-366 -116.5q-238 0 -350.5 119.5t-112.5 392.5zM280 1376l215 299h203l-250 -299h-168zM639 1376l217 299h203l-250 -299h-170z" />
<glyph unicode="&#x171;" horiz-adv-x="954" d="M100 297v569h195v-530q0 -45 4 -82t19.5 -64.5t44 -43t77.5 -15.5q53 0 97.5 14.5t80.5 36.5q16 12 33 23v661h193v-635l16 -231h-180l-8 68q-49 -33 -105 -54q-96 -35 -186 -34q-86 0 -140.5 21.5t-85 62t-43 99t-12.5 134.5zM180 995l215 299h203l-250 -299h-168z M539 995l217 299h203l-250 -299h-170z" />
<glyph unicode="&#x172;" horiz-adv-x="1198" d="M121 492v753h196v-782q0 -156 59.5 -242t205.5 -86q164 0 231.5 82t67.5 277v751h196v-766q0 -266 -127 -382.5t-366 -116.5q-238 0 -350.5 119.5t-112.5 392.5zM438 -238q0 78 40 130.5t138 107.5q31 20 79 38.5t89 33.5l43 -49q-23 -12 -62.5 -32t-72.5 -44 q-41 -35 -56 -68t-15 -74q0 -43 22.5 -71.5t71.5 -28.5q55 0 96 14l35 -108q-35 -16 -84 -25.5t-100 -9.5q-117 0 -170.5 47t-53.5 139z" />
<glyph unicode="&#x173;" horiz-adv-x="954" d="M100 297v569h195v-530q0 -45 4 -82t19.5 -64.5t44 -43t77.5 -15.5q53 0 97.5 14.5t80.5 36.5q16 12 33 23v661h193v-635l16 -231h-180l-8 68q-49 -33 -105 -54q-96 -35 -186 -34q-86 0 -140.5 21.5t-85 62t-43 99t-12.5 134.5zM481 -240q0 70 36 122t134 108q41 23 87 40 t94 31l26 -61q-33 -18 -61.5 -35.5t-53.5 -36.5q-47 -35 -62 -65.5t-15 -71.5q0 -86 94 -86q55 0 96 14l35 -108q-35 -16 -85 -25.5t-101 -9.5q-117 0 -170.5 45t-53.5 139z" />
<glyph unicode="&#x178;" horiz-adv-x="1087" d="M-2 1245h231l308 -530h16l307 530h227l-446 -713v-532h-197v530q-23 35 -58.5 93.5t-77.5 126t-88 140.5t-88 140.5t-77 123.5t-57 91zM270 1417v174h191v-174h-191zM627 1417v174h190v-174h-190z" />
<glyph unicode="&#x179;" horiz-adv-x="1040" d="M47 0v127l694 963h-649v155h891v-127l-694 -960h692v-158h-934zM426 1374l217 299h217l-250 -299h-184z" />
<glyph unicode="&#x17a;" horiz-adv-x="843" d="M47 0v117l514 602h-493v147h727v-116l-516 -603h520v-147h-752zM311 995l217 299h217l-250 -299h-184z" />
<glyph unicode="&#x17b;" horiz-adv-x="1040" d="M47 0v127l694 963h-649v155h891v-127l-694 -960h692v-158h-934zM449 1419v174h196v-174h-196z" />
<glyph unicode="&#x17c;" horiz-adv-x="843" d="M47 0v117l514 602h-493v147h727v-116l-516 -603h520v-147h-752zM349 1059v174h196v-174h-196z" />
<glyph unicode="&#x17d;" horiz-adv-x="1040" d="M47 0v127l694 963h-649v155h891v-127l-694 -960h692v-158h-934zM233 1673h174l140 -198h18l145 198h168l-200 -299h-248z" />
<glyph unicode="&#x17e;" horiz-adv-x="843" d="M47 0v117l514 602h-493v147h727v-116l-516 -603h520v-147h-752zM123 1294h174l140 -198h18l145 198h168l-200 -299h-248z" />
<glyph unicode="&#x192;" horiz-adv-x="792" d="M-55 -410l24 144q45 -12 99 -13q86 0 123.5 44.5t37.5 148.5v645h-141v141h141v238q0 98 26 162.5t71 104.5t108.5 56.5t138.5 16.5q53 0 105.5 -8t93.5 -25l-43 -139q-33 16 -65.5 20t-69.5 4q-98 0 -134 -46t-36 -146v-238h287v-141h-287v-645q0 -96 -23.5 -160.5 t-67.5 -104.5t-106.5 -57.5t-140.5 -17.5q-72 0 -141 16z" />
<glyph unicode="&#x218;" horiz-adv-x="1013" d="M68 74l73 149q86 -41 165 -61.5t171 -20.5q143 0 208 48.5t65 123.5q0 57 -32 95t-75 61q-74 37 -171 69.5t-179 73.5q-102 49 -156.5 117t-54.5 197q0 82 32.5 145.5t93 106.5t144.5 65.5t189 22.5q102 0 202.5 -20.5t182.5 -65.5l-68 -148q-57 29 -139 52.5t-178 23.5 q-129 0 -194.5 -45t-65.5 -123q0 -61 33.5 -100t86.5 -64q33 -16 75 -32.5t87 -33t90 -35t86 -38.5q43 -23 81 -48.5t65.5 -61t44 -85t16.5 -116.5q0 -84 -32.5 -147.5t-94 -108.5t-147.5 -67.5t-191 -22.5q-104 0 -212.5 23.5t-200.5 70.5zM336 -463q63 82 83.5 165 t20.5 194h179q0 -137 -40 -247t-126 -204z" />
<glyph unicode="&#x219;" horiz-adv-x="819" d="M59 41l60 141q51 -29 119.5 -44t148.5 -15q78 0 131 20.5t53 81.5q0 68 -110 109q-51 16 -105.5 33.5t-99.5 35.5q-78 27 -131 77t-53 149q0 68 28.5 117t77.5 80.5t115.5 46t140.5 14.5q104 0 181 -16.5t137 -41.5l-60 -139q-53 27 -117.5 41t-140.5 14 q-92 0 -135 -26.5t-43 -69.5q0 -35 26 -57t83 -45q16 -8 41.5 -17.5t52.5 -19.5l108 -35q39 -12 75 -30.5t61.5 -46t41 -65.5t15.5 -89q0 -135 -97.5 -199.5t-275.5 -64.5q-98 0 -180 16t-148 45zM242 -463q63 82 83.5 165t20.5 194h179q0 -137 -40 -247t-126 -204z" />
<glyph unicode="&#x21a;" horiz-adv-x="968" d="M6 1087v158h957v-158h-381v-1087h-197v1087h-379zM289 -461q63 82 83.5 165t20.5 194h179q0 -137 -40 -247t-126 -204z" />
<glyph unicode="&#x21b;" horiz-adv-x="727" d="M23 719v129l145 16v174l194 33v-205h312v-147h-312v-389q0 -45 4.5 -82t17.5 -62.5t42 -40t78 -14.5q45 0 87 10.5t79 26.5l32 -131q-59 -29 -125.5 -43t-134.5 -14q-84 0 -137 21.5t-82.5 61t-41 95t-11.5 121.5v440h-147zM219 -463q63 82 83.5 165t20.5 194h179 q0 -137 -40 -247t-126 -204z" />
<glyph unicode="&#x2c6;" horiz-adv-x="1007" d="M180 995l201 299h248l196 -299h-174l-139 199h-18l-146 -199h-168z" />
<glyph unicode="&#x2c7;" horiz-adv-x="1007" d="M180 1294h174l140 -198h18l145 198h168l-200 -299h-248z" />
<glyph unicode="&#x2d8;" horiz-adv-x="1007" d="M205 1294h149q4 -80 36 -129t114 -49t113.5 49t35.5 129h150q0 -152 -69.5 -230.5t-229.5 -78.5q-162 0 -230.5 78t-68.5 231z" />
<glyph unicode="&#x2d9;" horiz-adv-x="1007" d="M406 1059v174h196v-174h-196z" />
<glyph unicode="&#x2da;" horiz-adv-x="1007" d="M272 1157q0 92 55.5 142.5t161.5 50.5q111 0 156 -54.5t45 -140.5q0 -92 -55 -141t-164 -49q-111 0 -155 53t-44 139zM395 1155q0 -39 18.5 -60.5t63.5 -21.5q86 0 86 84q0 39 -17.5 60.5t-60.5 21.5q-90 0 -90 -84z" />
<glyph unicode="&#x2db;" horiz-adv-x="708" d="M141 -240q0 70 36 122t134 108q41 23 87 40t94 31l26 -61q-33 -18 -61.5 -35.5t-53.5 -36.5q-47 -35 -62 -65.5t-15 -71.5q0 -86 94 -86q55 0 96 14l35 -108q-35 -16 -85 -25.5t-101 -9.5q-117 0 -170.5 45t-53.5 139z" />
<glyph unicode="&#x2dc;" horiz-adv-x="1007" d="M172 1161q37 37 92 63.5t119 26.5q39 0 69.5 -9t58.5 -21.5t55.5 -21.5t58.5 -9q45 0 81.5 17.5t71.5 39.5l58 -114q-41 -39 -95.5 -66t-117.5 -27q-39 0 -71 9.5t-59.5 21.5t-54 21.5t-57.5 9.5q-45 0 -82 -16.5t-70 -38.5z" />
<glyph unicode="&#x2dd;" horiz-adv-x="1007" d="M98 995l215 299h203l-250 -299h-168zM457 995l217 299h203l-250 -299h-170z" />
<glyph unicode="&#x401;" horiz-adv-x="1024" d="M135 0v1245h770v-158h-573v-368h555v-156h-555v-405h594v-158h-791zM247 1419v174h191v-174h-191zM604 1419v174h190v-174h-190z" />
<glyph unicode="&#x402;" horiz-adv-x="1310" d="M6 1087v158h942v-158h-373v-360q72 25 148 39t168 14q164 0 263 -96t99 -299q0 -94 -22.5 -169t-72.5 -127t-130 -80.5t-194 -28.5q-90 0 -170 22l28 152q25 -8 55.5 -13.5t67.5 -5.5q68 0 114 18.5t74.5 51.5t42 78t13.5 96q0 131 -62.5 186.5t-160.5 55.5 q-70 0 -141.5 -14.5t-119.5 -31.5v-575h-196v1087h-373z" />
<glyph unicode="&#x403;" horiz-adv-x="919" d="M135 0v1245h768v-158h-571v-1087h-197zM416 1376l217 299h217l-250 -299h-184z" />
<glyph unicode="&#x404;" horiz-adv-x="1128" d="M84 623q0 330 148.5 486.5t420.5 156.5q117 0 229.5 -41t180.5 -125l-117 -115q-53 59 -120.5 91t-166.5 32q-172 0 -261 -100.5t-107 -292.5h524v-150h-530q8 -205 95 -311.5t267 -106.5q113 0 202 24t161 54l47 -153q-76 -39 -189.5 -65.5t-230.5 -26.5 q-293 2 -423 163.5t-130 479.5z" />
<glyph unicode="&#x405;" horiz-adv-x="1013" d="M68 74l73 149q86 -41 165 -61.5t171 -20.5q143 0 208 48.5t65 123.5q0 57 -32 95t-75 61q-74 37 -171 69.5t-179 73.5q-102 49 -156.5 117t-54.5 197q0 82 32.5 145.5t93 106.5t144.5 65.5t189 22.5q102 0 202.5 -20.5t182.5 -65.5l-68 -148q-57 29 -139 52.5t-178 23.5 q-129 0 -194.5 -45t-65.5 -123q0 -61 33.5 -100t86.5 -64q33 -16 75 -32.5t87 -33t90 -35t86 -38.5q43 -23 81 -48.5t65.5 -61t44 -85t16.5 -116.5q0 -84 -32.5 -147.5t-94 -108.5t-147.5 -67.5t-191 -22.5q-104 0 -212.5 23.5t-200.5 70.5z" />
<glyph unicode="&#x406;" horiz-adv-x="468" d="M135 0v1245h197v-1245h-197z" />
<glyph unicode="&#x407;" horiz-adv-x="468" d="M-35 1419v174h191v-174h-191zM135 0v1245h197v-1245h-197zM322 1419v174h190v-174h-190z" />
<glyph unicode="&#x408;" horiz-adv-x="667" d="M2 18l27 148q35 -10 72.5 -14.5t66.5 -4.5q82 0 126 43t44 156v899h197v-876q0 -203 -83 -291t-270 -88q-43 0 -91 6t-89 22z" />
<glyph unicode="&#x409;" horiz-adv-x="1777" d="M-4 6l16 172q23 -4 30 -6t30 -2q63 0 102 73.5t60.5 213t29.5 338t12 450.5h773v-473h260q199 0 310.5 -94t111.5 -287q0 -203 -113 -297t-309 -94h-457v1087h-391q-2 -51 -4 -122.5t-6.5 -154.5t-11.5 -173t-17 -176q-14 -119 -38 -207t-60.5 -146.5t-91 -88 t-130.5 -29.5q-23 0 -53.5 4t-52.5 12zM1049 158h247q43 0 84 11t74 37.5t52.5 72t19.5 112.5q0 61 -19.5 104.5t-52.5 70t-74 38.5t-84 12h-247v-458z" />
<glyph unicode="&#x40a;" horiz-adv-x="1826" d="M135 0v1245h197v-497h567v497h197v-497h286q186 0 291 -94.5t105 -274.5q0 -197 -106.5 -288t-305.5 -91h-467v588h-567v-588h-197zM1096 158h260q43 0 83 11t70.5 36.5t49 67.5t18.5 106q0 57 -18.5 98t-49 66.5t-70.5 37t-83 11.5h-260v-434z" />
<glyph unicode="&#x40b;" horiz-adv-x="1351" d="M6 1087v158h942v-158h-373v-360q72 25 148 39t168 14q82 0 148.5 -19.5t113.5 -59t73.5 -103t26.5 -152.5v-446h-196v393q0 125 -61.5 176.5t-159.5 51.5q-70 0 -141.5 -14.5t-119.5 -31.5v-575h-196v1087h-373z" />
<glyph unicode="&#x40c;" horiz-adv-x="1091" d="M135 0v1245h197v-545h100l422 545h225l-477 -608l477 -637h-237l-410 547h-100v-547h-197zM457 1376l217 299h217l-250 -299h-184z" />
<glyph unicode="&#x40e;" horiz-adv-x="1052" d="M2 1245h221l320 -725h16l285 725h205l-410 -964q-31 -72 -62.5 -126.5t-72.5 -91t-96.5 -55t-133.5 -18.5q-41 0 -84 7t-77 23l24 154q39 -10 66.5 -15t56.5 -5q88 0 128 38.5t63 110.5zM256 1671h149q4 -80 36 -129t114 -49t113.5 49t35.5 129h150q0 -152 -69.5 -230.5 t-229.5 -78.5q-162 0 -230.5 78t-68.5 231z" />
<glyph unicode="&#x40f;" horiz-adv-x="1232" d="M135 0v1245h197v-1087h569v1087h197v-1245h-391v-283h-181v283h-391z" />
<glyph unicode="&#x410;" horiz-adv-x="1196" d="M12 0l451 1245h272l447 -1245h-217l-117 344h-508l-117 -344h-211zM393 504h400l-191 586h-16z" />
<glyph unicode="&#x411;" horiz-adv-x="1103" d="M135 0v1245h815v-158h-620v-325h305q190 0 298.5 -95.5t108.5 -281.5q0 -199 -111.5 -292t-320.5 -93h-475zM330 158h274q45 0 88 11t75 36.5t51.5 69.5t19.5 110q0 61 -19.5 103t-51.5 68t-75 38t-88 12h-274v-448z" />
<glyph unicode="&#x412;" horiz-adv-x="1112" d="M135 0v1245h465q186 0 295 -70.5t109 -238.5q0 -100 -49.5 -168.5t-139.5 -103.5q98 -31 161.5 -105t63.5 -199q0 -96 -33.5 -164.5t-90 -111.5t-132 -63.5t-159.5 -20.5h-490zM328 158h266q47 0 90 8t76 31.5t52 62.5t19 100t-17 102.5t-48 65t-73 33.5t-91 10h-274 v-413zM328 723h268q98 0 150.5 48t52.5 136q0 55 -16.5 90t-46 55.5t-67.5 27.5t-81 7h-260v-364z" />
<glyph unicode="&#x413;" horiz-adv-x="919" d="M135 0v1245h768v-158h-571v-1087h-197z" />
<glyph unicode="&#x414;" horiz-adv-x="1249" d="M-2 158h117q43 90 73.5 198.5t49 241.5t27.5 293t11 354h785v-1087h151v-430h-180v272h-856v-272h-178v430zM311 158h559v929h-411q-4 -129 -13.5 -257t-27 -247.5t-43 -227t-64.5 -197.5z" />
<glyph unicode="&#x415;" horiz-adv-x="1024" d="M135 0v1245h770v-158h-573v-368h555v-156h-555v-405h594v-158h-791z" />
<glyph unicode="&#x416;" horiz-adv-x="1622" d="M23 1245h213l372 -545h107v545h190v-545h109l375 545h208l-426 -608l426 -637h-225l-362 553h-105v-553h-190v553h-107l-366 -553h-217l421 635z" />
<glyph unicode="&#x417;" horiz-adv-x="1056" d="M43 72l55 153q78 -35 175.5 -58.5t207.5 -23.5q63 0 116.5 13.5t92.5 40t60.5 68.5t21.5 100q0 111 -86 160.5t-217 49.5h-164v150h96q53 0 113.5 6t111 27.5t84 60.5t33.5 107q0 100 -68.5 142t-176.5 42q-111 0 -185.5 -35t-126.5 -90l-116 115q68 82 181.5 124 t260.5 42q209 0 323.5 -82t114.5 -232q0 -55 -18.5 -100t-48 -81t-68.5 -61.5t-80 -39.5q111 -31 180.5 -104.5t69.5 -213.5q0 -96 -39 -166.5t-106.5 -116.5t-160.5 -67.5t-202 -21.5q-123 0 -232.5 23.5t-201.5 68.5z" />
<glyph unicode="&#x418;" horiz-adv-x="1304" d="M135 0v1245h197v-1089h16l498 1089h323v-1245h-196v1090h-17l-497 -1090h-324z" />
<glyph unicode="&#x419;" horiz-adv-x="1304" d="M135 0v1245h197v-1089h16l498 1089h323v-1245h-196v1090h-17l-497 -1090h-324zM361 1671h149q4 -80 36 -129t114 -49t113.5 49t35.5 129h150q0 -152 -69.5 -230.5t-229.5 -78.5q-162 0 -230.5 78t-68.5 231z" />
<glyph unicode="&#x41a;" horiz-adv-x="1091" d="M135 0v1245h197v-545h100l422 545h225l-477 -608l477 -637h-237l-410 547h-100v-547h-197z" />
<glyph unicode="&#x41b;" horiz-adv-x="1204" d="M-4 6l16 172q23 -4 30 -6t30 -2q63 0 102 73.5t60.5 212t29.5 338t12 451.5h793v-1245h-197v1087h-411q-2 -51 -4 -122.5t-6.5 -154.5t-11.5 -173t-17 -176q-14 -119 -38 -207t-60.5 -146.5t-91 -88t-130.5 -29.5q-23 0 -53.5 4t-52.5 12z" />
<glyph unicode="&#x41c;" horiz-adv-x="1556" d="M135 0v1245h354l291 -1089h17l280 1089h344v-1245h-196v1090h-17l-293 -1090h-266l-301 1090h-16v-1090h-197z" />
<glyph unicode="&#x41d;" horiz-adv-x="1251" d="M135 0v1245h197v-540h588v540h196v-1245h-196v545h-588v-545h-197z" />
<glyph unicode="&#x41e;" horiz-adv-x="1257" d="M84 629q0 324 137 480.5t428 156.5q145 0 245.5 -45t162 -129t89.5 -204t28 -272q0 -322 -138.5 -479t-431.5 -157q-147 0 -246.5 45t-160 129t-87 203.5t-26.5 271.5zM285 608q0 -98 14 -184t50 -149.5t97.5 -100.5t153.5 -37q106 0 177 33t114 96.5t60.5 157.5 t17.5 217q0 96 -14.5 182t-50.5 150.5t-97.5 101.5t-155.5 37q-104 0 -173.5 -32.5t-112.5 -96t-61.5 -158t-18.5 -217.5z" />
<glyph unicode="&#x41f;" horiz-adv-x="1243" d="M135 0v1245h973v-1245h-197v1087h-579v-1087h-197z" />
<glyph unicode="&#x420;" horiz-adv-x="1062" d="M135 0v1245h443q209 0 319.5 -93t110.5 -284q0 -96 -30 -169.5t-84 -126t-129 -79t-163 -26.5h-270v-467h-197zM332 625h239q49 0 91.5 14t74 43t50 75t18.5 111q0 61 -19.5 102.5t-52.5 68t-75 37.5t-87 11h-239v-462z" />
<glyph unicode="&#x421;" horiz-adv-x="1128" d="M84 623q0 330 148.5 486.5t420.5 156.5q117 0 229.5 -41t180.5 -125l-117 -115q-53 59 -120.5 91t-166.5 32q-193 0 -282.5 -128t-89.5 -376q0 -223 87 -340t273 -117q113 0 202 24t161 54l47 -153q-76 -39 -189.5 -65.5t-230.5 -26.5q-293 2 -423 163.5t-130 479.5z" />
<glyph unicode="&#x422;" horiz-adv-x="968" d="M6 1087v158h957v-158h-381v-1087h-197v1087h-379z" />
<glyph unicode="&#x423;" horiz-adv-x="1052" d="M2 1245h221l320 -725h16l285 725h205l-410 -964q-31 -72 -62.5 -126.5t-72.5 -91t-96.5 -55t-133.5 -18.5q-41 0 -84 7t-77 23l24 154q39 -10 66.5 -15t56.5 -5q88 0 128 38.5t63 110.5z" />
<glyph unicode="&#x424;" horiz-adv-x="1474" d="M61 633q0 250 126 366.5t356 116.5h48t50 -4v170h190v-170q51 6 105 6q242 0 359.5 -125t117.5 -372q0 -244 -127 -360t-356 -116q-53 0 -99 7v-189h-190v189q-29 -2 -54.5 -4.5t-51.5 -2.5q-242 0 -358 124t-116 364zM250 616q0 -154 74.5 -240.5t234.5 -86.5q37 0 84 6 v676q-20 4 -42.5 6t-37.5 2q-158 0 -235.5 -88.5t-77.5 -274.5zM827 295q23 -4 44.5 -5t37.5 -1q158 0 236 85t78 267q0 158 -77 248t-237 90q-16 0 -37.5 -1t-44.5 -5v-678z" />
<glyph unicode="&#x425;" horiz-adv-x="1132" d="M14 0l387 639l-362 606h231l279 -497h37l282 497h222l-361 -602l389 -643h-227l-309 539h-37l-307 -539h-224z" />
<glyph unicode="&#x426;" horiz-adv-x="1286" d="M135 0v1245h197v-1087h569v1087h197v-1087h151v-430h-180v272h-934z" />
<glyph unicode="&#x427;" horiz-adv-x="1120" d="M88 819v426h199v-405q0 -125 62.5 -177.5t168.5 -52.5q76 0 149.5 15.5t120.5 29.5v590h197v-1245h-197v504q-72 -25 -149.5 -38t-177.5 -13q-86 0 -154.5 19.5t-118 63.5t-75 113.5t-25.5 169.5z" />
<glyph unicode="&#x428;" horiz-adv-x="1703" d="M135 0v1245h197v-1087h422v1087h196v-1087h422v1087h197v-1245h-1434z" />
<glyph unicode="&#x429;" horiz-adv-x="1755" d="M135 0v1245h197v-1087h422v1087h196v-1087h422v1087h197v-1087h149v-430h-180v272h-1403z" />
<glyph unicode="&#x42a;" horiz-adv-x="1247" d="M-6 1087v158h502v-463h276q203 0 314.5 -94t111.5 -293q0 -207 -111.5 -301t-314.5 -94h-473v1087h-305zM496 158h264q45 0 88 11t75.5 39t52 73t19.5 114q0 63 -19.5 108.5t-52 72t-75.5 39t-88 12.5h-264v-469z" />
<glyph unicode="&#x42b;" horiz-adv-x="1490" d="M135 0v1245h197v-463h250q203 0 314.5 -94t111.5 -293q0 -207 -112 -301t-314 -94h-447zM332 158h235q45 0 88 11t76 39t53.5 73t20.5 114q0 63 -20.5 108.5t-53.5 72t-76 39t-88 12.5h-235v-469zM1159 0v1245h197v-1245h-197z" />
<glyph unicode="&#x42c;" horiz-adv-x="1083" d="M135 0v1245h197v-463h276q203 0 314.5 -94t111.5 -293q0 -207 -111.5 -301t-314.5 -94h-473zM332 158h262q45 0 88 11t77 37.5t53 73t19 115.5q0 63 -19 108.5t-53 72t-77 39t-88 12.5h-262v-469z" />
<glyph unicode="&#x42d;" horiz-adv-x="1114" d="M43 72l53 153q72 -31 163 -56.5t202 -25.5q184 0 270 112t96 308h-530v152h528q-31 395 -370 395q-98 0 -169 -36t-118 -89l-119 115q72 86 183.5 126t228.5 40q135 0 240.5 -36t179 -112t111.5 -194.5t38 -282.5q0 -158 -31.5 -280.5t-99.5 -207.5t-173 -129t-253 -44 q-125 0 -239.5 26.5t-190.5 65.5z" />
<glyph unicode="&#x42e;" horiz-adv-x="1673" d="M135 0v1245h197v-540h213q16 287 149 424t393 137q137 0 232.5 -45t156 -129t87 -204t26.5 -272q0 -637 -547 -636q-129 0 -220 38.5t-150.5 111.5t-90 177.5t-36.5 237.5h-213v-545h-197zM735 608q0 -102 14.5 -188t49.5 -148.5t93 -98.5t146 -36q100 0 167 32t108 95.5 t58.5 157.5t17.5 219q0 100 -14.5 186t-48.5 149.5t-92 99.5t-147 36q-195 0 -273.5 -128t-78.5 -376z" />
<glyph unicode="&#x42f;" horiz-adv-x="1120" d="M37 0l364 483q-131 31 -209.5 129.5t-78.5 255.5q0 190 110.5 283.5t321.5 93.5h440v-1245h-194v467h-177l-348 -467h-229zM317 868q0 -129 67 -186t165 -57h242v462h-242q-45 0 -87 -11t-74 -37.5t-51.5 -67.5t-19.5 -103z" />
<glyph unicode="&#x430;" horiz-adv-x="894" d="M59 250q0 82 28 135t77 84t118.5 42t153.5 11q78 0 156 -6v41q0 100 -40 144t-149 44q-76 0 -145.5 -19t-120.5 -46l-43 123q70 35 163 59.5t196 24.5q94 0 158.5 -18.5t103.5 -60.5t55 -111.5t16 -170.5v-290q0 -59 20.5 -81t61.5 -22v-135q-31 -6 -71 -6 q-70 0 -111 23.5t-63 68.5q-47 -43 -122 -73.5t-157 -30.5q-86 0 -141.5 21.5t-87 58t-44 86t-12.5 104.5zM260 256q0 -70 29.5 -104.5t105.5 -34.5q47 0 101.5 21.5t95.5 56.5v184q-41 6 -80 7t-80 1q-98 0 -135 -32.5t-37 -98.5z" />
<glyph unicode="&#x431;" horiz-adv-x="991" d="M82 553q0 154 17.5 273.5t64.5 206.5t132 142.5t218 77.5q66 12 113 20.5t82.5 16.5t63.5 13.5t52 11.5l37 -164q-41 -16 -100.5 -26.5t-134.5 -24.5q-102 -18 -173 -42t-117 -68t-70.5 -113.5t-33.5 -180.5q25 47 61 80t79 52.5t90 28.5t92 9q102 0 173 -31.5t114 -90 t62.5 -141.5t19.5 -185q0 -221 -107 -329.5t-334 -108.5q-104 0 -180 30.5t-125 98t-72.5 177t-23.5 267.5zM281 418q0 -61 10 -116.5t32.5 -96.5t61.5 -64.5t96 -23.5q141 0 192.5 79.5t51.5 237.5q0 57 -8 111.5t-31.5 95.5t-62.5 65.5t-101 24.5q-139 0 -190 -82 t-51 -231z" />
<glyph unicode="&#x432;" horiz-adv-x="915" d="M109 0v866h434q123 0 198.5 -51t75.5 -164q0 -76 -38 -120.5t-101 -69.5q33 -10 64.5 -27.5t56 -43t39 -61.5t14.5 -85q0 -61 -23.5 -107.5t-63.5 -77t-91 -45t-107 -14.5h-458zM297 139h213q66 0 106.5 28t40.5 97q0 72 -45 96.5t-127 24.5h-188v-246zM297 516h213 q66 0 94.5 32t28.5 77q0 59 -37 80.5t-113 21.5h-186v-211z" />
<glyph unicode="&#x433;" horiz-adv-x="704" d="M109 0v866h593v-147h-399v-719h-194z" />
<glyph unicode="&#x434;" horiz-adv-x="1003" d="M6 147h98q57 133 80 304.5t31 414.5h637v-719h123v-389h-166v242h-637v-242h-166v389zM291 147h368v572h-274q-8 -160 -27.5 -308.5t-66.5 -263.5z" />
<glyph unicode="&#x435;" horiz-adv-x="917" d="M68 438q0 449 413 449q113 0 184.5 -32t111.5 -89t55.5 -134t15.5 -169v-78h-580q2 -127 47 -188q57 -74 201 -74q98 0 162.5 23.5t114.5 46.5l41 -125q-25 -14 -63 -29.5t-85 -29t-98.5 -21.5t-102.5 -8q-117 0 -196.5 28.5t-128.5 86t-70.5 143.5t-21.5 200zM270 520 h377q0 123 -42 178.5t-126 55.5q-66 0 -106.5 -19.5t-64 -58.5t-32.5 -98q-4 -27 -6 -58z" />
<glyph unicode="&#x436;" horiz-adv-x="1308" d="M-2 0l332 444l-316 422h207l262 -360h78v360h184v-360h82l260 360h207l-315 -422l332 -444h-217l-269 369h-80v-369h-184v369h-80l-270 -369h-213z" />
<glyph unicode="&#x437;" horiz-adv-x="813" d="M23 51l53 131q55 -29 116.5 -47t149.5 -18q117 0 165 38t48 97q0 117 -190 117h-136v131h129q98 0 137.5 39t39.5 84q0 59 -46.5 94t-121.5 35q-68 0 -124.5 -21.5t-95.5 -60.5l-106 102q115 115 338 115q70 0 132 -13.5t108.5 -41t73 -70.5t26.5 -105q0 -74 -41 -124 t-107 -74q72 -23 125.5 -70t53.5 -145q0 -133 -107 -198.5t-283 -65.5q-135 0 -212.5 21.5t-124.5 49.5z" />
<glyph unicode="&#x438;" horiz-adv-x="1013" d="M109 0v866h186v-710h14l316 710h278v-866h-184v711h-14l-318 -711h-278z" />
<glyph unicode="&#x439;" horiz-adv-x="1013" d="M109 0v866h186v-710h14l316 710h278v-866h-184v711h-14l-318 -711h-278zM221 1294h149q4 -80 36 -129t114 -49t113.5 49t35.5 129h150q0 -152 -69.5 -230.5t-229.5 -78.5q-162 0 -230.5 78t-68.5 231z" />
<glyph unicode="&#x43a;" horiz-adv-x="888" d="M109 0v866h192v-356h72l303 356h211l-361 -422l377 -444h-219l-311 365h-72v-365h-192z" />
<glyph unicode="&#x43b;" horiz-adv-x="950" d="M0 4l12 150q12 -2 23.5 -3t27.5 -1q37 0 64 34.5t44 117.5t25.5 221.5t10.5 342.5h635v-866h-193v719h-268q-10 -172 -22.5 -307.5t-40 -229.5t-78 -143t-136.5 -49q-66 0 -104 14z" />
<glyph unicode="&#x43c;" horiz-adv-x="1280" d="M109 0v866h294l240 -710h10l240 710h278v-866h-184v711h-14l-242 -711h-186l-238 711h-16v-711h-182z" />
<glyph unicode="&#x43d;" horiz-adv-x="952" d="M109 0v866h194v-354h346v354h193v-866h-193v365h-346v-365h-194z" />
<glyph unicode="&#x43e;" horiz-adv-x="976" d="M68 436q0 229 105.5 340t334.5 111q115 0 191.5 -32t123.5 -91t66.5 -144t19.5 -192q0 -229 -106.5 -338.5t-335.5 -109.5q-115 0 -191.5 31.5t-123 90t-65.5 143.5t-19 191zM266 422q0 -63 8.5 -118.5t31 -97.5t61.5 -65.5t100 -23.5q141 0 192.5 83t51.5 244 q0 61 -8.5 117.5t-31 98.5t-62.5 67t-101 25q-139 0 -190.5 -85t-51.5 -245z" />
<glyph unicode="&#x43f;" horiz-adv-x="944" d="M109 0v866h727v-866h-193v719h-340v-719h-194z" />
<glyph unicode="&#x440;" horiz-adv-x="962" d="M94 866h166l16 -57q49 33 101 51q72 27 158 27q184 0 272 -116t88 -318q0 -104 -22.5 -190.5t-72.5 -150t-129 -98t-192 -34.5q-66 0 -119 16q-29 6 -57 20v-419l-192 -25v1069zM303 160q24 -17 49 -25q49 -16 97 -16q113 0 179 73.5t66 249.5q0 68 -12 123.5t-38 95 t-67.5 62t-103.5 22.5q-70 0 -123 -30q-23 -12 -47 -33v-522z" />
<glyph unicode="&#x441;" horiz-adv-x="843" d="M68 420q0 236 115.5 351.5t338.5 115.5q90 0 167 -30t120 -81l-111 -106q-70 78 -180 78q-125 0 -189.5 -78t-64.5 -252q0 -139 55.5 -219t188.5 -80q76 0 132 16.5t112 44.5l39 -127q-43 -29 -124 -51t-178 -22q-115 0 -194.5 28.5t-130.5 85t-73.5 138t-22.5 188.5z " />
<glyph unicode="&#x442;" horiz-adv-x="780" d="M23 719v147h735v-147h-271v-719h-194v719h-270z" />
<glyph unicode="&#x443;" horiz-adv-x="858" d="M6 866h213l215 -639h19l202 639h197l-336 -927q-31 -82 -61.5 -150t-75.5 -116t-107.5 -74.5t-154.5 -26.5q-27 0 -54.5 1t-52.5 11l25 135q31 -6 67 -6q66 0 103 21.5t57 50.5q23 33 46.5 93.5t43.5 115.5z" />
<glyph unicode="&#x444;" horiz-adv-x="1331" d="M68 416q0 104 20.5 191t61 148.5t104 96.5t147.5 35q35 0 80 -7.5t88 -23.5v430l193 25v-455q45 16 92 23.5t84 7.5q166 0 246 -114t80 -324q0 -104 -20.5 -190.5t-62.5 -148t-104.5 -96t-146.5 -34.5q-35 0 -80 6t-88 22v-411l-193 -25v436q-43 -16 -91 -22t-85 -6 q-166 0 -245.5 112.5t-79.5 323.5zM260 428q0 -147 47 -232t146 -85q29 0 59.5 5t60.5 21v590q-29 16 -60.5 21.5t-57.5 5.5q-86 0 -140.5 -77t-54.5 -249zM758 137q31 -16 60.5 -21t58.5 -5q86 0 141 77.5t55 249.5q0 147 -48 231.5t-146 84.5q-31 0 -62 -5.5t-59 -21.5 v-590z" />
<glyph unicode="&#x445;" horiz-adv-x="880" d="M12 0l267 444l-263 422h213l195 -342h31l192 342h209l-260 -417l272 -449h-215l-202 360h-29l-203 -360h-207z" />
<glyph unicode="&#x446;" horiz-adv-x="980" d="M109 0v866h194v-719h334v719h192v-719h123v-389h-166v242h-677z" />
<glyph unicode="&#x447;" horiz-adv-x="894" d="M72 555v311h192v-276q0 -86 38 -123t116 -37q59 0 100 10.5t74 20.5v405h194v-866h-194v328q-51 -18 -112.5 -27.5t-119.5 -9.5q-135 0 -211.5 65.5t-76.5 198.5z" />
<glyph unicode="&#x448;" horiz-adv-x="1339" d="M109 0v866h194v-719h270v719h193v-719h270v719h195v-866h-1122z" />
<glyph unicode="&#x449;" horiz-adv-x="1382" d="M109 0v866h194v-719h270v719h193v-719h270v719h195v-719h123v-389h-166v242h-1079z" />
<glyph unicode="&#x44a;" horiz-adv-x="1034" d="M8 719v147h428v-305h250q63 0 118.5 -16.5t96.5 -50t64.5 -86t23.5 -121.5q0 -147 -88 -217t-233 -70h-424v719h-236zM436 139h207q70 0 109 35t39 111q0 63 -39 99t-109 36h-207v-281z" />
<glyph unicode="&#x44b;" horiz-adv-x="1257" d="M109 0v866h190v-305h231q63 0 117.5 -16.5t95.5 -50t64.5 -86t23.5 -121.5q0 -147 -87 -217t-232 -70h-403zM299 139h186q72 0 111 35t39 111q0 63 -40 99t-110 36h-186v-281zM956 0v866h193v-866h-193z" />
<glyph unicode="&#x44c;" horiz-adv-x="897" d="M109 0v866h190v-305h252q63 0 117.5 -16.5t95.5 -50t64.5 -86t23.5 -121.5q0 -147 -87 -217t-233 -70h-423zM299 139h207q72 0 110.5 35t38.5 111q0 63 -40 99t-109 36h-207v-281z" />
<glyph unicode="&#x44d;" horiz-adv-x="847" d="M23 47l53 131q43 -18 89 -34.5t103 -20.5q51 -6 105 0q113 10 160 75.5t55 168.5h-371v137h371q-14 129 -78 188.5t-172 59.5q-61 0 -113.5 -22.5t-87.5 -59.5l-106 102q59 59 137 87t188 28q195 0 308.5 -106.5t113.5 -340.5q0 -219 -99 -339.5t-329 -120.5 q-123 0 -201.5 21.5t-125.5 45.5z" />
<glyph unicode="&#x44e;" horiz-adv-x="1323" d="M109 0v866h194v-360h164q31 381 410 381q106 0 177.5 -32t117 -91t64.5 -144t19 -192q0 -229 -103 -338.5t-314 -109.5q-98 0 -167 26.5t-112 76.5t-64.5 121.5t-27.5 164.5h-164v-369h-194zM653 422q0 -66 8.5 -122t30 -97t56.5 -63.5t90 -22.5q129 0 177 81t48 246 q0 66 -8 122.5t-29.5 97.5t-57.5 64.5t-91 23.5q-127 0 -175.5 -82t-48.5 -248z" />
<glyph unicode="&#x44f;" horiz-adv-x="933" d="M27 0l268 324q-94 16 -154.5 79.5t-60.5 176.5q0 147 88 216.5t233 69.5h422v-866h-190v307h-144l-247 -307h-215zM279 582q0 -63 38.5 -100.5t108.5 -37.5h207v283h-207q-70 0 -108.5 -35t-38.5 -110z" />
<glyph unicode="&#x451;" horiz-adv-x="917" d="M68 438q0 449 413 449q113 0 184.5 -32t111.5 -89t55.5 -134t15.5 -169v-78h-580q2 -127 47 -188q57 -74 201 -74q98 0 162.5 23.5t114.5 46.5l41 -125q-25 -14 -63 -29.5t-85 -29t-98.5 -21.5t-102.5 -8q-117 0 -196.5 28.5t-128.5 86t-70.5 143.5t-21.5 200zM219 1059 v174h191v-174h-191zM270 520h377q0 123 -42 178.5t-126 55.5q-66 0 -106.5 -19.5t-64 -58.5t-32.5 -98q-4 -27 -6 -58zM576 1059v174h190v-174h-190z" />
<glyph unicode="&#x452;" horiz-adv-x="964" d="M-35 987v117h144v182l194 25v-207h313v-117h-313v-207q61 35 134 54.5t138 19.5q86 0 140.5 -21.5t86.5 -61.5t44 -98.5t12 -133.5v-602q0 -98 -15.5 -168t-53 -113t-101 -63.5t-160.5 -20.5h-16v143h16q43 0 70 8.5t42 30t20.5 57t5.5 91.5v538q0 49 -2 96.5t-15.5 84 t-43.5 58t-87 21.5t-116.5 -18t-98.5 -51v-631h-194v987h-144z" />
<glyph unicode="&#x453;" horiz-adv-x="704" d="M109 0v866h593v-147h-399v-719h-194zM301 995l217 299h217l-250 -299h-184z" />
<glyph unicode="&#x454;" horiz-adv-x="843" d="M68 420q0 236 115.5 351.5t338.5 115.5q92 0 168 -30t119 -81l-111 -106q-70 78 -180 78q-115 0 -178.5 -58.5t-79.5 -185.5h371v-137h-373q8 -117 64.5 -182.5t185.5 -65.5q76 0 132 16.5t112 44.5l39 -127q-43 -29 -123 -51t-179 -22q-229 0 -325 112.5t-96 327.5z" />
<glyph unicode="&#x455;" horiz-adv-x="819" d="M59 41l60 141q51 -29 119.5 -44t148.5 -15q78 0 131 20.5t53 81.5q0 68 -110 109q-51 16 -105.5 33.5t-99.5 35.5q-78 27 -131 77t-53 149q0 68 28.5 117t77.5 80.5t115.5 46t140.5 14.5q104 0 181 -16.5t137 -41.5l-60 -139q-53 27 -117.5 41t-140.5 14 q-92 0 -135 -26.5t-43 -69.5q0 -35 26 -57t83 -45q16 -8 41.5 -17.5t52.5 -19.5l108 -35q39 -12 75 -30.5t61.5 -46t41 -65.5t15.5 -89q0 -135 -97.5 -199.5t-275.5 -64.5q-98 0 -180 16t-148 45z" />
<glyph unicode="&#x456;" d="M109 1059v174h196v-174h-196zM111 0v866h192v-866h-192z" />
<glyph unicode="&#x457;" d="M-37 1059v174h174v-174h-174zM111 0v866h192v-866h-192zM270 1059v174h172v-174h-172z" />
<glyph unicode="&#x458;" d="M-43 -285h18q84 0 110 39t26 148v964h192v-929q0 -98 -15.5 -168t-53 -113t-101 -63.5t-160.5 -20.5h-16v143zM109 1063v170h194v-170h-194z" />
<glyph unicode="&#x459;" horiz-adv-x="1402" d="M0 4l12 150q12 -2 23.5 -3t27.5 -1q37 0 64 34.5t44 117.5t25.5 221.5t10.5 342.5h618v-305h232q63 0 117.5 -16.5t95.5 -50t64.5 -86t23.5 -121.5q0 -147 -87 -217t-233 -70h-403v719h-254q-10 -172 -22.5 -307.5t-40 -229.5t-78 -143t-136.5 -49q-66 0 -104 14z M825 139h187q72 0 110.5 35t38.5 111q0 63 -40 99t-109 36h-187v-281z" />
<glyph unicode="&#x45a;" horiz-adv-x="1400" d="M109 0v866h194v-331h332v331h190v-331h240q127 0 209 -67t82 -196q0 -135 -83 -203.5t-229 -68.5h-409v387h-332v-387h-194zM825 139h199q137 0 137 133q0 51 -33.5 86t-103.5 35h-199v-254z" />
<glyph unicode="&#x45b;" horiz-adv-x="958" d="M-35 987v117h144v182l194 25v-207h313v-117h-313v-207q61 35 134 54.5t138 19.5q86 0 140.5 -21.5t86.5 -61.5t44 -98.5t12 -133.5v-539h-192v498q0 43 -5.5 80.5t-20.5 64.5t-44 42t-78 15q-63 0 -119.5 -20.5t-95.5 -52.5v-627h-194v987h-144z" />
<glyph unicode="&#x45c;" horiz-adv-x="888" d="M109 0v866h192v-356h72l303 356h211l-361 -422l377 -444h-219l-311 365h-72v-365h-192zM356 995l217 299h217l-250 -299h-184z" />
<glyph unicode="&#x45e;" horiz-adv-x="858" d="M6 866h213l215 -639h19l202 639h197l-336 -927q-31 -82 -61.5 -150t-75.5 -116t-107.5 -74.5t-154.5 -26.5q-27 0 -54.5 1t-52.5 11l25 135q31 -6 67 -6q66 0 103 21.5t57 50.5q23 33 46.5 93.5t43.5 115.5zM156 1294h149q4 -80 36 -129t114 -49t113.5 49t35.5 129h150 q0 -152 -69.5 -230.5t-229.5 -78.5q-162 0 -230.5 78t-68.5 231z" />
<glyph unicode="&#x45f;" horiz-adv-x="940" d="M109 0v866h194v-719h334v719h192v-866h-276v-252h-166v252h-278z" />
<glyph unicode="&#x490;" horiz-adv-x="915" d="M135 0v1245h590v260h174v-418h-567v-1087h-197z" />
<glyph unicode="&#x491;" horiz-adv-x="704" d="M109 0v866h434v230h159v-377h-399v-719h-194z" />
<glyph unicode="&#x2000;" horiz-adv-x="863" />
<glyph unicode="&#x2001;" horiz-adv-x="1727" />
<glyph unicode="&#x2002;" horiz-adv-x="863" />
<glyph unicode="&#x2003;" horiz-adv-x="1727" />
<glyph unicode="&#x2004;" horiz-adv-x="575" />
<glyph unicode="&#x2005;" horiz-adv-x="431" />
<glyph unicode="&#x2006;" horiz-adv-x="287" />
<glyph unicode="&#x2007;" horiz-adv-x="287" />
<glyph unicode="&#x2008;" horiz-adv-x="215" />
<glyph unicode="&#x2009;" horiz-adv-x="345" />
<glyph unicode="&#x200a;" horiz-adv-x="95" />
<glyph unicode="&#x2010;" horiz-adv-x="692" d="M100 360v164h490v-164h-490z" />
<glyph unicode="&#x2011;" horiz-adv-x="692" d="M100 360v164h490v-164h-490z" />
<glyph unicode="&#x2012;" horiz-adv-x="692" d="M100 360v164h490v-164h-490z" />
<glyph unicode="&#x2013;" horiz-adv-x="1019" d="M102 377v153h816v-153h-816z" />
<glyph unicode="&#x2014;" horiz-adv-x="1472" d="M39 377v153h1391v-153h-1391z" />
<glyph unicode="&#x2018;" horiz-adv-x="421" d="M98 827q0 82 10 148.5t29.5 124t48.5 109t66 102.5l122 -78q-59 -104 -77.5 -199.5t-18.5 -206.5h-180z" />
<glyph unicode="&#x2019;" horiz-adv-x="421" d="M62 891q59 104 77.5 199.5t18.5 206.5h180q0 -82 -10 -148.5t-29.5 -124t-48.5 -109t-66 -102.5z" />
<glyph unicode="&#x201a;" horiz-adv-x="411" d="M23 -211q59 104 77.5 199.5t18.5 206.5h180q0 -82 -10 -148.5t-29.5 -124t-48.5 -109t-66 -102.5z" />
<glyph unicode="&#x201c;" horiz-adv-x="778" d="M98 827q0 82 10 148.5t29.5 124t48.5 109t66 102.5l122 -78q-59 -104 -77.5 -199.5t-18.5 -206.5h-180zM442 827q0 82 10 148.5t29.5 124t48.5 109t66 102.5l122 -78q-59 -104 -77.5 -199.5t-18.5 -206.5h-180z" />
<glyph unicode="&#x201d;" horiz-adv-x="778" d="M74 891q59 104 77.5 199.5t18.5 206.5h180q0 -82 -10 -148.5t-29.5 -124t-48.5 -109t-66 -102.5zM404 891q59 104 77.5 199.5t18.5 206.5h180q0 -82 -10 -148.5t-29.5 -124t-48.5 -109t-66 -102.5z" />
<glyph unicode="&#x201e;" horiz-adv-x="765" d="M74 -211q59 104 77.5 199.5t18.5 206.5h180q0 -82 -10 -148.5t-29.5 -124t-48.5 -109t-66 -102.5zM404 -211q59 104 77.5 199.5t18.5 206.5h180q0 -82 -10 -148.5t-29.5 -124t-48.5 -109t-66 -102.5z" />
<glyph unicode="&#x2020;" horiz-adv-x="1064" d="M72 643v207l391 -39l-39 434h219l-41 -434l391 39v-207l-391 37l41 -434l-63 -664h-97l-59 664l39 434z" />
<glyph unicode="&#x2021;" horiz-adv-x="1064" d="M72 643v207l391 -39l-39 434h219l-41 -434l391 39v-207l-391 37l25 -268l-25 -265l387 37v-207l-387 37l41 -432h-219l39 430l-387 -35v207l387 -37l-25 265l25 268z" />
<glyph unicode="&#x2022;" horiz-adv-x="548" d="M61 492q0 90 59.5 149t153.5 59t153.5 -59t59.5 -149t-59 -148.5t-154 -58.5q-94 0 -153.5 58.5t-59.5 148.5z" />
<glyph unicode="&#x2026;" horiz-adv-x="1236" d="M102 0v195h205v-195h-205zM516 0v195h205v-195h-205zM928 0v195h207v-195h-207z" />
<glyph unicode="&#x202f;" horiz-adv-x="345" />
<glyph unicode="&#x2039;" horiz-adv-x="563" d="M29 432l311 373l129 -100l-225 -271l223 -266l-129 -107z" />
<glyph unicode="&#x203a;" horiz-adv-x="563" d="M111 161l225 271l-223 266l129 107l309 -371l-311 -373z" />
<glyph unicode="&#x205f;" horiz-adv-x="431" />
<glyph unicode="&#x20a9;" horiz-adv-x="1794" d="M59 414v118h238l-39 166h-199v119h172l-98 428h193l92 -428h278l78 428h256l82 -428h281l88 428h182l-94 -428h172v-119h-199l-37 -166h236v-118h-260l-90 -414h-269l-82 414h-278l-78 -414h-264l-96 414h-265zM442 698l37 -166h164l31 166h-232zM504 414l55 -258h16 l48 258h-119zM784 532h232l-33 166h-166zM840 817h121l-54 273h-16zM1135 698l32 -166h168l33 166h-233zM1190 414l51 -258h16l54 258h-121z" />
<glyph unicode="&#x20ac;" horiz-adv-x="1169" d="M31 440l43 119h137v64v51h-178l43 121h147q29 201 133 313q147 158 420 158q92 0 179 -23.5t157 -73.5l-61 -165q-51 47 -116 75.5t-153 28.5q-193 0 -280 -129q-51 -72 -74 -184h547l-43 -121h-516q-2 -35 -2 -70v-45h477l-45 -119h-418q20 -109 72 -178 q88 -117 276 -117q82 0 152.5 13.5t132.5 38.5v-172q-70 -20 -144.5 -32.5t-152.5 -12.5q-293 2 -424 163q-90 111 -117 297h-192z" />
<glyph unicode="&#x20bd;" horiz-adv-x="1155" d="M43 252v125h184v115h-184v133h184v620h443q211 0 320.5 -93t109.5 -284q0 -174 -103.5 -275t-287.5 -101h-285v-115h301v-125h-301v-252h-197v252h-184zM424 625h240q98 0 165.5 56t67.5 181q0 63 -19.5 106.5t-51 70t-74.5 37.5t-88 11h-240v-462z" />
<glyph unicode="&#x2116;" horiz-adv-x="2000" d="M135 0v1245h342l455 -1089h16v1089h197v-1245h-340l-457 1090h-16v-1090h-197zM1276 938q0 166 78 248t243 82q84 0 141.5 -23.5t91.5 -66.5t48 -105.5t14 -140.5q0 -166 -78.5 -248t-246.5 -82q-84 0 -139.5 23.5t-89 66.5t-48 105.5t-14.5 140.5zM1313 365v133h540 v-133h-540zM1430 926q0 -43 6 -82t21.5 -67.5t42 -45t67.5 -16.5q98 0 134 58t36 171q0 43 -6.5 81t-21.5 67.5t-42 46t-70 16.5q-96 0 -131.5 -59.5t-35.5 -169.5z" />
<glyph unicode="&#x2122;" horiz-adv-x="1433" d="M0 1130v115h539v-115h-193v-528h-151v528h-195zM618 602v643h238l76 -246l47 -215h20l48 215l71 246h234v-643h-142v316l9 204h-21l-74 -288l-59 -207h-158l-61 211l-78 284h-18l8 -204v-316h-140z" />
<glyph unicode="&#x2212;" horiz-adv-x="1064" d="M131 424v156h801v-156h-801z" />
<glyph unicode="&#x25fc;" horiz-adv-x="870" d="M0 0v870h870v-870h-870z" />
<glyph unicode="&#xf6c3;" horiz-adv-x="802" d="M213 -463q63 82 83.5 165t20.5 194h179q0 -137 -40 -247t-126 -204z" />
</font>
</defs>
</svg>
