<?xml version="1.0" encoding="utf-8"?>
<!-- Generator: Adobe Illustrator 18.1.1, SVG Export Plug-In . SVG Version: 6.00 Build 0)  -->
<svg version="1.1" id="Layer_1" xmlns="http://www.w3.org/2000/svg" xmlns:xlink="http://www.w3.org/1999/xlink" x="0px" y="0px"
	 viewBox="0 0 189.1 40.8" enable-background="new 0 0 189.1 40.8" xml:space="preserve">
<g>
	<polygon fill="#161616" points="150.2,0 150.2,2.3 157.7,2.3 157.7,23.9 160.5,23.9 160.5,2.3 168,2.3 168,0 	"/>
	<polygon fill="#161616" points="186.2,0 179.6,21.6 179.3,21.6 172.4,0 169.3,0 177.4,23.9 181.4,23.9 189.1,0 	"/>
	<polygon fill="#161616" points="0,0.4 0,23.9 14.3,23.9 14.3,20.2 4.7,20.2 4.7,0.4 	"/>
</g>
<g>
	<defs>
		<rect id="SVGID_1_" x="0" y="0" width="189.1" height="40.9"/>
	</defs>
	<clipPath id="SVGID_2_">
		<use xlink:href="#SVGID_1_"  overflow="visible"/>
	</clipPath>
	<path clip-path="url(#SVGID_2_)" fill="#0F0F0F" d="M35.4,22.7c-1.1,0.5-2.4,0.9-3.9,1.2c-1.4,0.3-3,0.4-4.6,0.4
		c-4,0-6.9-1-8.8-3.2c-1.9-2.1-2.8-5.1-2.8-9c0-4,1-7.1,3.1-9.1c2.1-2,5-3.1,8.6-3.1c1.8,0,3.4,0.3,4.9,0.8c1.5,0.5,2.8,1.4,3.8,2.7
		L33,6.1c-0.7-0.7-1.5-1.3-2.4-1.8c-0.9-0.5-2.1-0.7-3.3-0.7c-2.3,0-4,0.8-5.2,2.3c-1.2,1.5-1.8,3.7-1.8,6.6c0,2.7,0.6,4.7,1.8,6
		c1.2,1.4,2.9,2,5.2,2c0.7,0,1.4,0,2.1-0.1c0.5-0.1,1-0.2,1.5-0.3v-5.5H26v-3.6h9.5V22.7z"/>
	<path clip-path="url(#SVGID_2_)" fill="#C2004B" d="M126.9,16.5c0,5.3,3.6,7.9,8.9,7.9c5.9,0,8.9-2.3,8.9-6.3v0
		c0-4.5-3-5.5-8.9-7.2c-4.1-1.1-6.5-2.1-6.5-4.7h0c0-3,2.3-4.4,6.4-4.4l0,0c3.9,0,6.5,1.4,6.5,5.5h1.8c0-5.3-3.3-7.3-8.3-7.3
		c-5.3,0-8.3,2-8.3,5.9c0,3.9,3,5.3,8.3,6.9c4.4,1.2,7.1,1.8,7.1,5.4c0,3-2.6,4.5-7.2,4.5h0c-4.1,0-7.1-1.8-7.1-6.1H126.9z"/>
	<path clip-path="url(#SVGID_2_)" fill="#C2004B" d="M113.4,0c-6.7,0-12.2,5.5-12.2,12.2c0,6.7,5.5,12.2,12.2,12.2
		c6.7,0,12.2-5.5,12.2-12.2C125.6,5.4,120.1,0,113.4,0 M113.4,22.6c-5.8,0-10.4-4.7-10.4-10.4c0-5.8,4.7-10.4,10.4-10.4
		s10.4,4.7,10.4,10.4C123.8,17.9,119.1,22.6,113.4,22.6"/>
	<path clip-path="url(#SVGID_2_)" fill="#0F0F0F" d="M91.9,6.6c-2.5,0-4.3,0.9-5.5,2.7v-9h-1.8v15.2h1.8c0-4.5,2-7.1,5.5-7.1
		c3.5,0,5.5,2.6,5.5,7.1c0,4.5-2,7.1-5.5,7.1c-2.6,0-4.4-1.5-5.1-4.2h-1.9c0.8,3.8,3.2,5.9,7,5.9c4.6,0,7.3-3.3,7.3-8.9
		C99.2,9.9,96.5,6.6,91.9,6.6"/>
	<path clip-path="url(#SVGID_2_)" fill="#0F0F0F" d="M74.7,22.6c-3.5,0-5.5-2.6-5.5-7.1H82c0-5.6-2.6-8.9-7.3-8.9
		c-4.6,0-7.3,3.3-7.3,8.9c0,5.6,2.6,8.9,7.3,8.9c3.7,0,6.2-2.2,7-5.9h-1.9C79.1,21.1,77.4,22.6,74.7,22.6 M74.7,8.4
		c3,0,4.9,1.9,5.4,5.3H69.4C69.9,10.3,71.7,8.4,74.7,8.4"/>
	<polygon clip-path="url(#SVGID_2_)" fill="#0F0F0F" points="50.3,24 54.9,9.7 59.4,24 61.4,24 66.8,6.9 64.9,6.9 60.4,21.3 
		55.9,6.9 53.9,6.9 49.3,21.3 44.8,6.9 42.9,6.9 48.3,24 	"/>
	<path clip-path="url(#SVGID_2_)" fill="#0F0F0F" d="M80.2,36.7c-0.4-0.2-0.9-0.4-1.4-0.6c-0.5-0.2-1-0.4-1.5-0.6
		c-0.6-0.3-1-0.6-1.3-1c-0.3-0.4-0.5-0.9-0.5-1.7c0-0.5,0.1-0.9,0.3-1.2c0.2-0.4,0.4-0.7,0.8-0.9c0.3-0.2,0.7-0.4,1.2-0.5
		c0.5-0.1,1-0.2,1.6-0.2c0.6,0,1.1,0.1,1.7,0.2c0.6,0.1,1.1,0.3,1.5,0.5L82,32c-0.3-0.2-0.7-0.3-1.2-0.4c-0.5-0.1-1-0.2-1.5-0.2
		c-0.7,0-1.3,0.1-1.6,0.4c-0.4,0.3-0.6,0.6-0.6,1c0,0.3,0.1,0.6,0.3,0.8c0.2,0.2,0.4,0.4,0.7,0.5c0.2,0.1,0.4,0.2,0.6,0.3
		c0.2,0.1,0.5,0.2,0.7,0.3c0.3,0.1,0.5,0.2,0.8,0.3c0.2,0.1,0.5,0.2,0.7,0.3c0.2,0.1,0.5,0.3,0.7,0.4c0.2,0.1,0.4,0.3,0.5,0.5
		c0.2,0.2,0.3,0.4,0.4,0.7c0.1,0.3,0.1,0.6,0.1,1c0,0.5-0.1,0.9-0.3,1.2c-0.2,0.4-0.4,0.7-0.8,0.9c-0.3,0.3-0.8,0.4-1.2,0.6
		c-0.5,0.1-1,0.2-1.6,0.2c-0.6,0-1.2-0.1-1.8-0.2c-0.6-0.1-1.2-0.3-1.7-0.6l0.6-1.3c0.5,0.2,0.9,0.4,1.4,0.5
		c0.4,0.1,0.9,0.2,1.4,0.2c0.8,0,1.4-0.1,1.7-0.4c0.4-0.3,0.5-0.6,0.5-1c0-0.3-0.1-0.6-0.3-0.8C80.6,37,80.4,36.9,80.2,36.7"/>
	<path clip-path="url(#SVGID_2_)" fill="#0F0F0F" d="M85.6,33.4l0,0.6c0.3-0.2,0.5-0.3,0.8-0.5c0.5-0.2,1-0.3,1.5-0.3
		c0.5,0,0.9,0.1,1.1,0.2c0.3,0.1,0.5,0.3,0.7,0.5c0,0,0,0,0,0c0.3-0.2,0.6-0.3,0.9-0.5c0.5-0.2,1.1-0.3,1.6-0.3
		c0.5,0,0.8,0.1,1.1,0.2c0.3,0.1,0.5,0.3,0.7,0.5c0.2,0.2,0.3,0.5,0.4,0.8c0.1,0.3,0.1,0.7,0.1,1.1v4.8h-1.6v-4.4c0-0.3,0-0.5,0-0.7
		c0-0.2-0.1-0.4-0.1-0.5c-0.1-0.2-0.2-0.3-0.3-0.4c-0.2-0.1-0.4-0.1-0.6-0.1c-0.3,0-0.6,0-0.8,0.1c-0.2,0.1-0.5,0.2-0.7,0.3
		l-0.2,0.1c0,0.3,0,0.5,0,0.8v4.8h-1.6v-4.4c0-0.3,0-0.5,0-0.7c0-0.2-0.1-0.4-0.1-0.5c-0.1-0.2-0.2-0.3-0.3-0.4
		c-0.1-0.1-0.4-0.1-0.6-0.1c-0.3,0-0.6,0-0.8,0.1c-0.2,0.1-0.5,0.2-0.7,0.3L85.8,35v5.6h-1.6v-5.3l-0.1-1.9H85.6z"/>
	<path clip-path="url(#SVGID_2_)" fill="#0F0F0F" d="M102.6,40.7c-0.2,0-0.4,0-0.6,0c-0.4,0-0.7-0.1-0.9-0.2
		c-0.2-0.1-0.4-0.3-0.5-0.6c-0.3,0.2-0.6,0.4-1,0.6c-0.4,0.2-0.9,0.3-1.3,0.3c-0.5,0-0.9-0.1-1.2-0.2c-0.3-0.1-0.5-0.3-0.7-0.5
		c-0.2-0.2-0.3-0.4-0.4-0.7c-0.1-0.3-0.1-0.6-0.1-0.9c0-0.5,0.1-0.8,0.2-1.1c0.2-0.3,0.4-0.5,0.6-0.7c0.3-0.2,0.6-0.3,1-0.3
		c0.4-0.1,0.8-0.1,1.3-0.1c0.4,0,0.9,0,1.3,0V36c0-0.6-0.1-1-0.3-1.2c-0.2-0.2-0.6-0.4-1.3-0.4c-0.4,0-0.8,0.1-1.2,0.2
		c-0.4,0.1-0.7,0.2-1,0.4l-0.4-1c0.4-0.2,0.8-0.4,1.4-0.5c0.5-0.1,1.1-0.2,1.6-0.2c0.5,0,1,0,1.3,0.1c0.4,0.1,0.7,0.3,0.9,0.5
		c0.2,0.2,0.4,0.6,0.5,0.9c0.1,0.4,0.1,0.9,0.1,1.4v2.4c0,0.3,0.1,0.6,0.2,0.7c0.1,0.1,0.3,0.2,0.5,0.2V40.7z M98.9,37.4
		c-0.5,0-0.9,0.1-1.1,0.3c-0.2,0.2-0.3,0.5-0.3,0.8c0,0.4,0.1,0.7,0.2,0.9c0.2,0.2,0.5,0.3,0.9,0.3c0.3,0,0.5-0.1,0.8-0.2
		c0.3-0.1,0.6-0.3,0.8-0.5v-1.5c-0.2,0-0.5-0.1-0.7-0.1C99.4,37.4,99.1,37.4,98.9,37.4"/>
	<path clip-path="url(#SVGID_2_)" fill="#0F0F0F" d="M105,33.4l0.1,0.9c0.2-0.3,0.5-0.5,0.8-0.6c0.5-0.3,1-0.4,1.5-0.4
		c0.2,0,0.4,0,0.6,0.1c0.2,0,0.3,0.1,0.5,0.1l-0.4,1.3c-0.2-0.1-0.5-0.2-0.9-0.2c-0.4,0-0.8,0.1-1.2,0.3c-0.2,0.1-0.5,0.3-0.7,0.6
		v5.2h-1.6v-5.2l-0.2-2H105z"/>
	<path clip-path="url(#SVGID_2_)" fill="#0F0F0F" d="M111.7,34.6v3.3c0,0.2,0,0.5,0,0.7c0,0.2,0.1,0.4,0.1,0.5
		c0.1,0.1,0.2,0.3,0.3,0.3c0.2,0.1,0.4,0.1,0.6,0.1c0.3,0,0.5,0,0.7-0.1c0.2-0.1,0.5-0.1,0.7-0.2l0.3,1.1c-0.3,0.2-0.7,0.3-1.1,0.4
		c-0.4,0.1-0.7,0.1-1.1,0.1c-0.5,0-0.8-0.1-1.1-0.2c-0.3-0.1-0.5-0.3-0.7-0.5c-0.2-0.2-0.3-0.5-0.3-0.8c-0.1-0.3-0.1-0.6-0.1-1v-3.7
		h-1.2v-1.1l1.2-0.1V32l1.6-0.3v1.7h2.6v1.2H111.7z"/>
	<polygon clip-path="url(#SVGID_2_)" fill="#0F0F0F" points="119.9,37.1 119.9,39.7 118.5,39.7 118.5,37.1 115.9,37.1 115.9,35.8 
		118.5,35.8 118.5,33.2 119.9,33.2 119.9,35.8 122.6,35.8 122.6,37.1 	"/>
</g>
</svg>
