<?xml version="1.0" standalone="no"?>
<!DOCTYPE svg PUBLIC "-//W3C//DTD SVG 1.1//EN" "http://www.w3.org/Graphics/SVG/1.1/DTD/svg11.dtd" >
<svg xmlns="http://www.w3.org/2000/svg" xmlns:xlink="http://www.w3.org/1999/xlink" version="1.1">
<metadata></metadata>
<defs>
<font id="lg_smartregular" horiz-adv-x="942" >
<font-face units-per-em="2048" ascent="1466" descent="-582" />
<missing-glyph horiz-adv-x="419" />
<glyph unicode="fi" horiz-adv-x="1003" d="M47 752v114h121v88q0 96 30.5 164t85 110t128 61.5t159.5 19.5q92 0 175 -13.5t139 -29.5v-172h-144v86q-12 4 -26 6q-57 12 -137 12q-137 0 -202 -65.5t-65 -188.5v-78h574v-866h-144v752h-430v-752h-143v752h-121z" />
<glyph unicode="fl" horiz-adv-x="1019" d="M47 752v114h121v90q0 98 30.5 165t86 109t130 60.5t160.5 18.5q94 0 175 -13.5t135 -29.5v-1045q0 -78 19.5 -98.5t66.5 -20.5v-108q-4 -2 -17 -2q-8 -2 -32 -2q-102 0 -140.5 59.5t-38.5 169.5v961q-14 2 -28 6q-59 12 -140 12q-137 0 -200.5 -65.5t-63.5 -188.5v-78 h293v-114h-293v-752h-143v752h-121z" />
<glyph unicode="&#xd;" horiz-adv-x="419" />
<glyph horiz-adv-x="0" />
<glyph horiz-adv-x="0" />
<glyph unicode=" "  horiz-adv-x="419" />
<glyph unicode="&#x09;" horiz-adv-x="419" />
<glyph unicode="&#xa0;" horiz-adv-x="419" />
<glyph unicode="!" horiz-adv-x="423" d="M131 0v158h162v-158h-162zM137 1245h152l-13 -946h-126z" />
<glyph unicode="&#x22;" horiz-adv-x="704" d="M125 1298h149l-24 -424h-103zM428 1298h149l-24 -424h-103z" />
<glyph unicode="#" horiz-adv-x="991" d="M119 279v110h151v227h-151v111h151v131h121v-131h207v131h121v-131h151v-111h-151v-227h151v-110h-151v-132h-121v132h-207v-132h-121v132h-151zM391 389h207v227h-207v-227z" />
<glyph unicode="$" horiz-adv-x="991" d="M80 63l55 117q84 -37 162 -57q70 -16 154 -19v463q-43 16 -84 35q-49 20 -91 43q-43 23 -77.5 49.5t-59 61.5t-37 80t-12.5 104q0 82 34 143.5t94.5 101.5t139.5 58q45 10 93 17v165h108v-161q193 -6 336 -74l-51 -115q-61 29 -137 47q-66 16 -148 21v-459q39 -14 78 -31 q51 -20 94 -43q39 -23 74 -47t60.5 -59t40 -81t14.5 -108q0 -84 -34 -147.5t-93.5 -104t-141.5 -61.5q-45 -10 -92 -16v-154h-108v150q-94 2 -187 20q-102 20 -184 61zM240 950q0 -61 28.5 -106t93.5 -80q35 -18 80 -37q4 0 9 -2v412q-83 -10 -136 -45q-76 -49 -75 -142z M559 109q88 12 137 49q76 53 76 145q0 59 -27.5 104.5t-89.5 75.5q-37 18 -86 37l-10 4v-415z" />
<glyph unicode="%" horiz-adv-x="1368" d="M72 936q0 154 58 244t187 90q123 0 183.5 -90t60.5 -244q0 -147 -60.5 -238.5t-183.5 -91.5q-129 0 -187 91t-58 239zM160 -55l903 1368h147l-903 -1368h-147zM188 936q0 -113 31 -174.5t98 -61.5q68 0 97.5 61.5t29.5 174.5q0 115 -29.5 178.5t-97.5 63.5t-98.5 -63.5 t-30.5 -178.5zM823 315q0 154 59.5 244t188.5 90q123 0 182.5 -90t59.5 -244q0 -147 -59.5 -238t-182.5 -91q-129 0 -188.5 91t-59.5 238zM940 315q0 -113 30.5 -174t100.5 -61q68 0 96.5 61t28.5 174q0 115 -28.5 178.5t-96.5 63.5q-70 0 -100.5 -63.5t-30.5 -178.5z" />
<glyph unicode="&#x26;" horiz-adv-x="1136" d="M63 301q0 147 89 244q66 72 174 131q-41 51 -70 100q-49 84 -49 185q0 139 93 222t253 83q137 0 226 -65.5t89 -199.5q0 -76 -30.5 -133t-84 -101t-124.5 -81q-45 -23 -94 -45l278 -307q20 33 41 65q49 86 88 172l125 -43q-49 -102 -109 -202q-29 -45 -59 -88l217 -238 h-180l-125 137q-70 -68 -158 -110q-96 -47 -219 -47q-78 0 -145.5 15t-117.5 53t-79 99.5t-29 153.5zM209 309q0 -109 62.5 -160t166.5 -51q92 0 168 41q66 37 121 92l-319 351q-78 -44 -129 -93q-70 -70 -70 -180zM352 965q0 -43 9.5 -78t30 -69t48.5 -70q6 -8 13 -15 q40 19 79 37q57 27 100.5 57.5t67 68.5t23.5 91q0 74 -44 118t-124 44q-104 0 -153.5 -49t-49.5 -135z" />
<glyph unicode="'" horiz-adv-x="387" d="M119 1298h149l-24 -424h-103z" />
<glyph unicode="(" horiz-adv-x="614" d="M86 502q0 156 26.5 277.5t75 223t116 189.5t149.5 176l94 -78q-78 -86 -137.5 -168t-99.5 -174t-60.5 -200.5t-20.5 -245.5q0 -141 21.5 -251t61.5 -203t99.5 -176t135.5 -169l-94 -80q-82 90 -149.5 179t-116 190.5t-75 225.5t-26.5 284z" />
<glyph unicode=")" horiz-adv-x="614" d="M68 -297q76 88 134 171t99 175t62.5 201.5t21.5 251.5q0 137 -20.5 245.5t-60.5 200.5t-99.5 174t-136.5 168l94 78q82 -88 149.5 -176t115.5 -189.5t74.5 -223t26.5 -277.5q0 -160 -26.5 -284t-75.5 -225.5t-116.5 -190.5t-147.5 -179z" />
<glyph unicode="*" horiz-adv-x="831" d="M70 973l43 139l249 -100l-18 268h145l-18 -268l250 100l43 -139l-260 -66l180 -213l-119 -84l-147 234l-148 -234l-120 84l180 213z" />
<glyph unicode="+" horiz-adv-x="1064" d="M147 442v121h320v307h129v-307h319v-121h-319v-307h-129v307h-320z" />
<glyph unicode="," horiz-adv-x="339" d="M14 -215q47 92 68.5 179t21.5 196h140q-2 -143 -36 -241.5t-97 -192.5z" />
<glyph unicode="-" horiz-adv-x="690" d="M111 379v125h471v-125h-471z" />
<glyph unicode="." horiz-adv-x="344" d="M90 0v160h164v-160h-164z" />
<glyph unicode="/" horiz-adv-x="671" d="M18 -76l496 1368h139l-497 -1368h-138z" />
<glyph unicode="0" horiz-adv-x="1064" d="M90 616q0 129 21.5 247t74 207t138.5 142.5t215 53.5q125 0 207.5 -53.5t133 -142.5t72 -203.5t21.5 -239.5q0 -131 -22.5 -248t-75 -206t-138.5 -141t-215 -52q-127 0 -210 55t-132 144t-69.5 204t-20.5 233zM238 616q0 -115 14 -210t48 -163.5t88 -106.5t134 -38 q86 0 144.5 39t93.5 108.5t50 167t15 214.5q0 98 -13 191t-46 167t-88 118t-139 44q-86 -2 -143.5 -41t-92.5 -108.5t-50 -167t-15 -214.5z" />
<glyph unicode="1" horiz-adv-x="1064" d="M190 1059l361 186h104v-1245h-145v1098l-268 -142z" />
<glyph unicode="2" horiz-adv-x="1064" d="M121 1163q82 45 172 74t201 29q94 0 170.5 -20.5t132 -64.5t86 -110.5t30.5 -159.5q0 -121 -76.5 -236.5t-205.5 -252.5l-283 -303h596v-119h-797v92l371 395q68 74 115 132.5t74.5 107.5t40 93t12.5 87q0 121 -76 180.5t-199 59.5q-92 0 -169.5 -27.5t-141.5 -62.5z" />
<glyph unicode="3" horiz-adv-x="1064" d="M96 121l82 96q23 -18 54.5 -37.5t72.5 -37t91 -29t110 -11.5q141 0 224 62.5t83 183.5t-85 182.5t-239 61.5q-23 0 -48 -2t-35 -4v123h57q135 0 220 54t85 171q0 111 -69.5 161t-186.5 50q-49 0 -95 -11.5t-85 -27.5t-71 -35.5t-54 -34.5l-64 99q23 18 60 40.5t85 42 t107.5 34t124.5 14.5q193 0 296.5 -80t103.5 -242q0 -111 -58.5 -178.5t-142.5 -95.5q113 -33 180.5 -112t67.5 -210q0 -182 -124 -275t-335 -93q-80 0 -144.5 13t-115.5 33.5t-89 45t-63 49.5z" />
<glyph unicode="4" horiz-adv-x="1064" d="M61 281v90l531 874h225v-850h162v-114h-162v-281h-143v281h-613zM225 395h449v731h-17z" />
<glyph unicode="5" horiz-adv-x="1064" d="M129 111l82 100q23 -18 51.5 -37.5t64 -36t77.5 -27t92 -10.5q143 0 222 71t79 206q0 145 -97.5 211.5t-255.5 66.5h-235v590h665v-119h-518v-352h82q266 0 388 -103.5t122 -285.5q-2 -199 -122.5 -302t-333.5 -103q-66 0 -122.5 12t-101.5 31.5t-79.5 42t-59.5 45.5z " />
<glyph unicode="6" horiz-adv-x="1064" d="M111 565q0 158 31.5 287t98 221t170 142t246.5 50q78 0 137.5 -12t106.5 -28l-37 -113q-39 14 -90 24.5t-108 10.5q-117 0 -195 -46t-124 -125t-64 -184q-8 -43 -13 -88q45 31 105 54q84 31 188 30q188 0 288.5 -97t100.5 -286q0 -199 -108.5 -312.5t-302.5 -113.5 q-211 0 -320.5 141.5t-109.5 444.5zM262 569q0 -88 10.5 -173t41 -151.5t86 -107.5t143.5 -41q115 0 187.5 74t72.5 227q0 139 -70.5 203.5t-193.5 64.5q-109 0 -185 -36q-53 -27 -92 -56v-4z" />
<glyph unicode="7" horiz-adv-x="1064" d="M96 1126v119h873v-88l-463 -1157h-156l457 1126h-711z" />
<glyph unicode="8" horiz-adv-x="1064" d="M92 336q0 119 64.5 196.5t160.5 112.5q-86 37 -138 105.5t-52 181.5q0 160 105.5 247t299.5 87q193 0 298.5 -87t105.5 -247q0 -109 -51 -180.5t-137 -106.5q96 -35 159.5 -110.5t63.5 -198.5q0 -174 -115 -265t-324 -91q-207 0 -323.5 91t-116.5 265zM248 344 q0 -123 74.5 -185.5t209.5 -62.5q131 0 207 62.5t76 185.5q0 117 -75.5 176.5t-207.5 59.5q-135 0 -209.5 -59.5t-74.5 -176.5zM279 920q0 -106 66.5 -164t186.5 -58q119 0 184.5 58t65.5 164q0 115 -65.5 172t-184.5 57q-121 0 -187 -57.5t-66 -171.5z" />
<glyph unicode="9" horiz-adv-x="1064" d="M113 840q0 199 108.5 312.5t302.5 113.5q211 0 320.5 -141.5t109.5 -444.5q0 -158 -31.5 -287t-98 -221t-170 -142t-246.5 -50q-78 0 -137.5 12t-106.5 28l37 113q39 -14 90 -24.5t108 -10.5q117 0 195 46t124 125t64 184q8 43 13 88q-45 -31 -105 -54q-84 -31 -188 -30 q-188 0 -288.5 97t-100.5 286zM262 848q0 -139 70.5 -203.5t193.5 -64.5q109 0 185 36q53 27 92 56v4q0 88 -10.5 173t-41 151.5t-86 107.5t-143.5 41q-115 0 -187.5 -74t-72.5 -227z" />
<glyph unicode=":" horiz-adv-x="344" d="M90 0v160h164v-160h-164zM90 705v160h164v-160h-164z" />
<glyph unicode=";" horiz-adv-x="344" d="M14 -215q47 92 68.5 179t21.5 196h140q-2 -143 -36 -241.5t-97 -192.5zM92 705v160h164v-160h-164z" />
<glyph unicode="&#x3c;" horiz-adv-x="1064" d="M207 502l524 524l90 -86l-436 -434l438 -438l-92 -91z" />
<glyph unicode="=" horiz-adv-x="1064" d="M145 322v120h773v-120h-773zM145 563v119h773v-119h-773z" />
<glyph unicode="&#x3e;" horiz-adv-x="1064" d="M201 936l92 91l524 -525l-524 -524l-90 86l436 434z" />
<glyph unicode="?" horiz-adv-x="774" d="M23 1176q59 37 141 63.5t180 26.5q160 0 256 -77t96 -222q0 -66 -23.5 -117t-57 -96t-74.5 -85t-75 -85t-57.5 -96.5t-23.5 -116.5v-72h-137v88q0 111 46 187.5t101.5 138t101.5 118t46 123.5q0 82 -55.5 135.5t-161.5 53.5q-78 0 -142.5 -24.5t-111.5 -53.5zM240 0v158 h159v-158h-159z" />
<glyph unicode="@" horiz-adv-x="1882" d="M84 270q0 242 71.5 428.5t201.5 312.5t311.5 190.5t402.5 64.5q170 0 307.5 -38t232.5 -121t146 -213t51 -314q0 -121 -28.5 -228.5t-87 -187.5t-147.5 -127t-210 -47q-111 0 -178 53q-41 33 -61 92q-6 -8 -15 -18q-35 -39 -79 -70t-99 -49t-123 -18q-70 0 -121 24.5 t-83.5 68.5t-48 104.5t-15.5 131.5q0 289 140.5 433.5t400.5 144.5q68 0 140.5 -14.5t125.5 -38.5l-94 -467q-4 -29 -9.5 -56.5t-5.5 -56.5q0 -61 34 -103t104 -42q84 0 144 36.5t100 101t58.5 150.5t18.5 187q0 158 -41 265t-119.5 174t-192.5 96.5t-257 29.5 q-197 0 -351.5 -58.5t-262 -171t-165 -276.5t-57.5 -373q0 -156 41 -264t117 -177t184.5 -99.5t243.5 -30.5q98 0 174 13.5t168 39.5l33 -110q-86 -29 -180.5 -46.5t-198.5 -17.5q-172 0 -306 41t-226.5 126t-140.5 215t-48 310zM655 326q0 -111 39 -171.5t113 -60.5 q51 0 91 15.5t75 43t65 68.5q14 18 29 41l107 498q-9 4 -17 6q-45 10 -108 10q-201 0 -297.5 -120.5t-96.5 -329.5z" />
<glyph unicode="A" horiz-adv-x="1157" d="M14 0l455 1245h213l461 -1245h-160l-133 365h-549l-129 -365h-158zM342 487h465l-225 639h-17z" />
<glyph unicode="B" horiz-adv-x="1077" d="M137 0v1245h436q174 0 281 -71.5t107 -235.5q0 -109 -50.5 -176t-144.5 -98q104 -29 167.5 -103t63.5 -211q0 -94 -32.5 -160.5t-89 -108.5t-130 -61.5t-153.5 -19.5h-455zM281 121h288q51 0 101.5 9t89.5 34.5t62.5 71t23.5 116.5q0 68 -19.5 113t-54.5 72.5t-83 40 t-105 12.5h-303v-469zM281 707h292q119 0 176.5 55t57.5 153q0 63 -18.5 104.5t-52.5 64t-79 31.5t-98 9h-278v-417z" />
<glyph unicode="C" horiz-adv-x="1103" d="M80 623q0 168 39 289.5t111.5 199.5t176 116t234.5 38q121 0 223.5 -40t163.5 -116l-88 -86q-53 57 -121.5 89t-173.5 32q-217 0 -315.5 -138.5t-98.5 -402.5q0 -240 92.5 -370t299.5 -130q125 0 214 24t154 50l37 -112q-70 -33 -180.5 -59.5t-231.5 -26.5 q-283 2 -409.5 162.5t-126.5 480.5z" />
<glyph unicode="D" horiz-adv-x="1173" d="M137 0v1245h352q145 0 258 -33.5t190 -108.5t117 -195t40 -292q0 -176 -48.5 -294.5t-135.5 -190.5t-206.5 -101.5t-263.5 -29.5h-303zM283 121h153q121 0 215 23.5t158.5 83t97.5 159.5t33 254q0 252 -112.5 367.5t-335.5 115.5h-209v-1003z" />
<glyph unicode="E" horiz-adv-x="997" d="M137 0v1245h742v-121h-596v-422h575v-120h-575v-461h616v-121h-762z" />
<glyph unicode="F" horiz-adv-x="929" d="M137 0v1245h707v-121h-561v-422h520v-120h-520v-582h-146z" />
<glyph unicode="G" horiz-adv-x="1196" d="M80 623q0 168 40 289.5t114.5 199.5t180 116t238.5 38q129 0 231.5 -40t166.5 -118l-88 -84q-53 55 -125 89t-181 34q-223 0 -324.5 -140.5t-101.5 -402.5q0 -242 96.5 -373t307.5 -131q111 0 190 17q55 12 99 24v373h-312v121h455v-574q-78 -33 -192.5 -57t-245.5 -24 q-287 0 -418 160.5t-131 482.5z" />
<glyph unicode="H" horiz-adv-x="1224" d="M137 0v1245h146v-559h657v559h147v-1245h-147v563h-657v-563h-146z" />
<glyph unicode="I" horiz-adv-x="419" d="M137 0v1245h146v-1245h-146z" />
<glyph unicode="J" horiz-adv-x="630" d="M14 14l23 115q29 -10 62.5 -14t66.5 -4q92 0 140 47t48 178v909h146v-887q0 -197 -75 -282.5t-249 -85.5q-43 0 -85 6t-77 18z" />
<glyph unicode="K" horiz-adv-x="1042" d="M137 0v1245h146v-561h106l483 561h168l-526 -614l498 -631h-178l-445 565h-106v-565h-146z" />
<glyph unicode="L" horiz-adv-x="864" d="M137 0v1245h146v-1124h581v-121h-727z" />
<glyph unicode="M" horiz-adv-x="1507" d="M137 0v1245h269l352 -1126h16l336 1126h260v-1245h-145v1126h-17l-344 -1126h-202l-365 1126h-14v-1126h-146z" />
<glyph unicode="N" horiz-adv-x="1271" d="M137 0v1245h258l578 -1126h16v1126h146v-1245h-258l-578 1126h-16v-1126h-146z" />
<glyph unicode="O" horiz-adv-x="1208" d="M80 629q0 326 133 481.5t414 155.5q139 0 235 -44t155.5 -128t85 -204t25.5 -274q0 -324 -134 -480t-414 -156q-141 0 -236.5 44t-154 128t-84 204.5t-25.5 272.5zM229 608q0 -106 15.5 -199.5t54.5 -162t106.5 -107.5t169.5 -39q117 0 194 35t123 102.5t65.5 169 t19.5 234.5q0 104 -15.5 196.5t-54.5 161t-106.5 108.5t-171.5 40q-115 0 -191 -35t-123 -102.5t-66.5 -169t-19.5 -232.5z" />
<glyph unicode="P" horiz-adv-x="1040" d="M137 0v1245h418q207 0 312.5 -91t105.5 -275q0 -188 -107.5 -291t-283.5 -103h-299v-485h-146zM283 606h276q121 0 193.5 65.5t72.5 207.5q0 66 -20.5 111.5t-56 75.5t-84 44t-105.5 14h-276v-518z" />
<glyph unicode="Q" horiz-adv-x="1208" d="M80 629q0 326 133 481.5t416 155.5q141 0 236.5 -44t153.5 -128t83.5 -204t25.5 -274q0 -172 -39.5 -292.5t-113.5 -198.5q-39 -41 -84 -70l244 -233l-111 -84l-262 264q-80 -22 -174 -22h-8q-141 0 -236.5 44t-154 128t-84 203.5t-25.5 273.5zM229 608q0 -109 15.5 -202 t54.5 -161.5t105.5 -107.5t170.5 -39q117 0 194 35t123 102.5t65.5 169t19.5 236.5q0 104 -15.5 196.5t-53.5 161t-105.5 108.5t-171.5 40q-115 0 -193 -35t-124 -102.5t-65.5 -169t-19.5 -232.5z" />
<glyph unicode="R" horiz-adv-x="1075" d="M137 0v1245h428q207 0 311.5 -83t104.5 -271q0 -160 -84 -246q-61 -66 -158 -96l273 -549h-160l-258 526h-311v-526h-146zM283 647h288q121 0 189.5 54.5t68.5 189.5q0 121 -65.5 177t-192.5 56h-288v-477z" />
<glyph unicode="S" horiz-adv-x="983" d="M72 63l55 117q84 -39 163 -58.5t171 -19.5q154 0 229.5 54.5t75.5 146.5q0 121 -117 180q-39 18 -88 38t-100 40.5t-101.5 41t-91.5 42.5q-88 47 -136 111.5t-48 183.5q0 82 34 143.5t93 102.5t140 60.5t173 19.5q207 0 363 -76l-51 -115q-53 25 -133 47.5t-177 22.5 q-139 0 -217 -51.5t-78 -143.5q0 -61 29 -105t94 -79q35 -18 81 -36.5t96.5 -37t99.5 -39t92 -43.5q39 -23 73.5 -47t60.5 -59t40 -81t14 -108q0 -84 -33.5 -147.5t-93 -105.5t-141.5 -62t-178 -20q-104 0 -207.5 21.5t-185.5 61.5z" />
<glyph unicode="T" horiz-adv-x="931" d="M0 1124v121h932v-121h-393v-1124h-146v1124h-393z" />
<glyph unicode="U" horiz-adv-x="1173" d="M125 477v768h145v-799q0 -164 66.5 -256t232.5 -92q94 0 158 20.5t102.5 66.5t56 118t17.5 176v766h146v-780q0 -258 -120 -371.5t-358 -113.5q-231 0 -338.5 117.5t-107.5 379.5z" />
<glyph unicode="V" horiz-adv-x="1056" d="M10 1245h160l360 -1126h17l346 1126h151l-401 -1245h-211z" />
<glyph unicode="W" horiz-adv-x="1742" d="M18 1245h160l299 -1126h17l264 1126h233l279 -1126h16l285 1126h153l-338 -1245h-225l-278 1126h-17l-270 -1126h-225z" />
<glyph unicode="X" horiz-adv-x="1103" d="M25 0l395 641l-371 604h172l311 -530h37l318 530h162l-369 -602l399 -643h-170l-342 569h-37l-335 -569h-170z" />
<glyph unicode="Y" horiz-adv-x="1034" d="M-2 1245h174l338 -561h16l340 561h170l-446 -706v-539h-146v539z" />
<glyph unicode="Z" horiz-adv-x="1009" d="M41 0v98l727 1028h-680v119h858v-98l-725 -1026h723v-121h-903z" />
<glyph unicode="[" horiz-adv-x="630" d="M111 -362v1699h430v-118h-287v-1463h287v-118h-430z" />
<glyph unicode="\" horiz-adv-x="671" d="M18 1292h138l497 -1368h-137z" />
<glyph unicode="]" horiz-adv-x="630" d="M90 -244h287v1463h-287v118h430v-1699h-430v118z" />
<glyph unicode="^" horiz-adv-x="843" d="M68 584l241 661h223l244 -661h-133l-213 569h-16l-209 -569h-137z" />
<glyph unicode="_" horiz-adv-x="798" d="M74 -82h651v-111h-651v111z" />
<glyph unicode="`" horiz-adv-x="991" d="M293 1292h162l221 -299h-141z" />
<glyph unicode="a" horiz-adv-x="876" d="M66 246q0 80 27.5 130t76.5 79.5t116.5 41t147.5 11.5q53 0 93 -2t91 -6v45q0 63 -9 107t-32.5 71t-64.5 39t-104 12q-74 0 -148 -21.5t-121 -43.5l-35 100q66 31 154 54.5t188 23.5q90 0 150.5 -18.5t97.5 -60.5t52.5 -109.5t15.5 -168.5v-313q0 -66 19.5 -90.5 t62.5 -24.5v-106q-12 -4 -25 -4h-28q-66 0 -100 25.5t-52 72.5q-47 -43 -123 -76.5t-176 -33.5q-78 0 -131 20t-85 56t-45 84t-13 106zM215 252q0 -84 38 -123t130 -39q63 0 125.5 27.5t109.5 66.5v207q-49 4 -95 7t-101 3q-117 0 -162 -36.5t-45 -112.5z" />
<glyph unicode="b" horiz-adv-x="940" d="M119 0v1288l143 21v-496q47 31 94 47q70 27 156 27q184 0 270 -115t86 -326q0 -102 -22.5 -188t-72.5 -147.5t-128.5 -96t-189.5 -34.5q-70 0 -121 16q-45 12 -96 39l-13 -35h-106zM262 143q80 -53 178 -53q135 0 207 83t72 273q0 66 -11.5 125.5t-40 104.5t-75.5 71.5 t-121 26.5q-78 0 -137 -33q-37 -20 -72 -49v-549z" />
<glyph unicode="c" horiz-adv-x="813" d="M74 420q0 231 111.5 349t324.5 118q82 0 153.5 -28t112.5 -75l-86 -84q-33 35 -79 55.5t-103 20.5q-141 0 -215 -88t-74 -274q0 -72 14.5 -131.5t47 -102.5t85 -66.5t126.5 -23.5q76 0 133 16.5t106 38.5l33 -96q-41 -25 -119 -47t-166 -22q-217 0 -311 114.5t-94 325.5z " />
<glyph unicode="d" horiz-adv-x="944" d="M72 420q0 102 22.5 188t72.5 147.5t129 96.5t189 35q70 0 121 -15q33 -10 72 -28v444l143 21v-1088l15 -221h-125l-17 61q-55 -37 -110 -57q-70 -24 -156 -24q-184 0 -270 115.5t-86 324.5zM219 420q0 -66 11.5 -125t40 -104.5t76.5 -72t122 -26.5q78 0 135 31 q37 20 74 49v551q-80 53 -178 53q-137 0 -209 -83t-72 -273z" />
<glyph unicode="e" horiz-adv-x="892" d="M74 438q0 229 98 339t299 110q106 0 175 -32t108 -88t53 -134t14 -168v-68h-600q0 -74 12 -125q16 -66 50 -105.5t87.5 -57t125.5 -17.5q92 0 161.5 23.5t112.5 46.5l37 -99q-23 -14 -58.5 -28.5t-80.5 -26.5t-94.5 -20t-98.5 -8q-113 0 -189.5 28.5t-123.5 85 t-67.5 142.5t-20.5 202zM221 504h451q0 154 -54.5 214t-146.5 60q-72 0 -120 -20.5t-77.5 -63.5t-42.5 -108q-6 -37 -10 -82z" />
<glyph unicode="f" horiz-adv-x="614" d="M41 752v114h127v107q0 96 22.5 160.5t64.5 103.5t99.5 55.5t128.5 16.5q47 0 95.5 -9.5t87.5 -21.5l-33 -111q-68 25 -144 25q-98 0 -138 -52.5t-40 -176.5v-97h318v-114h-318v-752h-143v752h-127z" />
<glyph unicode="g" d="M74 418q0 102 22.5 188t71.5 148.5t128 97.5t193 35q68 0 118 -15.5t95 -35.5l11 30h110v-907q0 -106 -28.5 -179t-80.5 -119t-126 -66.5t-162 -20.5q-84 0 -152.5 11.5t-119.5 31.5l36 109q43 -12 101.5 -24.5t132.5 -12.5q55 0 101 11t81 41t54.5 79t19.5 123v104 q-53 -31 -111.5 -49t-130.5 -18q-190 0 -277 113.5t-87 324.5zM221 418q0 -61 11.5 -120.5t40 -106t77.5 -74t127 -27.5q57 0 105.5 18.5t97.5 51.5v569q-37 18 -80 32.5t-94 14.5q-147 0 -216 -85t-69 -273z" />
<glyph unicode="h" horiz-adv-x="944" d="M119 0v1288l143 21v-508q45 29 98 49q98 37 191 37q86 0 141.5 -21.5t87 -63.5t44 -103.5t12.5 -141.5v-557h-144v526q0 55 -6 99.5t-24.5 76t-54.5 49t-93 17.5q-49 0 -95 -13.5t-89 -35.5q-37 -18 -68 -41v-678h-143z" />
<glyph unicode="i" horiz-adv-x="382" d="M117 1071v152h145v-152h-145zM119 0v866h143v-866h-143z" />
<glyph unicode="j" horiz-adv-x="382" d="M-49 -311h12q49 0 80 9t48.5 32.5t22.5 64.5t5 103v968h143v-929q0 -90 -10 -159t-41 -114t-89.5 -67.5t-152.5 -22.5h-18v115zM117 1071v152h145v-152h-145z" />
<glyph unicode="k" horiz-adv-x="868" d="M119 0v1288l141 21v-781h88l334 338h166l-385 -395l399 -471h-168l-348 414h-86v-414h-141z" />
<glyph unicode="l" horiz-adv-x="395" d="M119 219v1069l141 21v-1088q0 -78 19.5 -98.5t68.5 -20.5v-108q-6 -2 -16 -2q-10 -2 -35 -2q-102 0 -140 59.5t-38 169.5z" />
<glyph unicode="m" horiz-adv-x="1435" d="M104 866h134l6 -73q49 35 106 57q88 37 176 37q84 0 136.5 -21.5t80.5 -64.5q6 -6 11 -15q53 39 118 64q96 37 185 37q82 0 135 -21.5t82 -63.5t40 -103.5t11 -141.5v-557h-141v526q0 55 -5 99.5t-22.5 77t-49.5 50t-85 17.5q-47 0 -91 -13.5t-83 -35.5q-33 -18 -62 -39 q8 -55 9 -125v-557h-144v526q0 55 -5 99.5t-22.5 77t-49 50t-82.5 17.5q-96 0 -177 -49q-29 -16 -53 -35v-686h-143v635z" />
<glyph unicode="n" horiz-adv-x="944" d="M104 866h134l6 -78q53 37 116 62q98 37 191 37q86 0 141.5 -21.5t87 -62.5t44 -103.5t12.5 -142.5v-557h-144v526q0 55 -6 99.5t-24.5 77t-54.5 50t-93 17.5q-49 0 -95 -13.5t-89 -35.5q-37 -18 -68 -41v-680h-143v635z" />
<glyph unicode="o" horiz-adv-x="956" d="M74 436q0 229 102.5 340t321.5 111q111 0 184.5 -32t117.5 -90t63.5 -144t19.5 -193q0 -229 -103.5 -338.5t-322.5 -109.5q-111 0 -184.5 31.5t-117.5 90t-62.5 143.5t-18.5 191zM219 422q0 -70 10.5 -130.5t37 -105.5t72.5 -70.5t118 -25.5q160 0 219 89t59 265 q0 68 -10 129.5t-36.5 106.5t-73 71.5t-117.5 26.5q-160 0 -219.5 -91t-59.5 -265z" />
<glyph unicode="p" horiz-adv-x="940" d="M104 866h125l15 -63q55 37 112 57q70 27 156 27q184 0 270 -115t86 -326q0 -102 -22.5 -188t-72.5 -147.5t-129 -96t-189 -34.5q-70 0 -121 16q-35 8 -72 27v-429l-143 -20v1073zM262 143q80 -53 178 -53q135 0 207 83t72 273q0 66 -11.5 125.5t-40 104.5t-75.5 71.5 t-121 26.5q-78 0 -137 -33q-37 -20 -72 -49v-549z" />
<glyph unicode="q" d="M72 420q0 102 22.5 188t72.5 147.5t128.5 96.5t189.5 35q70 0 121 -15q43 -12 96 -41l11 35h108v-1272l-143 -20v477q-47 -29 -94 -47q-67 -24 -149 -24h-7q-184 0 -270 115.5t-86 324.5zM219 420q0 -66 11.5 -125t40 -104.5t76.5 -72t122 -26.5q78 0 135 31q37 20 74 49 v551q-80 53 -178 53q-137 0 -209 -83t-72 -273z" />
<glyph unicode="r" horiz-adv-x="643" d="M102 866h131l15 -118q55 63 117 94q86 45 174 45q70 0 114 -23l-39 -121q-41 18 -100 19q-78 0 -149 -47q-51 -35 -99 -88v-627h-143v629z" />
<glyph unicode="s" horiz-adv-x="794" d="M63 39l48 108q45 -25 112.5 -40t145.5 -15q43 0 83 4t70.5 18.5t49 39t18.5 65.5q0 82 -107 121q-59 27 -127.5 48.5t-122.5 45.5q-70 27 -112.5 73t-42.5 132q0 70 30.5 118t81 76.5t113 41t125.5 12.5q98 0 170 -16.5t119 -34.5l-45 -109q-51 23 -111.5 36t-136.5 13 q-115 0 -161 -35.5t-46 -83.5q0 -43 22.5 -68t75.5 -48q43 -23 113 -45.5t133 -49.5q74 -29 122 -76.5t48 -140.5q0 -129 -95 -189t-269 -60q-84 0 -165 16t-139 43z" />
<glyph unicode="t" horiz-adv-x="688" d="M23 750v100l147 16v181l141 24v-205h328v-114h-328v-426q0 -55 5.5 -98.5t21.5 -73t50 -44t91 -14.5q80 0 156 29l27 -100q-53 -23 -111.5 -34t-116.5 -11q-84 0 -135 22.5t-80 62t-39 94t-10 117.5v474h-147z" />
<glyph unicode="u" d="M111 309v557h141v-526q0 -55 6 -100t24.5 -77t53.5 -49.5t92 -17.5q49 0 95 13.5t87 33.5q37 18 70 41v682h143v-635l15 -231h-136l-8 76q-53 -37 -114 -60q-93 -36 -184 -36h-5q-86 0 -140 21.5t-86 62t-43 103t-11 142.5z" />
<glyph unicode="v" horiz-adv-x="821" d="M4 866h156l243 -755h17l250 755h147l-311 -866h-199z" />
<glyph unicode="w" horiz-adv-x="1318" d="M20 866h148l194 -755h17l174 755h211l176 -755h16l199 755h143l-247 -866h-209l-176 756h-17l-176 -756h-213z" />
<glyph unicode="x" horiz-adv-x="858" d="M25 0l276 446l-274 420h161l226 -360h28l222 360h155l-268 -420l280 -446h-159l-230 383h-30l-232 -383h-155z" />
<glyph unicode="y" horiz-adv-x="825" d="M12 866h158l250 -688h16l232 688h147l-332 -921q-29 -80 -58.5 -147.5t-70.5 -118t-101 -78t-153 -27.5q-23 0 -44 2t-38 8l19 109l29 -4q14 -2 32 -2q70 0 108 24.5t60 57.5q12 16 24.5 42.5t25 56.5t23.5 61.5t19 58.5z" />
<glyph unicode="z" horiz-adv-x="833" d="M51 0v94l551 658h-528v114h704v-94l-549 -657h553v-115h-731z" />
<glyph unicode="{" horiz-adv-x="659" d="M70 426v147q63 8 103 46t40 124v349q0 86 24.5 139t66.5 82.5t99.5 40t122.5 10.5h62v-119h-29q-111 0 -156 -40t-45 -146v-305q0 -117 -37.5 -172.5t-119.5 -71.5v-16q78 -23 117.5 -74t39.5 -168v-307q0 -104 48.5 -140t152.5 -36h29v-119h-62q-66 0 -122 7t-99 34.5 t-67.5 82t-24.5 150.5v332q0 80 -40 121t-103 49z" />
<glyph unicode="|" horiz-adv-x="378" d="M127 -352v1710h125v-1710h-125z" />
<glyph unicode="}" horiz-adv-x="659" d="M72 -231h28q104 0 152.5 35.5t48.5 140.5v307q0 117 40 168t118 74v16q-82 16 -120 71.5t-38 172.5v305q0 106 -45 146t-156 40h-28v119h61q66 0 122 -10.5t98 -40t66.5 -82.5t24.5 -139v-349q0 -86 41 -123.5t103 -46.5v-147q-61 -8 -102.5 -49t-41.5 -121v-332 q0 -96 -24.5 -150.5t-67.5 -82t-99 -34.5t-120 -7h-61v119z" />
<glyph unicode="~" horiz-adv-x="872" d="M66 489q41 31 105.5 56.5t129.5 25.5q43 0 79 -12t67.5 -25.5t61.5 -25.5t64 -12q59 0 101.5 17t81.5 42l49 -90q-47 -37 -105.5 -61.5t-128.5 -24.5q-45 0 -80.5 11t-67.5 25.5t-63.5 26t-66.5 11.5q-53 0 -96 -15.5t-86 -40.5z" />
<glyph unicode="&#xa1;" horiz-adv-x="407" d="M123 709v157h160v-157h-160zM127 -379l12 946h127l15 -946h-154z" />
<glyph unicode="&#xa2;" horiz-adv-x="839" d="M66 420q0 207 88 321.5t260 139.5v159h106v-155q78 -4 144.5 -31t107.5 -72l-86 -84q-66 68 -166 74v-680q63 4 112.5 18.5t92.5 32.5l33 -94q-35 -23 -98.5 -41t-139.5 -26v-156h-106v158q-186 16 -267 127.5t-81 308.5zM211 414q0 -127 46 -211t157 -107v670 q-98 -25 -150.5 -111.5t-52.5 -240.5z" />
<glyph unicode="&#xa3;" horiz-adv-x="913" d="M84 0v104q92 66 126 159t34 206v78h-152v115h154v145q0 137 30.5 226t85 140.5t127 72t158.5 20.5q51 0 103.5 -8.5t93.5 -22.5l-39 -109q-37 12 -74 18.5t-80 6.5q-61 0 -109 -15.5t-81 -55.5t-50.5 -106.5t-17.5 -166.5v-145h389v-115h-391v-78q0 -119 -31.5 -203 t-101.5 -147h571v-119h-745z" />
<glyph unicode="&#xa4;" horiz-adv-x="903" d="M63 215l125 125q-14 25 -24 55q-18 55 -19 121q0 100 45 170l-127 129l89 90l129 -131q76 45 184 45q72 0 125 -24q18 -8 35 -19l127 129l88 -90l-127 -127q14 -25 24 -55q20 -55 21 -121q0 -98 -47 -170l129 -127l-88 -88l-131 129q-76 -45 -185 -45q-74 0 -129 22 q-16 8 -33 17l-122 -123zM276 512q0 -76 37 -129t123 -53q98 0 144.5 51t46.5 139q0 72 -38 126t-124 54q-98 0 -143.5 -52t-45.5 -136z" />
<glyph unicode="&#xa5;" horiz-adv-x="1075" d="M18 1245h175l337 -561h17l340 561h170l-348 -551h247v-100h-311l-35 -55v-66h346v-102h-346v-371h-145v371h-346v102h346v66q-10 12 -37 55h-309v100h248q-14 20 -29 43q-45 74 -97.5 156t-97.5 154.5t-79.5 127t-45.5 70.5z" />
<glyph unicode="&#xa6;" horiz-adv-x="378" d="M127 291h125v-645h-125v645zM127 715v645h125v-645h-125z" />
<glyph unicode="&#xa7;" horiz-adv-x="1009" d="M96 -346l49 113q72 -35 150 -54.5t168 -19.5q147 0 221 44t74 122q0 51 -27.5 87.5t-93.5 71.5q-35 18 -82 37t-98 38.5t-99.5 39t-87.5 41.5q-78 43 -126 101.5t-48 168.5q0 125 84 193q47 39 109 61q-39 20 -70 45q-33 25 -56.5 55.5t-34.5 71.5t-11 95q0 76 32.5 133 t91 94t136.5 55.5t168 18.5q203 0 350 -72l-49 -111q-49 23 -128 44.5t-173 21.5q-135 0 -211 -45t-76 -131q0 -53 29.5 -92t89.5 -70q35 -16 80 -33.5t93 -37t97 -40t90 -41.5q80 -41 131.5 -98t51.5 -168q0 -129 -91 -198q-49 -37 -114 -60q86 -43 133 -98q49 -57 49 -164 q0 -74 -31.5 -130t-89 -93t-135.5 -55.5t-172 -18.5q-100 0 -200.5 19.5t-172.5 58.5zM236 457q0 -53 26.5 -94t85.5 -72q37 -16 82 -34.5t94 -37.5q29 -10 56 -22q98 29 143 65q57 47 57 113q0 51 -24 90t-90 74q-37 18 -85.5 36.5t-99.5 36.5q-29 12 -59 25 q-186 -55 -186 -180z" />
<glyph unicode="&#xa8;" horiz-adv-x="991" d="M256 1071v152h143v-152h-143zM590 1071v152h141v-152h-141z" />
<glyph unicode="&#xa9;" horiz-adv-x="1503" d="M88 623q0 156 49 275.5t137 201.5t210 124t266 42q145 0 267 -43t210 -126t137 -201.5t49 -272.5q0 -152 -49 -272t-137 -202.5t-210 -125.5t-267 -43q-143 0 -265.5 43t-210.5 125.5t-137 202.5t-49 272zM203 623q0 -127 39 -226.5t110.5 -170t173 -107.5t224.5 -37 q129 0 230 38t172 108.5t108.5 170t37.5 224.5q0 127 -38.5 227t-111.5 171t-174.5 107.5t-223.5 36.5q-129 0 -231.5 -39t-172.5 -110.5t-106.5 -171t-36.5 -221.5zM424 616q0 365 346 365q66 0 124 -22.5t91 -61.5l-74 -72q-51 57 -143 58q-106 0 -160.5 -64.5 t-54.5 -206.5q0 -104 50 -174.5t155 -70.5q59 0 103 12t85 33l29 -84q-35 -23 -95.5 -39.5t-134.5 -16.5q-168 0 -244.5 92.5t-76.5 251.5z" />
<glyph unicode="&#xab;" horiz-adv-x="882" d="M29 432l311 373l94 -76l-246 -295l244 -293l-94 -80zM356 432l326 373l94 -76l-258 -295l260 -293l-98 -80z" />
<glyph unicode="&#xad;" horiz-adv-x="690" d="M111 379v125h471v-125h-471z" />
<glyph unicode="&#xae;" horiz-adv-x="978" d="M55 922q0 100 33 178t90.5 132t137 82.5t173.5 28.5t174 -28.5t138.5 -82.5t90.5 -132t32 -178t-32 -179t-90.5 -132.5t-138 -82t-174.5 -28.5q-94 0 -173.5 28.5t-137 82t-90.5 132t-33 179.5zM147 922q0 -154 90.5 -248t251.5 -94q164 0 253 94t89 248t-89 248t-253 94 q-162 0 -252 -94.5t-90 -247.5zM328 698v453h172q82 0 125 -30.5t43 -100.5q0 -96 -82 -131l96 -191h-102l-88 179h-70v-179h-94zM422 948h76q35 0 53 15.5t18 56.5q0 57 -71 57h-76v-129z" />
<glyph unicode="&#xaf;" horiz-adv-x="991" d="M231 1090v116h527v-116h-527z" />
<glyph unicode="&#xb0;" horiz-adv-x="632" d="M59 1016q0 115 71 182.5t200 67.5q63 0 109 -19.5t76 -53.5t44 -81t14 -100q0 -113 -71.5 -180.5t-200.5 -67.5t-185.5 71.5t-56.5 180.5zM176 1012q0 -55 27.5 -97.5t99.5 -42.5q82 0 118 38t36 108q0 55 -28 97t-99 42q-82 0 -118 -40t-36 -105z" />
<glyph unicode="&#xb2;" horiz-adv-x="563" d="M47 1194q106 59 219 59q100 0 165 -41t65 -143q0 -63 -41 -120.5t-101 -117.5l-137 -141h293v-88h-449v62l213 217q57 59 79 99t22 79q0 51 -33 78.5t-88 27.5q-43 0 -85 -14t-83 -37z" />
<glyph unicode="&#xb3;" horiz-adv-x="563" d="M43 668l57 71q27 -20 69 -37.5t97 -17.5q59 0 98 26.5t39 80.5q0 51 -38.5 77.5t-106.5 26.5q-37 0 -63 -6v88h43q53 0 99 22.5t46 75.5q0 47 -34 68.5t-81 21.5q-51 0 -91 -16t-68 -39l-43 76q29 23 85 46t125 23q104 0 163 -39.5t59 -128.5q0 -53 -31 -86.5t-72 -48.5 q55 -16 91 -56t36 -105q0 -53 -20.5 -91t-55 -63t-81 -36t-97.5 -11q-80 0 -135 23.5t-90 54.5z" />
<glyph unicode="&#xb4;" horiz-adv-x="991" d="M313 993l222 299h161l-241 -299h-142z" />
<glyph unicode="&#xb5;" horiz-adv-x="944" d="M111 -418v1284h141v-526q0 -55 6 -99t24.5 -77t53.5 -50.5t94 -17.5q94 0 178 45q41 23 74 45v680h143v-635l15 -231h-133l-9 74q-49 -35 -106 -58q-90 -37 -182 -36q-70 0 -117 18q-25 8 -47 22l6 -438h-141z" />
<glyph unicode="&#xb6;" horiz-adv-x="1050" d="M74 848q0 96 18.5 170t61.5 125t114.5 76.5t180.5 25.5h471v-1651l-119 -16v1548h-158v-1532l-119 -16v897h-118q-100 0 -165 28.5t-102 79t-51 118t-14 147.5z" />
<glyph unicode="&#xb7;" horiz-adv-x="344" d="M90 422v160h164v-160h-164z" />
<glyph unicode="&#xb8;" horiz-adv-x="991" d="M285 -391l34 92q31 -10 65 -17.5t69 -7.5q66 0 95.5 17.5t29.5 60.5q0 49 -44.5 68.5t-158.5 25.5l35 91q160 -4 231.5 -46.5t71.5 -138.5q0 -92 -58.5 -136t-187.5 -44q-55 0 -102.5 9t-79.5 26z" />
<glyph unicode="&#xb9;" horiz-adv-x="563" d="M80 1143l205 102h77v-643h-112v533l-133 -66z" />
<glyph unicode="&#xbb;" horiz-adv-x="882" d="M135 725l98 80l324 -371l-326 -373l-94 76l258 295zM479 137l246 295l-244 293l94 80l309 -371l-311 -373z" />
<glyph unicode="&#xbd;" horiz-adv-x="1277" d="M86 1145l205 102h78v-645h-113v535l-133 -68zM90 -61l903 1368h140l-904 -1368h-139zM795 592q51 29 106 45t111 16q100 0 164.5 -42t64.5 -144q0 -63 -40 -119.5t-99 -118.5l-139 -141h294v-88h-450v63l213 216q57 59 78.5 99t21.5 81q0 49 -32.5 76.5t-86.5 27.5 q-45 0 -86 -13t-81 -36z" />
<glyph unicode="&#xbf;" horiz-adv-x="774" d="M78 -101q0 66 23.5 117t57 96t74.5 85t75 85t57.5 96.5t23.5 116.5v72h137v-88q0 -111 -46 -187.5t-101.5 -138t-101.5 -118t-46 -123.5q0 -82 55.5 -135.5t161.5 -53.5q78 0 142.5 24.5t111.5 53.5l49 -111q-59 -37 -141 -63.5t-180 -26.5q-160 0 -256 77t-96 222z M375 708v158h159v-158h-159z" />
<glyph unicode="&#xc0;" horiz-adv-x="1157" d="M14 0l455 1245h213l461 -1245h-160l-133 365h-549l-129 -365h-158zM291 1671h162l221 -299h-141zM342 487h465l-225 639h-17z" />
<glyph unicode="&#xc1;" horiz-adv-x="1157" d="M14 0l455 1245h213l461 -1245h-160l-133 365h-549l-129 -365h-158zM342 487h465l-225 639h-17zM477 1372l222 299h161l-241 -299h-142z" />
<glyph unicode="&#xc2;" horiz-adv-x="1157" d="M14 0l455 1245h213l461 -1245h-160l-133 365h-549l-129 -365h-158zM275 1372l202 299h193l205 -299h-136l-155 219h-19l-157 -219h-133zM342 487h465l-225 639h-17z" />
<glyph unicode="&#xc3;" horiz-adv-x="1157" d="M14 0l455 1245h213l461 -1245h-160l-133 365h-549l-129 -365h-158zM268 1538q35 31 84.5 53.5t102.5 22.5q39 0 68.5 -9t56 -21.5t52.5 -21.5t56 -9q41 0 76 14t68 35l45 -90q-39 -33 -86 -53.5t-105 -20.5q-37 0 -67.5 9t-57 21.5t-52 21.5t-56.5 9q-39 0 -73 -15 t-64 -36zM342 487h465l-225 639h-17z" />
<glyph unicode="&#xc4;" horiz-adv-x="1157" d="M14 0l455 1245h213l461 -1245h-160l-133 365h-549l-129 -365h-158zM334 1450v152h143v-152h-143zM342 487h465l-225 639h-17zM668 1450v152h141v-152h-141z" />
<glyph unicode="&#xc5;" horiz-adv-x="1157" d="M14 0l455 1245h213l461 -1245h-160l-133 365h-549l-129 -365h-158zM342 487h465l-225 639h-17zM385 1523q0 86 49 132.5t148 46.5q100 0 140 -51.5t40 -129.5q0 -86 -50.5 -131t-146.5 -45q-100 0 -140 50.5t-40 127.5zM485 1521q0 -39 17.5 -61.5t64.5 -22.5 q51 0 71.5 20.5t20.5 67.5q0 37 -16 60.5t-66 23.5q-49 0 -70.5 -21.5t-21.5 -66.5z" />
<glyph unicode="&#xc6;" horiz-adv-x="1691" d="M-23 0l756 1245h846v-121h-608l22 -422h561v-120h-555l23 -461h571v-121h-712l-19 365h-508l-217 -365h-160zM426 487h430l-31 637h-16z" />
<glyph unicode="&#xc7;" horiz-adv-x="1103" d="M80 623q0 168 39 289.5t111.5 199.5t176 116t234.5 38q121 0 223.5 -40t163.5 -116l-88 -86q-53 57 -121.5 89t-173.5 32q-217 0 -315.5 -138.5t-98.5 -402.5q0 -240 92.5 -370t299.5 -130q125 0 214 24t154 50l37 -112q-70 -33 -180.5 -59.5t-231.5 -26.5 q-283 2 -409.5 162.5t-126.5 480.5zM387 -391l34 92q31 -10 65 -17.5t69 -7.5q66 0 95.5 17.5t29.5 60.5q0 49 -44.5 68.5t-158.5 25.5l35 91q160 -4 231.5 -46.5t71.5 -138.5q0 -92 -58.5 -136t-187.5 -44q-55 0 -102.5 9t-79.5 26z" />
<glyph unicode="&#xc8;" horiz-adv-x="997" d="M137 0v1245h742v-121h-596v-422h575v-120h-575v-461h616v-121h-762zM236 1671h162l221 -299h-141z" />
<glyph unicode="&#xc9;" horiz-adv-x="997" d="M137 0v1245h742v-121h-596v-422h575v-120h-575v-461h616v-121h-762zM407 1372l222 299h161l-241 -299h-142z" />
<glyph unicode="&#xca;" horiz-adv-x="997" d="M137 0v1245h742v-121h-596v-422h575v-120h-575v-461h616v-121h-762zM205 1372l202 299h193l205 -299h-136l-155 219h-19l-157 -219h-133z" />
<glyph unicode="&#xcb;" horiz-adv-x="997" d="M137 0v1245h742v-121h-596v-422h575v-120h-575v-461h616v-121h-762zM264 1440v152h143v-152h-143zM598 1440v152h141v-152h-141z" />
<glyph unicode="&#xcc;" horiz-adv-x="419" d="M-59 1671h162l221 -299h-141zM137 0v1245h146v-1245h-146z" />
<glyph unicode="&#xcd;" horiz-adv-x="419" d="M114 1372l222 299h161l-241 -299h-142zM137 0v1245h146v-1245h-146z" />
<glyph unicode="&#xce;" horiz-adv-x="419" d="M-86 1372l202 299h193l205 -299h-136l-155 219h-19l-157 -219h-133zM137 0v1245h146v-1245h-146z" />
<glyph unicode="&#xcf;" horiz-adv-x="419" d="M-23 1440v152h143v-152h-143zM137 0v1245h146v-1245h-146zM311 1440v152h141v-152h-141z" />
<glyph unicode="&#xd0;" horiz-adv-x="1191" d="M29 575v121h567v-121h-567zM154 0v1245h352q145 0 258 -33.5t189.5 -108.5t116.5 -195t40 -292q0 -176 -48 -294.5t-135 -190.5t-207 -101.5t-263 -29.5h-303zM299 121h154q121 0 215 23.5t158.5 83t97 159.5t32.5 254q0 252 -112.5 367.5t-335.5 115.5h-209v-1003z" />
<glyph unicode="&#xd1;" horiz-adv-x="1271" d="M137 0v1245h258l578 -1126h16v1126h146v-1245h-258l-578 1126h-16v-1126h-146zM340 1538q35 31 84.5 53.5t102.5 22.5q39 0 68.5 -9t56 -21.5t52.5 -21.5t56 -9q41 0 76 14t68 35l45 -90q-39 -33 -86 -53.5t-105 -20.5q-37 0 -67.5 9t-57 21.5t-52 21.5t-56.5 9 q-39 0 -73 -15t-64 -36z" />
<glyph unicode="&#xd2;" horiz-adv-x="1208" d="M80 629q0 326 133 481.5t414 155.5q139 0 235 -44t155.5 -128t85 -204t25.5 -274q0 -324 -134 -480t-414 -156q-141 0 -236.5 44t-154 128t-84 204.5t-25.5 272.5zM229 608q0 -106 15.5 -199.5t54.5 -162t106.5 -107.5t169.5 -39q117 0 194 35t123 102.5t65.5 169 t19.5 234.5q0 104 -15.5 196.5t-54.5 161t-106.5 108.5t-171.5 40q-115 0 -191 -35t-123 -102.5t-66.5 -169t-19.5 -232.5zM305 1671h162l221 -299h-141z" />
<glyph unicode="&#xd3;" horiz-adv-x="1208" d="M80 629q0 326 133 481.5t414 155.5q139 0 235 -44t155.5 -128t85 -204t25.5 -274q0 -324 -134 -480t-414 -156q-141 0 -236.5 44t-154 128t-84 204.5t-25.5 272.5zM229 608q0 -106 15.5 -199.5t54.5 -162t106.5 -107.5t169.5 -39q117 0 194 35t123 102.5t65.5 169 t19.5 234.5q0 104 -15.5 196.5t-54.5 161t-106.5 108.5t-171.5 40q-115 0 -191 -35t-123 -102.5t-66.5 -169t-19.5 -232.5zM522 1372l222 299h161l-241 -299h-142z" />
<glyph unicode="&#xd4;" horiz-adv-x="1208" d="M80 629q0 326 133 481.5t414 155.5q139 0 235 -44t155.5 -128t85 -204t25.5 -274q0 -324 -134 -480t-414 -156q-141 0 -236.5 44t-154 128t-84 204.5t-25.5 272.5zM229 608q0 -106 15.5 -199.5t54.5 -162t106.5 -107.5t169.5 -39q117 0 194 35t123 102.5t65.5 169 t19.5 234.5q0 104 -15.5 196.5t-54.5 161t-106.5 108.5t-171.5 40q-115 0 -191 -35t-123 -102.5t-66.5 -169t-19.5 -232.5zM316 1372l202 299h193l205 -299h-136l-155 219h-19l-157 -219h-133z" />
<glyph unicode="&#xd5;" horiz-adv-x="1208" d="M80 629q0 326 133 481.5t414 155.5q139 0 235 -44t155.5 -128t85 -204t25.5 -274q0 -324 -134 -480t-414 -156q-141 0 -236.5 44t-154 128t-84 204.5t-25.5 272.5zM229 608q0 -106 15.5 -199.5t54.5 -162t106.5 -107.5t169.5 -39q117 0 194 35t123 102.5t65.5 169 t19.5 234.5q0 104 -15.5 196.5t-54.5 161t-106.5 108.5t-171.5 40q-115 0 -191 -35t-123 -102.5t-66.5 -169t-19.5 -232.5zM313 1538q35 31 84.5 53.5t102.5 22.5q39 0 68.5 -9t56 -21.5t52.5 -21.5t56 -9q41 0 76 14t68 35l45 -90q-39 -33 -86 -53.5t-105 -20.5 q-37 0 -67.5 9t-57 21.5t-52 21.5t-56.5 9q-39 0 -73 -15t-64 -36z" />
<glyph unicode="&#xd6;" horiz-adv-x="1208" d="M80 629q0 326 133 481.5t414 155.5q139 0 235 -44t155.5 -128t85 -204t25.5 -274q0 -324 -134 -480t-414 -156q-141 0 -236.5 44t-154 128t-84 204.5t-25.5 272.5zM229 608q0 -106 15.5 -199.5t54.5 -162t106.5 -107.5t169.5 -39q117 0 194 35t123 102.5t65.5 169 t19.5 234.5q0 104 -15.5 196.5t-54.5 161t-106.5 108.5t-171.5 40q-115 0 -191 -35t-123 -102.5t-66.5 -169t-19.5 -232.5zM375 1440v152h143v-152h-143zM709 1440v152h141v-152h-141z" />
<glyph unicode="&#xd7;" horiz-adv-x="1064" d="M145 207l295 295l-295 297l91 92l296 -297l297 297l91 -92l-297 -297l297 -295l-91 -92l-297 297l-296 -297z" />
<glyph unicode="&#xd8;" horiz-adv-x="1208" d="M72 14l110 148q-53 80 -78 194q-24 121 -24 273q0 326 133 481.5t414 155.5q139 0 235 -45q43 -20 80 -50l96 127l92 -63l-110 -145q57 -84 82 -201q27 -119 26 -273q0 -324 -134 -481.5t-414 -157.5q-141 0 -238 46q-45 20 -84 51l-94 -125zM227 608q0 -109 15 -202 q12 -66 32 -121l588 780q-26 27 -59 45q-68 41 -174 41q-115 0 -192 -35t-123 -104.5t-66.5 -171t-20.5 -232.5zM340 182q29 -29 63 -49q68 -39 172 -39q117 0 195 35t125 104.5t66.5 172t19.5 235.5q0 104 -14 197q-12 72 -37 129z" />
<glyph unicode="&#xd9;" horiz-adv-x="1173" d="M125 477v768h145v-799q0 -164 66.5 -256t232.5 -92q94 0 158 20.5t102.5 66.5t56 118t17.5 176v766h146v-780q0 -258 -120 -371.5t-358 -113.5q-231 0 -338.5 117.5t-107.5 379.5zM311 1671h162l221 -299h-141z" />
<glyph unicode="&#xda;" horiz-adv-x="1173" d="M125 477v768h145v-799q0 -164 66.5 -256t232.5 -92q94 0 158 20.5t102.5 66.5t56 118t17.5 176v766h146v-780q0 -258 -120 -371.5t-358 -113.5q-231 0 -338.5 117.5t-107.5 379.5zM475 1372l222 299h161l-241 -299h-142z" />
<glyph unicode="&#xdb;" horiz-adv-x="1173" d="M125 477v768h145v-799q0 -164 66.5 -256t232.5 -92q94 0 158 20.5t102.5 66.5t56 118t17.5 176v766h146v-780q0 -258 -120 -371.5t-358 -113.5q-231 0 -338.5 117.5t-107.5 379.5zM283 1372l202 299h193l205 -299h-136l-155 219h-19l-157 -219h-133z" />
<glyph unicode="&#xdc;" horiz-adv-x="1173" d="M125 477v768h145v-799q0 -164 66.5 -256t232.5 -92q94 0 158 20.5t102.5 66.5t56 118t17.5 176v766h146v-780q0 -258 -120 -371.5t-358 -113.5q-231 0 -338.5 117.5t-107.5 379.5zM348 1440v152h143v-152h-143zM682 1440v152h141v-152h-141z" />
<glyph unicode="&#xdd;" horiz-adv-x="1034" d="M-2 1245h174l338 -561h16l340 561h170l-446 -706v-539h-146v539zM426 1372l222 299h161l-241 -299h-142z" />
<glyph unicode="&#xde;" horiz-adv-x="1034" d="M131 0v1245h143v-248h275q207 0 312.5 -91t105.5 -275q0 -90 -29 -161t-81 -120t-123.5 -74.5t-160.5 -25.5h-299v-250h-143zM274 371h279q121 0 192.5 62.5t71.5 197.5q0 131 -74.5 188.5t-189.5 57.5h-279v-506z" />
<glyph unicode="&#xdf;" horiz-adv-x="1003" d="M119 0v829q0 121 29.5 208t85 144.5t132 84t169.5 26.5q63 0 121.5 -15t104.5 -49t73.5 -85t27.5 -121q0 -47 -14 -83t-42 -67.5t-66 -60.5t-85 -59q-43 -31 -74.5 -62t-31.5 -69q0 -41 23.5 -62.5t70.5 -44.5q4 -2 23.5 -10t42 -18.5t42 -19.5t23.5 -11 q76 -35 128 -88.5t52 -143.5q0 -123 -81.5 -182t-229.5 -59q-78 0 -149.5 15t-122.5 40l43 108q35 -14 97 -33.5t132 -19.5q78 0 125 27.5t47 87.5q0 53 -28.5 82.5t-96.5 60.5q-4 2 -21.5 9.5t-38 16.5t-39 16t-20.5 9q-76 33 -118.5 78t-42.5 123q0 70 37.5 125t136.5 121 q72 45 101.5 83t29.5 91q0 82 -56.5 118t-132.5 36q-68 0 -117 -26t-82.5 -70t-50 -105.5t-16.5 -132.5v-842h-141z" />
<glyph unicode="&#xe0;" horiz-adv-x="874" d="M66 246q0 80 27.5 130t76.5 79.5t116.5 41t147.5 11.5q53 0 93 -2t91 -6v45q0 63 -9 107t-32.5 71t-64.5 39t-104 12q-74 0 -148 -21.5t-121 -43.5l-35 100q66 31 154 54.5t188 23.5q90 0 150.5 -18.5t97.5 -60.5t52.5 -109.5t15.5 -168.5v-313q0 -66 19.5 -90.5 t62.5 -24.5v-106q-12 -4 -25 -4h-28q-66 0 -100 25.5t-52 72.5q-47 -43 -123 -76.5t-176 -33.5q-78 0 -131 20t-85 56t-45 84t-13 106zM162 1292h162l221 -299h-141zM215 252q0 -84 38 -123t130 -39q63 0 125.5 27.5t109.5 66.5v207q-49 4 -95 7t-101 3q-117 0 -162 -36.5 t-45 -112.5z" />
<glyph unicode="&#xe1;" horiz-adv-x="874" d="M66 246q0 80 27.5 130t76.5 79.5t116.5 41t147.5 11.5q53 0 93 -2t91 -6v45q0 63 -9 107t-32.5 71t-64.5 39t-104 12q-74 0 -148 -21.5t-121 -43.5l-35 100q66 31 154 54.5t188 23.5q90 0 150.5 -18.5t97.5 -60.5t52.5 -109.5t15.5 -168.5v-313q0 -66 19.5 -90.5 t62.5 -24.5v-106q-12 -4 -25 -4h-28q-66 0 -100 25.5t-52 72.5q-47 -43 -123 -76.5t-176 -33.5q-78 0 -131 20t-85 56t-45 84t-13 106zM215 252q0 -84 38 -123t130 -39q63 0 125.5 27.5t109.5 66.5v207q-49 4 -95 7t-101 3q-117 0 -162 -36.5t-45 -112.5zM303 993l222 299 h161l-241 -299h-142z" />
<glyph unicode="&#xe2;" horiz-adv-x="874" d="M66 246q0 80 27.5 130t76.5 79.5t116.5 41t147.5 11.5q53 0 93 -2t91 -6v45q0 63 -9 107t-32.5 71t-64.5 39t-104 12q-74 0 -148 -21.5t-121 -43.5l-35 100q66 31 154 54.5t188 23.5q90 0 150.5 -18.5t97.5 -60.5t52.5 -109.5t15.5 -168.5v-313q0 -66 19.5 -90.5 t62.5 -24.5v-106q-12 -4 -25 -4h-28q-66 0 -100 25.5t-52 72.5q-47 -43 -123 -76.5t-176 -33.5q-78 0 -131 20t-85 56t-45 84t-13 106zM125 993l202 299h193l205 -299h-136l-155 219h-19l-157 -219h-133zM215 252q0 -84 38 -123t130 -39q63 0 125.5 27.5t109.5 66.5v207 q-49 4 -95 7t-101 3q-117 0 -162 -36.5t-45 -112.5z" />
<glyph unicode="&#xe3;" horiz-adv-x="874" d="M66 246q0 80 27.5 130t76.5 79.5t116.5 41t147.5 11.5q53 0 93 -2t91 -6v45q0 63 -9 107t-32.5 71t-64.5 39t-104 12q-74 0 -148 -21.5t-121 -43.5l-35 100q66 31 154 54.5t188 23.5q90 0 150.5 -18.5t97.5 -60.5t52.5 -109.5t15.5 -168.5v-313q0 -66 19.5 -90.5 t62.5 -24.5v-106q-12 -4 -25 -4h-28q-66 0 -100 25.5t-52 72.5q-47 -43 -123 -76.5t-176 -33.5q-78 0 -131 20t-85 56t-45 84t-13 106zM106 1159q35 31 84.5 53.5t102.5 22.5q39 0 68.5 -9t56 -21.5t52.5 -21.5t56 -9q41 0 76 14t68 35l45 -90q-39 -33 -86 -53.5t-105 -20.5 q-37 0 -67.5 9t-57 21.5t-52 21.5t-56.5 9q-39 0 -73 -15t-64 -36zM215 252q0 -84 38 -123t130 -39q63 0 125.5 27.5t109.5 66.5v207q-49 4 -95 7t-101 3q-117 0 -162 -36.5t-45 -112.5z" />
<glyph unicode="&#xe4;" horiz-adv-x="874" d="M66 246q0 80 27.5 130t76.5 79.5t116.5 41t147.5 11.5q53 0 93 -2t91 -6v45q0 63 -9 107t-32.5 71t-64.5 39t-104 12q-74 0 -148 -21.5t-121 -43.5l-35 100q66 31 154 54.5t188 23.5q90 0 150.5 -18.5t97.5 -60.5t52.5 -109.5t15.5 -168.5v-313q0 -66 19.5 -90.5 t62.5 -24.5v-106q-12 -4 -25 -4h-28q-66 0 -100 25.5t-52 72.5q-47 -43 -123 -76.5t-176 -33.5q-78 0 -131 20t-85 56t-45 84t-13 106zM186 1071v152h143v-152h-143zM215 252q0 -84 38 -123t130 -39q63 0 125.5 27.5t109.5 66.5v207q-49 4 -95 7t-101 3q-117 0 -162 -36.5 t-45 -112.5zM520 1071v152h141v-152h-141z" />
<glyph unicode="&#xe5;" horiz-adv-x="874" d="M66 246q0 80 27.5 130t76.5 79.5t116.5 41t147.5 11.5q53 0 93 -2t91 -6v45q0 63 -9 107t-32.5 71t-64.5 39t-104 12q-74 0 -148 -21.5t-121 -43.5l-35 100q66 31 154 54.5t188 23.5q90 0 150.5 -18.5t97.5 -60.5t52.5 -109.5t15.5 -168.5v-313q0 -66 19.5 -90.5 t62.5 -24.5v-106q-12 -4 -25 -4h-28q-66 0 -100 25.5t-52 72.5q-47 -43 -123 -76.5t-176 -33.5q-78 0 -131 20t-85 56t-45 84t-13 106zM215 252q0 -84 38 -123t130 -39q63 0 125.5 27.5t109.5 66.5v207q-49 4 -95 7t-101 3q-117 0 -162 -36.5t-45 -112.5zM242 1167 q0 86 49 132.5t148 46.5q100 0 140 -51.5t40 -129.5q0 -86 -50.5 -131t-146.5 -45q-100 0 -140 50.5t-40 127.5zM342 1165q0 -39 17.5 -61.5t64.5 -22.5q51 0 71.5 20.5t20.5 67.5q0 37 -16 60.5t-66 23.5q-49 0 -70.5 -21.5t-21.5 -66.5z" />
<glyph unicode="&#xe6;" horiz-adv-x="1441" d="M70 246q0 76 27.5 126t76.5 78.5t116.5 40t147.5 11.5h187v41q0 63 -9.5 108t-34 72t-65.5 39t-104 12q-76 0 -150 -21.5t-121 -43.5l-35 100q68 31 156 54.5t189 23.5q111 0 173 -30t95 -101q92 131 301 131q106 0 174 -32t106.5 -88t53 -134t14.5 -168v-68h-600 q2 -88 20.5 -146t52 -94t85 -50.5t118.5 -14.5q92 0 162 23.5t113 46.5l39 -99q-23 -14 -59.5 -28.5t-82 -26.5t-95.5 -20t-99 -8q-229 0 -317 122q-53 -43 -142.5 -82.5t-212.5 -39.5q-76 0 -129 20t-87 56t-49 85t-15 105zM217 254q0 -84 39 -124t133 -40q70 0 138.5 32 t125.5 77q-14 41 -19 90t-9 108h-201q-117 0 -162 -37.5t-45 -105.5zM770 502h453q0 156 -54.5 216t-150.5 60q-131 0 -185.5 -67.5t-62.5 -208.5z" />
<glyph unicode="&#xe7;" horiz-adv-x="813" d="M74 420q0 231 111.5 349t324.5 118q82 0 153.5 -28t112.5 -75l-86 -84q-33 35 -79 55.5t-103 20.5q-141 0 -215 -88t-74 -274q0 -72 14.5 -131.5t47 -102.5t85 -66.5t126.5 -23.5q76 0 133 16.5t106 38.5l33 -96q-41 -25 -119 -47t-166 -22q-217 0 -311 114.5t-94 325.5z M246 -391l34 92q31 -10 65 -17.5t69 -7.5q66 0 95.5 17.5t29.5 60.5q0 49 -44.5 68.5t-158.5 25.5l35 91q160 -4 231.5 -46.5t71.5 -138.5q0 -92 -58.5 -136t-187.5 -44q-55 0 -102.5 9t-79.5 26z" />
<glyph unicode="&#xe8;" horiz-adv-x="892" d="M74 438q0 229 98 339t299 110q106 0 175 -32t108 -88t53 -134t14 -168v-68h-600q0 -74 12 -125q16 -66 50 -105.5t87.5 -57t125.5 -17.5q92 0 161.5 23.5t112.5 46.5l37 -99q-23 -14 -58.5 -28.5t-80.5 -26.5t-94.5 -20t-98.5 -8q-113 0 -189.5 28.5t-123.5 85 t-67.5 142.5t-20.5 202zM221 504h451q0 154 -54.5 214t-146.5 60q-72 0 -120 -20.5t-77.5 -63.5t-42.5 -108q-6 -37 -10 -82zM225 1292h162l221 -299h-141z" />
<glyph unicode="&#xe9;" horiz-adv-x="892" d="M74 438q0 229 98 339t299 110q106 0 175 -32t108 -88t53 -134t14 -168v-68h-600q0 -74 12 -125q16 -66 50 -105.5t87.5 -57t125.5 -17.5q92 0 161.5 23.5t112.5 46.5l37 -99q-23 -14 -58.5 -28.5t-80.5 -26.5t-94.5 -20t-98.5 -8q-113 0 -189.5 28.5t-123.5 85 t-67.5 142.5t-20.5 202zM221 504h451q0 154 -54.5 214t-146.5 60q-72 0 -120 -20.5t-77.5 -63.5t-42.5 -108q-6 -37 -10 -82zM350 993l222 299h161l-241 -299h-142z" />
<glyph unicode="&#xea;" horiz-adv-x="892" d="M74 438q0 229 98 339t299 110q106 0 175 -32t108 -88t53 -134t14 -168v-68h-600q0 -74 12 -125q16 -66 50 -105.5t87.5 -57t125.5 -17.5q92 0 161.5 23.5t112.5 46.5l37 -99q-23 -14 -58.5 -28.5t-80.5 -26.5t-94.5 -20t-98.5 -8q-113 0 -189.5 28.5t-123.5 85 t-67.5 142.5t-20.5 202zM177 993l202 299h193l205 -299h-136l-155 219h-19l-157 -219h-133zM221 504h451q0 154 -54.5 214t-146.5 60q-72 0 -120 -20.5t-77.5 -63.5t-42.5 -108q-6 -37 -10 -82z" />
<glyph unicode="&#xeb;" horiz-adv-x="892" d="M74 438q0 229 98 339t299 110q106 0 175 -32t108 -88t53 -134t14 -168v-68h-600q0 -74 12 -125q16 -66 50 -105.5t87.5 -57t125.5 -17.5q92 0 161.5 23.5t112.5 46.5l37 -99q-23 -14 -58.5 -28.5t-80.5 -26.5t-94.5 -20t-98.5 -8q-113 0 -189.5 28.5t-123.5 85 t-67.5 142.5t-20.5 202zM221 504h451q0 154 -54.5 214t-146.5 60q-72 0 -120 -20.5t-77.5 -63.5t-42.5 -108q-6 -37 -10 -82zM223 1071v152h143v-152h-143zM557 1071v152h141v-152h-141z" />
<glyph unicode="&#xec;" horiz-adv-x="382" d="M-39 1292h162l221 -299h-141zM119 0v866h143v-866h-143z" />
<glyph unicode="&#xed;" horiz-adv-x="382" d="M49 993l222 299h161l-241 -299h-142zM119 0v866h143v-866h-143z" />
<glyph unicode="&#xee;" horiz-adv-x="382" d="M-78 995l174 299h191l176 -299h-131l-131 222h-19l-133 -222h-127zM119 0v866h143v-866h-143z" />
<glyph unicode="&#xef;" horiz-adv-x="382" d="M-23 1071v152h134v-152h-134zM119 0v866h143v-866h-143zM264 1071v152h133v-152h-133z" />
<glyph unicode="&#xf0;" horiz-adv-x="956" d="M74 436q0 223 103.5 337t295.5 114q98 0 178 -37q27 -12 54 -27q-23 82 -68 148q-45 68 -121 119l-260 -134l-43 82l203 105q-96 39 -236 59l21 109q160 -25 284 -76q31 -12 58 -27l207 105l43 -82l-158 -82q35 -27 65 -59q88 -92 135.5 -234.5t47.5 -349.5 q0 -270 -96.5 -399.5t-309.5 -129.5q-111 0 -187.5 32t-124.5 90.5t-69.5 143.5t-21.5 193zM219 422q0 -70 13.5 -131.5t43 -106.5t78.5 -70.5t123 -25.5q80 0 130 28.5t80 81t41 126t11 163.5q0 109 -12 201q-37 27 -82 47q-78 37 -160 37q-145 0 -205.5 -90t-60.5 -260z " />
<glyph unicode="&#xf1;" horiz-adv-x="944" d="M104 866h134l6 -78q53 37 116 62q98 37 191 37q86 0 141.5 -21.5t87 -62.5t44 -103.5t12.5 -142.5v-557h-144v526q0 55 -6 99.5t-24.5 77t-54.5 50t-93 17.5q-49 0 -95 -13.5t-89 -35.5q-37 -18 -68 -41v-680h-143v635zM180 1159q35 31 84.5 53.5t102.5 22.5 q39 0 68.5 -9t56 -21.5t52.5 -21.5t56 -9q41 0 76 14t68 35l45 -90q-39 -33 -86 -53.5t-105 -20.5q-37 0 -67.5 9t-57 21.5t-52 21.5t-56.5 9q-39 0 -73 -15t-64 -36z" />
<glyph unicode="&#xf2;" horiz-adv-x="956" d="M74 436q0 229 102.5 340t321.5 111q111 0 184.5 -32t117.5 -90t63.5 -144t19.5 -193q0 -229 -103.5 -338.5t-322.5 -109.5q-111 0 -184.5 31.5t-117.5 90t-62.5 143.5t-18.5 191zM219 422q0 -70 10.5 -130.5t37 -105.5t72.5 -70.5t118 -25.5q160 0 219 89t59 265 q0 68 -10 129.5t-36.5 106.5t-73 71.5t-117.5 26.5q-160 0 -219.5 -91t-59.5 -265zM227 1292h162l221 -299h-141z" />
<glyph unicode="&#xf3;" horiz-adv-x="956" d="M74 436q0 229 102.5 340t321.5 111q111 0 184.5 -32t117.5 -90t63.5 -144t19.5 -193q0 -229 -103.5 -338.5t-322.5 -109.5q-111 0 -184.5 31.5t-117.5 90t-62.5 143.5t-18.5 191zM219 422q0 -70 10.5 -130.5t37 -105.5t72.5 -70.5t118 -25.5q160 0 219 89t59 265 q0 68 -10 129.5t-36.5 106.5t-73 71.5t-117.5 26.5q-160 0 -219.5 -91t-59.5 -265zM381 993l222 299h161l-241 -299h-142z" />
<glyph unicode="&#xf4;" horiz-adv-x="956" d="M74 436q0 229 102.5 340t321.5 111q111 0 184.5 -32t117.5 -90t63.5 -144t19.5 -193q0 -229 -103.5 -338.5t-322.5 -109.5q-111 0 -184.5 31.5t-117.5 90t-62.5 143.5t-18.5 191zM185 993l202 299h193l205 -299h-136l-155 219h-19l-157 -219h-133zM219 422 q0 -70 10.5 -130.5t37 -105.5t72.5 -70.5t118 -25.5q160 0 219 89t59 265q0 68 -10 129.5t-36.5 106.5t-73 71.5t-117.5 26.5q-160 0 -219.5 -91t-59.5 -265z" />
<glyph unicode="&#xf5;" horiz-adv-x="956" d="M74 436q0 229 102.5 340t321.5 111q111 0 184.5 -32t117.5 -90t63.5 -144t19.5 -193q0 -229 -103.5 -338.5t-322.5 -109.5q-111 0 -184.5 31.5t-117.5 90t-62.5 143.5t-18.5 191zM186 1159q35 31 84.5 53.5t102.5 22.5q39 0 68.5 -9t56 -21.5t52.5 -21.5t56 -9 q41 0 76 14t68 35l45 -90q-39 -33 -86 -53.5t-105 -20.5q-37 0 -67.5 9t-57 21.5t-52 21.5t-56.5 9q-39 0 -73 -15t-64 -36zM219 422q0 -70 10.5 -130.5t37 -105.5t72.5 -70.5t118 -25.5q160 0 219 89t59 265q0 68 -10 129.5t-36.5 106.5t-73 71.5t-117.5 26.5 q-160 0 -219.5 -91t-59.5 -265z" />
<glyph unicode="&#xf6;" horiz-adv-x="956" d="M74 436q0 229 102.5 340t321.5 111q111 0 184.5 -32t117.5 -90t63.5 -144t19.5 -193q0 -229 -103.5 -338.5t-322.5 -109.5q-111 0 -184.5 31.5t-117.5 90t-62.5 143.5t-18.5 191zM219 422q0 -70 10.5 -130.5t37 -105.5t72.5 -70.5t118 -25.5q160 0 219 89t59 265 q0 68 -10 129.5t-36.5 106.5t-73 71.5t-117.5 26.5q-160 0 -219.5 -91t-59.5 -265zM246 1071v152h143v-152h-143zM580 1071v152h141v-152h-141z" />
<glyph unicode="&#xf7;" horiz-adv-x="991" d="M113 442v119h764v-119h-764zM416 164v160h159v-160h-159zM416 680v160h159v-160h-159z" />
<glyph unicode="&#xf8;" horiz-adv-x="956" d="M59 27l80 94q-37 59 -51 138t-14 177q0 229 102.5 340t321.5 111q145 0 229 -62l76 90l92 -73l-82 -99q37 -59 53.5 -138t16.5 -177q0 -229 -103.5 -340t-322.5 -111q-78 0 -134.5 15.5t-99.5 44.5l-71 -88zM215 422q0 -53 6 -98t23 -82l409 489q-29 23 -65.5 37 t-89.5 14q-80 0 -134.5 -23.5t-87 -69.5t-47 -113.5t-14.5 -153.5zM299 135q29 -25 67 -38t91 -13q160 0 221 91t61 269q0 51 -6 97.5t-22 85.5z" />
<glyph unicode="&#xf9;" d="M111 309v557h141v-526q0 -55 6 -100t24.5 -77t53.5 -49.5t92 -17.5q49 0 95 13.5t87 33.5q37 18 70 41v682h143v-635l15 -231h-136l-8 76q-53 -37 -114 -60q-96 -37 -189 -36q-86 0 -140 21.5t-86 62t-43 103t-11 142.5zM182 1292h162l221 -299h-141z" />
<glyph unicode="&#xfa;" d="M111 309v557h141v-526q0 -55 6 -100t24.5 -77t53.5 -49.5t92 -17.5q49 0 95 13.5t87 33.5q37 18 70 41v682h143v-635l15 -231h-136l-8 76q-53 -37 -114 -60q-96 -37 -189 -36q-86 0 -140 21.5t-86 62t-43 103t-11 142.5zM401 993l222 299h161l-241 -299h-142z" />
<glyph unicode="&#xfb;" d="M111 309v557h141v-526q0 -55 6 -100t24.5 -77t53.5 -49.5t92 -17.5q49 0 95 13.5t87 33.5q37 18 70 41v682h143v-635l15 -231h-136l-8 76q-53 -37 -114 -60q-96 -37 -189 -36q-86 0 -140 21.5t-86 62t-43 103t-11 142.5zM172 993l202 299h193l205 -299h-136l-155 219h-19 l-157 -219h-133z" />
<glyph unicode="&#xfc;" d="M111 309v557h141v-526q0 -55 6 -100t24.5 -77t53.5 -49.5t92 -17.5q49 0 95 13.5t87 33.5q37 18 70 41v682h143v-635l15 -231h-136l-8 76q-53 -37 -114 -60q-96 -37 -189 -36q-86 0 -140 21.5t-86 62t-43 103t-11 142.5zM231 1071v152h143v-152h-143zM565 1071v152h141 v-152h-141z" />
<glyph unicode="&#xfd;" horiz-adv-x="825" d="M12 866h158l250 -688h16l232 688h147l-332 -921q-29 -80 -58.5 -147.5t-70.5 -118t-101 -78t-153 -27.5q-23 0 -44 2t-38 8l19 109l29 -4q14 -2 32 -2q70 0 108 24.5t60 57.5q12 16 24.5 42.5t25 56.5t23.5 61.5t19 58.5zM356 993l222 299h161l-241 -299h-142z" />
<glyph unicode="&#xfe;" horiz-adv-x="940" d="M119 0v1288l143 21v-496q47 31 94 47q70 27 156 27q184 0 270 -115t86 -326q0 -102 -22.5 -188t-72.5 -147.5t-128.5 -96t-189.5 -34.5q-70 0 -121 16q-45 12 -96 39l-13 -35h-106zM119 406l143 2v-811l-143 -19v828zM262 143q80 -53 178 -53q135 0 207 83t72 273 q0 66 -11.5 125.5t-40 104.5t-75.5 71.5t-121 26.5q-78 0 -137 -33q-37 -20 -72 -49v-549z" />
<glyph unicode="&#xff;" horiz-adv-x="825" d="M12 866h158l250 -688h16l232 688h147l-332 -921q-29 -80 -58.5 -147.5t-70.5 -118t-101 -78t-153 -27.5q-23 0 -44 2t-38 8l19 109l29 -4q14 -2 32 -2q70 0 108 24.5t60 57.5q12 16 24.5 42.5t25 56.5t23.5 61.5t19 58.5zM180 1071v152h143v-152h-143zM514 1071v152h141 v-152h-141z" />
<glyph unicode="&#x100;" horiz-adv-x="1157" d="M14 0l455 1245h213l461 -1245h-160l-133 365h-549l-129 -365h-158zM313 1469v116h527v-116h-527zM342 487h465l-225 639h-17z" />
<glyph unicode="&#x101;" horiz-adv-x="874" d="M66 246q0 80 27.5 130t76.5 79.5t116.5 41t147.5 11.5q53 0 93 -2t91 -6v45q0 63 -9 107t-32.5 71t-64.5 39t-104 12q-74 0 -148 -21.5t-121 -43.5l-35 100q66 31 154 54.5t188 23.5q90 0 150.5 -18.5t97.5 -60.5t52.5 -109.5t15.5 -168.5v-313q0 -66 19.5 -90.5 t62.5 -24.5v-106q-12 -4 -25 -4h-28q-66 0 -100 25.5t-52 72.5q-47 -43 -123 -76.5t-176 -33.5q-78 0 -131 20t-85 56t-45 84t-13 106zM165 1090v116h527v-116h-527zM215 252q0 -84 38 -123t130 -39q63 0 125.5 27.5t109.5 66.5v207q-49 4 -95 7t-101 3q-117 0 -162 -36.5 t-45 -112.5z" />
<glyph unicode="&#x102;" horiz-adv-x="1157" d="M14 0l455 1245h213l461 -1245h-160l-133 365h-549l-129 -365h-158zM293 1669h117q4 -92 40 -147t124 -55t123.5 55t39.5 147h117q0 -145 -67.5 -225t-212.5 -80t-213 79t-68 226zM342 487h465l-225 639h-17z" />
<glyph unicode="&#x103;" horiz-adv-x="874" d="M66 246q0 80 27.5 130t76.5 79.5t116.5 41t147.5 11.5q53 0 93 -2t91 -6v45q0 63 -9 107t-32.5 71t-64.5 39t-104 12q-74 0 -148 -21.5t-121 -43.5l-35 100q66 31 154 54.5t188 23.5q90 0 150.5 -18.5t97.5 -60.5t52.5 -109.5t15.5 -168.5v-313q0 -66 19.5 -90.5 t62.5 -24.5v-106q-12 -4 -25 -4h-28q-66 0 -100 25.5t-52 72.5q-47 -43 -123 -76.5t-176 -33.5q-78 0 -131 20t-85 56t-45 84t-13 106zM135 1292h117q4 -92 40 -147t124 -55t123.5 55t39.5 147h117q0 -145 -67.5 -225t-212.5 -80t-213 79t-68 226zM215 252q0 -84 38 -123 t130 -39q63 0 125.5 27.5t109.5 66.5v207q-49 4 -95 7t-101 3q-117 0 -162 -36.5t-45 -112.5z" />
<glyph unicode="&#x104;" horiz-adv-x="1157" d="M14 0l455 1245h213l461 -1245h-160l-133 365h-549l-129 -365h-158zM342 487h465l-225 639h-17zM791 -246q0 59 28.5 110.5t114.5 108.5q35 23 81 44.5t91 39.5l37 -57q-57 -29 -117 -72q-59 -45 -77.5 -79.5t-18.5 -75.5q0 -88 98 -88q53 0 102 16l27 -94 q-29 -10 -71 -18.5t-87 -8.5q-111 0 -159.5 44t-48.5 130z" />
<glyph unicode="&#x105;" horiz-adv-x="874" d="M66 246q0 80 27.5 130t76.5 79.5t116.5 41t147.5 11.5q53 0 93 -2t91 -6v45q0 63 -9 107t-32.5 71t-64.5 39t-104 12q-74 0 -148 -21.5t-121 -43.5l-35 100q66 31 154 54.5t188 23.5q90 0 150.5 -18.5t97.5 -60.5t52.5 -109.5t15.5 -168.5v-313q0 -66 19.5 -90.5 t62.5 -24.5v-106q-12 -4 -25 -4h-28q-66 0 -100 25.5t-52 72.5q-47 -43 -123 -76.5t-176 -33.5q-78 0 -131 20t-85 56t-45 84t-13 106zM215 252q0 -84 38 -123t130 -39q63 0 125.5 27.5t109.5 66.5v207q-49 4 -95 7t-101 3q-117 0 -162 -36.5t-45 -112.5zM502 -246 q0 59 30.5 111.5t120.5 109.5q35 23 75 42.5t87 39.5l29 -61q-35 -23 -65.5 -41t-55.5 -37q-53 -41 -67.5 -73.5t-14.5 -71.5q0 -88 98 -88q53 0 103 16l26 -94q-29 -10 -70.5 -18.5t-86.5 -8.5q-113 0 -161 44t-48 130z" />
<glyph unicode="&#x106;" horiz-adv-x="1103" d="M80 623q0 168 39 289.5t111.5 199.5t176 116t234.5 38q121 0 223.5 -40t163.5 -116l-88 -86q-53 57 -121.5 89t-173.5 32q-217 0 -315.5 -138.5t-98.5 -402.5q0 -240 92.5 -370t299.5 -130q125 0 214 24t154 50l37 -112q-70 -33 -180.5 -59.5t-231.5 -26.5 q-283 2 -409.5 162.5t-126.5 480.5zM540 1372l222 299h161l-241 -299h-142z" />
<glyph unicode="&#x107;" horiz-adv-x="813" d="M74 420q0 231 111.5 349t324.5 118q82 0 153.5 -28t112.5 -75l-86 -84q-33 35 -79 55.5t-103 20.5q-141 0 -215 -88t-74 -274q0 -72 14.5 -131.5t47 -102.5t85 -66.5t126.5 -23.5q76 0 133 16.5t106 38.5l33 -96q-41 -25 -119 -47t-166 -22q-217 0 -311 114.5t-94 325.5z M342 993l222 299h161l-241 -299h-142z" />
<glyph unicode="&#x108;" horiz-adv-x="1103" d="M80 623q0 168 39 289.5t111.5 199.5t176 116t234.5 38q121 0 223.5 -40t163.5 -116l-88 -86q-53 57 -121.5 89t-173.5 32q-217 0 -315.5 -138.5t-98.5 -402.5q0 -240 92.5 -370t299.5 -130q125 0 214 24t154 50l37 -112q-70 -33 -180.5 -59.5t-231.5 -26.5 q-283 2 -409.5 162.5t-126.5 480.5zM330 1372l202 299h193l205 -299h-136l-155 219h-19l-157 -219h-133z" />
<glyph unicode="&#x109;" horiz-adv-x="813" d="M74 420q0 231 111.5 349t324.5 118q82 0 153.5 -28t112.5 -75l-86 -84q-33 35 -79 55.5t-103 20.5q-141 0 -215 -88t-74 -274q0 -72 14.5 -131.5t47 -102.5t85 -66.5t126.5 -23.5q76 0 133 16.5t106 38.5l33 -96q-41 -25 -119 -47t-166 -22q-217 0 -311 114.5t-94 325.5z M181 993l202 299h193l205 -299h-136l-155 219h-19l-157 -219h-133z" />
<glyph unicode="&#x10a;" horiz-adv-x="1103" d="M80 623q0 168 39 289.5t111.5 199.5t176 116t234.5 38q121 0 223.5 -40t163.5 -116l-88 -86q-53 57 -121.5 89t-173.5 32q-217 0 -315.5 -138.5t-98.5 -402.5q0 -240 92.5 -370t299.5 -130q125 0 214 24t154 50l37 -112q-70 -33 -180.5 -59.5t-231.5 -26.5 q-283 2 -409.5 162.5t-126.5 480.5zM553 1450v152h145v-152h-145z" />
<glyph unicode="&#x10b;" horiz-adv-x="813" d="M74 420q0 231 111.5 349t324.5 118q82 0 153.5 -28t112.5 -75l-86 -84q-33 35 -79 55.5t-103 20.5q-141 0 -215 -88t-74 -274q0 -72 14.5 -131.5t47 -102.5t85 -66.5t126.5 -23.5q76 0 133 16.5t106 38.5l33 -96q-41 -25 -119 -47t-166 -22q-217 0 -311 114.5t-94 325.5z M410 1071v152h145v-152h-145z" />
<glyph unicode="&#x10c;" horiz-adv-x="1103" d="M80 623q0 168 39 289.5t111.5 199.5t176 116t234.5 38q121 0 223.5 -40t163.5 -116l-88 -86q-53 57 -121.5 89t-173.5 32q-217 0 -315.5 -138.5t-98.5 -402.5q0 -240 92.5 -370t299.5 -130q125 0 214 24t154 50l37 -112q-70 -33 -180.5 -59.5t-231.5 -26.5 q-283 2 -409.5 162.5t-126.5 480.5zM332 1671h137l155 -221h19l156 221h133l-203 -299h-193z" />
<glyph unicode="&#x10d;" horiz-adv-x="813" d="M74 420q0 231 111.5 349t324.5 118q82 0 153.5 -28t112.5 -75l-86 -84q-33 35 -79 55.5t-103 20.5q-141 0 -215 -88t-74 -274q0 -72 14.5 -131.5t47 -102.5t85 -66.5t126.5 -23.5q76 0 133 16.5t106 38.5l33 -96q-41 -25 -119 -47t-166 -22q-217 0 -311 114.5t-94 325.5z M185 1292h137l155 -221h19l156 221h133l-203 -299h-193z" />
<glyph unicode="&#x10e;" horiz-adv-x="1173" d="M137 0v1245h352q145 0 258 -33.5t190 -108.5t117 -195t40 -292q0 -176 -48.5 -294.5t-135.5 -190.5t-206.5 -101.5t-263.5 -29.5h-303zM252 1671h137l155 -221h19l156 221h133l-203 -299h-193zM283 121h153q121 0 215 23.5t158.5 83t97.5 159.5t33 254 q0 252 -112.5 367.5t-335.5 115.5h-209v-1003z" />
<glyph unicode="&#x10f;" horiz-adv-x="1181" d="M72 420q0 102 22.5 188t72.5 147.5t129 96.5t189 35q70 0 121 -15q33 -10 72 -28v444l143 21v-1088l15 -221h-125l-17 61q-55 -37 -110 -57q-70 -24 -156 -24q-184 0 -270 115.5t-86 324.5zM219 420q0 -66 11.5 -125t40 -104.5t76.5 -72t122 -26.5q78 0 135 31 q37 20 74 49v551q-80 53 -178 53q-137 0 -209 -83t-72 -273zM940 983l59 317h148l-103 -317h-104z" />
<glyph unicode="&#x110;" horiz-adv-x="1191" d="M29 575v121h567v-121h-567zM154 0v1245h352q145 0 258 -33.5t189.5 -108.5t116.5 -195t40 -292q0 -176 -48 -294.5t-135 -190.5t-207 -101.5t-263 -29.5h-303zM299 121h154q121 0 215 23.5t158.5 83t97 159.5t32.5 254q0 252 -112.5 367.5t-335.5 115.5h-209v-1003z" />
<glyph unicode="&#x111;" horiz-adv-x="944" d="M72 420q0 102 22.5 188t72.5 147.5t129 96.5t189 35q70 0 121 -15q33 -10 72 -28v444l143 21v-1088l15 -221h-125l-17 61q-55 -37 -110 -57q-70 -24 -156 -24q-184 0 -270 115.5t-86 324.5zM219 420q0 -66 11.5 -125t40 -104.5t76.5 -72t122 -26.5q78 0 135 31 q37 20 74 49v551q-80 53 -178 53q-137 0 -209 -83t-72 -273zM418 1018v110h534v-110h-534z" />
<glyph unicode="&#x112;" horiz-adv-x="997" d="M137 0v1245h742v-121h-596v-422h575v-120h-575v-461h616v-121h-762zM247 1469v116h527v-116h-527z" />
<glyph unicode="&#x113;" horiz-adv-x="892" d="M74 438q0 229 98 339t299 110q106 0 175 -32t108 -88t53 -134t14 -168v-68h-600q0 -74 12 -125q16 -66 50 -105.5t87.5 -57t125.5 -17.5q92 0 161.5 23.5t112.5 46.5l37 -99q-23 -14 -58.5 -28.5t-80.5 -26.5t-94.5 -20t-98.5 -8q-113 0 -189.5 28.5t-123.5 85 t-67.5 142.5t-20.5 202zM206 1090v116h527v-116h-527zM221 504h451q0 154 -54.5 214t-146.5 60q-72 0 -120 -20.5t-77.5 -63.5t-42.5 -108q-6 -37 -10 -82z" />
<glyph unicode="&#x116;" horiz-adv-x="997" d="M137 0v1245h742v-121h-596v-422h575v-120h-575v-461h616v-121h-762zM445 1450v152h145v-152h-145z" />
<glyph unicode="&#x117;" horiz-adv-x="892" d="M74 438q0 229 98 339t299 110q106 0 175 -32t108 -88t53 -134t14 -168v-68h-600q0 -74 12 -125q16 -66 50 -105.5t87.5 -57t125.5 -17.5q92 0 161.5 23.5t112.5 46.5l37 -99q-23 -14 -58.5 -28.5t-80.5 -26.5t-94.5 -20t-98.5 -8q-113 0 -189.5 28.5t-123.5 85 t-67.5 142.5t-20.5 202zM221 504h451q0 154 -54.5 214t-146.5 60q-72 0 -120 -20.5t-77.5 -63.5t-42.5 -108q-6 -37 -10 -82zM383 1071v152h145v-152h-145z" />
<glyph unicode="&#x118;" horiz-adv-x="997" d="M137 0v1245h742v-121h-596v-422h575v-120h-575v-461h616v-121h-762zM553 -246q0 59 31 110.5t117 108.5q37 23 77.5 43.5t88.5 40.5l30 -57q-66 -37 -110 -74q-57 -45 -76 -78.5t-19 -74.5q0 -88 99 -88q53 0 102 16l27 -94q-29 -10 -71 -18.5t-87 -8.5q-113 0 -161 44 t-48 130z" />
<glyph unicode="&#x119;" horiz-adv-x="892" d="M74 438q0 229 98 339t299 110q106 0 175 -32t108 -88t53 -134t14 -168v-68h-600q2 -88 19.5 -146t51.5 -94t85 -50.5t119 -14.5q92 0 161.5 24.5t112.5 45.5l37 -99q-59 -29 -109.5 -55t-91.5 -55q-109 -76 -108 -170q0 -43 22.5 -70.5t75.5 -27.5t102 16l27 -94 q-29 -10 -71 -18.5t-87 -8.5q-111 0 -160 45t-49 131q0 74 36 123t102 90q6 6 14 13q-16 -2 -35 -2q-113 0 -189.5 28.5t-123.5 85t-67.5 142.5t-20.5 202zM223 504h449q0 154 -54.5 214t-146.5 60q-131 0 -185.5 -66.5t-62.5 -207.5z" />
<glyph unicode="&#x11a;" horiz-adv-x="997" d="M137 0v1245h742v-121h-596v-422h575v-120h-575v-461h616v-121h-762zM207 1671h137l155 -221h19l156 221h133l-203 -299h-193z" />
<glyph unicode="&#x11b;" horiz-adv-x="892" d="M74 438q0 229 98 339t299 110q106 0 175 -32t108 -88t53 -134t14 -168v-68h-600q0 -74 12 -125q16 -66 50 -105.5t87.5 -57t125.5 -17.5q92 0 161.5 23.5t112.5 46.5l37 -99q-23 -14 -58.5 -28.5t-80.5 -26.5t-94.5 -20t-98.5 -8q-113 0 -189.5 28.5t-123.5 85 t-67.5 142.5t-20.5 202zM160 1292h137l155 -221h19l156 221h133l-203 -299h-193zM221 504h451q0 154 -54.5 214t-146.5 60q-72 0 -120 -20.5t-77.5 -63.5t-42.5 -108q-6 -37 -10 -82z" />
<glyph unicode="&#x11c;" horiz-adv-x="1196" d="M80 623q0 168 40 289.5t114.5 199.5t180 116t238.5 38q129 0 231.5 -40t166.5 -118l-88 -84q-53 55 -125 89t-181 34q-223 0 -324.5 -140.5t-101.5 -402.5q0 -242 96.5 -373t307.5 -131q111 0 190 17q55 12 99 24v373h-312v121h455v-574q-78 -33 -192.5 -57t-245.5 -24 q-287 0 -418 160.5t-131 482.5zM334 1372l202 299h193l205 -299h-136l-155 219h-19l-157 -219h-133z" />
<glyph unicode="&#x11d;" d="M74 418q0 102 22.5 188t71.5 148.5t128 97.5t193 35q68 0 118 -15.5t95 -35.5l11 30h110v-907q0 -106 -28.5 -179t-80.5 -119t-126 -66.5t-162 -20.5q-84 0 -152.5 11.5t-119.5 31.5l36 109q43 -12 101.5 -24.5t132.5 -12.5q55 0 101 11t81 41t54.5 79t19.5 123v104 q-53 -31 -111.5 -49t-130.5 -18q-190 0 -277 113.5t-87 324.5zM187 993l202 299h193l205 -299h-136l-155 219h-19l-157 -219h-133zM221 418q0 -61 11.5 -120.5t40 -106t77.5 -74t127 -27.5q57 0 105.5 18.5t97.5 51.5v569q-37 18 -80 32.5t-94 14.5q-147 0 -216 -85 t-69 -273z" />
<glyph unicode="&#x11e;" horiz-adv-x="1196" d="M80 623q0 168 40 289.5t114.5 199.5t180 116t238.5 38q129 0 231.5 -40t166.5 -118l-88 -84q-53 55 -125 89t-181 34q-223 0 -324.5 -140.5t-101.5 -402.5q0 -242 96.5 -373t307.5 -131q111 0 190 17q55 12 99 24v373h-312v121h455v-574q-78 -33 -192.5 -57t-245.5 -24 q-287 0 -418 160.5t-131 482.5zM346 1669h117q4 -92 40 -147t124 -55t123.5 55t39.5 147h117q0 -145 -67.5 -225t-212.5 -80t-213 79t-68 226z" />
<glyph unicode="&#x11f;" d="M74 418q0 102 22.5 188t71.5 148.5t128 97.5t193 35q68 0 118 -15.5t95 -35.5l11 30h110v-907q0 -106 -28.5 -179t-80.5 -119t-126 -66.5t-162 -20.5q-84 0 -152.5 11.5t-119.5 31.5l36 109q43 -12 101.5 -24.5t132.5 -12.5q55 0 101 11t81 41t54.5 79t19.5 123v104 q-53 -31 -111.5 -49t-130.5 -18q-190 0 -277 113.5t-87 324.5zM190 1292h117q4 -92 40 -147t124 -55t123.5 55t39.5 147h117q0 -145 -67.5 -225t-212.5 -80t-213 79t-68 226zM221 418q0 -61 11.5 -120.5t40 -106t77.5 -74t127 -27.5q57 0 105.5 18.5t97.5 51.5v569 q-37 18 -80 32.5t-94 14.5q-147 0 -216 -85t-69 -273z" />
<glyph unicode="&#x120;" horiz-adv-x="1196" d="M80 623q0 168 40 289.5t114.5 199.5t180 116t238.5 38q129 0 231.5 -40t166.5 -118l-88 -84q-53 55 -125 89t-181 34q-223 0 -324.5 -140.5t-101.5 -402.5q0 -242 96.5 -373t307.5 -131q111 0 190 17q55 12 99 24v373h-312v121h455v-574q-78 -33 -192.5 -57t-245.5 -24 q-287 0 -418 160.5t-131 482.5zM563 1450v152h145v-152h-145z" />
<glyph unicode="&#x121;" d="M74 418q0 102 22.5 188t71.5 148.5t128 97.5t193 35q68 0 118 -15.5t95 -35.5l11 30h110v-907q0 -106 -28.5 -179t-80.5 -119t-126 -66.5t-162 -20.5q-84 0 -152.5 11.5t-119.5 31.5l36 109q43 -12 101.5 -24.5t132.5 -12.5q55 0 101 11t81 41t54.5 79t19.5 123v104 q-53 -31 -111.5 -49t-130.5 -18q-190 0 -277 113.5t-87 324.5zM221 418q0 -61 11.5 -120.5t40 -106t77.5 -74t127 -27.5q57 0 105.5 18.5t97.5 51.5v569q-37 18 -80 32.5t-94 14.5q-147 0 -216 -85t-69 -273zM414 1071v152h145v-152h-145z" />
<glyph unicode="&#x122;" horiz-adv-x="1196" d="M80 623q0 168 40 289.5t114.5 199.5t180 116t238.5 38q129 0 231.5 -40t166.5 -118l-88 -84q-53 55 -125 89t-181 34q-223 0 -324.5 -140.5t-101.5 -402.5q0 -242 96.5 -373t307.5 -131q111 0 190 17q55 12 99 24v373h-312v121h455v-574q-78 -33 -192.5 -57t-245.5 -24 q-287 0 -418 160.5t-131 482.5zM475 -440q59 72 83.5 153.5t24.5 180.5h133q1 -240 -155 -404z" />
<glyph unicode="&#x123;" d="M74 418q0 102 22.5 188t71.5 148.5t128 97.5t193 35q68 0 118 -15.5t95 -35.5l11 30h110v-907q0 -106 -28.5 -179t-80.5 -119t-126 -66.5t-162 -20.5q-84 0 -152.5 11.5t-119.5 31.5l36 109q43 -12 101.5 -24.5t132.5 -12.5q55 0 101 11t81 41t54.5 79t19.5 123v104 q-53 -31 -111.5 -49t-130.5 -18q-190 0 -277 113.5t-87 324.5zM221 418q0 -61 11.5 -120.5t40 -106t77.5 -74t127 -27.5q57 0 105.5 18.5t97.5 51.5v569q-37 18 -80 32.5t-94 14.5q-147 0 -216 -85t-69 -273zM445 966q-1 240 155 404l86 -70q-59 -72 -83.5 -153.5 t-24.5 -180.5h-133z" />
<glyph unicode="&#x124;" horiz-adv-x="1224" d="M137 0v1245h146v-559h657v559h147v-1245h-147v563h-657v-563h-146zM314 1372l202 299h193l205 -299h-136l-155 219h-19l-157 -219h-133z" />
<glyph unicode="&#x125;" horiz-adv-x="944" d="M-102 1386l202 299h193l205 -299h-136l-155 219h-19l-157 -219h-133zM119 0v1288l143 21v-508q45 29 98 49q98 37 191 37q86 0 141.5 -21.5t87 -63.5t44 -103.5t12.5 -141.5v-557h-144v526q0 55 -6 99.5t-24.5 76t-54.5 49t-93 17.5q-49 0 -95 -13.5t-89 -35.5 q-37 -18 -68 -41v-678h-143z" />
<glyph unicode="&#x126;" horiz-adv-x="1236" d="M16 901v115h1205v-115h-1205zM143 0v1245h146v-559h657v559h148v-1245h-148v563h-657v-563h-146z" />
<glyph unicode="&#x127;" horiz-adv-x="944" d="M-8 1018v110h536v-110h-536zM119 0v1288l143 21v-508q45 29 98 49q98 37 191 37q86 0 141.5 -21.5t87 -63.5t44 -103.5t12.5 -141.5v-557h-144v526q0 55 -6 99.5t-24.5 76t-54.5 49t-93 17.5q-49 0 -95 -13.5t-89 -35.5q-37 -18 -68 -41v-678h-143z" />
<glyph unicode="&#x128;" horiz-adv-x="419" d="M-89 1538q35 31 84.5 53.5t102.5 22.5q39 0 68.5 -9t56 -21.5t52.5 -21.5t56 -9q41 0 76 14t68 35l45 -90q-39 -33 -86 -53.5t-105 -20.5q-37 0 -67.5 9t-57 21.5t-52 21.5t-56.5 9q-39 0 -73 -15t-64 -36zM137 0v1245h146v-1245h-146z" />
<glyph unicode="&#x129;" horiz-adv-x="382" d="M-51 1169q31 27 66.5 43.5t80.5 16.5q35 0 59.5 -7.5t45 -16.5t40 -16t48.5 -7q39 0 63.5 9t53.5 30l32 -99q-35 -29 -70.5 -43t-82.5 -14q-35 0 -59.5 7t-45 16.5t-41 16.5t-47.5 7q-39 0 -62.5 -10t-49.5 -31zM119 0v866h143v-866h-143z" />
<glyph unicode="&#x12a;" horiz-adv-x="419" d="M-48 1469v116h527v-116h-527zM137 0v1245h146v-1245h-146z" />
<glyph unicode="&#x12b;" horiz-adv-x="382" d="M-25 1090v116h433v-116h-433zM119 0v866h143v-866h-143z" />
<glyph unicode="&#x12e;" horiz-adv-x="419" d="M-70 -248q0 59 31 111.5t117 109.5q35 23 79 44.5t89 39.5l37 -57q-57 -29 -117 -72q-59 -45 -77.5 -79.5t-18.5 -75.5q0 -88 98 -88q53 0 102 16l27 -94q-29 -10 -71 -18.5t-87 -8.5q-111 0 -160 44t-49 128zM137 0v1245h146v-1245h-146z" />
<glyph unicode="&#x12f;" horiz-adv-x="382" d="M-82 -246q0 59 28.5 110.5t114.5 108.5q33 23 78 43l90 41l33 -57q-31 -16 -60.5 -34.5t-51.5 -37.5q-55 -43 -75 -78.5t-20 -76.5q0 -88 99 -88q53 0 102 16l27 -94q-29 -10 -71 -18.5t-87 -8.5q-111 0 -159 44t-48 130zM117 1071v152h145v-152h-145zM119 0v866h143 v-866h-143z" />
<glyph unicode="&#x130;" horiz-adv-x="419" d="M137 0v1245h146v-1245h-146zM141 1450v152h145v-152h-145z" />
<glyph unicode="&#x131;" horiz-adv-x="382" d="M119 0v866h143v-866h-143z" />
<glyph unicode="&#x134;" horiz-adv-x="630" d="M14 14l23 115q29 -10 62.5 -14t66.5 -4q92 0 140 47t48 178v909h146v-887q0 -197 -75 -282.5t-249 -85.5q-43 0 -85 6t-77 18zM134 1372l202 299h193l205 -299h-136l-155 219h-19l-157 -219h-133z" />
<glyph unicode="&#x135;" horiz-adv-x="382" d="M-78 995l174 299h191l176 -299h-131l-131 222h-19l-133 -222h-127zM-49 -303h12q49 0 80 9t48.5 32.5t22.5 64.5t5 103v960h143v-921q0 -90 -10 -159t-41 -114t-89.5 -67.5t-152.5 -22.5h-18v115z" />
<glyph unicode="&#x136;" horiz-adv-x="1042" d="M137 0v1245h146v-561h106l483 561h168l-526 -614l498 -631h-178l-445 565h-106v-565h-146zM344 -436q59 72 83.5 153.5t24.5 180.5h133q1 -240 -155 -404z" />
<glyph unicode="&#x137;" horiz-adv-x="868" d="M119 0v1288l141 21v-781h88l334 338h166l-385 -395l399 -471h-168l-348 414h-86v-414h-141zM267 -436q59 72 83.5 153.5t24.5 180.5h133q1 -240 -155 -404z" />
<glyph unicode="&#x138;" horiz-adv-x="870" d="M119 0v866h143v-360h90l332 360h166l-387 -415l399 -451h-168l-346 393h-86v-393h-143z" />
<glyph unicode="&#x139;" horiz-adv-x="858" d="M135 0v1245h146v-1124h581v-121h-727zM163 1372l222 299h161l-241 -299h-142z" />
<glyph unicode="&#x13a;" horiz-adv-x="395" d="M119 219v1069l141 21v-1088q0 -78 19.5 -98.5t68.5 -20.5v-108q-6 -2 -16 -2q-10 -2 -35 -2q-102 0 -140 59.5t-38 169.5zM123 1423l222 299h161l-241 -299h-142z" />
<glyph unicode="&#x13b;" horiz-adv-x="864" d="M137 0v1245h146v-1124h581v-121h-727zM293 -440q59 72 83.5 153.5t24.5 180.5h133q1 -240 -155 -404z" />
<glyph unicode="&#x13c;" horiz-adv-x="395" d="M56 -438q59 72 83.5 153.5t24.5 180.5h133q1 -240 -155 -404zM119 219v1069l141 21v-1088q0 -78 19.5 -98.5t68.5 -20.5v-108q-6 -2 -16 -2q-10 -2 -35 -2q-102 0 -140 59.5t-38 169.5z" />
<glyph unicode="&#x13d;" horiz-adv-x="858" d="M131 0v1245h145v-1124h582v-121h-727zM395 983l62 317h155l-104 -317h-113z" />
<glyph unicode="&#x13e;" horiz-adv-x="620" d="M119 219v1069l141 21v-1088q0 -78 19.5 -98.5t68.5 -20.5v-108q-6 -2 -16 -2q-10 -2 -35 -2q-102 0 -140 59.5t-38 169.5zM381 983l61 317h148l-103 -317h-106z" />
<glyph unicode="&#x141;" horiz-adv-x="856" d="M2 422v129l524 346v-131zM129 0v1245h145v-1124h582v-121h-727z" />
<glyph unicode="&#x142;" horiz-adv-x="446" d="M-6 410v129l471 335v-131zM131 219v1069l141 21v-1088q0 -78 19.5 -98.5t68.5 -20.5v-108q-6 -2 -16 -2q-10 -2 -35 -2q-102 0 -140 59.5t-38 169.5z" />
<glyph unicode="&#x143;" horiz-adv-x="1271" d="M137 0v1245h258l578 -1126h16v1126h146v-1245h-258l-578 1126h-16v-1126h-146zM553 1372l222 299h161l-241 -299h-142z" />
<glyph unicode="&#x144;" horiz-adv-x="944" d="M104 866h134l6 -78q53 37 116 62q98 37 191 37q86 0 141.5 -21.5t87 -62.5t44 -103.5t12.5 -142.5v-557h-144v526q0 55 -6 99.5t-24.5 77t-54.5 50t-93 17.5q-49 0 -95 -13.5t-89 -35.5q-37 -18 -68 -41v-680h-143v635zM350 993l222 299h161l-241 -299h-142z" />
<glyph unicode="&#x145;" horiz-adv-x="1271" d="M137 0v1245h258l578 -1126h16v1126h146v-1245h-258l-578 1126h-16v-1126h-146zM465 -436q59 72 83.5 153.5t24.5 180.5h133q1 -240 -155 -404z" />
<glyph unicode="&#x146;" horiz-adv-x="944" d="M104 866h134l6 -78q53 37 116 62q98 37 191 37q86 0 141.5 -21.5t87 -62.5t44 -103.5t12.5 -142.5v-557h-144v526q0 55 -6 99.5t-24.5 77t-54.5 50t-93 17.5q-49 0 -95 -13.5t-89 -35.5q-37 -18 -68 -41v-680h-143v635zM312 -436q59 72 83.5 153.5t24.5 180.5h133 q1 -240 -155 -404z" />
<glyph unicode="&#x147;" horiz-adv-x="1271" d="M137 0v1245h258l578 -1126h16v1126h146v-1245h-258l-578 1126h-16v-1126h-146zM351 1671h137l155 -221h19l156 221h133l-203 -299h-193z" />
<glyph unicode="&#x148;" horiz-adv-x="944" d="M104 866h134l6 -78q53 37 116 62q98 37 191 37q86 0 141.5 -21.5t87 -62.5t44 -103.5t12.5 -142.5v-557h-144v526q0 55 -6 99.5t-24.5 77t-54.5 50t-93 17.5q-49 0 -95 -13.5t-89 -35.5q-37 -18 -68 -41v-680h-143v635zM175 1292h137l155 -221h19l156 221h133l-203 -299 h-193z" />
<glyph unicode="&#x14a;" horiz-adv-x="1271" d="M137 0v1245h258l578 -1126h16v1126h146v-1245h-258l-578 1126h-16v-1126h-146zM807 -303h14q49 0 82 9t51.5 32.5t26.5 64.5t8 103v719h146v-680q0 -90 -11.5 -159t-44 -114t-94 -67.5t-160.5 -22.5h-18v115z" />
<glyph unicode="&#x14b;" horiz-adv-x="944" d="M104 866h134l6 -78q53 37 116 62q98 37 191 37q86 0 141.5 -21.5t87 -63.5t44 -103.5t12.5 -141.5v-612q0 -90 -10.5 -159t-42 -114t-90 -67.5t-152.5 -22.5h-19v115h15q49 0 79.5 9t47 32.5t22.5 64.5t6 103v620q0 55 -6 99.5t-24.5 76t-54.5 49t-93 17.5 q-49 0 -95 -13.5t-89 -35.5q-37 -18 -68 -41v-678h-143v635z" />
<glyph unicode="&#x14c;" horiz-adv-x="1208" d="M80 629q0 326 133 481.5t414 155.5q139 0 235 -44t155.5 -128t85 -204t25.5 -274q0 -324 -134 -480t-414 -156q-141 0 -236.5 44t-154 128t-84 204.5t-25.5 272.5zM229 608q0 -106 15.5 -199.5t54.5 -162t106.5 -107.5t169.5 -39q117 0 194 35t123 102.5t65.5 169 t19.5 234.5q0 104 -15.5 196.5t-54.5 161t-106.5 108.5t-171.5 40q-115 0 -191 -35t-123 -102.5t-66.5 -169t-19.5 -232.5zM342 1469v116h527v-116h-527z" />
<glyph unicode="&#x14d;" horiz-adv-x="956" d="M74 436q0 229 102.5 340t321.5 111q111 0 184.5 -32t117.5 -90t63.5 -144t19.5 -193q0 -229 -103.5 -338.5t-322.5 -109.5q-111 0 -184.5 31.5t-117.5 90t-62.5 143.5t-18.5 191zM219 422q0 -70 10.5 -130.5t37 -105.5t72.5 -70.5t118 -25.5q160 0 219 89t59 265 q0 68 -10 129.5t-36.5 106.5t-73 71.5t-117.5 26.5q-160 0 -219.5 -91t-59.5 -265zM227 1090v116h527v-116h-527z" />
<glyph unicode="&#x150;" horiz-adv-x="1208" d="M80 629q0 326 133 481.5t414 155.5q139 0 235 -44t155.5 -128t85 -204t25.5 -274q0 -324 -134 -480t-414 -156q-141 0 -236.5 44t-154 128t-84 204.5t-25.5 272.5zM229 608q0 -106 15.5 -199.5t54.5 -162t106.5 -107.5t169.5 -39q117 0 194 35t123 102.5t65.5 169 t19.5 234.5q0 104 -15.5 196.5t-54.5 161t-106.5 108.5t-171.5 40q-115 0 -191 -35t-123 -102.5t-66.5 -169t-19.5 -232.5zM331 1372l224 299h153l-241 -299h-136zM688 1372l221 299h154l-240 -299h-135z" />
<glyph unicode="&#x151;" horiz-adv-x="956" d="M74 436q0 229 102.5 340t321.5 111q111 0 184.5 -32t117.5 -90t63.5 -144t19.5 -193q0 -229 -103.5 -338.5t-322.5 -109.5q-111 0 -184.5 31.5t-117.5 90t-62.5 143.5t-18.5 191zM219 422q0 -70 10.5 -130.5t37 -105.5t72.5 -70.5t118 -25.5q160 0 219 89t59 265 q0 68 -10 129.5t-36.5 106.5t-73 71.5t-117.5 26.5q-160 0 -219.5 -91t-59.5 -265zM219 993l224 299h153l-241 -299h-136zM576 993l221 299h154l-240 -299h-135z" />
<glyph unicode="&#x152;" horiz-adv-x="1835" d="M80 629q0 326 133 481.5t414 155.5q137 0 230 -44t149.5 -127t80 -203t23.5 -274q0 -324 -127 -481t-403 -157q-141 0 -236.5 44t-154 128t-84 204.5t-25.5 272.5zM229 608q0 -106 15.5 -199.5t54.5 -162t106.5 -107.5t169.5 -39q117 0 194 35t123 102.5t65.5 169 t19.5 234.5q0 104 -15.5 196.5t-54.5 161t-106.5 108.5t-171.5 40q-115 0 -191 -35t-123 -102.5t-66.5 -169t-19.5 -232.5z" />
<glyph unicode="&#x153;" horiz-adv-x="1556" d="M74 436q0 229 102.5 340t321.5 111q174 0 270 -107q23 -27 41 -61q16 31 35 53q94 115 289 115q106 0 174.5 -32t107.5 -88t53.5 -134t14.5 -168v-68h-600q0 -74 14 -125q16 -66 50 -105.5t86 -57t124 -17.5q92 0 162 23.5t115 46.5l36 -99q-23 -14 -59.5 -28.5 t-80.5 -26.5t-94 -20t-99 -8q-213 0 -299 108q-20 27 -37 59q-14 -27 -33 -49q-94 -119 -311 -118q-111 0 -184.5 31.5t-117.5 90t-62.5 143.5t-18.5 191zM219 422q0 -70 10.5 -130.5t37 -105.5t72.5 -70.5t118 -25.5q160 0 219 89t59 265q0 68 -10 129.5t-36.5 106.5 t-73 71.5t-117.5 26.5q-160 0 -219.5 -91t-59.5 -265zM885 504h450q0 154 -55 214t-147 60q-72 0 -120 -20.5t-78 -63.5t-42 -108q-6 -37 -8 -82z" />
<glyph unicode="&#x154;" horiz-adv-x="1075" d="M137 0v1245h428q207 0 311.5 -83t104.5 -271q0 -160 -84 -246q-61 -66 -158 -96l273 -549h-160l-258 526h-311v-526h-146zM283 647h288q121 0 189.5 54.5t68.5 189.5q0 121 -65.5 177t-192.5 56h-288v-477zM415 1372l222 299h161l-241 -299h-142z" />
<glyph unicode="&#x155;" horiz-adv-x="643" d="M102 866h131l15 -118q55 63 117 94q86 45 174 45q70 0 114 -23l-39 -121q-41 18 -100 19q-78 0 -149 -47q-51 -35 -99 -88v-627h-143v629zM235 993l222 299h161l-241 -299h-142z" />
<glyph unicode="&#x156;" horiz-adv-x="1075" d="M137 0v1245h428q207 0 311.5 -83t104.5 -271q0 -160 -84 -246q-61 -66 -158 -96l273 -549h-160l-258 526h-311v-526h-146zM283 647h288q121 0 189.5 54.5t68.5 189.5q0 121 -65.5 177t-192.5 56h-288v-477zM365 -440q59 72 83.5 153.5t24.5 180.5h133q1 -240 -155 -404z " />
<glyph unicode="&#x157;" horiz-adv-x="643" d="M23 -440q59 72 83.5 153.5t24.5 180.5h133q1 -240 -155 -404zM102 866h131l15 -118q55 63 117 94q86 45 174 45q70 0 114 -23l-39 -121q-41 18 -100 19q-78 0 -149 -47q-51 -35 -99 -88v-627h-143v629z" />
<glyph unicode="&#x158;" horiz-adv-x="1075" d="M137 0v1245h428q207 0 311.5 -83t104.5 -271q0 -160 -84 -246q-61 -66 -158 -96l273 -549h-160l-258 526h-311v-526h-146zM209 1671h137l155 -221h19l156 221h133l-203 -299h-193zM283 647h288q121 0 189.5 54.5t68.5 189.5q0 121 -65.5 177t-192.5 56h-288v-477z" />
<glyph unicode="&#x159;" horiz-adv-x="643" d="M43 1292h137l155 -221h19l156 221h133l-203 -299h-193zM102 866h131l15 -118q55 63 117 94q86 45 174 45q70 0 114 -23l-39 -121q-41 18 -100 19q-78 0 -149 -47q-51 -35 -99 -88v-627h-143v629z" />
<glyph unicode="&#x15a;" horiz-adv-x="983" d="M72 63l55 117q84 -39 163 -58.5t171 -19.5q154 0 229.5 54.5t75.5 146.5q0 121 -117 180q-39 18 -88 38t-100 40.5t-101.5 41t-91.5 42.5q-88 47 -136 111.5t-48 183.5q0 82 34 143.5t93 102.5t140 60.5t173 19.5q207 0 363 -76l-51 -115q-53 25 -133 47.5t-177 22.5 q-139 0 -217 -51.5t-78 -143.5q0 -61 29 -105t94 -79q35 -18 81 -36.5t96.5 -37t99.5 -39t92 -43.5q39 -23 73.5 -47t60.5 -59t40 -81t14 -108q0 -84 -33.5 -147.5t-93 -105.5t-141.5 -62t-178 -20q-104 0 -207.5 21.5t-185.5 61.5zM419 1372l222 299h161l-241 -299h-142z " />
<glyph unicode="&#x15b;" horiz-adv-x="794" d="M63 39l48 108q45 -25 112.5 -40t145.5 -15q43 0 83 4t70.5 18.5t49 39t18.5 65.5q0 82 -107 121q-59 27 -127.5 48.5t-122.5 45.5q-70 27 -112.5 73t-42.5 132q0 70 30.5 118t81 76.5t113 41t125.5 12.5q98 0 170 -16.5t119 -34.5l-45 -109q-51 23 -111.5 36t-136.5 13 q-115 0 -161 -35.5t-46 -83.5q0 -43 22.5 -68t75.5 -48q43 -23 113 -45.5t133 -49.5q74 -29 122 -76.5t48 -140.5q0 -129 -95 -189t-269 -60q-84 0 -165 16t-139 43zM311 993l222 299h161l-241 -299h-142z" />
<glyph unicode="&#x15c;" horiz-adv-x="983" d="M72 63l55 117q84 -39 163 -58.5t171 -19.5q154 0 229.5 54.5t75.5 146.5q0 121 -117 180q-39 18 -88 38t-100 40.5t-101.5 41t-91.5 42.5q-88 47 -136 111.5t-48 183.5q0 82 34 143.5t93 102.5t140 60.5t173 19.5q207 0 363 -76l-51 -115q-53 25 -133 47.5t-177 22.5 q-139 0 -217 -51.5t-78 -143.5q0 -61 29 -105t94 -79q35 -18 81 -36.5t96.5 -37t99.5 -39t92 -43.5q39 -23 73.5 -47t60.5 -59t40 -81t14 -108q0 -84 -33.5 -147.5t-93 -105.5t-141.5 -62t-178 -20q-104 0 -207.5 21.5t-185.5 61.5zM209 1372l202 299h193l205 -299h-136 l-155 219h-19l-157 -219h-133z" />
<glyph unicode="&#x15d;" horiz-adv-x="794" d="M63 39l48 108q45 -25 112.5 -40t145.5 -15q43 0 83 4t70.5 18.5t49 39t18.5 65.5q0 82 -107 121q-59 27 -127.5 48.5t-122.5 45.5q-70 27 -112.5 73t-42.5 132q0 70 30.5 118t81 76.5t113 41t125.5 12.5q98 0 170 -16.5t119 -34.5l-45 -109q-51 23 -111.5 36t-136.5 13 q-115 0 -161 -35.5t-46 -83.5q0 -43 22.5 -68t75.5 -48q43 -23 113 -45.5t133 -49.5q74 -29 122 -76.5t48 -140.5q0 -129 -95 -189t-269 -60q-84 0 -165 16t-139 43zM123 993l202 299h193l205 -299h-136l-155 219h-19l-157 -219h-133z" />
<glyph unicode="&#x15e;" horiz-adv-x="983" d="M72 63l55 117q84 -39 163 -58.5t171 -19.5q154 0 229.5 54.5t75.5 146.5q0 121 -117 180q-39 18 -88 38t-100 40.5t-101.5 41t-91.5 42.5q-88 47 -136 111.5t-48 183.5q0 82 34 143.5t93 102.5t140 60.5t173 19.5q207 0 363 -76l-51 -115q-53 25 -133 47.5t-177 22.5 q-139 0 -217 -51.5t-78 -143.5q0 -61 29 -105t94 -79q35 -18 81 -36.5t96.5 -37t99.5 -39t92 -43.5q39 -23 73.5 -47t60.5 -59t40 -81t14 -108q0 -84 -33.5 -147.5t-93 -105.5t-141.5 -62t-178 -20q-104 0 -207.5 21.5t-185.5 61.5zM273 -391l34 92q31 -10 65 -17.5t69 -7.5 q66 0 95.5 17.5t29.5 60.5q0 49 -44.5 68.5t-158.5 25.5l35 91q160 -4 231.5 -46.5t71.5 -138.5q0 -92 -58.5 -136t-187.5 -44q-55 0 -102.5 9t-79.5 26z" />
<glyph unicode="&#x15f;" horiz-adv-x="794" d="M63 39l48 108q45 -25 112.5 -40t145.5 -15q43 0 83 4t70.5 18.5t49 39t18.5 65.5q0 82 -107 121q-59 27 -127.5 48.5t-122.5 45.5q-70 27 -112.5 73t-42.5 132q0 70 30.5 118t81 76.5t113 41t125.5 12.5q98 0 170 -16.5t119 -34.5l-45 -109q-51 23 -111.5 36t-136.5 13 q-115 0 -161 -35.5t-46 -83.5q0 -43 22.5 -68t75.5 -48q43 -23 113 -45.5t133 -49.5q74 -29 122 -76.5t48 -140.5q0 -129 -95 -189t-269 -60q-84 0 -165 16t-139 43zM187 -391l34 92q31 -10 65 -17.5t69 -7.5q66 0 95.5 17.5t29.5 60.5q0 49 -44.5 68.5t-158.5 25.5l35 91 q160 -4 231.5 -46.5t71.5 -138.5q0 -92 -58.5 -136t-187.5 -44q-55 0 -102.5 9t-79.5 26z" />
<glyph unicode="&#x160;" horiz-adv-x="983" d="M72 63l55 117q84 -39 163 -58.5t171 -19.5q154 0 229.5 54.5t75.5 146.5q0 121 -117 180q-39 18 -88 38t-100 40.5t-101.5 41t-91.5 42.5q-88 47 -136 111.5t-48 183.5q0 82 34 143.5t93 102.5t140 60.5t173 19.5q207 0 363 -76l-51 -115q-53 25 -133 47.5t-177 22.5 q-139 0 -217 -51.5t-78 -143.5q0 -61 29 -105t94 -79q35 -18 81 -36.5t96.5 -37t99.5 -39t92 -43.5q39 -23 73.5 -47t60.5 -59t40 -81t14 -108q0 -84 -33.5 -147.5t-93 -105.5t-141.5 -62t-178 -20q-104 0 -207.5 21.5t-185.5 61.5zM201 1671h137l155 -221h19l156 221h133 l-203 -299h-193z" />
<glyph unicode="&#x161;" horiz-adv-x="794" d="M63 39l48 108q45 -25 112.5 -40t145.5 -15q43 0 83 4t70.5 18.5t49 39t18.5 65.5q0 82 -107 121q-59 27 -127.5 48.5t-122.5 45.5q-70 27 -112.5 73t-42.5 132q0 70 30.5 118t81 76.5t113 41t125.5 12.5q98 0 170 -16.5t119 -34.5l-45 -109q-51 23 -111.5 36t-136.5 13 q-115 0 -161 -35.5t-46 -83.5q0 -43 22.5 -68t75.5 -48q43 -23 113 -45.5t133 -49.5q74 -29 122 -76.5t48 -140.5q0 -129 -95 -189t-269 -60q-84 0 -165 16t-139 43zM103 1292h137l155 -221h19l156 221h133l-203 -299h-193z" />
<glyph unicode="&#x162;" horiz-adv-x="931" d="M0 1124v121h932v-121h-393v-1124h-146v1124h-393zM248 -391l34 92q31 -10 65 -17.5t69 -7.5q66 0 95.5 17.5t29.5 60.5q0 49 -44.5 68.5t-158.5 25.5l35 91q160 -4 231.5 -46.5t71.5 -138.5q0 -92 -58.5 -136t-187.5 -44q-55 0 -102.5 9t-79.5 26z" />
<glyph unicode="&#x163;" horiz-adv-x="688" d="M23 750v100l147 16v181l141 24v-205h328v-114h-328v-426q0 -55 5.5 -98.5t21.5 -73t50 -44t91 -14.5q80 0 156 29l27 -100q-53 -23 -111.5 -34t-116.5 -11q-84 0 -135 22.5t-80 62t-39 94t-10 117.5v474h-147zM174 -391l34 92q31 -10 65 -17.5t69 -7.5q66 0 95.5 17.5 t29.5 60.5q0 49 -44.5 68.5t-158.5 25.5l35 91q160 -4 231.5 -46.5t71.5 -138.5q0 -92 -58.5 -136t-187.5 -44q-55 0 -102.5 9t-79.5 26z" />
<glyph unicode="&#x164;" horiz-adv-x="972" d="M20 1124v121h932v-121h-393v-1124h-146v1124h-393zM191 1671h137l155 -221h19l156 221h133l-203 -299h-193z" />
<glyph unicode="&#x165;" horiz-adv-x="688" d="M23 750v100l147 16v181l141 24v-205h328v-114h-328v-426q0 -55 5.5 -98.5t21.5 -73t50 -44t91 -14.5q80 0 156 29l27 -100q-53 -23 -111.5 -34t-116.5 -11q-84 0 -135 22.5t-80 62t-39 94t-10 117.5v474h-147zM434 983l62 317h149l-104 -317h-107z" />
<glyph unicode="&#x166;" horiz-adv-x="931" d="M0 1124v121h932v-121h-393v-1124h-146v1124h-393zM66 582v120h800v-120h-800z" />
<glyph unicode="&#x167;" horiz-adv-x="688" d="M23 750v100l147 16v181l141 24v-205h328v-114h-328v-426q0 -55 5.5 -98.5t21.5 -73t50 -44t91 -14.5q80 0 156 29l27 -100q-53 -23 -111.5 -34t-116.5 -11q-84 0 -135 22.5t-80 62t-39 94t-10 117.5v474h-147zM27 410v112h604v-112h-604z" />
<glyph unicode="&#x168;" horiz-adv-x="1173" d="M125 477v768h145v-799q0 -164 66.5 -256t232.5 -92q94 0 158 20.5t102.5 66.5t56 118t17.5 176v766h146v-780q0 -258 -120 -371.5t-358 -113.5q-231 0 -338.5 117.5t-107.5 379.5zM276 1538q35 31 84.5 53.5t102.5 22.5q39 0 68.5 -9t56 -21.5t52.5 -21.5t56 -9 q41 0 76 14t68 35l45 -90q-39 -33 -86 -53.5t-105 -20.5q-37 0 -67.5 9t-57 21.5t-52 21.5t-56.5 9q-39 0 -73 -15t-64 -36z" />
<glyph unicode="&#x169;" d="M111 309v557h141v-526q0 -55 6 -100t24.5 -77t53.5 -49.5t92 -17.5q49 0 95 13.5t87 33.5q37 18 70 41v682h143v-635l15 -231h-136l-8 76q-53 -37 -114 -60q-96 -37 -189 -36q-86 0 -140 21.5t-86 62t-43 103t-11 142.5zM172 1159q35 31 84.5 53.5t102.5 22.5 q39 0 68.5 -9t56 -21.5t52.5 -21.5t56 -9q41 0 76 14t68 35l45 -90q-39 -33 -86 -53.5t-105 -20.5q-37 0 -67.5 9t-57 21.5t-52 21.5t-56.5 9q-39 0 -73 -15t-64 -36z" />
<glyph unicode="&#x16a;" horiz-adv-x="1173" d="M125 477v768h145v-799q0 -164 66.5 -256t232.5 -92q94 0 158 20.5t102.5 66.5t56 118t17.5 176v766h146v-780q0 -258 -120 -371.5t-358 -113.5q-231 0 -338.5 117.5t-107.5 379.5zM321 1469v116h527v-116h-527z" />
<glyph unicode="&#x16b;" d="M111 309v557h141v-526q0 -55 6 -100t24.5 -77t53.5 -49.5t92 -17.5q49 0 95 13.5t87 33.5q37 18 70 41v682h143v-635l15 -231h-136l-8 76q-53 -37 -114 -60q-96 -37 -189 -36q-86 0 -140 21.5t-86 62t-43 103t-11 142.5zM208 1090v116h527v-116h-527z" />
<glyph unicode="&#x16c;" horiz-adv-x="1173" d="M125 477v768h145v-799q0 -164 66.5 -256t232.5 -92q94 0 158 20.5t102.5 66.5t56 118t17.5 176v766h146v-780q0 -258 -120 -371.5t-358 -113.5q-231 0 -338.5 117.5t-107.5 379.5zM303 1669h117q4 -92 40 -147t124 -55t123.5 55t39.5 147h117q0 -145 -67.5 -225 t-212.5 -80t-213 79t-68 226z" />
<glyph unicode="&#x16d;" d="M111 309v557h141v-526q0 -55 6 -100t24.5 -77t53.5 -49.5t92 -17.5q49 0 95 13.5t87 33.5q37 18 70 41v682h143v-635l15 -231h-136l-8 76q-53 -37 -114 -60q-96 -37 -189 -36q-86 0 -140 21.5t-86 62t-43 103t-11 142.5zM182 1292h117q4 -92 40 -147t124 -55t123.5 55 t39.5 147h117q0 -145 -67.5 -225t-212.5 -80t-213 79t-68 226z" />
<glyph unicode="&#x16e;" horiz-adv-x="1173" d="M125 477v768h145v-799q0 -164 66.5 -256t232.5 -92q94 0 158 20.5t102.5 66.5t56 118t17.5 176v766h146v-780q0 -258 -120 -371.5t-358 -113.5q-231 0 -338.5 117.5t-107.5 379.5zM399 1523q0 86 49 132.5t148 46.5q100 0 140 -51.5t40 -129.5q0 -86 -50.5 -131 t-146.5 -45q-100 0 -140 50.5t-40 127.5zM499 1521q0 -39 17.5 -61.5t64.5 -22.5q51 0 71.5 20.5t20.5 67.5q0 37 -16 60.5t-66 23.5q-49 0 -70.5 -21.5t-21.5 -66.5z" />
<glyph unicode="&#x16f;" d="M111 309v557h141v-526q0 -55 6 -100t24.5 -77t53.5 -49.5t92 -17.5q49 0 95 13.5t87 33.5q37 18 70 41v682h143v-635l15 -231h-136l-8 76q-53 -37 -114 -60q-96 -37 -189 -36q-86 0 -140 21.5t-86 62t-43 103t-11 142.5zM283 1167q0 86 49 132.5t148 46.5 q100 0 140 -51.5t40 -129.5q0 -86 -50.5 -131t-146.5 -45q-100 0 -140 50.5t-40 127.5zM383 1165q0 -39 17.5 -61.5t64.5 -22.5q51 0 71.5 20.5t20.5 67.5q0 37 -16 60.5t-66 23.5q-49 0 -70.5 -21.5t-21.5 -66.5z" />
<glyph unicode="&#x170;" horiz-adv-x="1173" d="M125 477v768h145v-799q0 -164 66.5 -256t232.5 -92q94 0 158 20.5t102.5 66.5t56 118t17.5 176v766h146v-780q0 -258 -120 -371.5t-358 -113.5q-231 0 -338.5 117.5t-107.5 379.5zM299 1372l224 299h153l-241 -299h-136zM656 1372l221 299h154l-240 -299h-135z" />
<glyph unicode="&#x171;" d="M111 309v557h141v-526q0 -55 6 -100t24.5 -77t53.5 -49.5t92 -17.5q49 0 95 13.5t87 33.5q37 18 70 41v682h143v-635l15 -231h-136l-8 76q-53 -37 -114 -60q-96 -37 -189 -36q-86 0 -140 21.5t-86 62t-43 103t-11 142.5zM206 993l224 299h153l-241 -299h-136zM563 993 l221 299h154l-240 -299h-135z" />
<glyph unicode="&#x172;" horiz-adv-x="1173" d="M125 477v768h145v-799q0 -164 66.5 -256t232.5 -92q94 0 158 20.5t102.5 66.5t56 118t17.5 176v766h146v-780q0 -258 -120 -371.5t-358 -113.5q-231 0 -338.5 117.5t-107.5 379.5zM442 -244q0 63 34 114.5t120 109.5q31 23 74 43t86 38l84 -26q-35 -23 -81 -45.5 t-87 -52.5q-53 -45 -71.5 -81t-18.5 -77t22.5 -67.5t75.5 -26.5t102 16l27 -94q-29 -10 -71 -18.5t-87 -8.5q-111 0 -160 45t-49 131z" />
<glyph unicode="&#x173;" d="M111 309v557h141v-526q0 -55 6 -100t24.5 -77t53.5 -49.5t92 -17.5q49 0 95 13.5t87 33.5q37 18 70 41v682h143v-635l15 -231h-136l-8 76q-53 -37 -114 -60q-96 -37 -189 -36q-86 0 -140 21.5t-86 62t-43 103t-11 142.5zM493 -246q0 59 31 110.5t117 108.5 q37 23 77.5 43.5t88.5 40.5l30 -57q-66 -37 -110 -74q-57 -45 -76 -78.5t-19 -74.5q0 -88 99 -88q53 0 102 16l27 -94q-29 -10 -71 -18.5t-87 -8.5q-113 0 -161 44t-48 130z" />
<glyph unicode="&#x178;" horiz-adv-x="1034" d="M-2 1245h174l338 -561h16l340 561h170l-446 -706v-539h-146v539zM279 1440v152h143v-152h-143zM613 1440v152h141v-152h-141z" />
<glyph unicode="&#x179;" horiz-adv-x="1009" d="M41 0v98l727 1028h-680v119h858v-98l-725 -1026h723v-121h-903zM448 1372l222 299h161l-241 -299h-142z" />
<glyph unicode="&#x17a;" horiz-adv-x="833" d="M51 0v94l551 658h-528v114h704v-94l-549 -657h553v-115h-731zM340 993l222 299h161l-241 -299h-142z" />
<glyph unicode="&#x17b;" horiz-adv-x="1009" d="M41 0v98l727 1028h-680v119h858v-98l-725 -1026h723v-121h-903zM445 1440v152h145v-152h-145z" />
<glyph unicode="&#x17c;" horiz-adv-x="833" d="M51 0v94l551 658h-528v114h704v-94l-549 -657h553v-115h-731zM363 1071v152h145v-152h-145z" />
<glyph unicode="&#x17d;" horiz-adv-x="1009" d="M41 0v98l727 1028h-680v119h858v-98l-725 -1026h723v-121h-903zM240 1671h137l155 -221h19l156 221h133l-203 -299h-193z" />
<glyph unicode="&#x17e;" horiz-adv-x="833" d="M51 0v94l551 658h-528v114h704v-94l-549 -657h553v-115h-731zM129 1292h137l155 -221h19l156 221h133l-203 -299h-193z" />
<glyph unicode="&#x192;" horiz-adv-x="712" d="M-113 -401l25 112q55 -16 115 -16q86 0 124.5 50t38.5 179v647h-133v113h133v272q0 96 23 161t64.5 104t99 55t129.5 16q47 0 96 -9t86 -21l-33 -109q-66 23 -143 23q-102 0 -140 -55.5t-38 -174.5v-262h309v-113h-309v-657q0 -184 -76 -260t-225 -76q-39 0 -77 5t-69 16 z" />
<glyph unicode="&#x218;" horiz-adv-x="983" d="M72 63l55 117q84 -39 163 -58.5t171 -19.5q154 0 229.5 54.5t75.5 146.5q0 121 -117 180q-39 18 -88 38t-100 40.5t-101.5 41t-91.5 42.5q-88 47 -136 111.5t-48 183.5q0 82 34 143.5t93 102.5t140 60.5t173 19.5q207 0 363 -76l-51 -115q-53 25 -133 47.5t-177 22.5 q-139 0 -217 -51.5t-78 -143.5q0 -61 29 -105t94 -79q35 -18 81 -36.5t96.5 -37t99.5 -39t92 -43.5q39 -23 73.5 -47t60.5 -59t40 -81t14 -108q0 -84 -33.5 -147.5t-93 -105.5t-141.5 -62t-178 -20q-104 0 -207.5 21.5t-185.5 61.5zM340 -440q59 72 83.5 153.5t24.5 180.5 h133q1 -240 -155 -404z" />
<glyph unicode="&#x219;" horiz-adv-x="794" d="M63 39l48 108q45 -25 112.5 -40t145.5 -15q43 0 83 4t70.5 18.5t49 39t18.5 65.5q0 82 -107 121q-59 27 -127.5 48.5t-122.5 45.5q-70 27 -112.5 73t-42.5 132q0 70 30.5 118t81 76.5t113 41t125.5 12.5q98 0 170 -16.5t119 -34.5l-45 -109q-51 23 -111.5 36t-136.5 13 q-115 0 -161 -35.5t-46 -83.5q0 -43 22.5 -68t75.5 -48q43 -23 113 -45.5t133 -49.5q74 -29 122 -76.5t48 -140.5q0 -129 -95 -189t-269 -60q-84 0 -165 16t-139 43zM250 -440q59 72 83.5 153.5t24.5 180.5h133q1 -240 -155 -404z" />
<glyph unicode="&#x21a;" horiz-adv-x="931" d="M0 1124v121h932v-121h-393v-1124h-146v1124h-393zM289 -436q59 72 83.5 153.5t24.5 180.5h133q1 -240 -155 -404z" />
<glyph unicode="&#x21b;" horiz-adv-x="688" d="M23 750v100l147 16v181l141 24v-205h328v-114h-328v-426q0 -55 5.5 -98.5t21.5 -73t50 -44t91 -14.5q80 0 156 29l27 -100q-53 -23 -111.5 -34t-116.5 -11q-84 0 -135 22.5t-80 62t-39 94t-10 117.5v474h-147zM219 -440q59 72 83.5 153.5t24.5 180.5h133 q1 -240 -155 -404z" />
<glyph unicode="&#x2c6;" horiz-adv-x="991" d="M195 993l202 299h193l205 -299h-136l-155 219h-19l-157 -219h-133z" />
<glyph unicode="&#x2c7;" horiz-adv-x="991" d="M195 1292h137l155 -221h19l156 221h133l-203 -299h-193z" />
<glyph unicode="&#x2d8;" horiz-adv-x="991" d="M215 1292h117q4 -92 40 -147t124 -55t123.5 55t39.5 147h117q0 -145 -67.5 -225t-212.5 -80t-213 79t-68 226z" />
<glyph unicode="&#x2d9;" horiz-adv-x="991" d="M422 1071v152h145v-152h-145z" />
<glyph unicode="&#x2da;" horiz-adv-x="991" d="M297 1167q0 86 49 132.5t148 46.5q100 0 140 -51.5t40 -129.5q0 -86 -50.5 -131t-146.5 -45q-100 0 -140 50.5t-40 127.5zM397 1165q0 -39 17.5 -61.5t64.5 -22.5q51 0 71.5 20.5t20.5 67.5q0 37 -16 60.5t-66 23.5q-49 0 -70.5 -21.5t-21.5 -66.5z" />
<glyph unicode="&#x2db;" horiz-adv-x="843" d="M221 -246q0 59 31 110.5t117 108.5q37 23 77.5 43.5t88.5 40.5l30 -57q-66 -37 -110 -74q-57 -45 -76 -78.5t-19 -74.5q0 -88 99 -88q53 0 102 16l27 -94q-29 -10 -71 -18.5t-87 -8.5q-113 0 -161 44t-48 130z" />
<glyph unicode="&#x2dc;" horiz-adv-x="991" d="M190 1159q35 31 84.5 53.5t102.5 22.5q39 0 68.5 -9t56 -21.5t52.5 -21.5t56 -9q41 0 76 14t68 35l45 -90q-39 -33 -86 -53.5t-105 -20.5q-37 0 -67.5 9t-57 21.5t-52 21.5t-56.5 9q-39 0 -73 -15t-64 -36z" />
<glyph unicode="&#x2dd;" horiz-adv-x="991" d="M104 993l224 299h153l-241 -299h-136zM461 993l221 299h154l-240 -299h-135z" />
<glyph unicode="&#x401;" horiz-adv-x="997" d="M137 0v1245h742v-121h-596v-422h575v-120h-575v-461h616v-121h-762zM264 1440v152h143v-152h-143zM598 1440v152h141v-152h-141z" />
<glyph unicode="&#x402;" horiz-adv-x="1292" d="M0 1124v121h926v-121h-391v-413q72 25 154.5 41t178.5 16q170 0 266.5 -96.5t96.5 -290.5q0 -188 -94.5 -294.5t-311.5 -106.5q-49 0 -98 7t-90 23l25 115q31 -10 67.5 -18.5t83.5 -8.5q147 0 209.5 78t62.5 195q0 147 -68.5 210.5t-180.5 63.5q-88 0 -171 -18.5 t-130 -34.5v-592h-146v1124h-389z" />
<glyph unicode="&#x403;" horiz-adv-x="905" d="M137 0v1245h754v-121h-608v-1124h-146zM426 1374l222 299h161l-241 -299h-142z" />
<glyph unicode="&#x404;" horiz-adv-x="1103" d="M80 623q0 168 39 289.5t111.5 199.5t176 116t234.5 38q121 0 223.5 -40t163.5 -116l-88 -86q-53 57 -121.5 89t-173.5 32q-199 0 -297 -115t-115 -334h555v-116h-557q4 -225 97.5 -350.5t294.5 -125.5q125 0 214 24t154 50l37 -112q-70 -33 -180.5 -59.5t-231.5 -26.5 q-283 2 -409.5 162.5t-126.5 480.5z" />
<glyph unicode="&#x405;" horiz-adv-x="983" d="M72 63l55 117q84 -39 163 -58.5t171 -19.5q154 0 229.5 54.5t75.5 146.5q0 121 -117 180q-39 18 -88 38t-100 40.5t-101.5 41t-91.5 42.5q-88 47 -136 111.5t-48 183.5q0 82 34 143.5t93 102.5t140 60.5t173 19.5q207 0 363 -76l-51 -115q-53 25 -133 47.5t-177 22.5 q-139 0 -217 -51.5t-78 -143.5q0 -61 29 -105t94 -79q35 -18 81 -36.5t96.5 -37t99.5 -39t92 -43.5q39 -23 73.5 -47t60.5 -59t40 -81t14 -108q0 -84 -33.5 -147.5t-93 -105.5t-141.5 -62t-178 -20q-104 0 -207.5 21.5t-185.5 61.5z" />
<glyph unicode="&#x406;" horiz-adv-x="419" d="M137 0v1245h146v-1245h-146z" />
<glyph unicode="&#x407;" horiz-adv-x="419" d="M-25 1450v152h143v-152h-143zM137 0v1245h146v-1245h-146zM309 1450v152h141v-152h-141z" />
<glyph unicode="&#x408;" horiz-adv-x="630" d="M14 14l23 115q29 -10 62.5 -14t66.5 -4q92 0 140 47t48 178v909h146v-887q0 -197 -75 -282.5t-249 -85.5q-43 0 -85 6t-77 18z" />
<glyph unicode="&#x409;" horiz-adv-x="1773" d="M-8 6l12 129q23 -4 36 -7t36 -3q63 0 103 74.5t63.5 218t34 352.5t16.5 475h735v-493h295q186 0 292.5 -91.5t106.5 -277.5q0 -199 -108.5 -291t-290.5 -92h-440v1124h-451q-2 -61 -5 -143t-7 -172t-12.5 -185.5t-20.5 -187.5q-16 -109 -37.5 -192.5t-55.5 -140t-83 -85 t-117 -28.5q-23 0 -51.5 3t-50.5 13zM1028 121h283q53 0 100 14.5t83 45t57.5 80.5t21.5 122q0 66 -21.5 113t-57.5 76.5t-84 44t-99 14.5h-283v-510z" />
<glyph unicode="&#x40a;" horiz-adv-x="1810" d="M137 0v1245h146v-506h637v-123h-637v-616h-146zM920 0v1245h147v-506h307q180 0 283.5 -91t103.5 -271q0 -195 -106.5 -286t-288.5 -91h-446zM1067 121h289q51 0 98 13t83 44t56.5 80t20.5 119q0 63 -20.5 109t-56.5 75t-83 43t-98 14h-289v-497z" />
<glyph unicode="&#x40b;" horiz-adv-x="1329" d="M0 1124v121h926v-121h-391v-413q72 25 154.5 41t178.5 16q164 0 263.5 -80t99.5 -260v-428h-146v379q0 147 -68.5 206.5t-180.5 59.5q-88 0 -171 -18.5t-130 -34.5v-592h-146v1124h-389z" />
<glyph unicode="&#x40c;" horiz-adv-x="1034" d="M137 0v1245h146v-561h106l463 561h168l-502 -612l494 -633h-178l-445 565h-106v-565h-146zM467 1374l222 299h161l-241 -299h-142z" />
<glyph unicode="&#x40e;" horiz-adv-x="1015" d="M10 1245h164l346 -782h15l317 782h154l-414 -975q-29 -68 -58.5 -121t-67.5 -87.5t-89 -53t-125 -18.5q-39 0 -78 7t-63 19l22 119q33 -10 57.5 -14t51.5 -4q90 0 135 44t74 132zM258 1669h117q4 -92 40 -147t124 -55t123.5 55t39.5 147h117q0 -145 -67.5 -225 t-212.5 -80t-213 79t-68 226z" />
<glyph unicode="&#x40f;" horiz-adv-x="1208" d="M137 0v1245h146v-1124h643v1124h145v-1245h-401v-291h-131v291h-402z" />
<glyph unicode="&#x410;" horiz-adv-x="1157" d="M14 0l455 1245h213l461 -1245h-160l-133 365h-549l-129 -365h-158zM342 487h465l-225 639h-17z" />
<glyph unicode="&#x411;" horiz-adv-x="1069" d="M137 0v1245h778v-121h-634v-370h325q186 0 290.5 -92.5t104.5 -276.5q0 -199 -107.5 -292t-311.5 -93h-445zM281 121h305q57 0 105 14.5t84 45t56.5 80.5t20.5 124q0 66 -20.5 113t-56.5 76.5t-84 44t-105 14.5h-305v-512z" />
<glyph unicode="&#x412;" horiz-adv-x="1077" d="M137 0v1245h436q174 0 281 -71.5t107 -235.5q0 -109 -50.5 -176t-144.5 -98q104 -29 167.5 -103t63.5 -211q0 -94 -32.5 -160.5t-89 -108.5t-130 -61.5t-153.5 -19.5h-455zM281 121h288q51 0 101.5 9t89.5 34.5t62.5 71t23.5 116.5q0 68 -19.5 113t-54.5 72.5t-83 40 t-105 12.5h-303v-469zM281 707h292q119 0 176.5 55t57.5 153q0 63 -18.5 104.5t-52.5 64t-79 31.5t-98 9h-278v-417z" />
<glyph unicode="&#x413;" horiz-adv-x="905" d="M137 0v1245h754v-121h-608v-1124h-146z" />
<glyph unicode="&#x414;" horiz-adv-x="1228" d="M-6 121h123q43 98 73.5 210.5t50 249t29 300t13.5 364.5h751v-1124h158v-402h-133v281h-932v-281h-133v402zM266 121h625v1003h-471q-10 -287 -41 -541.5t-113 -461.5z" />
<glyph unicode="&#x415;" horiz-adv-x="997" d="M137 0v1245h742v-121h-596v-422h575v-120h-575v-461h616v-121h-762z" />
<glyph unicode="&#x416;" horiz-adv-x="1574" d="M27 1245h163l412 -563h115v563h141v-563h117l411 563h162l-452 -612l444 -633h-172l-395 569h-115v-569h-141v569h-119l-395 -569h-168l442 631z" />
<glyph unicode="&#x417;" horiz-adv-x="1044" d="M51 66l41 112q72 -29 172.5 -52.5t214.5 -23.5q147 0 236.5 60.5t89.5 189.5q0 66 -25.5 111t-71.5 73.5t-107.5 42t-131.5 13.5h-162v117h88q59 0 126 6t122 29.5t92 67.5t37 122q0 115 -80 164t-209 49q-115 0 -189.5 -35t-125.5 -88l-90 86q59 72 165.5 114t254.5 42 q203 0 315.5 -81t112.5 -231q0 -61 -19.5 -108t-51.5 -83t-72 -59.5t-81 -37.5q57 -16 105.5 -41t82.5 -63t53.5 -91t19.5 -127q0 -92 -36 -160.5t-100.5 -113.5t-155 -67.5t-196.5 -22.5q-115 0 -229.5 23.5t-194.5 62.5z" />
<glyph unicode="&#x418;" horiz-adv-x="1257" d="M137 0v1245h146v-1126h16l578 1126h243v-1245h-145v1126h-17l-577 -1126h-244z" />
<glyph unicode="&#x419;" horiz-adv-x="1257" d="M137 0v1245h146v-1126h16l578 1126h243v-1245h-145v1126h-17l-577 -1126h-244zM362 1669h117q4 -92 40 -147t124 -55t123.5 55t39.5 147h117q0 -145 -67.5 -225t-212.5 -80t-213 79t-68 226z" />
<glyph unicode="&#x41a;" horiz-adv-x="1034" d="M137 0v1245h146v-561h106l463 561h168l-502 -612l494 -633h-178l-445 565h-106v-565h-146z" />
<glyph unicode="&#x41b;" horiz-adv-x="1185" d="M-8 6l12 129q23 -4 36 -7t36 -3q63 0 103 74.5t63.5 218t34 351.5t16.5 476h756v-1245h-146v1124h-471q-2 -61 -5 -143t-7 -172t-12.5 -185.5t-20.5 -187.5q-16 -109 -37.5 -192.5t-55.5 -140t-83 -85t-117 -28.5q-23 0 -51.5 3t-50.5 13z" />
<glyph unicode="&#x41c;" horiz-adv-x="1507" d="M137 0v1245h269l352 -1126h16l336 1126h260v-1245h-145v1126h-17l-344 -1126h-202l-365 1126h-14v-1126h-146z" />
<glyph unicode="&#x41d;" horiz-adv-x="1224" d="M137 0v1245h146v-559h657v559h147v-1245h-147v563h-657v-563h-146z" />
<glyph unicode="&#x41e;" horiz-adv-x="1208" d="M80 629q0 326 133 481.5t414 155.5q139 0 235 -44t155.5 -128t85 -204t25.5 -274q0 -324 -134 -480t-414 -156q-141 0 -236.5 44t-154 128t-84 204.5t-25.5 272.5zM229 608q0 -106 15.5 -199.5t54.5 -162t106.5 -107.5t169.5 -39q117 0 194 35t123 102.5t65.5 169 t19.5 234.5q0 104 -15.5 196.5t-54.5 161t-106.5 108.5t-171.5 40q-115 0 -191 -35t-123 -102.5t-66.5 -169t-19.5 -232.5z" />
<glyph unicode="&#x41f;" horiz-adv-x="1218" d="M137 0v1245h944v-1245h-147v1124h-651v-1124h-146z" />
<glyph unicode="&#x420;" horiz-adv-x="1040" d="M137 0v1245h418q207 0 312.5 -91t105.5 -275q0 -188 -107.5 -291t-283.5 -103h-299v-485h-146zM283 606h276q121 0 193.5 65.5t72.5 207.5q0 66 -20.5 111.5t-56 75.5t-84 44t-105.5 14h-276v-518z" />
<glyph unicode="&#x421;" horiz-adv-x="1103" d="M80 623q0 168 39 289.5t111.5 199.5t176 116t234.5 38q121 0 223.5 -40t163.5 -116l-88 -86q-53 57 -121.5 89t-173.5 32q-217 0 -315.5 -138.5t-98.5 -402.5q0 -240 92.5 -370t299.5 -130q125 0 214 24t154 50l37 -112q-70 -33 -180.5 -59.5t-231.5 -26.5 q-283 2 -409.5 162.5t-126.5 480.5z" />
<glyph unicode="&#x422;" horiz-adv-x="931" d="M0 1124v121h932v-121h-393v-1124h-146v1124h-393z" />
<glyph unicode="&#x423;" horiz-adv-x="1015" d="M10 1245h164l346 -782h15l317 782h154l-414 -975q-29 -68 -58.5 -121t-67.5 -87.5t-89 -53t-125 -18.5q-39 0 -78 7t-63 19l22 119q33 -10 57.5 -14t51.5 -4q90 0 135 44t74 132z" />
<glyph unicode="&#x424;" horiz-adv-x="1452" d="M66 635q0 127 33.5 217t96 147.5t149.5 84t194 26.5q29 0 57.5 -2t56.5 -6v178h144v-178q31 4 63.5 6t63.5 2q219 0 340.5 -118t121.5 -371q0 -125 -33.5 -213.5t-96 -144.5t-149.5 -81.5t-194 -25.5q-29 0 -58.5 2t-57.5 6v-199h-144v201q-31 -4 -64.5 -7t-64.5 -3 q-221 0 -339.5 115.5t-118.5 363.5zM207 621q0 -174 85 -264.5t253 -90.5q23 0 53.5 2t56.5 6v719q-23 4 -53.5 7.5t-52.5 3.5q-164 0 -253 -90t-89 -293zM795 274q25 -4 54.5 -7t51.5 -3q166 0 254 87t88 288q0 174 -86 268t-256 94q-23 0 -52.5 -2t-53.5 -6v-719z" />
<glyph unicode="&#x425;" horiz-adv-x="1103" d="M25 0l395 641l-371 604h172l311 -530h37l318 530h162l-369 -602l399 -643h-170l-342 569h-37l-335 -569h-170z" />
<glyph unicode="&#x426;" horiz-adv-x="1265" d="M137 0v1245h146v-1124h643v1124h145v-1124h158v-402h-133v281h-959z" />
<glyph unicode="&#x427;" horiz-adv-x="1091" d="M92 834v411h146v-385q0 -150 69.5 -209t190.5 -59q96 0 180 19.5t129 35.5v598h147v-1245h-147v526q-72 -23 -155 -39t-187 -16q-86 0 -154.5 18.5t-117 61.5t-75 112.5t-26.5 170.5z" />
<glyph unicode="&#x428;" horiz-adv-x="1675" d="M137 0v1245h146v-1124h481v1124h145v-1124h484v1124h145v-1245h-1401z" />
<glyph unicode="&#x429;" horiz-adv-x="1732" d="M137 0v1245h146v-1124h481v1124h145v-1124h484v1124h145v-1124h158v-402h-133v281h-1426z" />
<glyph unicode="&#x42a;" horiz-adv-x="1224" d="M-10 1124v121h469v-471h305q193 0 301.5 -93t108.5 -286q0 -207 -109 -301t-301 -94h-451v1124h-323zM459 121h293q57 0 106 14.5t86 46t58.5 83.5t21.5 130q0 70 -21.5 119t-58.5 80t-86 45t-106 14h-293v-532z" />
<glyph unicode="&#x42b;" horiz-adv-x="1433" d="M137 0v1245h146v-471h280q195 0 302.5 -93t107.5 -286q0 -207 -108.5 -301t-301.5 -94h-426zM283 121h270q57 0 106.5 14.5t86 46t58 83.5t21.5 130q0 70 -21.5 119t-58 80t-86 45t-106.5 14h-270v-532zM1151 0v1245h145v-1245h-145z" />
<glyph unicode="&#x42c;" horiz-adv-x="1048" d="M137 0v1245h146v-471h305q193 0 301 -93t108 -286q0 -207 -109.5 -301t-299.5 -94h-451zM283 121h292q57 0 106.5 13t86.5 46t58.5 85t21.5 130q0 70 -21.5 119t-58.5 80t-86 45t-107 14h-292v-532z" />
<glyph unicode="&#x42d;" horiz-adv-x="1091" d="M51 66l39 112q66 -27 160 -51.5t215 -24.5q100 0 174 34t122 95.5t71.5 149.5t27.5 199h-557v116h555q-12 225 -111.5 338t-300.5 113q-104 0 -173.5 -35t-120.5 -88l-89 86q63 76 165 116t223 40q131 0 234 -35t176 -109.5t112 -193.5t39 -287q0 -322 -129 -491.5 t-414 -169.5q-127 0 -238.5 26.5t-179.5 59.5z" />
<glyph unicode="&#x42e;" horiz-adv-x="1611" d="M137 0v1245h146v-559h245q10 297 138.5 438.5t384.5 141.5q131 0 223 -44t149.5 -128t83 -204t25.5 -274q0 -324 -130 -480t-398 -156q-127 0 -215.5 39.5t-144.5 114.5t-84 183.5t-32 245.5h-245v-563h-146zM672 608q0 -109 15 -202t52 -160.5t100.5 -106.5t159.5 -39 q109 0 182.5 34t117.5 101.5t63.5 169t19.5 236.5q0 106 -15 198.5t-52 161t-101.5 107.5t-162.5 39q-106 0 -179 -35t-117 -102.5t-63.5 -168t-19.5 -233.5z" />
<glyph unicode="&#x42f;" horiz-adv-x="1087" d="M47 0l385 494q-147 18 -232 116.5t-85 268.5q0 184 105.5 275t311.5 91h418v-1245h-145v485h-209l-377 -485h-172zM262 879q0 -143 73 -208t193 -65h277v518h-277q-57 0 -105 -14t-84 -44t-56.5 -76t-20.5 -111z" />
<glyph unicode="&#x430;" horiz-adv-x="876" d="M66 246q0 80 27.5 130t76.5 79.5t116.5 41t147.5 11.5q53 0 93 -2t91 -6v45q0 63 -9 107t-32.5 71t-64.5 39t-104 12q-74 0 -148 -21.5t-121 -43.5l-35 100q66 31 154 54.5t188 23.5q90 0 150.5 -18.5t97.5 -60.5t52.5 -109.5t15.5 -168.5v-313q0 -66 19.5 -90.5 t62.5 -24.5v-106q-12 -4 -25 -4h-28q-66 0 -100 25.5t-52 72.5q-47 -43 -123 -76.5t-176 -33.5q-78 0 -131 20t-85 56t-45 84t-13 106zM215 252q0 -84 38 -123t130 -39q63 0 125.5 27.5t109.5 66.5v207q-49 4 -95 7t-101 3q-117 0 -162 -36.5t-45 -112.5z" />
<glyph unicode="&#x431;" horiz-adv-x="968" d="M86 547q0 152 17.5 272.5t64.5 209.5t129 145.5t213 80.5q55 10 98 17.5t78 13.5t62.5 12.5t54.5 12.5l31 -123q-43 -16 -109 -27.5t-150 -25.5q-102 -18 -168.5 -50t-108.5 -84.5t-63.5 -128t-29.5 -180.5q43 96 133 135t199 39q100 0 168.5 -30.5t110.5 -89 t60.5 -141.5t18.5 -187q0 -223 -102.5 -330.5t-323.5 -107.5q-102 0 -174 29.5t-119 97t-68.5 176t-21.5 264.5zM231 414q0 -68 12.5 -126.5t41 -102.5t73.5 -69.5t111 -25.5q160 0 219.5 86t59.5 258q0 63 -10.5 122.5t-36 104t-71.5 71t-120 26.5q-160 0 -219.5 -89 t-59.5 -255z" />
<glyph unicode="&#x432;" horiz-adv-x="903" d="M119 0v866h409q119 0 195 -51t76 -162q0 -78 -38 -124.5t-99 -69.5q33 -10 63.5 -25.5t54 -41t37.5 -63.5t14 -89q0 -63 -23.5 -108.5t-63 -75t-91 -43t-106.5 -13.5h-428zM258 111h246q78 0 130 29.5t52 111.5q0 84 -50 115.5t-138 31.5h-240v-288zM258 502h248 q82 0 116.5 38t34.5 93q0 72 -46 97.5t-126 25.5h-227v-254z" />
<glyph unicode="&#x433;" horiz-adv-x="706" d="M119 0v866h575v-114h-432v-752h-143z" />
<glyph unicode="&#x434;" horiz-adv-x="964" d="M2 115h107q29 70 49 146.5t32.5 166.5t19.5 198.5t11 239.5h592v-751h123v-365h-125v250h-684v-250h-125v365zM248 115h424v637h-324q-6 -176 -26.5 -339t-73.5 -298z" />
<glyph unicode="&#x435;" horiz-adv-x="892" d="M74 438q0 229 98 339t299 110q106 0 175 -32t108 -88t53 -134t14 -168v-68h-600q0 -74 12 -125q16 -66 50 -105.5t87.5 -57t125.5 -17.5q92 0 161.5 23.5t112.5 46.5l37 -99q-23 -14 -58.5 -28.5t-80.5 -26.5t-94.5 -20t-98.5 -8q-113 0 -189.5 28.5t-123.5 85 t-67.5 142.5t-20.5 202zM221 504h451q0 154 -54.5 214t-146.5 60q-72 0 -120 -20.5t-77.5 -63.5t-42.5 -108q-6 -37 -10 -82z" />
<glyph unicode="&#x436;" horiz-adv-x="1300" d="M20 0l353 442l-336 424h160l292 -377h93v377h137v-377h94l293 377h158l-336 -424l354 -442h-168l-303 385h-92v-385h-137v385h-95l-301 -385h-166z" />
<glyph unicode="&#x437;" horiz-adv-x="798" d="M27 45l43 102q49 -23 110.5 -40t153.5 -17q246 0 246 158q0 72 -55.5 105.5t-153.5 33.5h-150v107h139q104 0 148.5 39.5t44.5 97.5q0 72 -54.5 109.5t-133.5 37.5q-78 0 -135.5 -21.5t-98.5 -58.5l-84 82q53 53 134 80t186 27q147 0 237 -56.5t90 -173.5q0 -78 -40 -128 t-105 -72q33 -10 64.5 -24.5t56 -40t40 -62.5t15.5 -90q0 -131 -105.5 -195.5t-275.5 -64.5q-123 0 -198.5 21.5t-118.5 43.5z" />
<glyph unicode="&#x438;" horiz-adv-x="1001" d="M119 0v866h139v-747h14l396 747h215v-866h-140v748h-14l-393 -748h-217z" />
<glyph unicode="&#x439;" horiz-adv-x="1001" d="M119 0v866h139v-747h14l396 747h215v-866h-140v748h-14l-393 -748h-217zM233 1292h117q4 -92 40 -147t124 -55t123.5 55t39.5 147h117q0 -145 -67.5 -225t-212.5 -80t-213 79t-68 226z" />
<glyph unicode="&#x43a;" horiz-adv-x="868" d="M119 0v866h141v-372h86l338 372h160l-381 -424l399 -442h-168l-348 381h-86v-381h-141z" />
<glyph unicode="&#x43b;" horiz-adv-x="921" d="M-4 2l12 115q27 -6 53 -6q41 0 69 41t46.5 132t26.5 234.5t12 347.5h588v-866h-144v752h-315q-8 -170 -19.5 -310.5t-37 -241t-72.5 -155.5t-127 -55q-25 0 -49.5 3t-42.5 9z" />
<glyph unicode="&#x43c;" horiz-adv-x="1269" d="M119 0v866h231l283 -747h14l285 747h219v-866h-139v748h-15l-284 -748h-158l-283 748h-16v-748h-137z" />
<glyph unicode="&#x43d;" horiz-adv-x="940" d="M119 0v866h143v-368h416v368h143v-866h-143v383h-416v-383h-143z" />
<glyph unicode="&#x43e;" horiz-adv-x="956" d="M74 436q0 229 102.5 340t321.5 111q111 0 184.5 -32t117.5 -90t63.5 -144t19.5 -193q0 -229 -103.5 -338.5t-322.5 -109.5q-111 0 -184.5 31.5t-117.5 90t-62.5 143.5t-18.5 191zM219 422q0 -70 10.5 -130.5t37 -105.5t72.5 -70.5t118 -25.5q160 0 219 89t59 265 q0 68 -10 129.5t-36.5 106.5t-73 71.5t-117.5 26.5q-160 0 -219.5 -91t-59.5 -265z" />
<glyph unicode="&#x43f;" horiz-adv-x="935" d="M119 0v866h698v-866h-143v752h-412v-752h-143z" />
<glyph unicode="&#x440;" horiz-adv-x="940" d="M104 866h125l15 -63q55 37 112 57q70 27 156 27q184 0 270 -115t86 -326q0 -102 -22.5 -188t-72.5 -147.5t-129 -96t-189 -34.5q-70 0 -121 16q-35 8 -72 27v-429l-143 -20v1073zM262 143q80 -53 178 -53q135 0 207 83t72 273q0 66 -11.5 125.5t-40 104.5t-75.5 71.5 t-121 26.5q-78 0 -137 -33q-37 -20 -72 -49v-549z" />
<glyph unicode="&#x441;" horiz-adv-x="813" d="M74 420q0 231 111.5 349t324.5 118q82 0 153.5 -28t112.5 -75l-86 -84q-33 35 -79 55.5t-103 20.5q-141 0 -215 -88t-74 -274q0 -72 14.5 -131.5t47 -102.5t85 -66.5t126.5 -23.5q76 0 133 16.5t106 38.5l33 -96q-41 -25 -119 -47t-166 -22q-217 0 -311 114.5t-94 325.5z " />
<glyph unicode="&#x442;" horiz-adv-x="770" d="M33 752v114h704v-114h-280v-752h-144v752h-280z" />
<glyph unicode="&#x443;" horiz-adv-x="825" d="M12 866h158l250 -688h16l232 688h147l-332 -921q-29 -80 -58.5 -147.5t-70.5 -118t-101 -78t-153 -27.5q-23 0 -44 2t-38 8l19 109l29 -4q14 -2 32 -2q70 0 108 24.5t60 57.5q12 16 24.5 42.5t25 56.5t23.5 61.5t19 58.5z" />
<glyph unicode="&#x444;" horiz-adv-x="1308" d="M72 422q0 213 85 339t253 126q37 0 83 -9.5t91 -29.5v440l141 21v-461q47 23 97 31t93 8q160 0 240 -112.5t80 -330.5q0 -215 -84 -339.5t-252 -124.5q-37 0 -83 8t-91 26v-420l-141 -20v440q-45 -16 -95.5 -25t-97.5 -9q-160 0 -239.5 112.5t-79.5 329.5zM217 422 q0 -70 11.5 -131.5t37 -106.5t66.5 -71.5t100 -26.5q41 0 76 7t76 28v622q-35 18 -74 26.5t-74 8.5q-47 0 -88 -19.5t-69.5 -62.5t-45 -110.5t-16.5 -163.5zM723 121q41 -20 76.5 -27.5t70.5 -7.5q96 0 159 83t63 273q0 70 -11.5 131.5t-37 107.5t-67.5 71.5t-102 25.5 q-84 0 -151 -35v-622z" />
<glyph unicode="&#x445;" horiz-adv-x="858" d="M25 0l276 446l-274 420h161l226 -360h28l222 360h155l-268 -420l280 -446h-159l-230 383h-30l-232 -383h-155z" />
<glyph unicode="&#x446;" horiz-adv-x="960" d="M119 0v866h143v-751h404v751h143v-751h123v-365h-125v250h-688z" />
<glyph unicode="&#x447;" horiz-adv-x="872" d="M72 565v301h143v-272q0 -96 46 -136t134 -40q72 0 127.5 14t87.5 25v409h144v-866h-144v350q-49 -16 -114.5 -28.5t-137.5 -12.5q-135 0 -210.5 65.5t-75.5 190.5z" />
<glyph unicode="&#x448;" horiz-adv-x="1316" d="M119 0v866h143v-751h324v751h143v-751h326v751h141v-866h-1077z" />
<glyph unicode="&#x449;" horiz-adv-x="1347" d="M119 0v866h143v-751h324v751h143v-751h326v751h141v-751h123v-365h-123v250h-1077z" />
<glyph unicode="&#x44a;" horiz-adv-x="1019" d="M12 752v114h385v-319h277q61 0 115.5 -16.5t94.5 -49t62.5 -83t22.5 -117.5q0 -141 -82 -211t-223 -70h-408v752h-244zM397 111h252q80 0 125 41t45 129q0 74 -46 114.5t-124 40.5h-252v-325z" />
<glyph unicode="&#x44b;" horiz-adv-x="1216" d="M119 0v866h141v-319h256q63 0 116.5 -16.5t93.5 -49t62.5 -83t22.5 -117.5q0 -141 -82 -211t-223 -70h-387zM260 111h234q78 0 124 41t46 129q0 74 -46.5 114.5t-123.5 40.5h-234v-325zM954 0v866h144v-866h-144z" />
<glyph unicode="&#x44c;" horiz-adv-x="884" d="M119 0v866h141v-319h277q63 0 116.5 -16.5t93 -49t62 -83t22.5 -117.5q0 -141 -81.5 -211t-223.5 -70h-407zM260 111h254q78 0 124 41t46 129q0 74 -46 114.5t-124 40.5h-254v-325z" />
<glyph unicode="&#x44d;" horiz-adv-x="821" d="M27 45l43 100q41 -18 94 -34.5t123 -18.5q31 -2 57.5 1t52.5 7q109 20 155 94t54 191h-403v109h401q-12 150 -85 217t-189 67q-70 0 -123 -22.5t-88 -57.5l-82 82q100 106 305 107q188 0 297 -107.5t109 -339.5q0 -221 -96.5 -340.5t-319.5 -119.5q-115 0 -189.5 21.5 t-115.5 43.5z" />
<glyph unicode="&#x44e;" horiz-adv-x="1292" d="M119 0v866h143v-370h197q20 391 397 391q100 0 170 -32t113 -90t61.5 -144t18.5 -193q0 -229 -99.5 -338.5t-304.5 -109.5q-96 0 -162.5 27.5t-108.5 79.5t-62.5 128t-24.5 172h-195v-387h-143zM598 422q0 -72 9 -132.5t34 -105.5t66.5 -69.5t107.5 -24.5q145 0 202.5 88 t57.5 266q0 70 -10 130.5t-34.5 105.5t-66.5 71.5t-108 26.5q-145 0 -201.5 -91t-56.5 -265z" />
<glyph unicode="&#x44f;" horiz-adv-x="917" d="M35 0l295 330q-106 10 -175 72.5t-69 183.5q0 141 82 210.5t223 69.5h408v-866h-142v319h-172l-286 -319h-164zM233 586q0 -76 47.5 -117t125.5 -41h251v328h-251q-80 0 -126.5 -41t-46.5 -129z" />
<glyph unicode="&#x451;" horiz-adv-x="892" d="M74 438q0 229 98 339t299 110q106 0 175 -32t108 -88t53 -134t14 -168v-68h-600q0 -74 12 -125q16 -66 50 -105.5t87.5 -57t125.5 -17.5q92 0 161.5 23.5t112.5 46.5l37 -99q-23 -14 -58.5 -28.5t-80.5 -26.5t-94.5 -20t-98.5 -8q-113 0 -189.5 28.5t-123.5 85 t-67.5 142.5t-20.5 202zM221 504h451q0 154 -54.5 214t-146.5 60q-72 0 -120 -20.5t-77.5 -63.5t-42.5 -108q-6 -37 -10 -82zM223 1071v152h143v-152h-143zM557 1071v152h141v-152h-141z" />
<glyph unicode="&#x452;" horiz-adv-x="948" d="M-35 1001v97h154v190l143 21v-211h320v-97h-320v-231q66 41 142.5 63.5t146.5 22.5q86 0 141.5 -21.5t87 -63.5t44 -103.5t12.5 -141.5v-589q0 -90 -10.5 -159t-42 -114t-90 -67.5t-152.5 -22.5h-19v115h15q49 0 79.5 9t47 32.5t22.5 64.5t6 103v569q0 57 -4 106.5 t-22.5 86t-54.5 57t-97 20.5q-31 0 -65.5 -6t-68.5 -17.5t-65.5 -27.5t-52.5 -37v-649h-143v1001h-154z" />
<glyph unicode="&#x453;" horiz-adv-x="706" d="M119 0v866h575v-114h-432v-752h-143zM317 993l222 299h161l-241 -299h-142z" />
<glyph unicode="&#x454;" horiz-adv-x="813" d="M74 420q0 233 110.5 350t325.5 117q82 0 153.5 -28t112.5 -75l-86 -84q-33 35 -79 55.5t-103 20.5q-260 0 -291 -282h401v-109h-403q4 -133 67.5 -214t209.5 -81q76 0 133 16.5t106 38.5l33 -96q-41 -25 -119 -47t-166 -22q-217 0 -311 114.5t-94 325.5z" />
<glyph unicode="&#x455;" horiz-adv-x="794" d="M63 39l48 108q45 -25 112.5 -40t145.5 -15q43 0 83 4t70.5 18.5t49 39t18.5 65.5q0 82 -107 121q-59 27 -127.5 48.5t-122.5 45.5q-70 27 -112.5 73t-42.5 132q0 70 30.5 118t81 76.5t113 41t125.5 12.5q98 0 170 -16.5t119 -34.5l-45 -109q-51 23 -111.5 36t-136.5 13 q-115 0 -161 -35.5t-46 -83.5q0 -43 22.5 -68t75.5 -48q43 -23 113 -45.5t133 -49.5q74 -29 122 -76.5t48 -140.5q0 -129 -95 -189t-269 -60q-84 0 -165 16t-139 43z" />
<glyph unicode="&#x456;" horiz-adv-x="382" d="M117 1071v152h145v-152h-145zM119 0v866h143v-866h-143z" />
<glyph unicode="&#x457;" horiz-adv-x="382" d="M-23 1071v152h134v-152h-134zM119 0v866h143v-866h-143zM264 1071v152h133v-152h-133z" />
<glyph unicode="&#x458;" horiz-adv-x="382" d="M-49 -311h12q49 0 80 9t48.5 32.5t22.5 64.5t5 103v968h143v-929q0 -90 -10 -159t-41 -114t-89.5 -67.5t-152.5 -22.5h-18v115zM117 1071v152h145v-152h-145z" />
<glyph unicode="&#x459;" horiz-adv-x="1388" d="M-4 2l12 115q27 -6 53 -6q41 0 69 41t46.5 132t26.5 234.5t12 347.5h569v-319h256q63 0 116.5 -16.5t93.5 -49t62.5 -83t22.5 -117.5q0 -141 -82 -211t-223 -70h-387v752h-299q-8 -170 -19.5 -310.5t-37 -241t-72.5 -155.5t-127 -55q-25 0 -49.5 3t-42.5 9zM784 111h234 q78 0 124 41t46 129q0 74 -46 114.5t-124 40.5h-234v-325z" />
<glyph unicode="&#x45a;" horiz-adv-x="1404" d="M119 0v866h143v-346h400v346h141v-346h264q127 0 207 -64.5t80 -187.5q0 -129 -78 -198.5t-217 -69.5h-397v406h-400v-406h-143zM803 111h244q80 0 119.5 41t39.5 114q0 61 -41 102.5t-118 41.5h-244v-299z" />
<glyph unicode="&#x45b;" horiz-adv-x="944" d="M-35 1001v97h154v190l143 21v-211h320v-97h-320v-231q66 41 142.5 63.5t146.5 22.5q86 0 141.5 -21.5t87 -63.5t44 -103.5t12.5 -141.5v-526h-144v496q0 55 -6 99t-24.5 75.5t-54.5 49t-93 17.5q-66 0 -129 -24.5t-123 -65.5v-647h-143v1001h-154z" />
<glyph unicode="&#x45c;" horiz-adv-x="868" d="M119 0v866h141v-372h86l338 372h160l-381 -424l399 -442h-168l-348 381h-86v-381h-141zM366 993l222 299h161l-241 -299h-142z" />
<glyph unicode="&#x45e;" horiz-adv-x="825" d="M12 866h158l250 -688h16l232 688h147l-332 -921q-29 -80 -58.5 -147.5t-70.5 -118t-101 -78t-153 -27.5q-23 0 -44 2t-38 8l19 109l29 -4q14 -2 32 -2q70 0 108 24.5t60 57.5q12 16 24.5 42.5t25 56.5t23.5 61.5t19 58.5zM162 1292h117q4 -92 40 -147t124 -55t123.5 55 t39.5 147h117q0 -145 -67.5 -225t-212.5 -80t-213 79t-68 226z" />
<glyph unicode="&#x45f;" horiz-adv-x="927" d="M119 0v866h143v-751h404v751h143v-866h-283v-260h-125v260h-282z" />
<glyph unicode="&#x490;" horiz-adv-x="899" d="M137 0v1245h619v262h129v-383h-602v-1124h-146z" />
<glyph unicode="&#x491;" horiz-adv-x="706" d="M119 0v866h450v232h125v-346h-432v-752h-143z" />
<glyph unicode="&#x2000;" horiz-adv-x="861" />
<glyph unicode="&#x2001;" horiz-adv-x="1722" />
<glyph unicode="&#x2002;" horiz-adv-x="861" />
<glyph unicode="&#x2003;" horiz-adv-x="1722" />
<glyph unicode="&#x2004;" horiz-adv-x="574" />
<glyph unicode="&#x2005;" horiz-adv-x="430" />
<glyph unicode="&#x2006;" horiz-adv-x="287" />
<glyph unicode="&#x2007;" horiz-adv-x="287" />
<glyph unicode="&#x2008;" horiz-adv-x="215" />
<glyph unicode="&#x2009;" horiz-adv-x="344" />
<glyph unicode="&#x200a;" horiz-adv-x="95" />
<glyph unicode="&#x2010;" horiz-adv-x="690" d="M111 379v125h471v-125h-471z" />
<glyph unicode="&#x2011;" horiz-adv-x="690" d="M111 379v125h471v-125h-471z" />
<glyph unicode="&#x2012;" horiz-adv-x="690" d="M111 379v125h471v-125h-471z" />
<glyph unicode="&#x2013;" horiz-adv-x="1017" d="M111 387v119h794v-119h-794z" />
<glyph unicode="&#x2014;" horiz-adv-x="1406" d="M80 387v119h1247v-119h-1247z" />
<glyph unicode="&#x2018;" horiz-adv-x="364" d="M108 874q2 143 36 241.5t97 192.5l97 -59q-47 -92 -68.5 -179t-21.5 -196h-140z" />
<glyph unicode="&#x2019;" horiz-adv-x="364" d="M57 922q47 92 68.5 179t21.5 196h140q-2 -143 -36 -241.5t-97 -192.5z" />
<glyph unicode="&#x201a;" horiz-adv-x="339" d="M14 -215q47 92 68.5 179t21.5 196h140q-2 -143 -36 -241.5t-97 -192.5z" />
<glyph unicode="&#x201c;" horiz-adv-x="698" d="M110 874q2 143 36 241.5t97 192.5l97 -59q-47 -92 -68.5 -179t-21.5 -196h-140zM420 874q2 143 36 241.5t97 192.5l97 -59q-47 -92 -68.5 -179t-21.5 -196h-140z" />
<glyph unicode="&#x201d;" horiz-adv-x="698" d="M82 922q47 92 68.5 179t21.5 196h140q-2 -143 -36 -241.5t-97 -192.5zM383 922q47 92 68.5 179t21.5 196h140q-2 -143 -36 -241.5t-97 -192.5z" />
<glyph unicode="&#x201e;" horiz-adv-x="692" d="M82 -215q47 92 68.5 179t21.5 196h140q-2 -143 -36 -241.5t-97 -192.5zM383 -215q47 92 68.5 179t21.5 196h140q-2 -143 -36 -241.5t-97 -192.5z" />
<glyph unicode="&#x2020;" horiz-adv-x="1044" d="M76 674v145l389 -20l-21 446h156l-20 -446l389 20v-145l-389 16l20 -444l-31 -664h-94l-31 664l21 444z" />
<glyph unicode="&#x2021;" horiz-adv-x="1044" d="M76 674v145l389 -20l-21 446h156l-20 -446l389 20v-145l-389 16l12 -278l-12 -277l383 21v-146l-383 19l20 -447h-156l21 447l-385 -19v146l383 -21l-12 277l12 278z" />
<glyph unicode="&#x2022;" horiz-adv-x="532" d="M70 498q0 82 55 137t141 55t141.5 -55t55.5 -137t-55.5 -138.5t-141.5 -56.5t-141 56.5t-55 138.5z" />
<glyph unicode="&#x2026;" horiz-adv-x="1077" d="M90 0v160h164v-160h-164zM457 0v160h166v-160h-166zM825 0v160h164v-160h-164z" />
<glyph unicode="&#x202f;" horiz-adv-x="344" />
<glyph unicode="&#x2039;" horiz-adv-x="538" d="M29 432l311 373l94 -76l-246 -295l244 -293l-94 -80z" />
<glyph unicode="&#x203a;" horiz-adv-x="538" d="M135 137l246 295l-244 293l94 80l309 -371l-311 -373z" />
<glyph unicode="&#x205f;" horiz-adv-x="430" />
<glyph unicode="&#x20a9;" horiz-adv-x="1777" d="M72 424v102h245l-43 179h-202v102h178l-107 438h144l102 -438h311l86 438h209l90 -438h314l98 438h137l-102 -438h180v-102h-203l-41 -179h244v-102h-268l-96 -424h-213l-91 424h-303l-86 -424h-209l-104 424h-270zM414 705l41 -179h190l35 179h-266zM479 424l72 -305h16 l60 305h-148zM762 526h262l-37 179h-190zM817 807h148l-66 319h-16zM1108 705l37 -179h192l39 179h-268zM1167 424l64 -305h16l68 305h-148z" />
<glyph unicode="&#x20ac;" horiz-adv-x="1163" d="M43 459l37 102h147v62v59h-178l37 100h150q29 215 139 330q147 154 409 154q92 0 173 -23.5t143 -66.5l-45 -123q-49 41 -112.5 66.5t-154.5 25.5q-217 0 -315 -139q-61 -86 -84 -224h569l-38 -100h-541q-2 -39 -2 -78v-43h500l-37 -102h-453q20 -135 82 -223 q94 -131 301 -132q86 0 152.5 11.5t126.5 31.5v-129q-66 -16 -137.5 -27t-147.5 -11q-283 2 -410 161q-92 117 -118 318h-193z" />
<glyph unicode="&#x20bd;" horiz-adv-x="1136" d="M51 272v105h185v121h-185v108h185v639h417q207 0 312.5 -91t105.5 -275q0 -182 -102.5 -281.5t-282.5 -99.5h-307v-121h315v-105h-315v-272h-143v272h-185zM379 606h278q121 0 193 63.5t72 204.5q0 68 -20.5 115t-55.5 77t-83 44t-106 14h-278v-518z" />
<glyph unicode="&#x2116;" horiz-adv-x="1937" d="M137 0v1245h256l537 -1126h16v1126h146v-1245h-256l-537 1126h-16v-1126h-146zM1229 940q0 166 74.5 248t234.5 82q80 0 134 -23.5t87 -66.5t47.5 -105.5t14.5 -140.5q0 -168 -76 -248t-236 -80q-80 0 -134 22.5t-87 65.5t-46 104.5t-13 141.5zM1262 383v104h526v-104 h-526zM1348 930q0 -47 7 -89t25.5 -74t49 -50.5t79.5 -18.5q111 0 152 64.5t41 183.5q0 45 -7 87t-25.5 75t-50.5 51.5t-81 18.5q-109 0 -149.5 -65.5t-40.5 -182.5z" />
<glyph unicode="&#x2122;" horiz-adv-x="1423" d="M0 1151v94h522v-94h-200v-549h-121v549h-201zM612 602v643h197l113 -330l49 -176h18l49 176l107 330h192v-643h-112v399l4 146h-19l-163 -522h-136l-71 211l-103 311h-16l4 -146v-399h-113z" />
<glyph unicode="&#x2212;" horiz-adv-x="1064" d="M145 442v121h773v-121h-773z" />
<glyph unicode="&#x25fc;" horiz-adv-x="870" d="M0 0v870h870v-870h-870z" />
<glyph unicode="&#xf6c3;" horiz-adv-x="579" d="M115 -440q59 72 83.5 153.5t24.5 180.5h133q1 -240 -155 -404z" />
</font>
</defs>
</svg>
